<svg id="Layer_1" height="512" viewBox="0 0 512 512" width="512" xmlns="http://www.w3.org/2000/svg" data-name="Layer 1"><path d="m381 401.19v80.53h-250v-94.93a43.708 43.708 0 0 1 43.7-43.71h26.96s50.52 71.38 179.34 58.11z" fill="#f4627a"/><path d="m377.71 370.12a43.728 43.728 0 0 0 -40.41-27.04h-26.96a19.994 19.994 0 0 1 -20-20v-32.59l-.05-.09h-68.58l-.05.09v32.59a19.994 19.994 0 0 1 -20 20s50.52 71.38 179.34 58.11v-14.4a43.584 43.584 0 0 0 -3.29-16.67z" fill="#eac4a9"/><path d="m360.19 48.01a60.486 60.486 0 0 0 -90.19 5.19l28.3 33.05a74.713 74.713 0 0 1 32.49 61.69l.15 67.99h-.15v7.99a74.856 74.856 0 0 1 -40.5 66.48l.05.09v32.59a19.994 19.994 0 0 0 20 20h26.96a43.728 43.728 0 0 1 40.41 27.04l.2-.08v-279.25a60.3 60.3 0 0 0 -17.72-42.78z" fill="#7f3d32"/><path d="m181.85 138.1a74.788 74.788 0 0 1 74.15-64.95q1.77 0 3.51.09a74.746 74.746 0 0 1 71.28 74.7v19.96c-44.62-8.78-48.11-49.18-48.11-49.18-21.31 40.31-72.38 46.7-101.47 48.04v-18.82a76 76 0 0 1 .64-9.84z" fill="#bc5e51"/><path d="m352.94 201.2a14.7 14.7 0 0 1 -22 14.73h-.15v-23.16h.15a12.436 12.436 0 0 1 15.81-1.6 14.622 14.622 0 0 1 6.19 10.03z" fill="#eac4a9"/><path d="m181.21 192.77v23.16h-.31a14.7 14.7 0 0 1 -15.81-24.76 12.436 12.436 0 0 1 15.81 1.6z" fill="#eac4a9"/><path d="m304.05 65.01a17.414 17.414 0 0 0 -12.4-14.62c-5.8-1.67-13.07-1.58-21.65 2.81-1 1.24-1.94 2.53-2.83 3.85a60.154 60.154 0 0 0 -6.34 12.24l-1.32 3.86v.09a74.316 74.316 0 0 1 38.79 13.01l4.71-12.78a17.367 17.367 0 0 0 1.04-8.46z" fill="#9be147"/><path d="m282.68 118.72c-21.31 40.31-72.38 46.7-101.47 48.04v57.16a74.79 74.79 0 1 0 149.58 0v-56.02c-44.62-8.78-48.11-49.18-48.11-49.18z" fill="#ffd8b7"/><path d="m201.74 343.151a.8.8 0 0 1 -.08-.151h-26.96a43.777 43.777 0 0 0 -43.7 43.79v95.21h30v-95.21a43.741 43.741 0 0 1 40.74-43.639z" fill="#b7536a"/><path d="m211 223.92v-60.391a228.183 228.183 0 0 1 -30 3.231v57.16a74.939 74.939 0 0 0 89.921 73.28 74.887 74.887 0 0 1 -59.921-73.28z" fill="#d8b49a"/><g fill="#20344c"><path d="m131 487.718h250a6 6 0 0 0 6-6v-94.932a49.457 49.457 0 0 0 -3.087-17.24v-278.754a66.525 66.525 0 0 0 -128.692-23.642v.014a80.9 80.9 0 0 0 -78.7 66.4 66.825 66.825 0 0 1 -12.8 3.07 6 6 0 0 0 .51 11.978c.168 0 .337-.007.508-.022a65.081 65.081 0 0 0 10.516-2.071c-.008.475-.036.945-.036 1.422v13.042c-2.085.063-4 .106-5.7.143-2.168.048-4.031.089-5.535.153a6 6 0 0 0 .508 11.99c1.439-.061 3.22-.1 5.292-.146 1.637-.036 3.468-.078 5.435-.135v10.341a18.106 18.106 0 0 0 -13.529 2.905 20.551 20.551 0 0 0 -8.718 14.1 20.717 20.717 0 0 0 20.523 23.625c.576 0 1.151-.034 1.724-.082v.038a80.821 80.821 0 0 0 40.456 69.957v29.21a14.016 14.016 0 0 1 -14 14h-26.975a49.76 49.76 0 0 0 -49.7 49.7v94.932a6 6 0 0 0 6 6.004zm44.208-275.952a8.8 8.8 0 0 1 -5.056-.463 8.7 8.7 0 0 1 -1.649-15.2 6.373 6.373 0 0 1 6.705-.161zm142.192-175.484a54.571 54.571 0 0 1 54.509 54.51v260.375a49.526 49.526 0 0 0 -34.609-14.085h-26.964a14.016 14.016 0 0 1 -14-14v-29.21a80.821 80.821 0 0 0 40.456-69.957v-.022c.522.04 1.044.066 1.567.066a20.717 20.717 0 0 0 20.523-23.625 20.548 20.548 0 0 0 -8.717-14.1 18.1 18.1 0 0 0 -13.373-2.927v-8.41q1.4.162 2.838.286c.175.015.347.022.519.022a6 6 0 0 0 .506-11.978c-1.322-.114-2.606-.259-3.863-.425v-14.866a80.686 80.686 0 0 0 -31.556-63.991 5.985 5.985 0 0 0 .617-1.158l2.757-7.162a23.458 23.458 0 0 0 .936-3.065c.877.085 1.779.141 2.716.141 7.514 0 16.782-3.007 24.551-13.2a6 6 0 0 0 -9.546-7.272c-6.837 8.975-14.238 8.983-18.086 8.169a23.316 23.316 0 0 0 -15.866-15.766 32 32 0 0 0 -3.544-.8 54.432 54.432 0 0 1 27.629-7.55zm19.392 175.518v-15.953a6.357 6.357 0 0 1 6.548.252 8.7 8.7 0 0 1 -1.649 15.2 8.816 8.816 0 0 1 -4.899.501zm-64.646-151.4c.551-.818 1.13-1.61 1.72-2.392 5.69-2.66 11.107-3.3 16.111-1.854a11.222 11.222 0 0 1 7 5.865 11.438 11.438 0 0 1 .435 9.3l-2.3 5.962a80.2 80.2 0 0 0 -27.24-9.252 54.581 54.581 0 0 1 4.274-7.629zm-84.938 87.537c0-1.867.1-3.712.243-5.542 12.757-5.151 29.466-14.519 46.4-31.514a6 6 0 1 0 -8.5-8.469 131.445 131.445 0 0 1 -35.176 25.559 68.79 68.79 0 0 1 134.619 19.966v12.257c-32.737-10.268-36-40.547-36.133-41.99a6 6 0 0 0 -11.282-2.287c-18.379 34.764-61.742 42.512-90.171 44.483zm0 75.979v-51.484c27.491-1.8 69.2-8.666 93.061-39.02a65.687 65.687 0 0 0 6.022 12.052c6.342 9.952 17.94 21.83 38.5 27.2v51.248a68.792 68.792 0 1 1 -137.584 0zm40.456 99.167v-23.518a80.647 80.647 0 0 0 56.672 0v23.517a26.029 26.029 0 0 0 26 26h26.964a37.747 37.747 0 0 1 37.7 37.7v8.933c-61.643 5.285-103.731-9.715-128.4-23.48a146.706 146.706 0 0 1 -33.924-25.606 26.03 26.03 0 0 0 14.988-23.547zm-90.664 63.703a37.747 37.747 0 0 1 37.7-37.7h24.034c4.681 5.7 17.834 20.014 41.344 33.257 22.6 12.729 58.85 26.469 110.065 26.469q11.882 0 24.854-1.048v67.958h-36.536a62.533 62.533 0 0 0 -2.248-43.384 6 6 0 0 0 -11.013 4.762 50.453 50.453 0 0 1 .518 38.621h-139.436a50.453 50.453 0 0 1 .518-38.621 6 6 0 1 0 -11.013-4.763 62.533 62.533 0 0 0 -2.248 43.384h-36.539z"/><path d="m277.5 198.377a6 6 0 0 0 6-6 6.9 6.9 0 1 1 13.8 0 6 6 0 0 0 12 0 18.9 18.9 0 1 0 -37.8 0 6 6 0 0 0 6 6z"/><path d="m234.5 198.377a6 6 0 0 0 6-6 18.9 18.9 0 0 0 -37.8 0 6 6 0 0 0 12 0 6.9 6.9 0 0 1 13.8 0 6 6 0 0 0 6 6z"/><path d="m281.752 244.953a6 6 0 0 0 -8.485-8.485 24.449 24.449 0 0 1 -34.534 0 6 6 0 0 0 -8.485 8.485 36.46 36.46 0 0 0 51.5 0z"/><path d="m327.774 75.157a6 6 0 0 0 3.769 7.6c.67.226 16.4 5.738 14.454 23.224a6 6 0 0 0 5.3 6.626 6.084 6.084 0 0 0 .67.037 6 6 0 0 0 5.956-5.338c2.4-21.59-13.7-32.936-22.546-35.92a6 6 0 0 0 -7.603 3.771z"/><path d="m349.814 252.958v71.85a6 6 0 0 0 12 0v-71.85a6 6 0 0 0 -12 0z"/><path d="m314.044 298.883a6 6 0 0 0 -6 6v22.238a6 6 0 0 0 12 0v-22.238a6 6 0 0 0 -6-6z"/><path d="m335.814 276.958a6 6 0 0 0 -6 6v41.85a6 6 0 0 0 12 0v-41.85a6 6 0 0 0 -6-6z"/></g></svg>