<svg id="Layer_1" height="512" viewBox="0 0 512 512" width="512" xmlns="http://www.w3.org/2000/svg" data-name="Layer 1"><path d="m340.605 317.369-9.358-.7-160.057.331c-25.18 0-45.19 20.779-45.19 45.959v57.041h260v-57.041a45.422 45.422 0 0 0 -45.395-45.59z" fill="#e75163"/><path d="m126 420h260v53h-260z" fill="#efcaaf"/><path d="m312.81 376.809-.04-1.59 5.95-17.44-.165-.21-4.555-40.569h-23.74l-.22.105a31.174 31.174 0 0 1 -3.67 7.292c-16.72 29.3-62.26 71.716-89.78 88.546a72.108 72.108 0 0 0 -8.59 6.726v.331h.1a45.774 45.774 0 0 0 -10.26 50.275c.06.15.16.144.16.294v2.431h156v-2.431a59.12 59.12 0 0 0 4.77-21.88z" fill="#60379b"/><g fill="#3c3c49"><path d="m352.69 202.729a46.385 46.385 0 0 1 -19.97 51.01 41.112 41.112 0 0 1 -4.5-7.9 54.094 54.094 0 0 1 -3.39-10.39h-.01a72.317 72.317 0 0 0 3.37-21.89v-18.19h.14a14.257 14.257 0 0 0 12.6.92 14.1 14.1 0 0 0 6.18-4.86l2.64.21z"/><path d="m298.22 70.7c-23.21 60.2-96.02 83.67-132.03 91.77l-1.23-9.51a102.752 102.752 0 0 1 -.83-12.09c-.36-35.2 17.37-68.69 47.88-87.23a100.8 100.8 0 0 1 52.45-14.64 83.606 83.606 0 0 1 83.61 83.61v53.59h-.01a14.226 14.226 0 0 0 -4.39-4.85 11.484 11.484 0 0 0 -3.67-1.68c-58.31-29.461-42.16-97.411-41.78-98.97z"/><path d="m336.61 258.379c6.61 6.86 12.5 14.16 10.96 25.82-1.86 14.13-12.57 19.25-22.48 25.19v-.01c-8.03-8.3-17.05-16.01-15.19-30.14 1.82-13.85 12.16-19.04 21.89-24.85l-.04-.06c.33-.2.65-.39.97-.59a42.862 42.862 0 0 0 3.89 4.64z"/><path d="m331.35 316.669a24.95 24.95 0 0 1 4.86 18.69c-1.54 11.75-9.22 17.27-17.46 22.21-6.68-6.91-12.66-14.22-11.12-25.97a24.335 24.335 0 0 1 6.76-14.23 50.061 50.061 0 0 1 10.7-7.98 62.924 62.924 0 0 1 6.26 7.28z"/><path d="m312.77 375.219a19.389 19.389 0 0 1 12.43 4.12l-.29.37c-.03.94-.04 1.88-.04 2.81 0 2.93.13 5.85.37 8.76a17.157 17.157 0 0 0 6.9 10.03l5.18 3.57a24.738 24.738 0 0 1 9.13 28.97l-1.55 4.151-6.16 10.69-7.27 12.62a36.588 36.588 0 0 0 -19.11-26.49c-46.27-25.44.45-58.01.45-58.01z"/></g><path d="m307.23 359.719a18.791 18.791 0 0 1 11.49-1.94 20.413 20.413 0 0 1 12.12 6.69l.5.55a8.23 8.23 0 0 1 1.9 6.67l-1.34 9c-.3 2.01-2.41 2.82-3.69 1.42a22.31 22.31 0 0 0 -3.01-2.77 19.389 19.389 0 0 0 -12.43-4.12 18.851 18.851 0 0 0 -8.17 2.13 1.989 1.989 0 0 1 -.9.22 2.463 2.463 0 0 1 -2.16-2.99l1.34-9a7.365 7.365 0 0 1 3.72-5.54z" fill="#c79a83"/><path d="m290.19 277.4-69.49-.12-.52 2.08v27.58a30.851 30.851 0 0 0 1.62 9.87 30.493 30.493 0 0 0 24.42 20.58 67.478 67.478 0 0 0 19.56 0 30.213 30.213 0 0 0 18.65-10.36 29.887 29.887 0 0 0 1.94-2.54 70.442 70.442 0 0 0 3.86-7.74c.01-.03.02-.05.03-.08a31.175 31.175 0 0 0 1.56-9.73v-27.58z" fill="#efcaaf"/><path d="m195.44 254.639-.01.01a52.368 52.368 0 0 1 -29.34-47.02v-13.78a14.265 14.265 0 0 0 16 1.84l.17.31v16.85a72.727 72.727 0 0 0 13.18 41.79z" fill="#2b2a3e"/><path d="m349.69 181.069a14.272 14.272 0 0 1 -2.58 10.36 14.1 14.1 0 0 1 -6.18 4.86 14.257 14.257 0 0 1 -12.6-.92h-.14v18.19a72.678 72.678 0 0 1 -107.49 63.72 74.176 74.176 0 0 1 -16.9-12.66 73.424 73.424 0 0 1 -21.54-51.77v-16.849l-.17-.31a14.267 14.267 0 0 1 -14.76-24.36l-1.14-8.86c36.01-8.1 108.82-31.57 132.03-91.77-.38 1.56-16.53 69.51 41.78 98.97a11.484 11.484 0 0 1 3.67 1.68 14.226 14.226 0 0 1 4.39 4.85 14.436 14.436 0 0 1 1.63 4.869z" fill="#ffd8b7"/><path d="m126 420h30v53h-30z" fill="#d1b29d"/><path d="m171.19 317c-25.18 0-45.19 20.779-45.19 45.959v57.041h30v-57.041c0-25.18 20.01-45.959 45.19-45.959z" fill="#bf4b5e"/><path d="m250.7 277.279a74.176 74.176 0 0 1 -16.9-12.66 73.424 73.424 0 0 1 -21.54-51.77v-64.8l-11.789 4.522a296.648 296.648 0 0 1 -34.281 9.9l1.14 8.86a14.267 14.267 0 0 0 14.76 24.36l.17.31v16.85a73.424 73.424 0 0 0 21.54 51.77 74.176 74.176 0 0 0 16.9 12.66 72.946 72.946 0 0 0 49.886 7.32 72.764 72.764 0 0 1 -19.886-7.322z" fill="#d8b398"/><path d="m340.833 311.371-6.343-.475c-.021-.026-.041-.055-.062-.081 8.643-5.3 17.272-12.015 19.091-25.83 1.849-14-5.138-22.953-12.061-30.213a52.13 52.13 0 0 0 17.032-53.58l-2.94-11.092a6.02 6.02 0 0 0 -.552-1.361 19.976 19.976 0 0 0 .594-8.542 14.185 14.185 0 0 0 -1.592-5.358v-52.229a89.682 89.682 0 0 0 -89.575-89.61 106.719 106.719 0 0 0 -55.539 15.513c-30.409 18.478-49.531 51.822-50.7 87.826-3.263.9-6.568 1.727-9.879 2.449a6 6 0 1 0 2.557 11.724c2.549-.555 5.1-1.165 7.626-1.824.138 1.691.3 3.376.517 5.042l.519 4.03c-8.952 1.828-14.574 2.514-14.638 2.522a6 6 0 1 0 1.418 11.916c.269-.032 5.4-.655 13.749-2.3a20.259 20.259 0 0 0 -4.731 10.316 19.572 19.572 0 0 0 4.676 16.062v11.354a58.768 58.768 0 0 0 31.407 51.723 79.885 79.885 0 0 0 22.593 20.958v26.629a24.231 24.231 0 0 0 .447 4.06h-43.257c-28.452 0-51.19 23.514-51.19 51.96v110.04c0 3.314 2.276 6 5.59 6h260.82c3.314 0 5.59-2.686 5.59-6v-110.04a51.479 51.479 0 0 0 -51.167-51.589zm.789-27.954c-.849 6.449-3.886 10.372-8.764 14.007l1.091-7.635a6 6 0 0 0 -11.879-1.7l-1.146 8.028c-3.931-4.883-5.942-9.512-5.074-16.1 1.188-9.054 6.69-13.13 15.575-18.438.286.322.565.65.864.959 7.052 7.324 10.431 12.562 9.333 20.879zm-25.913 24.931c-1.135.826-2.244 1.711-3.316 2.652h-14.839a24.291 24.291 0 0 0 .446-4.06v-27.22a78.942 78.942 0 0 0 6.6-4.729 34.615 34.615 0 0 0 -.65 3.466c-1.817 13.82 4.781 22.543 11.759 29.891zm-6.895 58.125a1.7 1.7 0 0 1 .5-1.083l.661-.335a12.843 12.843 0 0 1 7.844-1.342h.02a14.386 14.386 0 0 1 8.56 4.791l.492.541a2.291 2.291 0 0 1 .413 1.759l-.363 2.433a24.972 24.972 0 0 0 -13.536-4.031c-.262 0-.526 0-.79.013a24.466 24.466 0 0 0 -4.286.489zm17.795-22.744.451-3.442a6 6 0 0 0 -11.9-1.555l-.441 3.378a19.77 19.77 0 0 1 4.007-20.593 32.48 32.48 0 0 1 5.338-4.385c.729.846 1.435 1.722 2.091 2.614a6.017 6.017 0 0 0 .526.738 18.954 18.954 0 0 1 3.579 14.1 18.221 18.221 0 0 1 -3.651 9.145zm20.27-139.463a40.184 40.184 0 0 1 -12.44 40.734c-.249-.507-.489-1.016-.709-1.531a51.307 51.307 0 0 1 -2.8-7.858 78.363 78.363 0 0 0 3.07-22.051v-10.26c1 .029.985.044 1.432.044a20.793 20.793 0 0 0 7.693-1.488 20.3 20.3 0 0 0 2.744-1.351zm-80.179-137.366a6 6 0 0 0 -8.4 1.2 189 189 0 0 1 -87.884 64.4c2.323-30.346 18.948-58.075 44.705-73.727a94.781 94.781 0 0 1 49.304-13.773 77.667 77.667 0 0 1 77.575 77.61v41.362c-22-11.354-35.125-29.9-39-55.16a103.362 103.362 0 0 1 1.034-36.692h-.008a5.986 5.986 0 0 0 -11.456-3.45c-9.625 24.862-29.308 45.8-58.508 62.224-22.044 12.4-45.344 19.869-62.777 24.2l-.375-2.9c-.295-2.295-.5-4.63-.627-6.976a201.016 201.016 0 0 0 97.617-69.918 6 6 0 0 0 -1.2-8.4zm-94.7 140.73v-4.595a18.338 18.338 0 0 0 3.28.3c.269 0 .72-.014.72-.024v9.541a79.039 79.039 0 0 0 2.117 17.836 46.217 46.217 0 0 1 -6.117-23.058zm36.043 52.748a68.44 68.44 0 0 1 -7.815-9.176 66.731 66.731 0 0 1 -12.228-38.352v-15.308a4.967 4.967 0 0 0 -.266-5.176 5.925 5.925 0 0 0 -8.132-2.19c-.087.05-.139.1-.228.147-.04.02-.064.041-.1.062a8.219 8.219 0 0 1 -8.19-.286 6.022 6.022 0 0 0 -2.146-1.961 8.226 8.226 0 0 1 1.813-11.877 6.118 6.118 0 0 1 7.685.867 6 6 0 1 0 8.474-8.5 18.426 18.426 0 0 0 -5.51-3.783c17.165-4.711 38.312-12.111 58.55-23.5 21.41-12.04 38.15-26.445 50.05-43.019a110.533 110.533 0 0 0 1.174 12.307c3.72 24.228 15.379 43.7 33.972 57.039-.36.306-.711.622-1.048.958a6 6 0 1 0 8.47 8.5 6.209 6.209 0 0 1 5.937-1.649 5.454 5.454 0 0 1 1.752.8 8.16 8.16 0 0 1 2.545 2.8 8.477 8.477 0 0 1 .954 2.847 8.318 8.318 0 0 1 -1.516 6 8.089 8.089 0 0 1 -3.538 2.791 8.288 8.288 0 0 1 -7.328-.522 5.96 5.96 0 0 0 -3.063-.822c-.04 0-.078-.006-.118-.006-.071 0-.139.008-.21.011h-.128a6.079 6.079 0 0 0 -5.855 5.99v18.19a66.332 66.332 0 0 1 -3 20.088 65.655 65.655 0 0 1 -12.581 22.868c-.12.13-.212.264-.32.4a66.269 66.269 0 0 1 -50.519 23.244 67.1 67.1 0 0 1 -32.006-8.146 68.181 68.181 0 0 1 -15.531-11.636zm77.957 25.668v20.894a25.35 25.35 0 0 1 -1.3 7.684 65.453 65.453 0 0 1 -3.365 6.652c-.445.641-.944 1.268-1.454 1.866a24.294 24.294 0 0 1 -14.96 8.311 61.572 61.572 0 0 1 -17.829 0 24.5 24.5 0 0 1 -19.7-16.562 24.892 24.892 0 0 1 -1.4-7.951v-20.54a78.789 78.789 0 0 0 60-.355zm-154 76.914c0-21.83 17.355-39.96 39.19-39.96h46.837a35.8 35.8 0 0 0 27.323 20.141 73.448 73.448 0 0 0 10.65.869 72.444 72.444 0 0 0 9.362-.573c-20.362 24.446-50.362 51.217-71.362 64.063v-45.06a6 6 0 0 0 -12 0v51.56h-50zm38.392 104.04h-38.392v-41h43.8a50.513 50.513 0 0 0 -5.408 41zm49.8 0c-.5-10.572 7.444-32.4 56.414-71.1a6 6 0 1 0 -7.441-9.415c-41.134 32.515-61.6 59.562-60.965 80.515h-25.117a39.777 39.777 0 0 1 9.193-43c.05-.049.1-.1.148-.147a40.773 40.773 0 0 1 7.356-5.746c28.429-17.386 74.642-60.865 91.731-90.71a17.667 17.667 0 0 0 2.449-4.4h9.74a32.431 32.431 0 0 0 -2.022 7.82 30.745 30.745 0 0 0 5.549 22.364 25.61 25.61 0 0 0 -2.716 1.186l-.662.336a13.378 13.378 0 0 0 -6.907 9.99l-1.342 9.017a8.784 8.784 0 0 0 2.006 7.032 8.245 8.245 0 0 0 .882.872c-6.408 6.967-13.146 17.089-12.543 28.466a27.154 27.154 0 0 0 2.843 10.714c-24.868 12.728-30.574 26.373-37.002 46.206zm108.718 0h-64.49c5.508-16.359 10.64-25.773 30.118-35.671a6.011 6.011 0 0 0 1.393-.982 62.24 62.24 0 0 0 13.539 9.731c.131.072.265.14.4.2a30.408 30.408 0 0 1 15.676 22 5.991 5.991 0 0 0 3.454 4.483c-.027.079-.054.16-.086.239zm10.539-31.564-3.9 6.769a5.992 5.992 0 0 0 -2.771 4.613 42.9 42.9 0 0 0 -17.676-17.336c-11-6.079-16.778-12.812-17.172-20.015-.643-11.756 12.991-24 18.308-27.736.067-.046.19-.1.253-.146a22.9 22.9 0 0 1 2.5.885v.05c0 3 .066 6.116.326 9.253a5.99 5.99 0 0 0 .119.936 23.136 23.136 0 0 0 9.307 13.541l5.171 3.57a18.735 18.735 0 0 1 6.906 21.931zm40.551 31.564h-38.321a64.429 64.429 0 0 0 2.993-16.586l5.428-9.414a6.067 6.067 0 0 0 .423-.9l1.551-4.157a30.653 30.653 0 0 0 1.904-9.943h26.022zm0-53h-28.131a30.554 30.554 0 0 0 -11.144-14.06l-5.168-3.562a11.168 11.168 0 0 1 -4.378-6.109c-.042-.534-.061-1.058-.094-1.589a8.03 8.03 0 0 0 .953-.216 8.368 8.368 0 0 0 5.8-6.89l1.342-9.016a14.287 14.287 0 0 0 -3.4-11.576l-.487-.536a28 28 0 0 0 -4.468-3.964 31.78 31.78 0 0 0 10.452-33.1 39.467 39.467 0 0 1 38.723 39.578z" fill="#20344c"/><path d="m285.08 195.05a6 6 0 0 0 6-6 6.533 6.533 0 0 1 6.53-6.52 6.53 6.53 0 0 1 6.52 6.52 6 6 0 0 0 12 0 18.531 18.531 0 0 0 -18.52-18.52 18.546 18.546 0 0 0 -18.53 18.52 6 6 0 0 0 6 6z" fill="#20344c"/><path d="m233.12 189.05a18.531 18.531 0 0 0 -18.53-18.52 18.541 18.541 0 0 0 -18.52 18.52 6 6 0 0 0 12 0 6.522 6.522 0 0 1 11.147-4.6 6.438 6.438 0 0 1 1.9 4.6 6 6 0 0 0 12 0z" fill="#20344c"/><path d="m230.456 238.271a35.513 35.513 0 0 0 50.248 0 6 6 0 1 0 -8.488-8.482 23.513 23.513 0 0 1 -33.271 0 6 6 0 1 0 -8.489 8.482z" fill="#20344c"/><path d="m256.1 174a7.769 7.769 0 0 0 7.76-7.76 7.437 7.437 0 0 0 -.188-1.679 7.758 7.758 0 1 0 -7.572 9.439z" fill="#20344c"/></svg>