<svg id="Layer_1" enable-background="new 0 0 512 512" height="512" viewBox="0 0 512 512" width="512" xmlns="http://www.w3.org/2000/svg"><path d="m322.9 147.9c-.2 0-.4.1-.6.1h-.3c-10.8-1-19.5-9.3-19.5-20.2 0-2.4-1-4.6-2.6-6.3-1.7-1.7-4-2.6-6.4-2.5h-6.2c-5-.1-9-4.2-9-9.2 0-2.4-1-4.6-2.6-6.3-1.7-1.7-4-2.6-6.4-2.5h-7.3c-4.2 0-7.9-1.6-11.9-3.5v1.5c.1 11.7-9.3 21.2-20.9 21.3h-.1c-3.5 0-6.9 1.4-9.4 3.9s-3.9 5.9-3.9 9.5c0 6.1-4.1 11.4-10 13-1.1.3-2.2.4-3.3.4h-10.3c-6.2 0-11.6 4.2-13.1 10.2v50.7c-.1 42.6 34.3 77.3 76.9 77.4 12.4 0 24.7-2.9 35.7-8.6 25.5-13.4 41.5-40 41.4-68.8v-53.1c-1.4-4.4-5.6-7.3-10.2-7z" fill="#eabfad"/><path d="m340.2 331h-168.4c-25 0-44.8 20.6-44.8 45.6v98.4h258v-98.4c0-25-19.9-45.6-44.8-45.6z" fill="#6c63b5"/><path d="m178.6 175.7v24h-.3c-7.3 4.3-16.6 1.8-20.8-5.4-4-6.9-2.1-15.7 4.5-20.2.1-.1.1-.1.2-.1 5.1-3.3 11.9-2.5 16.1 1.8h.3z" fill="#ffd8b7"/><path d="m356.4 184.4c1.2 8.3-4.6 16-12.9 17.2-3.4.5-6.9-.2-9.8-1.9h-.2v-24h.2c3.4-3.5 8.5-4.7 13.2-3.2 1.1.4 2.2.9 3.2 1.6 3.3 2.4 5.7 6.1 6.3 10.3z" fill="#ffd8b7"/><path d="m256 351.9c3.2 0 6.5-.2 9.7-.7 14.9-2.3 25.9-15.1 25.8-30.2v-17.9h1.1c14 2.3 24.6 14 25.4 28.2 0 .6.1 1.2.1 1.8v46.6c0 2.3-1.9 4.1-4.1 4.1-.5 0-1-.1-1.4-.3l-56.6-30.9z" fill="#a456b7"/><path d="m250.4 97.5v1.5c0 11.8-9.5 21.3-21.3 21.3-7.4 0-13.4 6-13.4 13.4 0 6.1-4.1 11.4-10 13-1.1.3-2.2.4-3.4.4h-10.3c-7.5 0-13.5 6-13.5 13.5v15.2h-.3c-4.3-4.3-11-5.1-16.1-1.8l-.1-.1-3.3-2.2c-7.6-5-9.7-15.2-4.7-22.9.4-.6.8-1.1 1.2-1.6 4-4.7 5-11.1 2.8-16.8l-2.4-5.9c-3.1-7.8.1-16.7 7.5-20.7l4.6-2.5c5.4-2.9 8.7-8.5 8.7-14.6v-11c0-7.1 4.5-13.3 11.2-15.6l14.5-4.9c1.7-.6 3.3-1.4 4.7-2.5l6.9-5.3c15.9-12.1 37.5-13.5 54.8-3.5l10.1 5.9 23.3 2.2c6.3.6 11.7 5 13.4 11.2l6.5 22.9c1.2 4.2 4.2 7.8 8.1 9.7l10.1 4.9c6.1 2.9 9.5 9.4 8.6 16.1l-.9 6.6c-.1.7-.2 1.5-.2 2.2 0 5 2.4 9.7 6.5 12.6 7 4.9 8.6 14.6 3.7 21.6-.5.7-1 1.3-1.5 1.8l-6.6 6.8c-1.2 1.2-2.2 2.6-2.9 4.2-4.7-1.5-9.7-.2-13.2 3.2h-.2v-18.1c0-5.5-4.5-10-10-10-.2 0-.4 0-.5 0-.2 0-.4 0-.6 0h-.2c-10.9-.2-19.5-9.1-19.5-19.9 0-5-4-9-9-9h-6.2c-5 0-9-4-9-9s-4-9-9-9h-7.3c-4.1-.2-8.1-1.3-11.6-3.3z" fill="#4a5160"/><path d="m291.5 321c.1 15.1-10.9 27.9-25.8 30.2-6.4.9-13 .9-19.4 0-14.9-2.3-25.9-15.1-25.8-30.2v-44.2c22.3 11.5 48.8 11.5 71.1 0v44.2z" fill="#e1b7a3"/><path d="m294.9 147c19.4 0 35.2 15.7 35.2 35.2s-15.7 35.2-35.2 35.2-35.2-15.7-35.2-35.2c0-19.4 15.8-35.2 35.2-35.2z" fill="#aef4e7"/><path d="m201.8 331h-30c-25 0-44.8 20.6-44.8 45.6v98.4h30v-98.4c0-25 19.9-45.6 44.8-45.6z" fill="#56568c"/><path d="m205.7 146.6c-1.1.3-2.2.4-3.3.4h-10.3c-6.2 0-11.6 4.2-13.1 10.2v50.8c-.1 42.6 34.3 77.3 76.9 77.4 5.1 0 10.2-.5 15.2-1.5-36.2-7.2-62.3-39-62.1-76v-62.7c-1 .6-2.2 1.1-3.3 1.4z" fill="#cca89b"/><path d="m256 351.9v.7l-56.6 31.1c-2.1.8-4.5-.3-5.3-2.5-.2-.5-.3-.9-.3-1.4v-46.6c0-.6 0-1.2.1-1.8.9-14.2 11.4-25.9 25.4-28.2h1.1v17.8c-.1 15.1 10.9 27.9 25.8 30.2 3.3.5 6.6.7 9.8.7z" fill="#a456b7"/><path d="m215.2 147c19.4 0 35.2 15.8 35.2 35.2s-15.8 35.2-35.2 35.2-35.2-15.8-35.2-35.2c0-15.9 10.7-29.9 26.1-34 3-.8 6-1.2 9.1-1.2z" fill="#aef4e7"/><g fill="#20344c"><path d="m340.2 325.3h-16.9c-2.9-13.2-12.8-23.6-25.7-27.3v-17.8c25.9-14.9 41.9-42.4 41.9-72.3v-.3c.6.1 1.2.1 1.8.1 11.7 0 21.2-9.5 21.2-21.2 0-1-.1-2-.2-3-.7-4.9-3.1-9.4-6.8-12.7l5.1-5.2c8.3-8.5 8.1-22.1-.4-30.3-.8-.8-1.7-1.5-2.6-2.1-2.9-2-4.4-5.5-3.9-9.1l.9-6.6c1.3-9.2-3.5-18.3-11.9-22.3l-10.1-4.9c-2.4-1.2-4.2-3.3-5-5.9l-6.5-22.9c-2.4-8.5-9.8-14.7-18.6-15.5l-22-2.1-9-5.2c-19.4-11.3-43.6-9.8-61.4 3.9l-6.9 5.3c-.9.7-1.9 1.2-3 1.6l-14.5 4.9c-9.1 3.1-15.3 11.7-15.2 21.3v11c0 3.9-2.1 7.4-5.5 9.3l-4.6 2.5c-10.1 5.4-14.5 17.6-10.3 28.2l2.4 5.9c1.5 3.6.8 7.8-1.8 10.7-8 9.4-7 23.4 2.3 31.5-6.5 9.7-4 22.9 5.8 29.4 3.5 2.4 7.6 3.6 11.9 3.6.7 0 1.3 0 2-.1v.3c0 29.9 16 57.4 41.9 72.3v17.7c-13 3.6-22.9 14.1-25.7 27.3h-16.9c-28.3 0-51.2 23-51.2 51.2v98.3c0 3.3 2.7 6 6 6h258.8c3.3 0 6-2.7 6-6v-98.3c-.2-28.2-23.2-51.2-51.4-51.2zm-28.1 7.8v43.4l-38.6-21.2c14.4-5.3 24-19 24-34.4v-10.2c8.9 4 14.6 12.8 14.6 22.4zm-47.3 12.1c-5.9.9-11.8.9-17.7 0-11.9-1.9-20.7-12.2-20.7-24.3v-35c19 7.2 40.1 7.2 59.1 0v35c.1 12.1-8.7 22.4-20.7 24.3zm80-150.1c-1.7.7-3.6.9-5.4.5v-16.8c2.2-1.3 5-1.2 7.1.2 4.2 2.9 5.2 8.6 2.3 12.8-.9 1.5-2.4 2.6-4 3.3zm-172.2.4c-1.8.4-3.8.3-5.5-.4-4.7-1.9-7-7.3-5-12 .7-1.6 1.8-3.1 3.3-4.1 2.2-1.5 5-1.5 7.3-.1v16.6zm0-35v5.7c-3.3-.6-6.8-.4-10 .8l-.6-.4c-4.8-3.2-6.2-9.7-3-14.6.2-.4.5-.7.8-1 5.4-6.4 6.9-15.2 3.8-23l-2.4-5.9c-2-5 .1-10.6 4.8-13.2l4.6-2.5c7.3-3.9 11.9-11.5 11.9-19.8v-11c0-4.5 2.9-8.5 7.1-9.9l14.5-4.9c2.3-.8 4.5-1.9 6.4-3.4l6.9-5.3c13.9-10.7 32.9-11.9 48.1-3l10.1 5.9c.7.4 1.6.7 2.4.8l23.3 2.2c3.9.4 7.2 3.1 8.2 6.8l6.5 22.9c1.7 5.9 5.8 10.8 11.3 13.5l10.1 4.9c3.7 1.8 5.8 5.8 5.2 9.8l-.9 6.6c-1.2 8 2.3 15.9 8.8 20.5 4.3 3 5.3 8.9 2.3 13.2-.3.4-.6.8-.9 1.1l-6.6 6.8c-.5.6-1 1.1-1.5 1.8-1.5-.1-3 0-4.4.3v-8.6c0-8.9-7.2-16-16-16-.3 0-.6 0-.9 0-.1 0-.3 0-.4 0-7.6-.2-13.6-6.4-13.7-14 0-8.3-6.7-15-15-15h-6.1c-1.7 0-3-1.4-3-3 0-8.3-6.7-15-15-15h-7.3c-9.4 0-17-7.6-17-17 0-3.3-2.7-6-6-6s-6 2.7-6 6c0 9.1 4.2 17.6 11.4 23.1-.8 7.8-7.4 13.6-15.2 13.7-10.7 0-19.4 8.7-19.4 19.4 0 4.1-3.3 7.4-7.4 7.4h-10.3c-10.8-.2-19.5 8.5-19.5 19.3zm154.7-3.7c-.8-1.1-1.7-2.1-2.7-3.1 1.5.5 2.5 1.7 2.7 3.1zm-107.2-15.5c1.1-2.4 1.6-5 1.6-7.7 0-4.1 3.3-7.4 7.4-7.4 12.4 0 23.3-8.4 26.4-20.4 2.1.5 4.2.7 6.4.7h7.3c1.7 0 3 1.4 3 3 0 8.3 6.7 15 15 15h6.2c1.7 0 3 1.4 3 3 0 4.9 1.4 9.6 4 13.8-20.7-2.9-40.2 10.2-45.4 30.4-4.2-16.3-18.1-28.4-34.9-30.4zm24.3 40.9c0 16.1-13.1 29.2-29.2 29.2s-29.2-13.1-29.2-29.2 13.1-29.2 29.2-29.2c16.1 0 29.2 13.1 29.2 29.2zm50.5-29.2c16.1 0 29.2 13.1 29.2 29.2s-13.1 29.2-29.2 29.2-29.2-13.1-29.2-29.2 13.1-29.2 29.2-29.2zm-110.3 56.8c15.2 16.9 41.2 18.3 58.1 3.1 6-5.4 10.3-12.4 12.3-20.2 5.7 22 28.2 35.2 50.2 29.4 8.8-2.3 16.6-7.4 22.1-14.6v.5c0 39.4-32 71.4-71.4 71.4-38.6-.1-70.3-30.9-71.3-69.6zm15.3 123.3c0-9.7 5.7-18.5 14.6-22.4v10.3c0 15.4 9.6 29.1 24 34.4l-38.6 21.2zm179.5 135.7h-38.3c4.7-14.8 3.9-30.8-2.2-45-1.3-3.1-4.8-4.5-7.9-3.2s-4.5 4.8-3.2 7.9c0 0 0 .1.1.1 5.5 12.8 5.7 27.3.5 40.3h-144.7c-5.2-13-5-27.4.5-40.3 1.3-3-.1-6.6-3.1-7.9s-6.6.1-7.9 3.1c-6.1 14.3-6.9 30.2-2.2 45h-38.3v-92.3c0-21.7 17.6-39.2 39.2-39.2h16v42.4c0 5.6 4.5 10.1 10.1 10.1 1.2 0 2.4-.2 3.5-.6.3-.1.6-.2.8-.4l53.7-29.5 53.7 29.5c.3.1.5.3.8.4 5.3 1.9 11.1-.8 13-6 .4-1.1.6-2.3.6-3.5v-42.4h16c21.7 0 39.2 17.6 39.2 39.2v92.3z"/><path d="m256 376.1c-4.7 0-8.4 3.8-8.4 8.4s3.8 8.4 8.4 8.4c4.7 0 8.4-3.8 8.4-8.4 0-4.7-3.7-8.4-8.4-8.4z"/><path d="m256 411.5c-4.7 0-8.4 3.8-8.4 8.4s3.8 8.4 8.4 8.4c4.7 0 8.4-3.8 8.4-8.4s-3.7-8.4-8.4-8.4z"/><path d="m256 447c-4.7 0-8.4 3.8-8.4 8.4s3.8 8.4 8.4 8.4c4.7 0 8.4-3.8 8.4-8.4s-3.7-8.4-8.4-8.4z"/><path d="m283.4 190.6c3.3 0 6-2.7 6-6 0-4.1 3.2-7.4 7.3-7.4s7.4 3.2 7.4 7.3v.2c0 3.3 2.7 6 6 6s6-2.7 6-6c.1-10.7-8.5-19.4-19.2-19.5s-19.4 8.5-19.5 19.2v.3c0 3.2 2.7 5.9 6 5.9z"/><path d="m195.9 184.6c0 3.3 2.7 6 6 6s6-2.7 6-6c0-4.1 3.3-7.4 7.4-7.4s7.4 3.3 7.4 7.4c0 3.3 2.7 6 6 6s6-2.7 6-6c0-10.7-8.7-19.4-19.4-19.4s-19.4 8.7-19.4 19.4z"/><path d="m282.5 241c2.3-2.3 2.3-6.1 0-8.5-2.3-2.3-6.1-2.3-8.5 0-10 9.9-26.1 9.9-36 0-2.3-2.3-6.1-2.3-8.5 0s-2.3 6.1 0 8.5c14.6 14.6 38.4 14.6 53 0z"/></g></svg>