<svg id="Layer_1" height="512" viewBox="0 0 512 512" width="512" xmlns="http://www.w3.org/2000/svg" data-name="Layer 1"><path d="m356.08 328.7-200.17-.01a43.73 43.73 0 0 0 -24.91 39.48v94.93h250v-94.93a43.713 43.713 0 0 0 -24.92-39.47z" fill="#60379b"/><path d="m185.907 328.692h-30a43.73 43.73 0 0 0 -24.907 39.478v94.93h30v-94.93a43.729 43.729 0 0 1 24.907-39.478z" fill="#4b2d7c"/><path d="m351.92 271.71-2.82-3.08-.2-.07a94.848 94.848 0 0 0 1.89-18.89v-105.98a94.79 94.79 0 0 0 -189.58 0v105.98a94.314 94.314 0 0 0 1.9 18.91l-.21.04-2.82 3.09a43.661 43.661 0 0 0 0 61.8l65.02 65.02a43.691 43.691 0 0 0 61.8 0l65.02-65.02a42.657 42.657 0 0 0 4.16-4.81 43.694 43.694 0 0 0 -4.16-56.99z" fill="#e75163"/><path d="m330.79 169.32v35.98a74.79 74.79 0 0 1 -149.58 0v-35.98a74.49 74.49 0 0 1 14.86-44.76 188.031 188.031 0 0 1 119.86 0h.01a74.547 74.547 0 0 1 14.85 44.76z" fill="#ffd8b7"/><path d="m256 94.53a74.694 74.694 0 0 1 59.93 30.03 188.031 188.031 0 0 0 -119.86 0 75.714 75.714 0 0 1 7.04-8.13 74.579 74.579 0 0 1 52.89-21.9z" fill="#88ced8"/><path d="m211.21 205.3v-35.98c0-.168 0-.336 0-.5a52.7 52.7 0 0 1 43.99-51.527q7.86-1.305 15.788-1.938a187.934 187.934 0 0 0 -74.918 9.2 74.49 74.49 0 0 0 -14.86 44.76v35.985a74.852 74.852 0 0 0 89.79 73.284 74.816 74.816 0 0 1 -59.79-73.284z" fill="#dbbaa1"/><g fill="#20344c"><path d="m131 469.1h250a6 6 0 0 0 6-6v-94.933a49.617 49.617 0 0 0 -22.456-41.581 49.788 49.788 0 0 0 -8.284-59.025l-.879-.96a101.4 101.4 0 0 0 1.411-16.93v-105.979a100.792 100.792 0 1 0 -201.584 0v105.979a100.966 100.966 0 0 0 1.427 16.913l-.895.977a49.787 49.787 0 0 0 -8.276 59.038 50 50 0 0 0 -22.464 41.568v94.933a6 6 0 0 0 6 6zm29.167-188.2a100.967 100.967 0 0 0 95.833 69.563 6 6 0 0 0 0-12 88.893 88.893 0 0 1 -88.792-88.792v-105.979a88.792 88.792 0 1 1 177.584 0v105.979a87.749 87.749 0 0 1 -8.852 38.629 89.131 89.131 0 0 1 -9.956 15.953 6 6 0 1 0 9.455 7.391 100.836 100.836 0 0 0 16.4-30.735 37.759 37.759 0 0 1 -4.165 48.358l-65.014 65.019a37.746 37.746 0 0 1 -53.32 0l-65.017-65.017a37.756 37.756 0 0 1 -4.156-48.369zm-23.167 87.267a37.927 37.927 0 0 1 17.5-31.816l66.351 66.42a49.758 49.758 0 0 0 70.291 0l66.358-66.428a37.631 37.631 0 0 1 17.5 31.824v88.933h-36.539a62.536 62.536 0 0 0 -2.248-43.385 6 6 0 1 0 -11.013 4.764 50.453 50.453 0 0 1 .518 38.621h-139.436a50.453 50.453 0 0 1 .518-38.621 6 6 0 1 0 -11.013-4.764 62.536 62.536 0 0 0 -2.248 43.385h-36.539z"/><path d="m312.137 318.414a88.716 88.716 0 0 1 -24.092 14.068 6 6 0 1 0 4.345 11.186 100.687 100.687 0 0 0 27.345-15.968 6 6 0 1 0 -7.6-9.287z"/><path d="m336.792 205.3v-35.982a80.792 80.792 0 1 0 -161.584 0v35.982a80.792 80.792 0 1 0 161.584 0zm-80.792-104.774a68.394 68.394 0 0 1 39.085 12.227 195.852 195.852 0 0 0 -78.164 0 68.389 68.389 0 0 1 39.079-12.227zm0 173.563a68.869 68.869 0 0 1 -68.792-68.789v-35.982a68.39 68.39 0 0 1 12.654-39.685 183.1 183.1 0 0 1 112.281.006 68.393 68.393 0 0 1 12.649 39.679v35.982a68.869 68.869 0 0 1 -68.792 68.789z"/><path d="m290.406 154.857a18.923 18.923 0 0 0 -18.9 18.9 6 6 0 1 0 12 0 6.9 6.9 0 1 1 13.8 0 6 6 0 1 0 12 0 18.923 18.923 0 0 0 -18.9-18.9z"/><path d="m234.5 179.759a6 6 0 0 0 6-6 18.9 18.9 0 0 0 -37.8 0 6 6 0 1 0 12 0 6.9 6.9 0 0 1 13.8 0 6 6 0 0 0 6 6z"/><path d="m273.267 217.85a24.447 24.447 0 0 1 -34.534 0 6 6 0 0 0 -8.485 8.485 36.46 36.46 0 0 0 51.5 0 6 6 0 0 0 -8.485-8.485z"/><path d="m204.673 93.245a5.977 5.977 0 0 0 3.827-1.385 78.542 78.542 0 0 1 50.088-18.091 6 6 0 0 0 0-12 90.558 90.558 0 0 0 -57.752 20.861 6 6 0 0 0 3.837 10.615z"/></g></svg>