<svg id="Layer_1" height="512" viewBox="0 0 512 512" width="512" xmlns="http://www.w3.org/2000/svg" data-name="Layer 1"><path d="m202.77 330.78-67.77 25.22h.17a43.925 43.925 0 0 0 -4.17 18.5v94.5h250v-80.1c-128.82 13.27-178.7-63.6-178.23-58.12z" fill="#ef9538"/><path d="m196.13 311.28a58.053 58.053 0 0 0 -32.31-4.94l4.43-20.44a57.844 57.844 0 0 1 32.25 4.93 56 56 0 0 1 6.32 3.43l-4.43 20.44a60.433 60.433 0 0 0 -6.26-3.42z" fill="#c6e02d"/><path d="m266.4 42.577a103.7 103.7 0 0 0 -55.27 15.073c-31.44 19.1-49.71 53.6-49.33 89.86a106.42 106.42 0 0 0 .86 12.44l1.17 9.08 7.75-1.7q4.485-.975 8.9-2.17a199.215 199.215 0 0 0 64.79-30.64 199.485 199.485 0 0 0 54.67-59.33s-15.23 61.21 30.88 94.61l.032.023a6.767 6.767 0 0 1 2.819 6.149c-.964 9.732-1.838 20.724-2.731 27.668h-.15v7.99a74.5 74.5 0 0 1 -22.59 53.55l.23.23a53.91 53.91 0 0 0 42.84-52.76v-83.623c0-47.127-37.746-85.898-84.87-86.45z" fill="#3e4768"/><path d="m201.66 330.79a19.994 19.994 0 0 0 20-20v-32.59l.03-.08a74.983 74.983 0 0 0 68.6-.01l.05.09v32.59a19.994 19.994 0 0 0 20 20h26.96a43.708 43.708 0 0 1 43.7 43.71v14.4c-128.82 13.27-179.34-58.11-179.34-58.11z" fill="#edc9ae"/><path d="m202.66 264.23a76.12 76.12 0 0 0 19.03 13.89l-.03.08v8.22h-13.31c-.55 0-1.09-.01-1.63-.03-1.09-.04-2.17-.11-3.23-.23-29.46-3.1-47.84-34.56-36.06-62.42l7.68-18.17a14.5 14.5 0 0 0 5.37-1.7v7.03a75.286 75.286 0 0 0 22.18 53.33z" fill="#3e4768"/><path d="m299.94 75.19a199.485 199.485 0 0 1 -54.67 59.33 199.215 199.215 0 0 1 -64.79 30.64v45.74a75.286 75.286 0 0 0 22.18 53.33 76.12 76.12 0 0 0 19.03 13.89 74.827 74.827 0 0 0 109.1-66.49v-41.79l.03-.04c-46.11-33.4-30.88-94.61-30.88-94.61z" fill="#ffd8b7"/><path d="m180.48 180.09v23.78a14.5 14.5 0 0 1 -5.37 1.7 14.7 14.7 0 0 1 -10.02-26.69 12.4 12.4 0 0 1 15.39 1.21z" fill="#edc9ae"/><path d="m351.27 183.89a14.794 14.794 0 0 1 1.67 5.02 14.5 14.5 0 0 1 -1.67 9.11v.01a14.7 14.7 0 0 1 -20.33 5.61h-.15v-23.16h.15a12.537 12.537 0 0 1 12.02-3.31 11.735 11.735 0 0 1 3.78 1.73 14.689 14.689 0 0 1 4.53 4.99z" fill="#edc9ae"/><path d="m165 346-30 10h.17a43.925 43.925 0 0 0 -4.17 18.5v94.5h30v-104.5c0-6.67 1.49-11.5 4.17-17.5z" fill="#cc7c33"/><path d="m286 274.42a74.861 74.861 0 0 1 -34.31-8.3 76.12 76.12 0 0 1 -19.03-13.89 75.286 75.286 0 0 1 -22.18-53.33v-44.383a198.99 198.99 0 0 1 -30 10.643v45.74a75.286 75.286 0 0 0 22.18 53.33 76.12 76.12 0 0 0 19.03 13.89 74.623 74.623 0 0 0 76.417-4.683 75.257 75.257 0 0 1 -12.107.983z" fill="#ddbba2"/><path d="m219.5 358.36a46.492 46.492 0 0 1 17.16 54.49l-2.91 7.82-25.26 43.84c4.03-21.63-13.99-36.87-25.98-44.42a79.554 79.554 0 0 0 -9.98-5.42c-34.65-19.06-41.57-40.24-37.35-58.82 5.95-26.26 34.13-47.35 37.81-50.01a57.756 57.756 0 0 1 23.14 5.44c-.04 1.68-.06 3.35-.06 5.03q0 8.25.7 16.47a32.182 32.182 0 0 0 12.98 18.85z" fill="#3e4768"/><path d="m227.246 431.958a77.087 77.087 0 0 0 -14.736-11.868 79.554 79.554 0 0 0 -9.98-5.42c-34.65-19.06-41.57-40.24-37.35-58.82 4.427-19.541 21.158-36.212 30.95-44.563v-.007a57.756 57.756 0 0 0 -23.14-5.44c-3.68 2.66-31.86 23.75-37.81 50.01-4.22 18.58 2.7 39.76 37.35 58.82a79.554 79.554 0 0 1 9.98 5.42c11.99 7.55 30.01 22.79 25.98 44.42z" fill="#2e364c"/><g fill="#20344c"><path d="m131 475.432h250a6 6 0 0 0 6-6v-94.932a49.76 49.76 0 0 0 -49.7-49.7h-26.964a14.015 14.015 0 0 1 -14-14v-29.2a81.321 81.321 0 0 0 14.331-10.54 60.178 60.178 0 0 0 46.607-58.4v-13.323a20.477 20.477 0 0 0 1.608-11.289 20.915 20.915 0 0 0 -1.608-5.5v-53.858a92.227 92.227 0 0 0 -92.122-92.122 109.991 109.991 0 0 0 -57.141 15.956c-31.707 19.265-51.031 53.53-52.155 90.446-3.408.944-6.845 1.808-10.316 2.567a6 6 0 1 0 2.56 11.723c2.7-.591 5.389-1.244 8.058-1.942.143 1.8.315 3.6.546 5.4l.465 3.62-15.736 3.441a6 6 0 0 0 2.567 11.721l14.71-3.217.019.149a20.556 20.556 0 0 0 -5.767 11.614 20.821 20.821 0 0 0 12.729 22.109c.278.111.561.192.841.291l-4.632 10.96a51.589 51.589 0 0 0 12.685 58.009 63.865 63.865 0 0 0 -7.136.543 6 6 0 0 0 -5.059 4.675l-4.431 20.435a5.989 5.989 0 0 0 .887 4.607c-10.37 9.412-24.858 25.374-29.372 44.223a49.256 49.256 0 0 0 -4.474 20.602v94.932a6 6 0 0 0 6 6zm71.59-12.017v.017h-16.309a50.506 50.506 0 0 1 -1.14-34.205c9.778 7.434 20.249 19.173 17.449 34.188zm172.41.017h-36.539a62.527 62.527 0 0 0 -2.247-43.384 6 6 0 0 0 -11.014 4.763 50.457 50.457 0 0 1 .519 38.621h-109.682l22.915-39.767a5.9 5.9 0 0 0 .425-.9l2.909-7.819a52.452 52.452 0 0 0 -4.854-46.412q1.3.764 2.649 1.523c22.6 12.728 58.851 26.469 110.066 26.469q11.88 0 24.853-1.048zm-64.664-126.632h26.964a37.746 37.746 0 0 1 37.7 37.7v8.933c-61.645 5.277-103.732-9.724-128.4-23.484a146.661 146.661 0 0 1 -33.924-25.606 26.029 26.029 0 0 0 14.988-23.543v-23.469a80.934 80.934 0 0 0 56.672-.065v23.534a26.029 26.029 0 0 0 26 26zm-97.829-44.375h3.157v18.375a14 14 0 0 1 -13.381 13.969c-.059-1.36-.12-2.72-.152-4.081.085 0 .169.018.255.018a6 6 0 0 0 5.864-4.729l4.43-20.435a5.985 5.985 0 0 0 -.173-3.121zm112.285-80.792a68.87 68.87 0 0 1 -68.792 68.788 69.6 69.6 0 0 1 -69.521-69.521v-41.19a206.577 206.577 0 0 0 105.044-71.61 117.673 117.673 0 0 0 1.2 17.438c3.5 23.96 14.48 43.434 32.065 57.2zm20.482 1.019a48.08 48.08 0 0 1 -18.351 37.64 80.291 80.291 0 0 0 9.869-38.659v-.022c.522.039 1.044.065 1.567.065a20.869 20.869 0 0 0 6.915-1.211zm.791-17.6c-.053.092-.1.185-.149.28a8.587 8.587 0 0 1 -4.225 3.688 8.809 8.809 0 0 1 -4.9.5v-15.967a6.274 6.274 0 0 1 6.537.282 8.643 8.643 0 0 1 2.736 11.214zm-78.718-123.597a6 6 0 0 0 -8.4 1.2 193.461 193.461 0 0 1 -90.881 66.5 96.9 96.9 0 0 1 97.087-90.581 80.212 80.212 0 0 1 80.122 80.122v42.904h-.017c-22.986-11.759-36.648-31.07-40.6-57.411a108.426 108.426 0 0 1 1.1-37.543 6 6 0 0 0 -10.964-4.546 194.179 194.179 0 0 1 -124.5 89.365l-1.357.3-.332-2.577q-.472-3.673-.669-7.332a205.475 205.475 0 0 0 100.606-72 6 6 0 0 0 -1.195-8.401zm-102.511 118.318a8.672 8.672 0 0 1 3.668-5.96 6.3 6.3 0 0 1 5.975-.518v16.3a8.838 8.838 0 0 1 -4.327-.575 8.7 8.7 0 0 1 -5.316-9.247zm8.116 36.307 2.168-5.13a81.641 81.641 0 0 0 38.358 59.471h-5.131q-.717 0-1.427-.023a37.688 37.688 0 0 1 -30.838-17.7 39.459 39.459 0 0 1 -3.13-36.618zm.234 65.382a51.987 51.987 0 0 1 26.836 5.818l-1.811 8.357a63.712 63.712 0 0 0 -26.605-5.821h-.231zm1.685 20.467a51.749 51.749 0 0 1 15.214 3.3c-.029 6.021.2 12.075.708 18.056a5.911 5.911 0 0 0 .15.916 38.172 38.172 0 0 0 15.4 22.364l9.745 6.728a40.479 40.479 0 0 1 14.95 47.462l-2.734 7.349-15.6 27.064c-2.836-7.806-8.216-15.239-16.032-22.049a93.028 93.028 0 0 0 -21.487-13.834c-22.438-12.389-34.238-26.533-35.073-42.04-1.379-25.704 26.978-49.336 34.759-55.316zm-37.871 80.845q10.367 14.885 32.638 27.156c.165.091.343.177.516.253.082.035 1.894.835 4.629 2.338a62.565 62.565 0 0 0 -1.244 40.911h-36.539z"/><path d="m290.406 161.189a18.924 18.924 0 0 0 -18.9 18.9 6 6 0 0 0 12 0 6.9 6.9 0 0 1 13.805 0 6 6 0 0 0 12 0 18.924 18.924 0 0 0 -18.905-18.9z"/><path d="m234.5 186.091a6 6 0 0 0 6-6 18.9 18.9 0 0 0 -37.805 0 6 6 0 0 0 12 0 6.9 6.9 0 0 1 13.805 0 6 6 0 0 0 6 6z"/><path d="m273.268 224.182a24.449 24.449 0 0 1 -34.536 0 6 6 0 1 0 -8.484 8.485 36.46 36.46 0 0 0 51.5 0 6 6 0 1 0 -8.484-8.485z"/><path d="m184.329 396a6 6 0 0 0 5-10.912c-10.9-4.99-17.6-11.482-19.927-19.293-3.4-11.438 3.523-22.624 3.623-22.781a6 6 0 0 0 -10.1-6.477c-.41.635-9.972 15.762-5.064 32.536 3.312 11.344 12.219 20.403 26.468 26.927z"/></g></svg>