<svg id="Layer_1" height="512" viewBox="0 0 512 512" width="512" xmlns="http://www.w3.org/2000/svg" data-name="Layer 1"><path d="m337.3 331h-162.6c-24.13 0-43.7 19.91-43.7 44.05v94.95h250v-94.95c0-24.14-19.57-44.05-43.7-44.05z" fill="#564670"/><path d="m221.66 297.46v13.88a19.921 19.921 0 0 1 -5.97 14.26 38.179 38.179 0 0 1 -8.36-23.84 39 39 0 0 1 .24-4.3z" fill="#ad2a34"/><path d="m304.43 297.46a39 39 0 0 1 .24 4.3 38.229 38.229 0 0 1 -8.35 23.84l-.13-.11a19.935 19.935 0 0 1 -5.85-14.15v-13.88z" fill="#ad2a34"/><path d="m352.94 189.46a14.7 14.7 0 0 1 -22 14.73h-.15v-23.16h.15a12.436 12.436 0 0 1 15.81-1.6 14.622 14.622 0 0 1 6.19 10.03z" fill="#ffc9c0"/><path d="m319.59 321.9a38.2 38.2 0 0 1 -16.56 39.46 31.982 31.982 0 0 1 -43.72-8.42l-1.97-2.82 27.27-14.73a38.237 38.237 0 0 0 20.06-33.63 39 39 0 0 0 -.24-4.3z" fill="#fb6771"/><path d="m306.52 66.8a41.735 41.735 0 0 1 3.59 16.93v1.67c-29.58-5.93-51.45-2.7-67.59 5.78-53.99 28.38-43.86 115.57-43.86 115.57a77.479 77.479 0 0 1 -40.06-105.47l7.98-16.45c-14.24.56-32.45 21.96-33.02 22.62l18.9-38.49a41.706 41.706 0 0 1 45.56-22.53l21.13 4.19a41.833 41.833 0 0 0 21.82-1.51l13.73-4.78a41.736 41.736 0 0 1 51.82 22.47z" fill="#4a5160"/><path d="m296.19 325.49a19.935 19.935 0 0 1 -5.85-14.15v-32.7h-68.68v32.7a19.921 19.921 0 0 1 -5.97 14.26 38.126 38.126 0 0 0 11.7 9.79l27.27 14.73h2.68l27.27-14.73a38.282 38.282 0 0 0 11.71-9.79z" fill="#ffc9c0"/><path d="m302.95 96.88s-42.79-1.72-56.82 29.15c0 0-11.11-20.25-3.61-34.84v-.01c16.14-8.48 38.01-11.71 67.59-5.78v-1.67a41.735 41.735 0 0 0 -3.59-16.93l1.05-.01 8.35 3.84a64.112 64.112 0 0 1 26.73 80.26l-10.32 24.5c-.47-.14-.93-.3-1.39-.46a38.995 38.995 0 0 1 -25.46-44.18l2.09-10.91a95.972 95.972 0 0 1 -4.62-22.96z" fill="#4a5160"/><path d="m180.9 204.19a14.7 14.7 0 0 1 -16.07-24.57 76.9 76.9 0 0 0 16.38 17.1v7.47z" fill="#ffc9c0"/><path d="m305.48 130.75 2.09-10.91a95.972 95.972 0 0 1 -4.62-22.96s-42.79-1.72-56.82 29.15c0 0-11.11-20.25-3.61-34.84v-.01c-53.99 28.38-43.86 115.57-43.86 115.57a77.384 77.384 0 0 1 -17.45-10.03v15.46a74.79 74.79 0 1 0 149.58 0v-36.79l.15-.46a38.995 38.995 0 0 1 -25.46-44.18z" fill="#f9d4cf"/><path d="m204.7 331h-30c-24.13 0-43.7 19.91-43.7 44.05v94.95h30v-94.95c0-24.14 19.57-44.05 43.7-44.05z" fill="#3e3451"/><path d="m251.66 278.64a74.8 74.8 0 0 1 -40.45-66.46v-87.725c-17.911 36.088-12.55 82.3-12.55 82.3a77.384 77.384 0 0 1 -17.45-10.03v15.46a74.82 74.82 0 0 0 89.79 73.272 74.3 74.3 0 0 1 -19.34-6.817z" fill="#d3b3af"/><path d="m191.72 331.34a38.223 38.223 0 0 1 .69-9.44l15.16-24.44a39 39 0 0 0 -.24 4.3 38.288 38.288 0 0 0 20.06 33.63l27.27 14.73-1.97 2.82a31.982 31.982 0 0 1 -43.72 8.42 38.26 38.26 0 0 1 -17.25-30.02z" fill="#fb6771"/><g fill="#20344c"><path d="m131 475.98h250a6 6 0 0 0 6-6v-94.933a49.76 49.76 0 0 0 -49.7-49.7h-11.158a45.153 45.153 0 0 0 -.667-4.617 6.025 6.025 0 0 0 -.786-1.991l-15.159-24.445a6 6 0 0 0 -5.1-2.835h-8.1v-9.321a80.823 80.823 0 0 0 40.456-69.958v-.023c.522.04 1.044.066 1.567.066a20.711 20.711 0 0 0 20.529-23.623 20.554 20.554 0 0 0 -8.718-14.106 17.983 17.983 0 0 0 -9.612-3.168l7.628-18.1a70.3 70.3 0 0 0 -29.234-87.77q-.252-.147-.516-.269l-7.857-3.62a47.549 47.549 0 0 0 -57.842-22.9l-13.731 4.771a35.741 35.741 0 0 1 -18.677 1.3l-21.13-4.194a47.776 47.776 0 0 0 -52.117 25.774l-18.908 38.512a6 6 0 0 0 9.976 6.508 93.746 93.746 0 0 1 16.17-14.967l-1.113 2.29a82.73 82.73 0 0 0 -2.943 66.133 84.877 84.877 0 0 0 6.861 13.995 20.715 20.715 0 0 0 8.572 31.916 20.949 20.949 0 0 0 7.793 1.515c.576 0 1.151-.033 1.724-.081v.038a80.823 80.823 0 0 0 40.456 69.958v9.321h-8.1a5.994 5.994 0 0 0 -5.1 2.834l-15.159 24.442a6.025 6.025 0 0 0 -.786 1.991 45.153 45.153 0 0 0 -.667 4.617h-11.152a49.76 49.76 0 0 0 -49.7 49.7v94.94a6 6 0 0 0 6 6zm177.531-160.529 5.362 8.645a32.092 32.092 0 0 1 -14.15 32.243 25.849 25.849 0 0 1 -33.443-4.239l21.166-11.438a44.075 44.075 0 0 0 21.065-25.211zm-20.12 9.869a32.454 32.454 0 0 1 -6.652 4.786l-25.759 13.921-25.759-13.921a32.477 32.477 0 0 1 -6.651-4.784 25.8 25.8 0 0 0 4.074-13.978v-23.516a80.661 80.661 0 0 0 56.672 0v23.516a25.816 25.816 0 0 0 4.075 13.976zm10.21-21.864a32.088 32.088 0 0 1 -2.12 9.935 14.036 14.036 0 0 1 -.165-2.047v-7.888zm44.718-119.1a8.7 8.7 0 0 1 -1.648 15.2 8.816 8.816 0 0 1 -4.9.5v-15.947a6.357 6.357 0 0 1 6.548.251zm-34.412-93.068a6 6 0 0 0 7.179-5.883v-1.674a46.877 46.877 0 0 0 -.407-6.158 58.276 58.276 0 0 1 21.422 70.99l-8.048 19.094a32.955 32.955 0 0 1 -18.117-26.028 102.027 102.027 0 0 0 10.822 14.964 6 6 0 0 0 9.047-7.885 89.984 89.984 0 0 1 -22.12-57.463zm-133.719 108.741a8.812 8.812 0 0 1 -5.056-.464 8.7 8.7 0 0 1 -5.316-9.244c.034-.235.085-.465.136-.693a81.972 81.972 0 0 0 10.236 10.009zm9.252-8.353a71.645 71.645 0 0 1 -20.46-87.776l7.986-16.449a6 6 0 0 0 -5.4-8.62c-.079 0-.158 0-.238 0-4.788.189-9.741 2.114-14.419 4.821l5.917-12.052a35.76 35.76 0 0 1 39.01-19.291l21.129 4.191a47.751 47.751 0 0 0 24.953-1.731l13.732-4.769a35.7 35.7 0 0 1 46.991 28.163c-33.619-5.229-60.341 1.046-79.5 18.694-16.51 15.207-27.173 39.232-30.838 69.481a201.942 201.942 0 0 0 -1.314 30.428 71.071 71.071 0 0 1 -6.919-4.624 5.98 5.98 0 0 0 -.63-.466zm112.24-100.657c-11.384.7-34.969 4.315-49.318 21.734-1.453-5.3-2.283-11.74-.248-17.152 13.479-6.516 30.051-8.622 49.546-6.287 0 .084-.013.167-.013.252 0 .486.026.968.033 1.453zm-109.492 121.158v-4.356a85.471 85.471 0 0 0 9.158 4.475 6 6 0 0 0 8.257-6.236 168.821 168.821 0 0 1 -.606-21.664 6 6 0 0 0 10.674-3.757 6.9 6.9 0 1 1 13.805 0 6 6 0 0 0 12 0 18.89 18.89 0 0 0 -35.7-8.629c2.1-21.761 8.726-49.04 27.494-66.326q.828-.763 1.681-1.493c.412 12.69 6.532 24.055 6.9 24.722a6 6 0 0 0 5.26 3.114h.227a6 6 0 0 0 5.236-3.513c9.476-20.846 34.98-24.78 45.973-25.492a101.886 101.886 0 0 0 3.828 17.182l-1.809 9.423a44.928 44.928 0 0 0 25.209 49.285v33.269a68.792 68.792 0 1 1 -137.584 0zm28.456 91.279v7.888a14.177 14.177 0 0 1 -.164 2.047 32.061 32.061 0 0 1 -2.121-9.935zm-17.557 20.644 5.362-8.645a44.073 44.073 0 0 0 21.067 25.212l21.164 11.433a25.85 25.85 0 0 1 -33.445 4.237 32.092 32.092 0 0 1 -14.148-32.237zm-61.107 50.947a37.746 37.746 0 0 1 37.7-37.7h11.668a44.047 44.047 0 0 0 19.314 29.035 37.788 37.788 0 0 0 50.318-7.876 37.788 37.788 0 0 0 50.315 7.873 44.047 44.047 0 0 0 19.314-29.035h11.671a37.746 37.746 0 0 1 37.7 37.7v88.936h-36.539a62.53 62.53 0 0 0 -2.247-43.385 6 6 0 0 0 -11.014 4.764 50.457 50.457 0 0 1 .519 38.621h-139.438a50.457 50.457 0 0 1 .519-38.621 6 6 0 1 0 -11.014-4.764 62.53 62.53 0 0 0 -2.247 43.385h-36.539z"/><path d="m277.5 186.639a6 6 0 0 0 6-6 6.9 6.9 0 1 1 13.805 0 6 6 0 0 0 12 0 18.9 18.9 0 1 0 -37.805 0 6 6 0 0 0 6 6z"/><path d="m281.752 233.215a6 6 0 1 0 -8.484-8.485 24.449 24.449 0 0 1 -34.536 0 6 6 0 1 0 -8.484 8.485 36.46 36.46 0 0 0 51.5 0z"/></g></svg>