<svg id="Layer_1" height="512" viewBox="0 0 512 512" width="512" xmlns="http://www.w3.org/2000/svg" data-name="Layer 1"><path d="m222.649 324.65c-.07 8.22-6.08 16.25-13.21 19.26v.01a21.6 21.6 0 0 1 -17.47-21.27v-.55a24.747 24.747 0 0 1 2.92-11.68 55.308 55.308 0 0 0 27.76 14.23z" fill="#527b89"/><path d="m321.19 258.9a75.119 75.119 0 0 1 -31.42 32.62l.559.81v8.22l26.54 9.95c11-26.49 4.321-51.6 4.321-51.6z" fill="#4a5160"/><path d="m316.164 360.057-13.164-17.057-13-18.08v-34.59l-68 .67v34.09c0 8.22-5 15.25-13 18.26v-.35l-13.185 17.16-3.828 21.97a129.72 129.72 0 0 0 127.851-.465z" fill="#efc597"/><path d="m321.669 455.49a212.669 212.669 0 0 1 -5.669 26.67v1.4h-120.021v-1.4a212.866 212.866 0 0 1 -5.58-26.06 129.621 129.621 0 0 0 131.27-.61z" fill="#eb885c"/><path d="m194.119 310.69c.09-.1.17-.21.26-.32.17.17.34.33.51.49a20.926 20.926 0 0 0 -2.92 10.68v.55a21.6 21.6 0 0 0 17.47 21.27 21.168 21.168 0 0 0 4.09.39h28.24a13.965 13.965 0 0 1 0 27.93h-21.6a31.341 31.341 0 0 1 -15.18-3.89 31.793 31.793 0 0 1 -9.09-7.53 31.487 31.487 0 0 1 -7.24-20.09v-13.44a26.2 26.2 0 0 1 5.46-16.04z" fill="#7cadc2"/><path d="m179.329 195.37-.3-.76 1.99-.43a27.815 27.815 0 0 0 9.52 4.91l4.34 1.26c-15.85-29.38-12.51-55.87 4.84-71.69l7.11-6.4.01-.01q2.415-.57 4.94-1.1v.01s11.02 56.39 88.52 50.35c13.87-1.08 26.14 9.03 28.62 22.71v31.54a74.825 74.825 0 0 1 -107.27 67.39q-.93-.45-1.86-.93a75.106 75.106 0 0 1 -28.25-25.49 168.554 168.554 0 0 1 -11.59-49.1c-.41-4.9-.62-9.83-.62-14.76z" fill="#ffd8b7"/><path d="m181.019 194.18-1.99.43a12.439 12.439 0 0 0 -15.81-1.6 14.7 14.7 0 0 0 15.81 24.76l.92-.14a168.554 168.554 0 0 0 11.59 49.1c1.65 4.07 3.46 8.09 5.45 12.03a141.691 141.691 0 0 0 13.63 22.07 106.028 106.028 0 0 0 9.17 10.63c.61.62 1.23 1.23 1.86 1.84v11.79c-10.68-1.85-19.58-7.45-26.76-14.23-.17-.16-.34-.32-.51-.49-15.01-14.45-22.29-33.88-22.29-33.88a35.1 35.1 0 0 0 -3.49 23.95l2.82 13.4-6.51-4.99a55.922 55.922 0 0 1 -21.77-40.07l-1.07-13.82c-14.29 3.43-11.04 26.02-11.04 26.02l-2.24-4.64a62.664 62.664 0 0 1 8.36-67.48 104.482 104.482 0 0 0 17.6-30.06c.89-2.36 1.7-4.74 2.42-7.16a104.413 104.413 0 0 0 4.35-27c.04-1.53.08-2.33.08-2.33l-1.92-1.41a175.242 175.242 0 0 1 47.15-18.64l-7.11 6.4c-17.35 15.82-20.69 42.31-4.84 71.69l-4.34-1.26a27.815 27.815 0 0 1 -9.52-4.91z" fill="#6d7486"/><path d="m179.949 217.63-.92.14a14.7 14.7 0 0 1 -15.81-24.76 12.439 12.439 0 0 1 15.81 1.6l.3.76v7.5c0 4.93.21 9.86.62 14.76z" fill="#efc597"/><path d="m190.4 456.1a212.866 212.866 0 0 0 5.58 26.06v1.4h-64.99v-94.93a43.708 43.708 0 0 1 43.7-43.71h14.33a31.269 31.269 0 0 0 6.88 15.34l-3.87 21.92-.77 4.38a214.965 214.965 0 0 0 -.86 69.54z" fill="#4b4d62"/><path d="m351.069 203.04a14.707 14.707 0 0 1 -22.01 14.73h-.14v-23.16h.14a12.451 12.451 0 0 1 15.82-1.6 14.691 14.691 0 0 1 6.19 10.03z" fill="#efc597"/><path d="m320.009 321.54v.55a21.6 21.6 0 0 1 -17.47 21.27v-.01a19.988 19.988 0 0 1 -12.21-18.43v-24.37h8.69a26.065 26.065 0 0 1 13.81 5.19c.01 0 .01 0 .02.02a21.123 21.123 0 0 1 3.77 4.34 80.4 80.4 0 0 1 -9.13 16.05l12.3-7.66a22.008 22.008 0 0 1 .22 3.05z" fill="#527b89"/><path d="m323.9 417.68-1.68.05a129.636 129.636 0 0 1 -132.56.51l-1.6-.05a214.594 214.594 0 0 1 3.2-31.63l.77-4.38a129.68 129.68 0 0 0 127.83-.49l.86 4.87a214.56 214.56 0 0 1 3.18 31.12z" fill="#eb885c"/><path d="m321.669 455.49a215.358 215.358 0 0 0 -.95-68.93l-.86-4.87-3.78-21.43a31.3 31.3 0 0 0 6.89-15.41l.47.07h13.85a43.708 43.708 0 0 1 43.7 43.71v94.93h-64.989v-1.4a212.669 212.669 0 0 0 5.669-26.67z" fill="#4b4d62"/><path d="m316.079 360.26a31.793 31.793 0 0 1 -9.09 7.53 31.341 31.341 0 0 1 -15.18 3.89h-7.63a13.965 13.965 0 1 1 0-27.93h14.27a21.168 21.168 0 0 0 4.09-.39 21.6 21.6 0 0 0 17.47-21.27v-.55a22.008 22.008 0 0 0 -.22-3.05l1.81-1.13a26.324 26.324 0 0 1 1.72 9.37v13.44a31.5 31.5 0 0 1 -7.24 20.09z" fill="#7cadc2"/><path d="m159.679 140.9 1.92 1.41s-.04.8-.08 2.33a104.413 104.413 0 0 1 -4.35 27l-2.27-.67c-10.77-10.91-16.97-23.73-16.97-37.44 0-22.03 16.02-41.75 41.25-54.94 20.27-10.61 46.47-17.01 75.11-17.01 30.92 0 59.01 7.46 79.85 19.62 22.48 13.12 36.51 31.71 36.51 52.33a47.508 47.508 0 0 1 -5.62 22.17l-12.51-11.22c-56.7-29.74-105.11-30.78-140.74-23.33q-2.52.525-4.94 1.1l-.01.01a175.242 175.242 0 0 0 -47.15 18.64z" fill="#4ca987"/><path d="m328.919 194.22c-2.48-13.68-14.75-23.79-28.62-22.71-77.5 6.04-88.52-50.35-88.52-50.35v-.01c35.63-7.45 84.04-6.41 140.74 23.33l12.51 11.22.3.27c29.28 35.67 30.49 84.18 11.15 125a139.755 139.755 0 0 1 -26.68 37.81l-9.66 9.85v-22.81l-18.539 11.54-1.81 1.13-12.3 7.66a80.4 80.4 0 0 0 9.13-16.05c.09-.2.17-.4.25-.6a84.905 84.905 0 0 0 4.32-50.6 74.429 74.429 0 0 0 7.73-33.14v-7.99h.14a14.7 14.7 0 0 0 15.82-24.76 12.451 12.451 0 0 0 -15.82 1.6h-.14z" fill="#6d7486"/><path d="m296.479 33.32a49.221 49.221 0 0 1 37.66 47.88c-20.84-12.16-48.93-19.62-79.85-19.62-28.64 0-54.84 6.4-75.11 17.01v-.01a47.159 47.159 0 0 1 37.08-46.21 182.8 182.8 0 0 1 38.03-3.93 180.751 180.751 0 0 1 42.19 4.88z" fill="#5fcda4"/><path d="m323.9 417.68a214.49 214.49 0 0 1 -2.23 37.81 129.621 129.621 0 0 1 -131.27.61 214.741 214.741 0 0 1 -2.34-37.91l1.6.05a129.636 129.636 0 0 0 132.56-.51z" fill="#eeba56"/><path d="m251.649 293.15q-.93-.45-1.86-.93-.956-.494-1.895-1.015a67.8 67.8 0 0 1 -31.979-40.838 170.753 170.753 0 0 1 -5.966-32.737c-.41-4.9-.62-9.83-.62-14.76v-7.5l-.239-73.637c-.758.17-1.51.342-2.251.517l-.01.01-7.109 6.4c-17.351 15.82-20.691 42.31-4.841 71.69l-4.34-1.26a27.81 27.81 0 0 1 -9.519-4.91l-1.991.43.3.76v7.5c0 4.93.21 9.86.62 14.76a168.554 168.554 0 0 0 11.59 49.1 75.106 75.106 0 0 0 28.25 25.49q.93.48 1.86.93a74.993 74.993 0 0 0 47.456 5.89 74.279 74.279 0 0 1 -17.456-5.89z" fill="#dbbaa1"/><path d="m189.561 347.614c-.214-.886-.405-1.781-.541-2.694h-14.33a43.709 43.709 0 0 0 -43.7 43.71v94.93h30v-94.93a43.728 43.728 0 0 1 28.571-41.016z" fill="#393c4c"/><g fill="#20344c"><circle cx="241.584" cy="357.999" r="6.5"/><path d="m337.529 426.971h22.154a6 6 0 0 0 0-12h-22.154a6 6 0 0 0 0 12z"/><path d="m376.664 133.531c0-21.285-13.007-41.085-36.628-55.789a55.025 55.025 0 0 0 -42.136-50.259 191.459 191.459 0 0 0 -82.883-.979 53.354 53.354 0 0 0 -41.687 48.421q-2.277 1.275-4.468 2.627c-23.812 14.723-36.927 34.6-36.927 55.979 0 14.559 6.226 28.677 17.99 40.9a98.794 98.794 0 0 1 -17.363 30.581 68.781 68.781 0 0 0 -9.163 73.943l2.241 4.634a6 6 0 0 0 11.342-3.452 40.018 40.018 0 0 1 .222-10.486 61.987 61.987 0 0 0 24.067 43.965l6.516 4.987a6 6 0 0 0 9.518-6l-2.822-13.4a29.193 29.193 0 0 1 -.621-5.66 108.218 108.218 0 0 0 9.563 13.768c1.082 1.317 2.186 2.562 3.3 3.774a31.932 31.932 0 0 0 -4.056 15.644v12.195h-7.969a49.76 49.76 0 0 0 -49.7 49.7v94.932a6 6 0 0 0 6 6h250a6 6 0 0 0 6-6v-94.929a49.76 49.76 0 0 0 -49.7-49.7h-7.97v-12.199a32.266 32.266 0 0 0 -.7-6.668l5.52-3.437v12.01a6 6 0 0 0 10.285 4.2l9.658-9.853a145.448 145.448 0 0 0 27.816-39.445c21.112-44.555 17.278-93.522-9.823-128.7a52.672 52.672 0 0 0 4.578-21.304zm-159.143-95.291a176.291 176.291 0 0 1 36.779-3.8 174.535 174.535 0 0 1 40.788 4.709 43.038 43.038 0 0 1 31.768 31.479c-20.871-9.757-46.086-15.046-72.556-15.046-24.514 0-47.95 4.539-67.859 12.959a41.2 41.2 0 0 1 31.08-30.301zm-73.586 95.291c0-17.062 11.094-33.317 31.238-45.772 21.043-13.011 49.144-20.177 79.127-20.177s58.084 7.166 79.127 20.177c20.143 12.455 31.237 28.71 31.237 45.772a39.623 39.623 0 0 1 -1.3 10.017c-66.827-37.7-122.92-35.552-158.329-27.03-31.888 7.675-52.835 21.482-59.876 26.651a39.391 39.391 0 0 1 -1.224-9.638zm131.7 66.687a6 6 0 0 0 6-6 6.9 6.9 0 1 1 13.8 0 6 6 0 0 0 12 0 18.912 18.912 0 0 0 -9.748-16.526c1.043-.06 2.077-.126 3.087-.205 10.382-.807 20.014 6.8 22.145 17.383v30.886a68.794 68.794 0 0 1 -126 38.211 165.265 165.265 0 0 1 -11.576-60.382 33.1 33.1 0 0 0 3.521 1.265l4.347 1.263a6 6 0 0 0 6.955-8.611c-13.845-25.654-12.5-49.732 3.566-64.382l4.274-3.841a71.674 71.674 0 0 0 14.584 23.41c16.035 17.195 37.48 23.437 56.979 24.892a18.917 18.917 0 0 0 -9.94 16.637 6 6 0 0 0 6.009 6zm-62.1 149.53h28.239a7.965 7.965 0 0 1 0 15.93h-21.6a25.491 25.491 0 0 1 -25.421-23.365 27.4 27.4 0 0 0 18.786 7.435zm-15.557-27.662v-.543c0-.123.009-.244.012-.367a56.4 56.4 0 0 0 16.86 8.436 13.983 13.983 0 0 1 -6.088 7.374 15.674 15.674 0 0 1 -10.78-14.9zm17.682-24.559c-.317-.414-.642-.809-.956-1.231.316.177.638.343.956.515zm24.44 22.419a78.355 78.355 0 0 1 -12.431-9.278v-8.568a80.757 80.757 0 0 0 56.672-1.419v24.246a25.975 25.975 0 0 0 3.374 12.825h-3.524a19.965 19.965 0 0 0 0 39.93h7.633a37.562 37.562 0 0 0 18.076-4.642q1.091-.6 2.127-1.268l1.187 6.724a123.962 123.962 0 0 1 -114.506.44l1.265-7.164c.692.443 1.4.868 2.127 1.268a37.562 37.562 0 0 0 18.081 4.638h21.6a19.965 19.965 0 0 0 0-39.93h-17.491a25.946 25.946 0 0 0 2.489-6.086c.838.041 1.676.078 2.519.078a53.6 53.6 0 0 0 8.695-.72 6 6 0 0 0 2.1-11.074zm58.6-13.4a20.115 20.115 0 0 1 10.442 3.922c.168.154.315.333.477.495a73.522 73.522 0 0 1 -6.955 11.64 6 6 0 0 0 8.014 8.635l.681-.424a15.634 15.634 0 0 1 -8.12 6.17 13.975 13.975 0 0 1 -6.9-12.063v-18.373zm-2.268-12a81.494 81.494 0 0 0 20.726-18.319 81.293 81.293 0 0 1 -3.066 22.94 26.859 26.859 0 0 0 -15.058-4.621h-2.6zm2.034 55.2a27.4 27.4 0 0 0 18.779-7.435 25.494 25.494 0 0 1 -25.421 23.365h-7.633a7.965 7.965 0 0 1 0-15.93zm-101.882 41.537a135.916 135.916 0 0 0 118.765-.417 208.23 208.23 0 0 1 2.349 22.557 123.55 123.55 0 0 1 -123.422.535 208.089 208.089 0 0 1 2.308-22.675zm-13.758-203.564a21.89 21.89 0 0 1 -6.042-11.712 6 6 0 1 0 -11.83 2.007 33.4 33.4 0 0 0 2.054 7.127 17.93 17.93 0 0 0 -7.194 2.928 20.753 20.753 0 0 0 -4.614 4.359 111.148 111.148 0 0 0 12.326-47.622c.017-.586.032-1.055.043-1.415a167.155 167.155 0 0 1 19.346-8.752 52.931 52.931 0 0 0 -8.035 24.281 71.753 71.753 0 0 0 3.946 28.799zm-9.166 25.81a8.677 8.677 0 0 1 -10.69-9.629 8.67 8.67 0 0 1 3.668-5.96 6.371 6.371 0 0 1 6.7-.161v5.09q.004 5.344.322 10.66zm-23.8-58.858c.118-.084.236-.167.349-.261.059-.048 1.739-1.422 4.905-3.564-.306 3.238-.758 6.457-1.38 9.64a54.929 54.929 0 0 1 -3.871-5.815zm27.852 119.71a6 6 0 0 0 -10.894-.752 41.146 41.146 0 0 0 -4.651 24.615 49.974 49.974 0 0 1 -13.034-29.932l-1.069-13.812a6 6 0 0 0 -7.38-5.371 18.454 18.454 0 0 0 -11.5 8.281 56.761 56.761 0 0 1 12.583-44.7 109.835 109.835 0 0 0 10.37-14.71 21.279 21.279 0 0 0 -1.042 4.175 20.711 20.711 0 0 0 20.522 23.625 20.492 20.492 0 0 0 3.169-.256 175.14 175.14 0 0 0 11.063 43.029 5.8 5.8 0 0 0 .381.925q2.484 6.1 5.413 11.963c6.91 13.727 14.949 25.213 24.021 34.36v1.349c-25.07-9.51-37.795-42.382-37.949-42.789zm10.861 203.178h-51.573v-88.932a37.746 37.746 0 0 1 37.7-37.7h9.561a37.582 37.582 0 0 0 5.283 10.867l-4.186 23.726a222.917 222.917 0 0 0 3.218 92.039zm12.406 0q-1.376-5.208-2.482-10.487a135.423 135.423 0 0 0 33.356 10.487zm110.036 0h-31.815a135.524 135.524 0 0 0 34.4-10.987q-1.14 5.528-2.582 10.987zm5.114-25.8a123.56 123.56 0 0 1 -120.181.581 211.78 211.78 0 0 1 -1.886-24.858 135.443 135.443 0 0 0 123.874-.5 212 212 0 0 1 -1.804 24.776zm21.171-100.836a37.746 37.746 0 0 1 37.7 37.7v88.932h-51.576a222.917 222.917 0 0 0 3.215-92.043l-4.186-23.726a37.582 37.582 0 0 0 5.283-10.867zm33.766-72.523a133.16 133.16 0 0 1 -24.915 35.539v-8.116a6 6 0 0 0 -9.171-5.093l-13.468 8.385a91.438 91.438 0 0 0 3.993-49.593 80.269 80.269 0 0 0 7.421-33.762v-.023c.521.04 1.044.066 1.567.066a20.712 20.712 0 0 0 20.523-23.625 20.556 20.556 0 0 0 -8.718-14.105 18.169 18.169 0 0 0 -15.7-2.368 32.9 32.9 0 0 0 -32.754-20.178c-57.114 4.453-75.244-26.427-80.367-39.727a182.311 182.311 0 0 1 54.4-.931c24.866 3.253 50.126 11.519 75.232 24.592l11.159 10.012a5.947 5.947 0 0 0 1.012 1.019c25.508 31.683 29.28 76.762 9.786 117.908zm-36.14-64.752v-15.96a6.357 6.357 0 0 1 6.547.252 8.7 8.7 0 0 1 -1.648 15.2 8.817 8.817 0 0 1 -4.899.504z"/><path d="m232.63 200.218a6 6 0 0 0 6-6 18.9 18.9 0 1 0 -37.805 0 6 6 0 1 0 12 0 6.9 6.9 0 1 1 13.805 0 6 6 0 0 0 6 6z"/><path d="m236.866 238.309a6 6 0 1 0 -8.484 8.485 36.418 36.418 0 0 0 51.5 0 6 6 0 0 0 -8.487-8.485 24.419 24.419 0 0 1 -34.533 0z"/></g></svg>