<svg id="Layer_1" height="512" viewBox="0 0 512 512" width="512" xmlns="http://www.w3.org/2000/svg" data-name="Layer 1"><path d="m381 439.139v31.37h-50.29v-2.33a56.251 56.251 0 0 0 4.22-29l.4-.04z" fill="#ffd39f"/><path d="m354.27 335.289-27.11-3.42h-16.82a19.987 19.987 0 0 1 -19.63-16.17l-.3.06v24.41a34.41 34.41 0 0 1 -68.82 0v-24.41l-.3-.06a19.987 19.987 0 0 1 -19.63 16.17h-13.43l-29.48 3.1-1.06.34a43.722 43.722 0 0 0 -26.69 40.27v63.56h45.67l.4.04a56.251 56.251 0 0 0 4.22 29v2.33h149.42v-2.33a56.251 56.251 0 0 0 4.22-29l.4-.04h45.67v-63.56a43.718 43.718 0 0 0 -26.73-40.29z" fill="#e75163"/><path d="m290.71 315.7-.3.06v24.41a34.41 34.41 0 0 1 -68.82 0v-24.41l-.3-.06a20.138 20.138 0 0 0 .37-3.83v-32.7a74.947 74.947 0 0 0 68.68 0v32.7a20.138 20.138 0 0 0 .37 3.83z" fill="#efc597"/><path d="m181.29 468.179v2.33h-50.29v-31.37h45.67l.4.04a56.251 56.251 0 0 0 4.22 29z" fill="#ffd39f"/><path d="m187.69 335.309 1.06-.275 29.48-3.034h3.77v-16.241h-.5a20.268 20.268 0 0 1 -19.84 16.241h-13.43l-29.48 3.034-1.06.308a43.676 43.676 0 0 0 -26.69 40.237v63.421h30v-63.421a43.722 43.722 0 0 1 26.69-40.27z" fill="#bc4257"/><path d="m131 439h30v32h-30z" fill="#d3ad84"/><path d="m370.05 222.449a43.3 43.3 0 0 1 -7.98-24.83v-.76a68.439 68.439 0 0 1 4.43-24.23 49.912 49.912 0 0 0 .18-34.79l-.07-.2a90.18 90.18 0 0 1 -5.02-21.43 83.8 83.8 0 0 0 -8.14-28.11c-2.71-5.49-5.21-11.08-7.63-16.7-5.95-13.79-22.98-38.73-65.19-22.84l-27.11-3.93c-44.82-11.48-75.38 9.92-91.87 44.14a83.665 83.665 0 0 0 -8.29 36.46v25.49a20.215 20.215 0 0 1 -1.95 8.65v.01a56.082 56.082 0 0 0 -2.99 7.71 306.963 306.963 0 0 0 32.79-3.77v-.01c37.32-6.64 85.09-24.97 106.4-81.98a35.606 35.606 0 0 1 14.98 20.07 14.022 14.022 0 0 0 13.54 10.33 14.647 14.647 0 0 1 14.66 14.66l.15 78.33h-.15v7.99a74.742 74.742 0 0 1 -33.9 62.63l1.15 3.36c4.73 10.53 12.48 31.15 25.15 41.61a11.575 11.575 0 0 1 4.34 9.4 8.807 8.807 0 0 1 -.37 2.16c-.83 2.6-3.14 4.69-8.55 4.51 2.89 8.43 8.75 11.8 15.02 11.8 6.03 0 12.44-3.12 16.95-7.85a24.437 24.437 0 0 0 3.69-5.04c9.73-17.48.24-46.23.24-46.23s-8.98-14.64 13.22-32.59c0 0 18.61-10.79 2.32-34.02z" fill="#87453c"/><path d="m192.23 325.639c13.71-11.31 21.66-32.99 26.26-44.17l1.31-3.3a74.868 74.868 0 0 1 -38.59-65.46v-49.39a306.963 306.963 0 0 1 -32.79 3.77 56.587 56.587 0 0 0 -.46 31.65l1.2 4.37a30.664 30.664 0 0 1 -4.27 25.37c-15.43 22.75 2.8 33.32 2.8 33.32 22.2 17.95 13.22 32.6 13.22 32.6s-7.64 23.18-2.16 40.57a26.946 26.946 0 0 0 6.09 10.7c9.21 9.64 26.3 12.57 31.97-3.96-.23.01-.45.01-.67.01-6.3 0-8.08-3.32-8.24-6.68a10.187 10.187 0 0 1 .33-3.17 11.944 11.944 0 0 1 4-6.23z" fill="#773a32"/><path d="m323.19 320.309a11.575 11.575 0 0 1 4.34 9.4 8.807 8.807 0 0 1 -.37 2.16h-16.82a20 20 0 0 1 -20-20v-32.7a73.693 73.693 0 0 0 6.55-3.83l1.15 3.36c4.73 10.53 12.48 31.15 25.15 41.61z" fill="#6d332c"/><path d="m221.66 279.169v32.7a20 20 0 0 1 -20 20h-13.43a11.944 11.944 0 0 1 4-6.23c13.71-11.31 21.66-32.99 26.26-44.17l1.31-3.3c.61.34 1.23.68 1.86 1z" fill="#6d332c"/><path d="m326.5 116.019a14.641 14.641 0 0 0 -10.37-4.29 14.022 14.022 0 0 1 -13.54-10.33 35.606 35.606 0 0 0 -14.98-20.07c-21.31 57.01-69.08 75.34-106.4 81.98v49.4a74.868 74.868 0 0 0 38.59 65.46c.61.34 1.23.68 1.86 1a74.947 74.947 0 0 0 68.68 0 73.693 73.693 0 0 0 6.55-3.83 74.742 74.742 0 0 0 33.9-62.63v-86.32a14.624 14.624 0 0 0 -4.29-10.37z" fill="#ffd39f"/><path d="m352.94 189.989a14.7 14.7 0 0 1 -22 14.73h-.15v-23.16h.15a12.436 12.436 0 0 1 15.81-1.6 14.622 14.622 0 0 1 6.19 10.03z" fill="#ffd8b7"/><path d="m181.21 181.559v23.16h-.31a14.7 14.7 0 0 1 -15.81-24.76 12.436 12.436 0 0 1 15.81 1.6z" fill="#ffd8b7"/><path d="m251.66 279.169c-.63-.32-1.25-.66-1.86-1a75.407 75.407 0 0 1 -16.8-12.58 74.647 74.647 0 0 1 -22-52.88v-57.224a168.33 168.33 0 0 1 -30 7.824v49.4a74.972 74.972 0 0 0 38.747 65.46c.611.34 1.257.68 1.887 1a75.054 75.054 0 0 0 49.36 6.817 74.263 74.263 0 0 1 -19.334-6.817z" fill="#d3ad84"/><g fill="#20344c"><path d="m362.032 332.449c6.583-19.225-1.4-44-1.825-45.275a4.2 4.2 0 0 0 -.548-1.2c-.5-.981-5.035-11.039 11.564-24.612a25.745 25.745 0 0 0 10.93-15.719c1.823-8.273-.6-17.236-7.19-26.641a37.167 37.167 0 0 1 -6.9-21.393v-.76a62.232 62.232 0 0 1 4.041-22.1 55.884 55.884 0 0 0 .212-38.972l-.074-.2a84.266 84.266 0 0 1 -4.69-20 89.381 89.381 0 0 0 -8.727-30.131c-2.31-4.686-4.623-9.75-7.5-16.417-5.901-13.706-24.613-43.454-71.325-26.637l-25.3-3.66c-22.624-5.732-43-3.871-60.567 5.532-15.606 8.353-28.707 22.839-37.888 41.892a89.261 89.261 0 0 0 -8.886 39.059v25.5a14.255 14.255 0 0 1 -1.359 6.051l-.013.025c-.712 1.5-1.352 3.028-1.941 4.571-3.9.271-7.053.5-9.567.839a6 6 0 1 0 1.58 11.9c1.271-.169 2.868-.317 4.692-.461a62.684 62.684 0 0 0 1.424 26.689l1.2 4.373a24.662 24.662 0 0 1 -3.452 20.408c-6.237 9.194-8.463 17.958-6.614 26.049a25.765 25.765 0 0 0 10.891 15.53c16.6 13.573 12.064 23.631 11.564 24.612a4.215 4.215 0 0 0 -.548 1.2c-.376 1.141-6.78 21.027-3.454 38.961a49.621 49.621 0 0 0 -26.762 44.105v94.933a6 6 0 0 0 6 6h250a6 6 0 0 0 6-6v-94.933a49.606 49.606 0 0 0 -24.968-43.118zm8.432-89.532a14.075 14.075 0 0 1 -5.74 8.355 6.1 6.1 0 0 0 -.763.523c-23.288 18.83-16.927 35.712-15 39.587 2.922 9.178 7.772 33.807-2.716 44.8-4.182 4.383-10.264 6.751-14.786 5.759a8.136 8.136 0 0 1 -3.556-1.756 12.468 12.468 0 0 0 5.615-10.185 17.608 17.608 0 0 0 -6.509-14.326c-9.941-8.208-16.9-24.27-21.5-34.9q-.738-1.7-1.4-3.214a80.722 80.722 0 0 0 32.683-64.86v-.023c.522.04 1.044.066 1.568.066a20.944 20.944 0 0 0 7.792-1.515 20.584 20.584 0 0 0 10.156-8.892 49.419 49.419 0 0 0 8.83 23.554c4.539 6.471 6.331 12.201 5.326 17.027zm-142.964 71.819a26.2 26.2 0 0 0 .162-2.872v-23.534a80.471 80.471 0 0 0 56.672.01v23.524a26.2 26.2 0 0 0 .163 2.872 5.994 5.994 0 0 0 -.093 1.018v24.406a28.406 28.406 0 0 1 -56.812 0v-24.406a6.1 6.1 0 0 0 -.092-1.018zm28.5-33.247a68.87 68.87 0 0 1 -68.792-68.789v-44.425a180.869 180.869 0 0 0 33.44-10c32.388-13.406 55.714-35.963 69.439-67.115a28.281 28.281 0 0 1 6.714 11.8 20.049 20.049 0 0 0 19.329 14.752 8.672 8.672 0 0 1 8.662 8.662v86.326a68.87 68.87 0 0 1 -68.792 68.789zm40.336 8.283c5.03 11.4 12.257 26.259 23.032 35.155a6.6 6.6 0 0 1 .925.937h-9.957a14.016 14.016 0 0 1 -14-14zm40.456-89.187v-15.956a6.359 6.359 0 0 1 6.548.251 8.7 8.7 0 0 1 -1.649 15.205 8.816 8.816 0 0 1 -4.899.5zm-177.435-49.874v-25.5a77.34 77.34 0 0 1 7.7-33.85c10.043-20.843 34.44-53.875 84.982-40.928a6.1 6.1 0 0 0 .63.126l9.507 1.375c-1.235.919-2.457 1.87-3.65 2.881-14.886 12.612-28.169 20.232-35.532 20.386a6 6 0 0 0 .25 12c13.237-.276 30.711-12.783 43.039-23.226a56.082 56.082 0 0 1 16.466-9.814c34.922-13.145 50.578 3.407 57.565 19.607 2.959 6.861 5.35 12.1 7.753 16.971a77.373 77.373 0 0 1 7.558 26.1 96.279 96.279 0 0 0 5.352 22.851l.074.2a43.875 43.875 0 0 1 -.165 30.607 74.416 74.416 0 0 0 -3.624 13.062 20.485 20.485 0 0 0 -7.094-8.549 18.1 18.1 0 0 0 -13.373-2.926v-45.7a20.685 20.685 0 0 0 -20.662-20.662 8.024 8.024 0 0 1 -7.747-5.893c-4.275-15.761-17.222-23.384-17.771-23.7a6 6 0 0 0 -8.618 3.1c-24.834 66.418-88 77.833-124.481 81.118a26.332 26.332 0 0 0 1.841-9.636zm-6.235 22.033c6.437-.492 13.923-1.183 22.086-2.385v1.747a18.11 18.11 0 0 0 -13.529 2.9 20.553 20.553 0 0 0 -8.718 14.105 20 20 0 0 0 -.171 3.865 50.668 50.668 0 0 1 .332-20.232zm22.086 11.976v15.828a8.81 8.81 0 0 1 -5.056-.463 8.7 8.7 0 0 1 -1.652-15.205 6.373 6.373 0 0 1 6.708-.16zm-23.747 72.407a5.916 5.916 0 0 0 -.762-.524 14.03 14.03 0 0 1 -5.69-8.122c-1.076-4.713.554-10.312 4.847-16.64a36.64 36.64 0 0 0 5.09-30.33l-.175-.638a20.66 20.66 0 0 0 10.92 10.351 20.93 20.93 0 0 0 7.793 1.516c.577 0 1.151-.033 1.724-.081v.038a80.778 80.778 0 0 0 37.138 67.929q-.3.75-.627 1.549c-4.452 11-11.9 29.416-23.305 38.831a17.606 17.606 0 0 0 -6.509 14.326 12.461 12.461 0 0 0 5.619 10.184 8.115 8.115 0 0 1 -3.556 1.756c-4.524.992-10.6-1.376-14.784-5.758-10.45-10.953-5.621-35.622-2.714-44.806 1.93-3.884 8.27-20.76-15.009-39.581zm64.2 46.012v8.725a14.016 14.016 0 0 1 -14 14h-.951c6.211-6.584 11.1-14.853 14.954-22.725zm-78.661 161.361v-19.372h33.708a62.506 62.506 0 0 0 2.831 19.372zm238 0h-36.539a62.506 62.506 0 0 0 2.831-19.372h33.708zm0-31.372h-35a61.8 61.8 0 0 0 -3.792-12.013 6 6 0 1 0 -11.013 4.764 50.453 50.453 0 0 1 .518 38.621h-139.431a50.453 50.453 0 0 1 .518-38.621 6 6 0 1 0 -11.013-4.764 61.868 61.868 0 0 0 -3.787 12.013h-35v-57.561a37.632 37.632 0 0 1 18.673-32.539 30.384 30.384 0 0 0 4.827 6.772c5.878 6.162 13.84 9.7 21.308 9.7a22.059 22.059 0 0 0 4.729-.5c7.452-1.634 13.117-7.085 15.951-15.349a6 6 0 0 0 -.854-5.517c-.069-.093-.148-.176-.222-.264h.251a25.839 25.839 0 0 0 13.93-4.064v6.36a40.406 40.406 0 0 0 80.812 0v-6.366a25.839 25.839 0 0 0 13.93 4.064h2.474c.039.15.073.3.124.45 2.834 8.264 8.5 13.715 15.95 15.349a22.066 22.066 0 0 0 4.729.5c7.468 0 15.43-3.536 21.309-9.7.46-.483.889-.985 1.31-1.491a37.621 37.621 0 0 1 18.769 32.595z"/><path d="m317.959 377.952h-27.553a6 6 0 1 0 0 12h27.553a6 6 0 1 0 0-12z"/><path d="m309.308 181.158a18.9 18.9 0 1 0 -37.8 0 6 6 0 1 0 12 0 6.9 6.9 0 1 1 13.8 0 6 6 0 1 0 12 0z"/><path d="m234.5 187.158a6 6 0 0 0 6-6 18.9 18.9 0 0 0 -37.8 0 6 6 0 1 0 12 0 6.9 6.9 0 0 1 13.8 0 6 6 0 0 0 6 6z"/><path d="m273.267 225.25a24.449 24.449 0 0 1 -34.534 0 6 6 0 0 0 -8.485 8.485 36.46 36.46 0 0 0 51.5 0 6 6 0 0 0 -8.485-8.485z"/><path d="m239.214 107.583a6 6 0 0 0 -8.469.509c-25.222 28.445-56.231 23.168-57.6 22.916a6 6 0 0 0 -2.237 11.79 54.774 54.774 0 0 0 9.6.732c13.33 0 38.12-3.686 59.215-27.477a6 6 0 0 0 -.509-8.47z"/><path d="m299 70.461c.156.04 15.649 4.2 19.124 19.3a6 6 0 0 0 11.694-2.69c-5.092-22.13-26.898-27.991-27.818-28.23a6 6 0 1 0 -3 11.62z"/><path d="m161.018 257.356c2.112.805 20.394 8.554 11.974 32.471a6 6 0 1 0 11.319 3.985c12.549-35.644-18.811-47.594-19.131-47.712a6 6 0 0 0 -4.162 11.255z"/></g></svg>