<svg id="Layer_1" height="512" viewBox="0 0 512 512" width="512" xmlns="http://www.w3.org/2000/svg" data-name="Layer 1"><path d="m346.75 182.714a14.7 14.7 0 0 1 -15.81 24.76h-.15v-8.63a86.282 86.282 0 0 0 13.44-17.47 11.756 11.756 0 0 1 2.52 1.34z" fill="#e0b9b3"/><path d="m177.91 181.234c-3.57-1.19-9.58-.76-12.82 1.48a14.7 14.7 0 0 0 15.81 24.76h.31l.8-24.2c-1.84-2.58-2.54.726-4.1-2.04z" fill="#e0b9b3"/><path d="m337.3 335h-162.6a43.389 43.389 0 0 0 -43.7 43.334v94.666h250v-94.666a43.389 43.389 0 0 0 -43.7-43.334z" fill="#fbb040"/><path d="m311.29 455.064 2.12.87a109.408 109.408 0 0 1 -8.15 15.66c-.35.57-.71 1.12-1.06 1.67h-38.58v-.94a76.232 76.232 0 0 0 12.8-17.26z" fill="#471b7a"/><path d="m320.56 431.014a109.564 109.564 0 0 1 -7.15 24.92l-2.12-.87h-32.87a108.518 108.518 0 0 0 9.75-24.05z" fill="#dd4530"/><path d="m311.33 365.544c.21.46.43.91.63 1.37l-.63.29h-35.43a34.818 34.818 0 0 0 -17.97-5.49c1.44-.11 40.25-3.19 53.4-16.59a24.63 24.63 0 0 1 -7.13 5.24z" fill="#dd4530"/><path d="m237.1 435.5-37.44-13.15c-4.31-8.85-5.53-18.83-5.08-28.52l31.6 10.11c1.04 11.074 4.08 22.444 10.92 31.56z" fill="#dd4530"/><path d="m226.5 380.494a118.339 118.339 0 0 0 -.32 23.45l-31.6-10.11a108.472 108.472 0 0 1 3.75-22.91l.09.03 26.74 9.39z" fill="#471b7a"/><path d="m207.96 350.894a108.938 108.938 0 0 0 23.03 8.01l-1.16 2.81a129.237 129.237 0 0 0 -3.33 18.78l-1.34-.15-26.74-9.39-.09-.03a137.678 137.678 0 0 1 7.55-21.15c.67.4 1.36.78 2.08 1.12z" fill="#dd4530"/><path d="m321.82 406.894a110.639 110.639 0 0 1 -1.26 24.12h-32.39a101.038 101.038 0 0 0 3.68-24.06h28.88z" fill="#471b7a"/><path d="m311.33 367.2.63-.29a112.009 112.009 0 0 1 6.52 18.52h-28.98l-.42.13c-2.51-7.7-6.8-14.12-13.18-18.36z" fill="#471b7a"/><path d="m311.29 310.494a75.8 75.8 0 0 1 -17.14 13.9l-2.24-1.98a19.956 19.956 0 0 1 -1.57-7.79v-4.13z" fill="#ffd8b7"/><path d="m221.66 281.924a74.947 74.947 0 0 0 68.68 0v32.7a19.956 19.956 0 0 0 1.57 7.79l2.24 1.98a75.924 75.924 0 0 1 -76.64.28l1.78-.59a19.865 19.865 0 0 0 2.37-9.46z" fill="#e0b9b3"/><path d="m289.08 385.564.42-.13h28.98a111.279 111.279 0 0 1 3.34 21.46l-1.09.06h-28.88a64.2 64.2 0 0 0 -2.77-21.39z" fill="#dd4530"/><path d="m330.65 179.384a57.783 57.783 0 0 0 -12.82-36.31 113.4 113.4 0 0 1 -16.42-27.54 107.327 107.327 0 0 1 -5.47-16.98l-.55.13a43.026 43.026 0 0 0 -4.72 34.34l2.53 8.86a123.629 123.629 0 0 1 -57.03-63.07h-.45l-2.38 21.07a32.2 32.2 0 0 1 -25.96 28 32.2 32.2 0 0 0 -26.17 31.63v55.95a74.79 74.79 0 1 0 149.58 0z" fill="#f5cac1"/><path d="m293.2 141.884a123.629 123.629 0 0 1 -57.03-63.07h-.45l-2.38 21.07a32.2 32.2 0 0 1 -25.96 28 32.2 32.2 0 0 0 -26.17 31.63v24.8h-.31a12.678 12.678 0 0 0 -4.99-3.08 89.384 89.384 0 0 1 52.79-129.51 12.991 12.991 0 0 1 12.99-12.99h32.69a81.706 81.706 0 0 1 81.71 81.71v17.13a86.9 86.9 0 0 1 -25.3 61.27l-.14.14v-19.6a57.783 57.783 0 0 0 -12.82-36.31 113.4 113.4 0 0 1 -16.42-27.54 107.327 107.327 0 0 1 -5.47-16.98l-.55.13a43.026 43.026 0 0 0 -4.72 34.34z" fill="#313960"/><path d="m204.7 335h-30a43.389 43.389 0 0 0 -43.7 43.334v94.666h30v-94.666a43.389 43.389 0 0 1 43.7-43.334z" fill="#d3923c"/><path d="m251.66 281.924a74.886 74.886 0 0 1 -40.45-66.46v-88.584a32.088 32.088 0 0 1 -3.83 1 32.2 32.2 0 0 0 -26.17 31.63v55.95a74.824 74.824 0 0 0 89.79 73.282 74.319 74.319 0 0 1 -19.34-6.818z" fill="#cea69f"/><path d="m200.47 311.134h.01a75.637 75.637 0 0 0 110.81-.64 25.058 25.058 0 0 1 6.88 17.3 25.6 25.6 0 0 1 -.91 6.75 24.839 24.839 0 0 1 -5.93 10.58c-13.15 13.4-51.96 16.48-53.4 16.59h-.04c-.77-.04-1.56-.06-2.36-.06a110.287 110.287 0 0 1 -24.54-2.75 108.938 108.938 0 0 1 -23.03-8.01c-.72-.34-1.41-.72-2.08-1.12a24.782 24.782 0 0 1 -11.34-15.34 25.222 25.222 0 0 1 5.93-23.3z" fill="#471b7a"/><g fill="#20344c"><path d="m337.3 328.628h-13.144a30.931 30.931 0 0 0 -8.5-22.247 6.106 6.106 0 0 0 -4.366-1.882h-14.954v-19.077a81.239 81.239 0 0 0 35.982-43.5v6.707a6 6 0 0 0 12 0v-32.746a6.053 6.053 0 0 0 -.124-1.22c.658-.192 1.312-.415 1.958-.674a20.821 20.821 0 0 0 12.73-22.11 20.537 20.537 0 0 0 -6.711-12.509 92.409 92.409 0 0 0 9.917-41.793v-17.137a87.8 87.8 0 0 0 -87.7-87.7h-32.7a19.023 19.023 0 0 0 -18.433 14.417 96.18 96.18 0 0 0 -45.355 32.655 95.438 95.438 0 0 0 -11.54 95.659 17.966 17.966 0 0 0 -4.681 2.3 20.555 20.555 0 0 0 -8.718 14.1 20.817 20.817 0 0 0 12.73 22.109 21.1 21.1 0 0 0 2.7.855 5.942 5.942 0 0 0 -.1 1.04v32.755a6 6 0 0 0 12 0v-4.975a81.265 81.265 0 0 0 35.371 41.77v19.708h-15.19c-.036 0-.073 0-.11 0a6 6 0 0 0 -4.3 1.935 30.968 30.968 0 0 0 -8.289 21.561h-13.073a49.76 49.76 0 0 0 -49.7 49.7v94.933a6 6 0 0 0 6 6h250a6 6 0 0 0 6-6v-94.931a49.76 49.76 0 0 0 -49.7-49.703zm4.394-125.779a8.834 8.834 0 0 1 -4.9.5v-2.115a93.771 93.771 0 0 0 8.964-11.062 8.832 8.832 0 0 1 1.251 3.433 8.7 8.7 0 0 1 -5.318 9.244zm-166.483.463a8.819 8.819 0 0 1 -5.056-.463 8.7 8.7 0 0 1 -1.649-15.2 6.026 6.026 0 0 1 3.6-1.02c.979 1.622 2.023 3.213 3.1 4.784zm0-43.8v5.7a83.445 83.445 0 0 1 55.172-107.729 6 6 0 0 0 4.316-5.758 7 7 0 0 1 6.989-6.989h32.7a75.79 75.79 0 0 1 75.7 75.7v17.137a80.263 80.263 0 0 1 -13.434 44.672v-2.868a64.022 64.022 0 0 0 -14.154-40.077 107.814 107.814 0 0 1 -15.557-26.085 106.913 106.913 0 0 1 -7.97-36.471l-.373-8.044a6 6 0 0 0 -11.988.554l.373 8.047a125.311 125.311 0 0 0 2.468 19.648 49.215 49.215 0 0 0 -5.8 32.121 117.875 117.875 0 0 1 -41.93-52.51 6 6 0 0 0 -5.562-3.75h-.441a6 6 0 0 0 -5.962 5.325l-2.381 21.065a26.08 26.08 0 0 1 -21.125 22.787 38.238 38.238 0 0 0 -31.044 37.526zm12 55.948v-55.947a26.225 26.225 0 0 1 21.289-25.734 38.023 38.023 0 0 0 30.8-33.225l.185-1.633a129.882 129.882 0 0 0 50.915 48.269 6 6 0 0 0 8.566-6.955l-2.527-8.859a37.072 37.072 0 0 1 -1.1-14.887c.182.452.346.914.534 1.363a119.792 119.792 0 0 0 17.288 28.987 51.989 51.989 0 0 1 11.493 32.542v19.6a5.918 5.918 0 0 0 .138 1.209v15.271a68.792 68.792 0 1 1 -137.584 0zm98.26 106.77a70.1 70.1 0 0 1 -59.041.321 26.106 26.106 0 0 0 1.237-7.924v-23.514a80.72 80.72 0 0 0 56.672.006v23.509a25.916 25.916 0 0 0 1.129 7.603zm-84.035-1.814a80.777 80.777 0 0 0 54.132 20.5h.487a80.794 80.794 0 0 0 54.38-21.114 19.322 19.322 0 0 1 -3.435 21.167c-9.681 9.783-38.832 13.952-49.433 14.75-.677-.026-1.349-.063-2.04-.063a103.36 103.36 0 0 1 -44.973-10.173 18.8 18.8 0 0 1 -10.425-13.555 19.172 19.172 0 0 1 1.304-11.511zm106.7 52.785q1.266 3.093 2.327 6.232h-17.3a43.407 43.407 0 0 0 -3.3-6.232zm-14.7-12c2.694-.848 5.35-1.8 7.888-2.869l1.348 2.869zm4.312 39.755a73.531 73.531 0 0 0 -1.045-9.523h17.06q1.008 4.74 1.575 9.523zm18.326 12a103.667 103.667 0 0 1 -.668 12.055h-19.639a107.98 107.98 0 0 0 1.727-12.055zm-96.023-28.046c-.241 3.379-.367 6.968-.322 10.673l-18.829-6.024a100.857 100.857 0 0 1 1.711-10.774zm-14.362-17.763c1.118-3.556 2.261-6.687 3.253-9.212a115.582 115.582 0 0 0 14.352 5.2c-.511 2.2-1.2 5.5-1.838 9.549zm14.959 41.329a77.407 77.407 0 0 0 3.954 16.276l-20.534-7.212a49.068 49.068 0 0 1 -3.428-15.465zm-34.366 58.788a50.462 50.462 0 0 1 .518-38.621 6 6 0 1 0 -11.013-4.764 62.535 62.535 0 0 0 -2.248 43.385h-36.539v-88.933a37.746 37.746 0 0 1 37.7-37.7h15.614a30.448 30.448 0 0 0 8.138 11.15c-5.561 13.5-16.869 47.181-4.193 73.2a6 6 0 0 0 3.406 3.033l37.44 13.15a6 6 0 0 0 6.795-9.264c-15.674-20.9-9.106-56.323-6.9-66.05a117.118 117.118 0 0 0 20.532 1.806c13.18 0 22.221 5.756 26.872 17.107 9.105 22.221-.914 62.687-20.234 82.5zm114.592 0h-23.074q2.165-2.975 4.123-6.2h22.446q-1.632 3.147-3.495 6.2zm8.807-18.2h-21.511a114.978 114.978 0 0 0 4.53-12.055h20.605a103.25 103.25 0 0 1 -3.624 12.058zm16.037 18.2h-11.045a115.3 115.3 0 0 0 11.85-35.176 50.48 50.48 0 0 1 -.805 35.176zm49.282 0h-36.539a62.535 62.535 0 0 0 -2.248-43.385 6 6 0 0 0 -7.888-3.125c-.18.078-.353.165-.522.257a117.813 117.813 0 0 0 -11.043-58.019l-4.86-10.345a30.521 30.521 0 0 0 9.551-12.019h15.849a37.746 37.746 0 0 1 37.7 37.7z"/><path d="m277.5 189.923a6 6 0 0 0 6-6 6.9 6.9 0 1 1 13.8 0 6 6 0 0 0 12 0 18.9 18.9 0 1 0 -37.8 0 6 6 0 0 0 6 6z"/><path d="m234.5 189.923a6 6 0 0 0 6-6 18.9 18.9 0 1 0 -37.8 0 6 6 0 0 0 12 0 6.9 6.9 0 1 1 13.8 0 6 6 0 0 0 6 6z"/><path d="m281.752 236.5a6 6 0 0 0 -8.485-8.485 24.447 24.447 0 0 1 -34.534 0 6 6 0 0 0 -8.485 8.485 36.46 36.46 0 0 0 51.5 0z"/></g></svg>