<svg id="Layer_1" height="512" viewBox="0 0 512 512" width="512" xmlns="http://www.w3.org/2000/svg" data-name="Layer 1"><path d="m344.42 175.935a12.24 12.24 0 0 1 2.33 1.26 14.691 14.691 0 0 1 -13.46 25.86 13.589 13.589 0 0 1 -2.35-1.1h-.15v-23.155h.15a12.555 12.555 0 0 1 13.48-2.865z" fill="#efada3"/><path d="m311.09 380.585v29.84a193.8 193.8 0 0 1 -110.18 0v-29.84a193.624 193.624 0 0 0 110.18 0z" fill="#4e6cca"/><path d="m310.34 329.105a19.994 19.994 0 0 1 -20-20v-32.705h-68.68v32.7a19.994 19.994 0 0 1 -20 20h-.75v51.48a193.624 193.624 0 0 0 110.18 0v-51.48z" fill="#efada3"/><path d="m330.79 209.945v-7.99h.15a13.589 13.589 0 0 0 2.35 1.1l-.35.93 16.29 46.07a116.629 116.629 0 0 1 -.98 80.44 43.466 43.466 0 0 0 -10.95-1.39h-26.96a19.994 19.994 0 0 1 -20-20v-32.705a74.886 74.886 0 0 0 40.45-66.46z" fill="#a5534a"/><path d="m221.66 276.4v32.7a19.994 19.994 0 0 1 -20 20h-26.96a43.5 43.5 0 0 0 -27.31 9.59 132.937 132.937 0 0 1 -.76-85.41l12.79-38.72a68.268 68.268 0 0 0 2.62-10.73c.02-.14.04-.27.06-.41l.71.1a50.124 50.124 0 0 0 18.27-8.54l.13.18v14.78a74.8 74.8 0 0 0 40.45 66.46z" fill="#a5534a"/><path d="m311.09 465.415v2.33h-110.18v-27.49a193.624 193.624 0 0 0 110.18 0z" fill="#4e6cca"/><path d="m311.09 410.425v29.83a193.624 193.624 0 0 1 -110.18 0v-29.83a193.8 193.8 0 0 0 110.18 0z" fill="#adf0e5"/><path d="m271.24 103.685-2.75.75h-16.91a50.232 50.232 0 0 0 -50.23 50.23 50.022 50.022 0 0 1 -10.98 31.35 50.6 50.6 0 0 1 -9.29 8.97l.13.18v14.78a74.79 74.79 0 1 0 149.58 0v-47.48a82.365 82.365 0 0 1 -59.55-58.78z" fill="#ffc6c0"/><path d="m271.24 103.685-2.75.75h-16.91a50.232 50.232 0 0 0 -50.23 50.23 50.022 50.022 0 0 1 -10.98 31.35 50.291 50.291 0 0 1 -27.56 17.51l-.71-.1a69.455 69.455 0 0 0 .82-10.59v-57.82a90.75 90.75 0 1 1 181.5 0v40.92a12.555 12.555 0 0 0 -13.48 2.86h-.15v-16.33a82.365 82.365 0 0 1 -59.55-58.78z" fill="#bc5e51"/><path d="m147.39 338.642a43.742 43.742 0 0 0 -16.39 34.173v95.185h70v-139h-26.3a43.548 43.548 0 0 0 -27.31 9.642z" fill="#fd9003"/><path d="m348.25 330.442a43.484 43.484 0 0 0 -10.95-1.442h-26.3v139h70v-95.185a43.785 43.785 0 0 0 -32.75-42.373z" fill="#fd9003"/><path d="m177.39 338.642a43.625 43.625 0 0 1 23.61-9.483v-.159h-26.3a43.81 43.81 0 0 0 -43.7 43.815v95.185h30v-95.185a43.742 43.742 0 0 1 16.39-34.173z" fill="#d87912"/><path d="m211.21 209.945v-14.78l-.1-70.243a50 50 0 0 0 -9.759 29.743 50.022 50.022 0 0 1 -10.98 31.35 50.6 50.6 0 0 1 -9.29 8.97l.13.18v14.78a74.82 74.82 0 0 0 89.789 73.277 74.727 74.727 0 0 1 -59.79-73.277z" fill="#ddaeab"/><g fill="#20344c"><path d="m355.929 326.745a122.828 122.828 0 0 0 -1.04-78.688l-13.545-38.314a21.11 21.11 0 0 0 4.808-1.275 20.818 20.818 0 0 0 12.73-22.109 20.532 20.532 0 0 0 -8.459-13.906v-37.444a96.752 96.752 0 0 0 -193.5 0v57.82a63.19 63.19 0 0 1 -3.2 19.855l-12.79 38.716a139.293 139.293 0 0 0 -.489 85.456 49.552 49.552 0 0 0 -15.444 35.954v94.933a6 6 0 0 0 6 6h250a6 6 0 0 0 6-6v-94.933a49.772 49.772 0 0 0 -31.071-46.065zm-12.589-144.621a8.7 8.7 0 0 1 -1.649 15.205 8.825 8.825 0 0 1 -4.9.5v-15.957a6.357 6.357 0 0 1 6.549.252zm-174.421 10.705v-57.82a84.752 84.752 0 0 1 169.5 0v34.117q-.819.065-1.631.2v-6.111a6 6 0 0 0 -4.491-6.561 76.278 76.278 0 0 1 -57.814-74.09v-18.307a6 6 0 0 0 -12 0v18.308a88.867 88.867 0 0 0 1.438 15.872h-12.341a56.288 56.288 0 0 0 -56.225 56.225 44.05 44.05 0 0 1 -26.483 40.538c.028-.792.047-1.58.047-2.371zm39.773-8.427a6 6 0 0 0 6-6 6.9 6.9 0 0 1 13.8 0 6 6 0 0 0 12 0 18.886 18.886 0 0 0 -34.774-10.227 56.77 56.77 0 0 0 1.633-13.513 44.275 44.275 0 0 1 44.225-44.225h15.409a88.225 88.225 0 0 0 57.8 56.56v42.944a68.792 68.792 0 0 1 -137.584 0v-12.077a55.939 55.939 0 0 0 15.555-20.855c-.034.462-.071.923-.071 1.393a6 6 0 0 0 6.007 5.998zm-13.78 277.341h-8.63a50.462 50.462 0 0 1 .518-38.621 6 6 0 1 0 -11.013-4.764 62.536 62.536 0 0 0 -2.248 43.385h-36.539v-88.933a37.6 37.6 0 0 1 12.053-27.6 5.566 5.566 0 0 0 4-3.238 37.484 37.484 0 0 1 21.653-6.866h20.209zm-20.212-138.636a49.388 49.388 0 0 0 -23.978 6.184 127.251 127.251 0 0 1 1.6-74.13l12.791-38.712a75.377 75.377 0 0 0 2.135-7.918 56.613 56.613 0 0 0 7.955-3.028v4.438a80.818 80.818 0 0 0 40.461 69.959v29.21a14.016 14.016 0 0 1 -14 14zm130.388 138.636h-98.176v-13.609a198.48 198.48 0 0 0 98.176 0zm0-26.013a186.852 186.852 0 0 1 -98.176 0v-17.43a198.48 198.48 0 0 0 98.176 0zm0-29.836a186.831 186.831 0 0 1 -98.176 0v-17.432a198.511 198.511 0 0 0 98.176 0zm0-29.836a186.831 186.831 0 0 1 -98.176 0v-41.483a26.045 26.045 0 0 0 20.752-25.468v-23.516a80.625 80.625 0 0 0 56.672 0v23.521a26.045 26.045 0 0 0 20.752 25.468zm-8.752-66.951v-29.2a81.082 81.082 0 0 0 38.53-52.486l8.709 24.636a110.817 110.817 0 0 1 .756 71.558 49.922 49.922 0 0 0 -7.034-.507h-26.961a14.016 14.016 0 0 1 -14-14.001zm78.664 152.636h-36.539a62.536 62.536 0 0 0 -2.248-43.385 6 6 0 1 0 -11.013 4.764 50.462 50.462 0 0 1 .518 38.621h-8.63v-126.636h20.212a37.746 37.746 0 0 1 37.7 37.7z"/><path d="m277.5 184.4a6 6 0 0 0 6-6 6.9 6.9 0 0 1 13.8 0 6 6 0 0 0 12 0 18.9 18.9 0 0 0 -37.8 0 6 6 0 0 0 6 6z"/><path d="m256 241.629a36.306 36.306 0 0 0 25.752-10.65 6 6 0 0 0 -8.485-8.485 24.449 24.449 0 0 1 -34.534 0 6 6 0 0 0 -8.485 8.485 36.306 36.306 0 0 0 25.752 10.65z"/></g></svg>