<svg id="Layer_1" height="512" viewBox="0 0 512 512" width="512" xmlns="http://www.w3.org/2000/svg" data-name="Layer 1"><path d="m181.21 201.025v23.16h-.31a14.7 14.7 0 0 1 -17.52-23.38 15.173 15.173 0 0 1 1.71-1.38 12.436 12.436 0 0 1 15.81 1.6z" fill="#ffd8b7"/><path d="m352.94 209.455a14.7 14.7 0 0 1 -22 14.73h-.15l-.02-23.16h.17a12.436 12.436 0 0 1 15.81-1.6 14.572 14.572 0 0 1 6.19 10.03z" fill="#ffd8b7"/><path d="m230.61 489.965h-40.46l-37.81-64.18 29.82-2.97-20.25-21.53 28.2-49.95h6.68v.82a194.892 194.892 0 0 0 33.82 137.81z" fill="#4946aa"/><path d="m152.34 425.785 37.81 64.18h-59.15v-94.93a43.706 43.706 0 0 1 43.7-43.7h15.41l-28.2 49.95 20.25 21.53z" fill="#302691"/><path d="m311.23 58.845v15.33a93.816 93.816 0 0 0 -110.46 0v-15.33a36.82 36.82 0 0 1 36.82-36.82h36.82a36.82 36.82 0 0 1 36.82 36.82z" fill="#bc5e51"/><path d="m360 425.785-37.8 64.18h-41.31a194.942 194.942 0 0 0 33.82-137.81v-.82h7.52l28.2 49.95-20.25 21.53z" fill="#4946aa"/><path d="m224.49 121.155v5.87a33.493 33.493 0 0 1 -33.51 33.51 9.771 9.771 0 0 0 -9.77 9.77v30.72h-.31a12.436 12.436 0 0 0 -15.81-1.6 15.173 15.173 0 0 0 -1.71 1.38l-1.38-1.38v-49.225a94 94 0 0 1 188 0v52.29a14.727 14.727 0 0 0 -3.25-3.06 12.436 12.436 0 0 0 -15.81 1.6h-.17l-.02-38.07a40.883 40.883 0 0 0 -40.88-40.85h-57.57a32.435 32.435 0 0 1 -7.81-.955z" fill="#7f3d32"/><path d="m314.71 352.155v-.82h-117.92v.82a194.892 194.892 0 0 0 33.82 137.81h50.28a194.942 194.942 0 0 0 33.82-137.81z" fill="#e9fbff"/><path d="m381 395.035v94.93h-58.8l37.8-64.18-29.82-2.97 20.25-21.53-28.2-49.95h15.07a43.706 43.706 0 0 1 43.7 43.7z" fill="#302691"/><path d="m304.39 351.425a46.6 46.6 0 0 1 -1.53 17.69 47.361 47.361 0 0 1 -3.66 9.12 47.891 47.891 0 0 1 -5.49 8.15l-7.46 8.9a6.376 6.376 0 0 1 -10.25-.63l-19.87-30.67 15.74-8.75a37.458 37.458 0 0 0 19.27-32.75l4.5 6.18a46.739 46.739 0 0 1 8.75 22.76z" fill="#cae6ee"/><path d="m220.91 298.235-.05.09v24.16a37.458 37.458 0 0 0 19.27 32.75l15.74 8.75h.26l15.74-8.75a37.458 37.458 0 0 0 19.27-32.75v-24.28z" fill="#f7c9a6"/><path d="m220.86 322.485a37.458 37.458 0 0 0 19.27 32.75l15.74 8.75-19.87 30.67a6.376 6.376 0 0 1 -10.25.63l-7.46-8.9a47.891 47.891 0 0 1 -5.49-8.15 47.361 47.361 0 0 1 -3.66-9.12 46.912 46.912 0 0 1 7.22-40.45z" fill="#cae6ee"/><path d="m330.75 162.955a40.883 40.883 0 0 0 -40.88-40.85h-57.57a32.435 32.435 0 0 1 -7.81-.95v5.87a33.493 33.493 0 0 1 -33.51 33.51 9.771 9.771 0 0 0 -9.77 9.77v61.87a74.79 74.79 0 1 0 149.58 0z" fill="#ffd8b7"/><path d="m161 440.485v-15.562l-8.66.862z" fill="none"/><path d="m152.34 425.785 8.66-.862v-29.888a43.713 43.713 0 0 1 27.308-40.508l1.8-3.192h-15.408a43.706 43.706 0 0 0 -43.7 43.7v94.93h30v-49.48z" fill="#212166"/><path d="m233.11 285.055a74.556 74.556 0 0 1 -21.9-52.88v-61.87a9.771 9.771 0 0 1 9.77-9.77 33.493 33.493 0 0 0 33.51-33.51v-4.92h-22.19a32.435 32.435 0 0 1 -7.81-.95v5.87a33.493 33.493 0 0 1 -33.51 33.51 9.771 9.771 0 0 0 -9.77 9.77v61.87a74.815 74.815 0 0 0 89.79 73.276 74.609 74.609 0 0 1 -37.89-20.4z" fill="#dbb89e"/><g fill="#20344c"><path d="m337.3 345.335h-27.78a52.843 52.843 0 0 0 -9.029-20.21l-3.352-4.593v-18.865a80.818 80.818 0 0 0 39.653-69.5v-.02c.522.04 1.044.066 1.568.066a20.729 20.729 0 0 0 17.64-31.607v-50.414a99.881 99.881 0 0 0 -38.774-79.009v-12.341a42.866 42.866 0 0 0 -42.817-42.818h-36.818a42.866 42.866 0 0 0 -42.817 42.818v12.341a99.881 99.881 0 0 0 -38.774 79.009v49.229a6.1 6.1 0 0 0 .068.86 20.706 20.706 0 0 0 17.416 31.935c.576 0 1.151-.033 1.724-.081v.038a80.818 80.818 0 0 0 39.653 69.5v18.864l-3.352 4.594a52.821 52.821 0 0 0 -9.028 20.209h-27.781a49.76 49.76 0 0 0 -49.7 49.7v94.93a6 6 0 0 0 6 6h250a6 6 0 0 0 6-6v-94.932a49.76 49.76 0 0 0 -49.7-49.703zm-40.206 22.136a40.632 40.632 0 0 1 -7.981 15.063l-7.457 8.9a.312.312 0 0 1 -.319.137.347.347 0 0 1 -.3-.176l-16.382-25.284 10.13-5.628a43.487 43.487 0 0 0 19.515-22.559 40.59 40.59 0 0 1 2.791 29.547zm-41.094-10.279-12.954-7.192a31.486 31.486 0 0 1 -16.185-27.507v-14.987a80.5 80.5 0 0 0 58.278 0v14.982a31.486 31.486 0 0 1 -16.185 27.512zm91.007-146.876a8.7 8.7 0 0 1 -5.316 9.245 8.823 8.823 0 0 1 -4.906.5l-.01-15.944a6.36 6.36 0 0 1 6.565.241 8.678 8.678 0 0 1 3.667 5.958zm-140.233-151.474a30.853 30.853 0 0 1 30.817-30.818h36.818a30.853 30.853 0 0 1 30.817 30.818v4.332a99.82 99.82 0 0 0 -98.452 0zm-31.566 161.182a8.809 8.809 0 0 1 -5.056-.463 8.7 8.7 0 0 1 -1.649-15.2 6.375 6.375 0 0 1 6.705-.161zm0-49.716v21.273a18.3 18.3 0 0 0 -7.208.157v-41.546a88 88 0 0 1 176 0v41.579a18.3 18.3 0 0 0 -7.232-.207l-.018-28.619a46.948 46.948 0 0 0 -46.885-46.835h-57.565a26.1 26.1 0 0 1 -5.318-.546 5.969 5.969 0 0 0 -2.093-.526 26.171 26.171 0 0 1 -17.293-16.479 6 6 0 1 0 -11.336 3.941 38.171 38.171 0 0 0 22.23 23.021v1.5a27.545 27.545 0 0 1 -27.514 27.515 15.786 15.786 0 0 0 -15.768 15.772zm12 61.865v-61.865a3.772 3.772 0 0 1 3.769-3.768 39.563 39.563 0 0 0 39.5-38.474q.906.043 1.82.044h57.568a34.931 34.931 0 0 1 34.885 34.845l.042 69.218a68.792 68.792 0 0 1 -137.584 0zm30.492 105.751a43.487 43.487 0 0 0 19.522 22.561l10.13 5.628-16.386 25.287a.347.347 0 0 1 -.3.176.325.325 0 0 1 -.319-.137l-7.457-8.9a40.9 40.9 0 0 1 -5.194-44.61zm-80.7 146.046v-88.932a37.746 37.746 0 0 1 37.7-37.7h5.13l-23.148 41a6 6 0 0 0 .854 7.061l11.907 12.664-17.7 1.761a6 6 0 0 0 -4.576 9.016l32.483 55.13zm56.577 0-31.3-53.141 20.48-2.039a6 6 0 0 0 3.777-10.081l-17.227-18.321 20.232-35.832a200.152 200.152 0 0 0 29.917 119.414zm40.195 0a188.28 188.28 0 0 1 -32.053-121.464 53.736 53.736 0 0 0 1.648 8.248 52.539 52.539 0 0 0 10.324 19.485l7.457 8.9a12.259 12.259 0 0 0 9.469 4.433q.39 0 .783-.024a12.273 12.273 0 0 0 9.638-5.628l14.962-23.092 14.962 23.1a12.273 12.273 0 0 0 9.638 5.628c.262.016.524.024.783.024a12.259 12.259 0 0 0 9.469-4.433l7.457-8.9a52.539 52.539 0 0 0 10.324-19.485 53.853 53.853 0 0 0 1.32-5.876 188.265 188.265 0 0 1 -32.227 119.084zm58.27 0a200.17 200.17 0 0 0 29.792-121.137l21.2 37.555-17.227 18.321a6 6 0 0 0 3.776 10.081l20.48 2.039-31.3 53.141zm82.958 0h-42.307l32.477-55.137a6 6 0 0 0 -4.576-9.016l-17.7-1.761 11.906-12.664a6 6 0 0 0 .854-7.061l-23.147-41h4.793a37.746 37.746 0 0 1 37.7 37.7z"/><path d="m277.5 206.635a6 6 0 0 0 6-6 6.9 6.9 0 1 1 13.8 0 6 6 0 0 0 12 0 18.9 18.9 0 1 0 -37.8 0 6 6 0 0 0 6 6z"/><path d="m234.5 206.635a6 6 0 0 0 6-6 18.9 18.9 0 1 0 -37.8 0 6 6 0 0 0 12 0 6.9 6.9 0 1 1 13.8 0 6 6 0 0 0 6 6z"/><path d="m281.752 253.211a6 6 0 0 0 -8.485-8.485 24.447 24.447 0 0 1 -34.534 0 6 6 0 0 0 -8.485 8.485 36.462 36.462 0 0 0 51.5 0z"/></g></svg>