<svg id="Layer_1" height="512" viewBox="0 0 512 512" width="512" xmlns="http://www.w3.org/2000/svg" data-name="Layer 1"><path d="m337.3 319h-162.6a43.5 43.5 0 0 0 -43.7 43.46v94.54h250v-94.54a43.5 43.5 0 0 0 -43.7-43.46z" fill="#cae6ee"/><path d="m346.58 166.73a1.629 1.629 0 0 1 .17.11 14.7 14.7 0 0 1 -15.81 24.76h-.15v-23.16h.15a12.441 12.441 0 0 1 15.64-1.71z" fill="#efc8ab"/><path d="m346.58 122.71v44.02a12.441 12.441 0 0 0 -15.64 1.71h-.15v-39.04a74.494 74.494 0 0 0 -4.98-26.88l.42-.16a20.349 20.349 0 0 1 20.35 20.35z" fill="#e2e4ed"/><path d="m331 318.75v138.64h-27.69v-115.27a46.7 46.7 0 0 0 -.76-24.94 19.956 19.956 0 0 0 7.79 1.57z" fill="#313960"/><path d="m303.31 342.12c-.14.58-.29 1.15-.45 1.72a46.852 46.852 0 0 1 -3.66 9.12 47.579 47.579 0 0 1 -5.49 8.16l-7.46 8.9a6.381 6.381 0 0 1 -10.25-.63l-19.87-30.67 15.74-8.75a37.482 37.482 0 0 0 19.27-32.75l4.5 6.17a46.941 46.941 0 0 1 7.67 38.73z" fill="#e9fbff"/><path d="m325.81 102.52a74.817 74.817 0 0 0 -138.93-1.73c-.25.61-.49 1.22-.73 1.84a74.561 74.561 0 0 0 -4.94 26.77v70.19a74.478 74.478 0 0 0 17.08 47.57l.19-.02 35.75 6.8h43.55l35.74-6.8.19.02a74.478 74.478 0 0 0 17.08-47.57v-70.19a74.494 74.494 0 0 0 -4.98-26.88z" fill="#ffd8b7"/><path d="m220.86 279.01v18.21a37.482 37.482 0 0 0 19.27 32.75l15.74 8.75h.26l15.74-8.75a37.482 37.482 0 0 0 19.27-32.75v-18.21z" fill="#efc8ab"/><path d="m255.87 338.72-19.87 30.67a6.381 6.381 0 0 1 -10.25.63l-7.46-8.9a47.579 47.579 0 0 1 -5.49-8.16 46.852 46.852 0 0 1 -3.66-9.12c-.2-.69-.38-1.39-.54-2.08a46.989 46.989 0 0 1 7.76-38.37l4.5-6.17a37.482 37.482 0 0 0 19.27 32.75z" fill="#e9fbff"/><path d="m186.88 100.79c-.25.61-.49 1.22-.73 1.84a74.561 74.561 0 0 0 -4.94 26.77v39.04h-.31a12.436 12.436 0 0 0 -15.81-1.6v-44.13a20.351 20.351 0 0 1 20.36-20.35z" fill="#e2e4ed"/><path d="m181.21 168.44v23.16h-.31a14.7 14.7 0 0 1 -15.81-24.76 12.436 12.436 0 0 1 15.81 1.6z" fill="#efc8ab"/><path d="m204.7 319h-30a43.5 43.5 0 0 0 -43.7 43.46v94.54h30v-94.54a43.5 43.5 0 0 1 43.7-43.46z" fill="#a1bec4"/><path d="m211.21 199.59v-70.19a74.561 74.561 0 0 1 4.94-26.77c.24-.62.48-1.23.73-1.84a74.872 74.872 0 0 1 54.1-44.672 74.832 74.832 0 0 0 -84.1 44.672c-.25.61-.49 1.22-.73 1.84a74.561 74.561 0 0 0 -4.94 26.77v70.19a74.478 74.478 0 0 0 17.08 47.57l.19-.02 30.918 5.881a25.135 25.135 0 0 0 -4.26-9.96 74.442 74.442 0 0 1 -13.928-43.471z" fill="#d3ae92"/><path d="m220.86 279.01c-12.49-7.5-20.95-18.9-22.38-31.87a34 34 0 0 1 -.22-3.93c0-24.91 25.85-45.11 57.74-45.11s57.74 20.2 57.74 45.11a34 34 0 0 1 -.22 3.93c-1.43 12.97-9.89 24.37-22.38 31.87a70.972 70.972 0 0 1 -70.28 0zm74.64-42.8a17.72 17.72 0 0 0 -17.6-17.72h-43.67a17.725 17.725 0 1 0 12.54 30.26l.03-.03a9.838 9.838 0 0 1 6.95-3.03h4.69a9.414 9.414 0 0 1 6.68 2.94 17.726 17.726 0 0 0 30.38-12.42z" fill="#e2e4ed"/><path d="m209.44 317.19h.01a46.738 46.738 0 0 0 -.85 24.57l-.34.08v115.55h-27.26v-138.64h20.66a19.938 19.938 0 0 0 7.78-1.56z" fill="#313960"/><g fill="#20344c"><path d="m337.3 312.755-30.019-.344a53.2 53.2 0 0 0 -6.787-12.555l-3.351-4.594v-13.062c11.79-8.017 19.92-19.4 22.038-32.281a80.916 80.916 0 0 0 17.614-50.333v-.023c.522.04 1.044.066 1.567.066a20.711 20.711 0 0 0 20.523-23.624 20.544 20.544 0 0 0 -6.3-12.12v-41.172a26.389 26.389 0 0 0 -22.771-26.1 80.75 80.75 0 0 0 -147.6-.044 26.387 26.387 0 0 0 -23.117 26.147v41.335a20.545 20.545 0 0 0 -6.131 11.959 20.711 20.711 0 0 0 20.522 23.624c.577 0 1.152-.033 1.725-.081v.038a80.916 80.916 0 0 0 17.614 50.333c2.118 12.885 10.248 24.264 22.038 32.281v13.061l-3.35 4.593a53.2 53.2 0 0 0 -6.788 12.554l-30.019.345a49.76 49.76 0 0 0 -49.7 49.7v94.932a6 6 0 0 0 6 6h249.992a6 6 0 0 0 6-6v-94.931a49.76 49.76 0 0 0 -49.7-49.704zm6.583-140.567a8.691 8.691 0 0 1 -2.189 14.788 8.818 8.818 0 0 1 -4.9.5v-15.956a6.42 6.42 0 0 1 5.932-.092 5.95 5.95 0 0 0 1.154.76zm-3.3-49.475v36.021a18.373 18.373 0 0 0 -3.79.241v-29.575a80.639 80.639 0 0 0 -2.107-18.259 14.327 14.327 0 0 1 5.896 11.572zm-165.375 64.727a8.8 8.8 0 0 1 -5.056-.464 8.7 8.7 0 0 1 -1.648-15.205 6.373 6.373 0 0 1 6.7-.16zm0-58.039v29.599a18.32 18.32 0 0 0 -4.116-.258v-36.029a14.345 14.345 0 0 1 6.291-11.866 80.666 80.666 0 0 0 -2.175 18.553zm-.208 321.99h-38v-88.932a37.746 37.746 0 0 1 37.7-37.7h.3zm27.256-109.548v109.548h-15.256v-126.636h14.689a52.7 52.7 0 0 0 .631 16.258 5.985 5.985 0 0 0 -.064.83zm-15.048-142.255v-70.188a68.792 68.792 0 1 1 137.584 0v70.187a68.937 68.937 0 0 1 -7.171 30.547c-7.221-21.866-32.109-38.034-61.621-38.034s-54.4 16.167-61.621 38.034a68.937 68.937 0 0 1 -7.171-30.546zm17.048 43.625c0-21.567 23.212-39.112 51.744-39.112s51.744 17.545 51.744 39.112-23.212 39.113-51.744 39.113-51.744-17.546-51.744-39.113zm80.884 45.437v8.569a31.485 31.485 0 0 1 -16.186 27.507l-12.954 7.196-12.954-7.2a31.485 31.485 0 0 1 -16.186-27.507v-8.565a77.639 77.639 0 0 0 58.28 0zm-67.444 24a43.485 43.485 0 0 0 19.522 22.562l10.13 5.628-16.382 25.285a.349.349 0 0 1 -.3.175.359.359 0 0 1 -.319-.137l-7.457-8.9a40.9 40.9 0 0 1 -5.194-44.611zm79.613 138.737h-83.053v-85.742l6.891 8.228a12.262 12.262 0 0 0 9.469 4.433q.391 0 .785-.025a12.267 12.267 0 0 0 9.636-5.628l14.963-23.095 14.962 23.094a12.269 12.269 0 0 0 9.637 5.629q.393.026.785.025a12.26 12.26 0 0 0 9.469-4.434l6.456-7.707zm.4-111.685a5.956 5.956 0 0 0 -.369 1.536c-.083.319-.158.64-.249.959a40.612 40.612 0 0 1 -7.98 15.064l-7.457 8.9a.347.347 0 0 1 -.319.138.351.351 0 0 1 -.3-.176l-16.381-25.284 10.13-5.628a43.485 43.485 0 0 0 19.516-22.557 40.517 40.517 0 0 1 3.408 27.052zm27.291 111.689h-15.691v-108.565a52.764 52.764 0 0 0 1-18.072h14.691zm50 0h-38v-126.636h.3a37.746 37.746 0 0 1 37.7 37.7z"/><path d="m256 380.381a7.279 7.279 0 1 0 7.279 7.278 7.287 7.287 0 0 0 -7.279-7.278z"/><circle cx="256" cy="425.476" r="7.279"/><path d="m260.84 252.835a23.728 23.728 0 1 0 17.06-40.346h-43.666a23.725 23.725 0 1 0 16.777 40.5l.046-.046a3.976 3.976 0 0 1 2.693-1.251h4.691a3.529 3.529 0 0 1 2.399 1.143zm-18.295-8.352-.036.037a11.729 11.729 0 1 1 -8.275-20.031h43.627a11.724 11.724 0 1 1 -8.462 19.936 15.326 15.326 0 0 0 -10.958-4.734h-4.691a15.8 15.8 0 0 0 -11.205 4.792z"/><path d="m277.5 174.05a6 6 0 0 0 6-6 6.9 6.9 0 0 1 13.805 0 6 6 0 0 0 12 0 18.9 18.9 0 0 0 -37.805 0 6 6 0 0 0 6 6z"/><path d="m214.691 168.05a6.9 6.9 0 0 1 13.805 0 6 6 0 0 0 12 0 18.9 18.9 0 0 0 -37.805 0 6 6 0 0 0 12 0z"/><path d="m269.9 231.9a6 6 0 0 0 -6-6h-15.8a6 6 0 0 0 0 12h15.8a6 6 0 0 0 6-6z"/></g></svg>