<svg id="Layer_1" height="512" viewBox="0 0 512 512" width="512" xmlns="http://www.w3.org/2000/svg" data-name="Layer 1"><path d="m315 332.935v-.935h-118v.935c-7 48.65 5.48 98.065 33.61 138.065h50.28a198.084 198.084 0 0 0 34.11-138.065z" fill="#43a2ff"/><path d="m381 375.815v94.93h-58.8l37.8-64.18-29.82-2.97 20.25-21.53-28.2-49.95h15.07a43.706 43.706 0 0 1 43.7 43.7z" fill="#37373f"/><path d="m360 406.565-37.8 64.18h-41.31a194.942 194.942 0 0 0 33.82-137.81v-.82h7.52l28.2 49.95-20.25 21.535z" fill="#48485b"/><path d="m352.94 190.235a14.7 14.7 0 0 1 -22 14.73h-.15v-23.16h.15a12.5 12.5 0 0 1 14.39-2.44 10.8 10.8 0 0 1 1.42.84 14.622 14.622 0 0 1 6.19 10.03z" fill="#bc988b"/><path d="m345.42 108.255v70.95l-.09.16a12.5 12.5 0 0 0 -14.39 2.44h-.15v-13.79a6.432 6.432 0 0 0 -6.43-6.43 6.419 6.419 0 0 1 -6.42-6.43v-26.74a17.055 17.055 0 0 0 -22.93-16.01l-1.17.42a108.875 108.875 0 0 1 -75.6-.23 17.026 17.026 0 0 0 -23.02 15.98v26a7 7 0 0 1 -7 7.01 7 7 0 0 0 -7.01 7.01v13.21h-.31a12.521 12.521 0 0 0 -14.2-2.54l-.12-.19v-51.63a86.2 86.2 0 0 1 122.33-78.26l8.14 3.76a10.72 10.72 0 0 0 8.93 8.87 47.059 47.059 0 0 1 39.44 46.44z" fill="#7f3d32"/><path d="m304.39 332.205a46.6 46.6 0 0 1 -1.53 17.69 47.361 47.361 0 0 1 -3.66 9.12 47.891 47.891 0 0 1 -5.49 8.15l-7.46 8.9a6.376 6.376 0 0 1 -10.25-.63l-19.87-30.67 15.74-8.75a37.458 37.458 0 0 0 19.27-32.75l4.5 6.18a46.739 46.739 0 0 1 8.75 22.76z" fill="#65b8fc"/><path d="m220.91 279.015-.05.09v24.16a37.458 37.458 0 0 0 19.27 32.75l15.74 8.75h.26l15.74-8.75a37.458 37.458 0 0 0 19.27-32.75v-24.28z" fill="#bc988b"/><path d="m255.87 344.765-19.87 30.67a6.376 6.376 0 0 1 -10.25.63l-7.46-8.9a47.891 47.891 0 0 1 -5.49-8.15 47.361 47.361 0 0 1 -3.66-9.12 46.912 46.912 0 0 1 7.22-40.45l4.5-6.18a37.458 37.458 0 0 0 19.27 32.75z" fill="#65b8fc"/><path d="m230.61 470.745h-40.46l-37.81-64.18 29.82-2.97-20.25-21.53 28.2-49.95h6.68v.82a194.892 194.892 0 0 0 33.82 137.81z" fill="#48485b"/><path d="m152.34 406.565 37.81 64.18h-59.15v-94.93a43.706 43.706 0 0 1 43.7-43.7h15.41l-28.2 49.95 20.25 21.53z" fill="#37373f"/><path d="m181.21 181.805v23.16h-.31a14.7 14.7 0 0 1 -15.81-24.76 11.853 11.853 0 0 1 1.61-.94 12.521 12.521 0 0 1 14.2 2.54z" fill="#bc988b"/><path d="m324.36 161.585a6.419 6.419 0 0 1 -6.42-6.43v-26.74a17.055 17.055 0 0 0 -22.93-16.01l-1.17.42a108.875 108.875 0 0 1 -75.6-.23 17.026 17.026 0 0 0 -23.02 15.98v26a7 7 0 0 1 -7 7.01 7 7 0 0 0 -7.01 7.01v44.36a74.79 74.79 0 1 0 149.58 0v-44.94a6.432 6.432 0 0 0 -6.43-6.43z" fill="#e1b7a3"/><path d="m161 421.265v-15.563l-8.66.863z" fill="none"/><path d="m152.34 406.565 8.66-.865v-29.885a43.712 43.712 0 0 1 27.308-40.508l1.8-3.192h-15.408a43.706 43.706 0 0 0 -43.7 43.7v94.93h30v-49.48z" fill="#28282d"/><path d="m250.91 279.015a74.775 74.775 0 0 1 -39.7-66.06v-101.4a17.061 17.061 0 0 0 -15.99 17.017v26a7 7 0 0 1 -7 7.01 7 7 0 0 0 -7.01 7.01v44.36a74.815 74.815 0 0 0 89.79 73.279 74.242 74.242 0 0 1 -20.09-7.216z" fill="#bf9d90"/><g fill="#20344c"><path d="m211.51 305.9a52.828 52.828 0 0 0 -9.03 20.208h-27.78a49.76 49.76 0 0 0 -49.7 49.7v94.932a6 6 0 0 0 6 6h250a6 6 0 0 0 6-6v-94.925a49.76 49.76 0 0 0 -49.7-49.7h-27.78a52.841 52.841 0 0 0 -9.029-20.208l-3.351-4.6v-18.862a80.82 80.82 0 0 0 39.652-69.495v-.023c.522.04 1.044.066 1.567.066a20.714 20.714 0 0 0 20.523-23.624 20.532 20.532 0 0 0 -7.465-13.142v-67.973a53.134 53.134 0 0 0 -34.163-49.566 27.793 27.793 0 0 0 8.77-5.916 6 6 0 1 0 -8.484-8.485 16.018 16.018 0 0 1 -17.974 3.206l-8.144-3.76a92.2 92.2 0 0 0 -130.839 83.715v48.659a20.52 20.52 0 0 0 -7.622 13.262 20.714 20.714 0 0 0 20.523 23.624c.576 0 1.151-.033 1.724-.081v.038a80.82 80.82 0 0 0 39.652 69.5v18.864zm-74.51 158.847v-88.932a37.745 37.745 0 0 1 37.7-37.7h5.129l-23.147 41a6 6 0 0 0 .854 7.061l11.907 12.664-17.7 1.762a6 6 0 0 0 -4.575 9.015l32.476 55.137zm56.577 0-31.3-53.141 20.481-2.039a6 6 0 0 0 3.776-10.081l-17.226-18.321 20.23-35.832a200.167 200.167 0 0 0 29.92 119.414zm56.548 0h-16.353a188.276 188.276 0 0 1 -32.052-121.463 53.613 53.613 0 0 0 1.647 8.246 52.58 52.58 0 0 0 10.323 19.488l7.458 8.9a12.256 12.256 0 0 0 9.469 4.433q.391 0 .785-.024a12.27 12.27 0 0 0 9.635-5.628l9.088-14.027zm-7.079-133.975a31.484 31.484 0 0 1 -16.186-27.507v-14.982a80.5 80.5 0 0 0 58.28 0v14.982a31.484 31.484 0 0 1 -16.186 27.507l-12.954 7.196zm94.251 7.339a37.745 37.745 0 0 1 37.7 37.7v88.932h-42.304l32.477-55.133a6 6 0 0 0 -4.57-9.01l-17.7-1.762 11.908-12.664a6 6 0 0 0 .853-7.061l-23.147-41zm5.741 43.053-17.228 18.322a6 6 0 0 0 3.777 10.081l20.48 2.039-31.3 53.141h-26.726a200.171 200.171 0 0 0 29.793-121.137zm-34.405-29.634a54.036 54.036 0 0 0 1.32-5.873 188.28 188.28 0 0 1 -32.227 119.09h-15.6v-99.688l8.837 13.64a12.271 12.271 0 0 0 9.636 5.629q.393.024.785.024a12.261 12.261 0 0 0 9.47-4.433l7.457-8.9a52.568 52.568 0 0 0 10.322-19.489zm-11.543-3.283a40.6 40.6 0 0 1 -7.98 15.063l-7.457 8.9a.369.369 0 0 1 -.32.139.352.352 0 0 1 -.3-.176l-16.381-25.283 10.13-5.627a43.485 43.485 0 0 0 19.518-22.563 40.578 40.578 0 0 1 2.79 29.547zm46.25-163.113a8.7 8.7 0 0 1 -1.649 15.2 8.818 8.818 0 0 1 -4.9.5v-15.951a6.359 6.359 0 0 1 6.549.251zm-168.132 15.666a8.813 8.813 0 0 1 -5.056-.464 8.7 8.7 0 0 1 -1.648-15.2 6.371 6.371 0 0 1 6.7-.161zm0-32.21v3.767a18.378 18.378 0 0 0 -2.625-.27v-44.639a80.2 80.2 0 0 1 113.81-72.819l6.987 3.225a6 6 0 0 0 4.981 9.345 41.1 41.1 0 0 1 41.056 41.055v63.827a18.372 18.372 0 0 0 -2.625.256v-4.325a12.442 12.442 0 0 0 -12.428-12.428.428.428 0 0 1 -.428-.428v-26.746a23.038 23.038 0 0 0 -27.565-22.6 44.908 44.908 0 0 0 -16.449-33.959l-23.653-21.751a6 6 0 0 0 -8.123 8.833l23.789 21.877c.095.087.192.171.292.252a32.873 32.873 0 0 1 12.03 28.542 102.822 102.822 0 0 1 -12.257 2.654 34.877 34.877 0 0 0 -12.723-28.258l-16.994-15.587a6 6 0 1 0 -8.111 8.843l17.128 15.707c.093.085.187.166.285.245a22.833 22.833 0 0 1 8.313 20.2 103.089 103.089 0 0 1 -12.5-.326 26.906 26.906 0 0 0 -9.93-19.649l-5.342-4.315a6 6 0 1 0 -7.541 9.335l5.342 4.315a14.842 14.842 0 0 1 5.173 8.472 102.738 102.738 0 0 1 -14.755-4.261 23.053 23.053 0 0 0 -31.119 21.6v26.007a1.008 1.008 0 0 1 -1.008 1.007 13.022 13.022 0 0 0 -13.01 12.999zm12 44.358v-44.356a1.008 1.008 0 0 1 1.007-1.008 13.022 13.022 0 0 0 13.008-13.007v-26.007a11.086 11.086 0 0 1 11.016-11.07 11.133 11.133 0 0 1 3.9.714 115 115 0 0 0 79.766.245l1.17-.429a11.053 11.053 0 0 1 14.857 10.378v26.746a12.442 12.442 0 0 0 12.428 12.428.428.428 0 0 1 .428.428v44.94a68.792 68.792 0 1 1 -137.584 0zm30.492 105.752a43.485 43.485 0 0 0 19.522 22.562l10.13 5.627-16.382 25.286a.35.35 0 0 1 -.3.175.366.366 0 0 1 -.32-.139l-7.457-8.9a40.9 40.9 0 0 1 -5.193-44.611z"/><circle cx="237" cy="401.43" r="6.5"/><circle cx="237" cy="434.43" r="6.5"/><circle cx="275" cy="401.43" r="6.5"/><circle cx="275" cy="434.43" r="6.5"/><path d="m281.752 233.988a6 6 0 1 0 -8.484-8.485 24.451 24.451 0 0 1 -34.536 0 6 6 0 1 0 -8.484 8.485 36.46 36.46 0 0 0 51.5 0z"/><path d="m277.5 197.412a6 6 0 0 0 6-6 6.9 6.9 0 1 1 13.805 0 6 6 0 0 0 12 0 18.9 18.9 0 1 0 -37.805 0 6 6 0 0 0 6 6z"/><path d="m234.5 197.412a6 6 0 0 0 6-6 18.9 18.9 0 1 0 -37.805 0 6 6 0 0 0 12 0 6.9 6.9 0 1 1 13.805 0 6 6 0 0 0 6 6z"/></g></svg>