<svg id="Layer_1" height="512" viewBox="0 0 512 512" width="512" xmlns="http://www.w3.org/2000/svg" data-name="Layer 1"><path d="m290.771 320.8v-32.7h-68.679v32.7a19.975 19.975 0 0 1 -10.67 17.69l.01.02a55.311 55.311 0 0 0 11.66 33.28l33.45 42.99 33.458-42.99a54.159 54.159 0 0 0 11.43-33.28l.01-.02a19.974 19.974 0 0 1 -10.669-17.69z" fill="#efada3"/><path d="m245.162 73.59s36.88 7.37 69.36 45.78l-.01.01c8.16 14.95-4.6 35.34-4.6 35.34-24.48-51.16-74.15-63.01-74.98-63.21a196.218 196.218 0 0 0 10.52-22.84 33.238 33.238 0 0 0 -.29 4.92z" fill="#bc5e51"/><path d="m381.432 479.44h-250v-94.93a43.708 43.708 0 0 1 43.7-43.71h16.35a75.769 75.769 0 0 0 15.83 43.28l49.23 63.27 49.24-63.27a74.528 74.528 0 0 0 15.61-43.28h16.34a43.708 43.708 0 0 1 43.7 43.71z" fill="#81c83d"/><path d="m310.772 340.8h10.62a74.528 74.528 0 0 1 -15.61 43.28l-49.24 63.27-49.23-63.27a75.769 75.769 0 0 1 -15.83-43.28h10.61a19.8 19.8 0 0 0 9.33-2.31l.01.02a55.311 55.311 0 0 0 11.66 33.28l33.45 42.99 33.458-42.99a54.159 54.159 0 0 0 11.43-33.28l.01-.02a19.8 19.8 0 0 0 9.332 2.31z" fill="#f7941d"/><path d="m255.422 45.12a41.252 41.252 0 0 0 -16.89-10.05c-22.73-7.34-47.6 1.59-61.221 21.21-15.839 22.82-40.049 61.57-56.969 106.5-26.42 70.11 25.9 144.95 100.82 144.95h.93v-19.63a74.8 74.8 0 0 1 -40.45-66.46v-66.45c25.589-17.83 43.16-44.64 53.29-63.68a196.423 196.423 0 0 0 10.52-22.84l.01-.01a40.719 40.719 0 0 1 10.67-23.08z" fill="#7f3d32"/><path d="m314.521 119.37-.009.01c8.16 14.95-4.6 35.34-4.6 35.34-24.48-51.16-74.15-63.01-74.98-63.21-10.13 19.04-27.7 45.85-53.29 63.68v66.45a74.79 74.79 0 1 0 149.58 0v-78.633a171.973 171.973 0 0 0 -16.701-23.637z" fill="#ffc9c0"/><path d="m181.642 190.49v23.16h-.31a14.7 14.7 0 0 1 -15.81-24.76 12.436 12.436 0 0 1 15.81 1.6z" fill="#ffc9c0"/><path d="m391.662 162.78c-16.931-44.93-41.13-83.68-56.97-106.5-13.62-19.62-38.5-28.55-61.22-21.21a41.058 41.058 0 0 0 -17.34 10.51 40.719 40.719 0 0 0 -10.67 23.08l-.01.01a33.238 33.238 0 0 0 -.29 4.92s36.88 7.37 69.359 45.78a171.973 171.973 0 0 1 16.7 23.637v78.633a74.884 74.884 0 0 1 -40.451 66.46v19.63h.071c74.921 0 127.231-74.84 100.821-144.95z" fill="#6d352d"/><path d="m191.4 343.044c-.05-.714.116-1.044.087-2.044h-16.35c-24.137 0-44.137 19.37-44.137 43.51v94.49h30v-94.49a43.79 43.79 0 0 1 30.4-41.466z" fill="#72a839"/><path d="m252.293 288.1a74.662 74.662 0 0 1 -40.293-66.46v-95.15a157.358 157.358 0 0 1 -30 28.7v66.45a74.535 74.535 0 0 0 89.476 73.277 73.247 73.247 0 0 1 -19.183-6.817z" fill="#d3a59f"/><g fill="#20344c"><path d="m309.74 190.12a18.9 18.9 0 0 0 -37.805 0 6 6 0 0 0 12 0 6.9 6.9 0 0 1 13.805 0 6 6 0 0 0 12 0z"/><path d="m234.928 196.12a6 6 0 0 0 6-6 18.9 18.9 0 1 0 -37.8 0 6 6 0 0 0 12 0 6.9 6.9 0 1 1 13.8 0 6 6 0 0 0 6 6z"/><path d="m273.7 234.211a24.446 24.446 0 0 1 -34.533 0 6 6 0 0 0 -8.485 8.486 36.46 36.46 0 0 0 51.5 0 6 6 0 1 0 -8.486-8.486z"/><path d="m384.391 264.683c21.423-30.964 26.119-68.87 12.884-104-16.841-44.7-40.649-83.3-57.656-107.8-15.176-21.87-43.142-31.532-68-23.5a48.34 48.34 0 0 0 -15.587 8.279 48.942 48.942 0 0 0 -15.657-8.279c-24.859-8.036-52.821 1.628-68 23.5-17.007 24.507-40.815 63.1-57.656 107.8-13.235 35.129-8.539 73.035 12.884 104a113.79 113.79 0 0 0 88.497 48.938v7.205a14.016 14.016 0 0 1 -14 14h-26.96a49.76 49.76 0 0 0 -49.7 49.7v94.932a6 6 0 0 0 6 6h250a6 6 0 0 0 6-6v-94.929a49.76 49.76 0 0 0 -49.7-49.7h-26.96a14.016 14.016 0 0 1 -14-14v-7.245a113.793 113.793 0 0 0 87.611-48.901zm-132.938-195.757c1.02-7.454 5.4-22.156 23.859-28.124 19.873-6.421 42.262 1.359 54.449 18.921 16.62 23.949 39.876 61.64 56.284 105.191a101.426 101.426 0 0 1 -89.277 136.664v-9.962a80.821 80.821 0 0 0 40.456-69.957v-53.052a243.338 243.338 0 0 1 15.6 55.8 6 6 0 1 0 11.851-1.887c-11.106-69.71-42.441-108.02-66.775-127.88-19.686-16.069-37.895-22.976-46.461-25.567.005-.049.012-.098.014-.147zm57.977 72.309c-20.711-34.224-51.782-48.418-65.844-53.337 1.375-2.8 2.56-5.343 3.553-7.569 7.009 2.057 24.712 8.389 43.7 24.04a148.117 148.117 0 0 1 18.685 18.467c2.695 5.505 1.764 12.506-.094 18.399zm-171.953 116.621a99.57 99.57 0 0 1 -11.522-92.942c16.408-43.551 39.664-81.242 56.284-105.191 12.187-17.562 34.577-25.344 54.449-18.921a37.564 37.564 0 0 1 11.075 5.627 47.53 47.53 0 0 0 -8.277 21.071c-3.147 8.092-28.828 70.581-78.765 92.727a6 6 0 1 0 4.865 10.969c3.464-1.536 6.813-3.241 10.054-5.083v14.952a18.117 18.117 0 0 0 -13.53 2.905 20.554 20.554 0 0 0 -8.717 14.1 20.714 20.714 0 0 0 20.523 23.63c.576 0 1.15-.033 1.724-.082v.039a80.822 80.822 0 0 0 40.46 69.959v10a100.348 100.348 0 0 1 -78.623-43.76zm38.163-64.174v15.828a8.8 8.8 0 0 1 -5.056-.464 8.7 8.7 0 0 1 -1.649-15.2 6.373 6.373 0 0 1 6.705-.164zm162.088 153.144a37.746 37.746 0 0 1 37.7 37.7v88.932h-36.535a62.533 62.533 0 0 0 -2.248-43.384 6 6 0 0 0 -11.014 4.763 50.443 50.443 0 0 1 .518 38.621h-139.436a50.462 50.462 0 0 1 .518-38.621 6 6 0 1 0 -11.013-4.763 62.533 62.533 0 0 0 -2.248 43.384h-36.538v-88.929a37.745 37.745 0 0 1 37.7-37.7h10.813a81.836 81.836 0 0 0 16.627 40.956l49.234 63.273a6 6 0 0 0 4.735 2.315 6 6 0 0 0 4.735-2.315l49.237-63.264a80.574 80.574 0 0 0 16.463-40.965zm-30.846-.292 8.034.292a68.512 68.512 0 0 1 -13.869 33.593l-44.5 57.182-44.5-57.189a69.768 69.768 0 0 1 -14.02-33.586l8.036-.3a61.708 61.708 0 0 0 12.3 28.976l33.451 42.989a6 6 0 0 0 4.734 2.316 6 6 0 0 0 4.735-2.315l33.454-42.992a60.466 60.466 0 0 0 12.145-28.966zm-11.567-4.814a48.413 48.413 0 0 1 -10.046 26.41l-28.723 36.905-28.716-36.906a49.612 49.612 0 0 1 -10.241-26.438 25.977 25.977 0 0 0 10.511-20.865v-23.517a80.649 80.649 0 0 0 56.673 0v23.517a25.976 25.976 0 0 0 10.542 20.894zm-38.883-51.269a68.869 68.869 0 0 1 -68.792-68.792v-63.327c23.421-17.138 39.975-41.091 50.3-59.638 12.314 4.141 47.625 19.064 66.567 58.642a6 6 0 0 0 5.074 3.4c.114.007.226.01.339.01a6 6 0 0 0 5.08-2.819 62.392 62.392 0 0 0 7.185-18.02c1.047 1.626 2.053 3.265 3.038 4.911v76.841a68.87 68.87 0 0 1 -68.791 68.792z"/></g></svg>