<svg id="Layer_1" height="512" viewBox="0 0 512 512" width="512" xmlns="http://www.w3.org/2000/svg" data-name="Layer 1"><path d="m314.25 302.522a81.784 81.784 0 0 0 -9.16-13.019l-97.555-.641a83.621 83.621 0 0 0 -9.743 13.66c-13.109 23.53-12.171 48.279-2.281 75.469l35.569 98.009h49.84l35.59-98.009c9.89-27.191 10.85-51.939-2.26-75.469z" fill="#e9fbff"/><path d="m221.66 297.593v18.34h-.01a37.477 37.477 0 0 0 18.48 25.119l15.74 8.75h.26l15.74-8.75a37.434 37.434 0 0 0 18.47-25.059v-17.17z" fill="#edcfcc"/><path d="m290.34 315.993a37.1 37.1 0 0 0 .8-7.691l4.5 6.17a46.869 46.869 0 0 1 -1.93 57.73l-7.46 8.9a6.381 6.381 0 0 1 -10.25-.631l-.66-1.02-19.21-29.651 15.74-8.75a37.434 37.434 0 0 0 18.47-25.057z" fill="#cae6ee"/><path d="m255.87 349.8-19.29 29.771-.58.9a6.381 6.381 0 0 1 -10.25.631l-7.46-8.9a46.886 46.886 0 0 1 -1.93-57.73l4.5-6.17a37.511 37.511 0 0 0 19.27 32.75z" fill="#cae6ee"/><path d="m358.25 358.6a3.148 3.148 0 0 1 2.84 4.509l-51.9 108.071-2.12 4.6h-26.15l35.59-97.9c9.89-27.19 10.85-51.83-2.26-75.36a81.784 81.784 0 0 0 -9.16-13.019c.67-.531 1.33-1.07 1.98-1.641 21.78 15.01 36.13 33.561 42.48 51.03.37.99.7 1.98 1.01 2.961a8.381 8.381 0 0 1 -4.15 9.939l-13.25 6.81z" fill="#7b7bba"/><path d="m195.49 377.882 35.59 97.9h-26.1l-2.17-4.6-51.9-108.071a3.148 3.148 0 0 1 2.84-4.509h25.09l-13.25-6.811a8.381 8.381 0 0 1 -4.15-9.939c.31-.981.64-1.971 1.01-2.961 6.42-17.649 21.01-36.42 43.17-51.51.6.51 1.21 1 1.83 1.48a83.313 83.313 0 0 0 -9.7 13.66c-13.11 23.531-12.15 48.171-2.26 75.361z" fill="#7b7bba"/><path d="m202.81 471.183 2.17 4.6h-73.98v-94.93a43.726 43.726 0 0 1 30.71-41.741l.74-.22c-.37.99-.7 1.98-1.01 2.961a8.381 8.381 0 0 0 4.15 9.939l13.25 6.811h-25.09a3.148 3.148 0 0 0 -2.84 4.509z" fill="#56568c"/><path d="m309.19 471.183 51.9-108.071a3.148 3.148 0 0 0 -2.84-4.509h-25.09l13.25-6.811a8.381 8.381 0 0 0 4.15-9.939c-.31-.981-.64-1.971-1.01-2.961a43.728 43.728 0 0 1 31.45 41.961v94.929h-73.93z" fill="#56568c"/><path d="m256.13 349.8 19.21 29.65-.38.25-8.71 7.17a14.912 14.912 0 0 0 -20.87.2l-8.59-7.371-.21-.129 19.29-29.77z" fill="#de3c44"/><path d="m277.96 471.573.63 4.209h-45.36l.56-4.209 11.22-82.65.37-1.85a14.912 14.912 0 0 1 20.87-.2l.49 2.051z" fill="#e84d7a"/><path d="m330.79 216.123v-54.611l.01-.01c-.66-.549-1.3-1.129-1.92-1.75a38.363 38.363 0 0 1 -11.24-27.139v-23.313a27.149 27.149 0 0 0 -27.15-27.149h-2.6a27.041 27.041 0 0 0 -18.25 7.05c-9.78 8.889-24.09 10.6-35.3 3.589l-.76-.48a26.655 26.655 0 0 1 -8.96 1.631v.01h3.75v2.719a13.392 13.392 0 0 1 -13.39 13.4 13.384 13.384 0 0 0 -13.4 13.389v1.34a20.392 20.392 0 0 1 -20.39 20.391h-.01l.01 29.109v41.851a9.424 9.424 0 0 0 -1.75 5.5v2.72a10.878 10.878 0 0 0 10.88 10.879h131.36a10.878 10.878 0 0 0 10.88-10.879v-2.72a9.439 9.439 0 0 0 -1.77-5.527z" fill="#fdddd8"/><path d="m181.59 242.472a20.034 20.034 0 0 0 17.9 11.011h15.72a14.189 14.189 0 0 0 14.2-14.191v-.392a5.464 5.464 0 0 1 5.47-5.471 20.056 20.056 0 0 0 20.06-20.05h1.12a20.056 20.056 0 0 0 20.06 20.05h2c3.02 0 3.47 2.45 3.47 5.471v.389a14.189 14.189 0 0 0 14.2 14.191h16.72a20.048 20.048 0 0 0 18.01-11.221c-.04.5-.09 1-.15 1.49a68.085 68.085 0 0 1 -23.3 44.11c-.65.571-1.31 1.11-1.98 1.641a67.348 67.348 0 0 1 -8.79 5.939l-5.96 3.381-32.28 18.33-36.4-19.56-4.58-2.461a67.163 67.163 0 0 1 -9.63-6.27c-.62-.48-1.23-.97-1.83-1.48a68.1 68.1 0 0 1 -23.69-42.21c-.13-.9-.25-1.8-.35-2.7z" fill="#7f3d32"/><path d="m224.62 93.943v.01h-18.78a24.659 24.659 0 0 0 -24.66 24.66v26.58l.01 29.109h-1.75a18.662 18.662 0 0 1 -18.67-18.66v-59.1a31.465 31.465 0 0 1 31.46-31.459h9.35a40.465 40.465 0 0 0 -1.72 11.75s8.42 17.11 24.76 17.11z" fill="#bc5e51"/><path d="m351.02 146.113v22.387h-1.04a29.81 29.81 0 0 1 -19.18-7c-.66-.549-1.3-1.129-1.92-1.75a38.363 38.363 0 0 1 -11.24-27.139v-23.311a27.149 27.149 0 0 0 -27.15-27.149h-2.6a27.041 27.041 0 0 0 -18.25 7.05c-9.78 8.889-24.09 10.6-35.3 3.589l-.76-.48v-10.157c0-19.58 17.96-24.08 37.14-20.16l44.98 10.479c1.3.3 2.58.66 3.83 1.07a45.947 45.947 0 0 1 31.7 43.68z" fill="#bc5e51"/><path d="m228.37 93.953v2.719a13.392 13.392 0 0 1 -13.39 13.4 13.384 13.384 0 0 0 -13.4 13.389v1.34a20.392 20.392 0 0 1 -20.39 20.391h-.01v-26.58a24.659 24.659 0 0 1 24.66-24.66h22.53z" fill="#7f3d32"/><path d="m321.63 72.472-2.1 1.07c-1.25-.41-2.53-.769-3.83-1.07l-44.98-10.479c-19.18-3.92-37.14.58-37.14 20.16v10.159a26.655 26.655 0 0 1 -8.96 1.631c-16.34 0-24.76-17.11-24.76-17.11a40.538 40.538 0 0 1 48.72-39.771l52.97 10.811a25.1 25.1 0 0 1 20.08 24.599z" fill="#7f3d32"/><path d="m352.94 189.262a14.694 14.694 0 0 1 -22 14.731l-.15-.1v-22.91l.15-.15a12.436 12.436 0 0 1 15.81-1.6 14.62 14.62 0 0 1 6.19 10.029z" fill="#edcfcc"/><path d="m181.19 180.833v22.979h-.01l-.28.181a14.7 14.7 0 0 1 -15.81-24.76 12.436 12.436 0 0 1 15.81 1.6z" fill="#edcfcc"/><path d="m201.58 123.462v1.34a20.392 20.392 0 0 1 -20.39 20.391h-.01l.01 29.109v41.851a9.424 9.424 0 0 0 -1.75 5.5v2.72a10.878 10.878 0 0 0 10.88 10.879h30a10.878 10.878 0 0 1 -10.88-10.879v-2.72a9.424 9.424 0 0 1 1.75-5.5v-41.853l-.008-63.675a13.358 13.358 0 0 0 -9.6 12.835z" fill="#dbbeba"/><path d="m150.91 363.112 10.09 21.011v-3.27a43.493 43.493 0 0 1 6.088-22.25h-13.338a3.148 3.148 0 0 0 -2.84 4.509z" fill="none"/><path d="m150.91 363.112a3.148 3.148 0 0 1 2.84-4.509h13.338a43.715 43.715 0 0 1 3.044-4.476l-4.542-2.335a8.381 8.381 0 0 1 -4.15-9.939c.31-.981.64-1.971 1.01-2.961l-.74.22a43.726 43.726 0 0 0 -30.71 41.741v94.929h30v-91.659z" fill="#4c4c75"/><path d="m247.08 295.132a67.163 67.163 0 0 1 -9.63-6.27c-.62-.48-1.23-.97-1.83-1.48a68.108 68.108 0 0 1 -21.9-33.9h-14.23a20.034 20.034 0 0 1 -17.9-11.011h-.01c.1.9.22 1.8.35 2.7a68.1 68.1 0 0 0 23.69 42.21c.6.51 1.21 1 1.83 1.48a67.163 67.163 0 0 0 9.63 6.27l4.58 2.461 36.4 19.56 14.587-8.283-20.987-11.276z" fill="#66322b"/><path d="m332.56 224.373v9.059a20.027 20.027 0 0 1 -20.05 20.051h-16.72a14.189 14.189 0 0 1 -14.2-14.191v-.392c0-3.021-.45-5.471-3.47-5.471h-2a20.056 20.056 0 0 1 -20.06-20.05h-1.12a20.056 20.056 0 0 1 -20.06 20.05 5.464 5.464 0 0 0 -5.47 5.471v.389a14.189 14.189 0 0 1 -14.2 14.191h-15.72a20.042 20.042 0 0 1 -20.05-20.051v-9.059a10.878 10.878 0 0 0 10.88 10.879h16.75a14.594 14.594 0 0 0 14.6-14.589 14.6 14.6 0 0 1 14.59-14.6h38.48a14.6 14.6 0 0 1 14.59 14.6 14.6 14.6 0 0 0 14.6 14.589h17.75a10.878 10.878 0 0 0 10.88-10.876z" fill="#bc5e51"/><g fill="#20344c"><path d="m354.106 334.073c-6.874-17.03-19.985-33.316-37.71-46.842a74.3 74.3 0 0 0 19.939-42.812c.022-.2.039-.4.06-.595a25.905 25.905 0 0 0 2.17-10.4v-11.774a15.432 15.432 0 0 0 -1.773-7.181v-2.514c.522.04 1.044.065 1.568.065a20.712 20.712 0 0 0 20.522-23.62 20.535 20.535 0 0 0 -8.452-13.9h.593a6 6 0 0 0 6-6v-22.371l.2-28.912a51.7 51.7 0 0 0 -29.681-46.956 31.22 31.22 0 0 0 -24.8-28.27l-52.966-10.815a46.64 46.64 0 0 0 -52.422 27.906h-5.122a37.5 37.5 0 0 0 -37.459 37.46v59.1a24.6 24.6 0 0 0 7.876 18.046c-.326.2-.653.389-.969.608a20.545 20.545 0 0 0 -8.719 14.1 20.711 20.711 0 0 0 20.522 23.624c.569 0 1.136-.032 1.7-.079v2.575a15.432 15.432 0 0 0 -1.75 7.134v11.779a25.908 25.908 0 0 0 2.318 10.721c.078.634.15 1.27.244 1.9a74.4 74.4 0 0 0 20.214 40.726c-17.812 13.5-31.383 30.227-38.331 47.287a49.46 49.46 0 0 0 -32.878 46.785v94.932a6 6 0 0 0 6 6h250a6 6 0 0 0 6-6v-94.932a49.974 49.974 0 0 0 -32.894-46.775zm-9.273 9.575a2.351 2.351 0 0 1 -1.17 2.8l-13.246 6.813a5.975 5.975 0 0 0 -1.522 1.128c2.405-15.664 1.054-29.919-4.08-43.4 9.544 10.28 16.518 21.524 20.018 32.659zm-32.322-96.166h-16.726a8.207 8.207 0 0 1 -8.2-8.2v-.382c0-10.352-6.622-11.469-9.47-11.469h-2a14.069 14.069 0 0 1 -14.052-14.054 5.975 5.975 0 0 0 -.149-1.312h12.826a8.6 8.6 0 0 1 8.595 8.595 20.617 20.617 0 0 0 20.594 20.594h17.755a16.8 16.8 0 0 0 2.632-.227 14.042 14.042 0 0 1 -11.805 6.455zm-48.639-11.123a24.346 24.346 0 0 1 -16.356-.205 26.259 26.259 0 0 0 7.984-6.88 26.231 26.231 0 0 0 8.372 7.085zm77.819-36.994a8.818 8.818 0 0 1 -4.9.5v-15.956a6.361 6.361 0 0 1 6.548.252 8.7 8.7 0 0 1 -1.649 15.2zm3.537-82.191-.06 8.38a23.61 23.61 0 0 0 -11.9-3.2 6 6 0 0 0 0 12 11.769 11.769 0 0 1 11.755 11.755v15.874a23.7 23.7 0 0 1 -11.9-6.472 32.17 32.17 0 0 1 -9.484-22.9v-23.317a33.187 33.187 0 0 0 -33.15-33.149h-2.592a33.068 33.068 0 0 0 -22.29 8.613 23.282 23.282 0 0 1 -26.021 4.088v-6.7c0-5.184 1.5-8.928 4.585-11.447 4.974-4.06 14.183-5.1 25.274-2.845l44.9 10.457a39.77 39.77 0 0 1 30.883 38.863zm-126.655-67.142a34.465 34.465 0 0 1 28.8-7.1l52.977 10.817a19.178 19.178 0 0 1 14.15 12.278l-42.421-9.881-.161-.035c-14.887-3.038-27.441-1.16-35.344 5.291-4.1 3.351-9 9.669-9 20.743v5.543c-12.206 1.924-19.475-8.5-21.7-12.32a34.457 34.457 0 0 1 12.699-25.336zm3.027 49.912a7.4 7.4 0 0 1 -6.621 4.12 19.419 19.419 0 0 0 -19.4 19.4v1.334a14.4 14.4 0 0 1 -8.4 13.069v-19.252a18.688 18.688 0 0 1 18.667-18.667zm-51.446 99.421a8.7 8.7 0 0 1 -1.648-15.2 6.37 6.37 0 0 1 6.679-.176v15.847a8.808 8.808 0 0 1 -5.033-.471zm5.024-80.753.005 48.936a12.671 12.671 0 0 1 -8.408-11.911v-59.095a25.488 25.488 0 0 1 25.459-25.46h1.988a46.9 46.9 0 0 0 -.364 5.751 5.984 5.984 0 0 0 .618 2.65 39.985 39.985 0 0 0 6.159 8.913 30.71 30.71 0 0 0 -25.459 30.216zm10.259 105.759v-2.721a3.54 3.54 0 0 1 3.536-3.535 6 6 0 0 0 0-12 15.485 15.485 0 0 0 -1.786.111v-31.805c0-.041.006-.081.006-.122s-.006-.081-.006-.121v-23.686a26.433 26.433 0 0 0 20.4-25.7v-1.332a7.406 7.406 0 0 1 7.4-7.4 19.413 19.413 0 0 0 19.1-16.145 5.777 5.777 0 0 0 .663-.089c12.767 6.06 27.96 3.779 38.934-6.192a21.093 21.093 0 0 1 14.219-5.493h2.592a21.173 21.173 0 0 1 21.15 21.149v23.317a44.091 44.091 0 0 0 13 31.383c.051.052.105.1.157.15v42.078a15.54 15.54 0 0 0 -1.763-.107 6 6 0 0 0 0 12 3.539 3.539 0 0 1 3.536 3.535v2.721a4.887 4.887 0 0 1 -4.881 4.881h-17.765a8.6 8.6 0 0 1 -8.594-8.595 20.618 20.618 0 0 0 -20.595-20.594h-38.48a20.618 20.618 0 0 0 -20.595 20.6 8.6 8.6 0 0 1 -8.594 8.594h-16.755a4.887 4.887 0 0 1 -4.881-4.882zm2.249 16.654a16.8 16.8 0 0 0 2.632.227h16.755a20.618 20.618 0 0 0 20.594-20.595 8.6 8.6 0 0 1 8.595-8.594h12.824a5.975 5.975 0 0 0 -.149 1.312 14.069 14.069 0 0 1 -14.052 14.054 11.483 11.483 0 0 0 -11.47 11.469v.386a8.207 8.207 0 0 1 -8.2 8.2h-15.726a14.042 14.042 0 0 1 -11.805-6.459zm4.006 17.264a25.975 25.975 0 0 0 7.8 1.193h15.726a20.222 20.222 0 0 0 20.2-20.059 25.887 25.887 0 0 0 4.216-.434c-.076.157-.15.317-.215.483a6 6 0 0 0 3.432 7.76 36.333 36.333 0 0 0 26.855-.217 6 6 0 0 0 3.322-7.77c.842.1 1.7.161 2.564.178a20.222 20.222 0 0 0 20.2 20.059h16.726a25.932 25.932 0 0 0 8.246-1.345 62.348 62.348 0 0 1 -24.428 30.263v-12.268a6 6 0 0 0 -12 0v19.2l-20.271 11.51v-18.878a6 6 0 0 0 -12 0v19.147l-24.4-13.106v-17.873a6 6 0 0 0 -12 0v11.168a62.515 62.515 0 0 1 -23.975-29.011zm45.526 88.011 10.13 5.628-16.382 25.285a.349.349 0 0 1 -.3.175.341.341 0 0 1 -.319-.137l-7.457-8.9a40.9 40.9 0 0 1 -5.194-44.611 43.485 43.485 0 0 0 19.522 22.56zm-9.554-31v-7.666l27.562 14.805a6 6 0 0 0 5.8-.069l23.31-13.234v6.164a31.479 31.479 0 0 1 -15.382 20.513l-12.954 7.187-12.954-7.2a31.483 31.483 0 0 1 -15.382-20.508zm28.336 45.338 11.364 17.54-1.364 1.122a21.144 21.144 0 0 0 -20.343.1l-1.167-1zm8.652-8.715 10.13-5.628a43.485 43.485 0 0 0 19.518-22.562 40.9 40.9 0 0 1 -5.194 44.611l-7.457 8.9a.354.354 0 0 1 -.319.138.351.351 0 0 1 -.3-.176zm-97.486-8.274c3.5-11.148 10.476-22.381 20.017-32.655-5.132 13.481-6.483 27.735-4.078 43.4a5.979 5.979 0 0 0 -1.522-1.129l-13.246-6.813a2.352 2.352 0 0 1 -1.171-2.803zm-30.166 126.131v-88.932a37.522 37.522 0 0 1 18.607-32.548 14.322 14.322 0 0 0 2.043 4.3h-3.9a9.152 9.152 0 0 0 -8.25 13.112l49.976 104.068zm71.778 0-.564-1.195-49.935-103.985h20.56a6 6 0 0 0 5.49-3.585 143.673 143.673 0 0 0 5.519 18.911l32.664 89.855zm21.187-14.621-28.84-79.334c-10.06-27.674-9.467-50.038 1.868-70.382a70.414 70.414 0 0 1 5.562-8.422q2.754 1.817 5.683 3.394l1.426.766v4.059l-4.154 5.695a52.872 52.872 0 0 0 2.18 65.114l7.458 8.9a12.258 12.258 0 0 0 9.468 4.433q.391 0 .785-.025a12.346 12.346 0 0 0 5.5-1.659l1.988 1.706zm10.135 14.621 10.783-79.51a8.98 8.98 0 0 1 9.976-.064l10.8 79.574zm32.735-80.56 2.032-1.673a12.325 12.325 0 0 0 5.733 1.813q.393.025.785.025a12.26 12.26 0 0 0 9.469-4.434l7.457-8.9a52.874 52.874 0 0 0 2.181-65.114l-4.155-5.695v-2.925l2.927-1.662c1.616-.917 3.185-1.9 4.717-2.928a69.642 69.642 0 0 1 5.027 7.717c11.335 20.345 11.928 42.709 1.868 70.383l-29.022 79.837zm30.4 80.56h-13.747l32.664-89.855a143.673 143.673 0 0 0 5.519-18.911 6 6 0 0 0 5.49 3.585h20.56l-49.973 104.069zm71.766 0h-58.476l6.763-14.083h21.941a6 6 0 0 0 0-12h-16.179l37.45-77.988a9.151 9.151 0 0 0 -8.25-13.11h-3.9a14.357 14.357 0 0 0 2.033-4.264 37.945 37.945 0 0 1 18.617 32.513z"/><path d="m277.5 182.439a6 6 0 0 0 6-6 6.9 6.9 0 0 1 13.805 0 6 6 0 1 0 12 0 18.9 18.9 0 0 0 -37.805 0 6 6 0 0 0 6 6z"/><path d="m208.691 182.439a6 6 0 0 0 6-6 6.9 6.9 0 0 1 13.805 0 6 6 0 0 0 12 0 18.9 18.9 0 0 0 -37.805 0 6 6 0 0 0 6 6z"/></g></svg>