<svg id="Layer_1" height="512" viewBox="0 0 512 512" width="512" xmlns="http://www.w3.org/2000/svg" data-name="Layer 1"><path d="m180.71 166.155-1.57 24.29-.13-.01a14.7 14.7 0 0 1 -13.92-25.7 12.422 12.422 0 0 1 15.62 1.42z" fill="#efada3"/><path d="m352.94 174.765a14.7 14.7 0 0 1 -19.97 15.72l-.1.01-1.59-24.48a12.41 12.41 0 0 1 15.47-1.28 14.622 14.622 0 0 1 6.19 10.03z" fill="#efada3"/><path d="m331 455.285h-75v-121.44a64.009 64.009 0 0 0 9.37-.68 29.045 29.045 0 0 0 17.88-9.93 29.691 29.691 0 0 0 7.09-19.26v-7.33a19.994 19.994 0 0 0 20 20h26.96a43.708 43.708 0 0 1 43.7 43.71v94.93z" fill="#d64c63"/><path d="m181 455.285h-50v-94.93a43.708 43.708 0 0 1 43.7-43.71h26.96a19.994 19.994 0 0 0 20-20v7.33a29.415 29.415 0 0 0 24.97 29.19 64.009 64.009 0 0 0 9.37.68v121.44z" fill="#ea5e75"/><path d="m256 333.845a64.009 64.009 0 0 1 -9.37-.68 29.415 29.415 0 0 1 -24.97-29.19v-39.27a77.356 77.356 0 0 0 68.68 0v39.27a29.691 29.691 0 0 1 -7.09 19.26 29.045 29.045 0 0 1 -17.88 9.93 64.009 64.009 0 0 1 -9.37.68z" fill="#efada3"/><path d="m221.66 264.705a76.17 76.17 0 0 1 -42.54-73.99l.02-.27 1.57-24.29.5-7.67v-26.98a74.79 74.79 0 0 1 149.58 0v26.98l.49 7.53 1.59 24.48.01.22a77.1 77.1 0 0 1 -111.22 73.99z" fill="#ffc9c0"/><circle cx="292.71" cy="165.945" fill="#a0eaea" r="30"/><path d="m201.66 316.645h-26.96a43.708 43.708 0 0 0 -43.7 43.71v94.93h30v-94.93a43.708 43.708 0 0 1 43.7-43.71z" fill="#c14f65"/><path d="m251.66 264.705a76.17 76.17 0 0 1 -42.54-73.99l.02-.27 1.57-24.29.5-7.67v-86.885a75.359 75.359 0 0 0 -8.1 7.015 74.579 74.579 0 0 0 -21.9 52.89v26.98l-.5 7.67-1.57 24.29-.02.27a77.078 77.078 0 0 0 91.88 80.564 76.778 76.778 0 0 1 -19.34-6.574z" fill="#ce9e97"/><circle cx="221.66" cy="165.945" fill="#a0eaea" r="30"/><g fill="#20344c"><path d="m337.3 310.651h-26.964a14.016 14.016 0 0 1 -14-14v-28.412a83.234 83.234 0 0 0 41.164-55.922 79.35 79.35 0 0 0 1.54-14.827 20.633 20.633 0 0 0 19.84-23.587 20.55 20.55 0 0 0 -8.718-14.106 18.094 18.094 0 0 0 -13.372-2.926v-25.366a80.792 80.792 0 1 0 -161.584 0v25.387a18.11 18.11 0 0 0 -13.529 2.906 20.55 20.55 0 0 0 -8.718 14.1 20.649 20.649 0 0 0 20 23.6 79.422 79.422 0 0 0 1.54 14.818 83.234 83.234 0 0 0 41.166 55.922v28.412a14.016 14.016 0 0 1 -14 14h-26.965a49.76 49.76 0 0 0 -49.7 49.7v94.933a6 6 0 0 0 6 6h250a6 6 0 0 0 6-6v-94.929a49.76 49.76 0 0 0 -49.7-49.703zm6.042-140.984a8.7 8.7 0 0 1 -1.649 15.205 8.952 8.952 0 0 1 -3.136.639l-1.065-16.411a6.293 6.293 0 0 1 5.847.567zm-169.896 15.852a8.924 8.924 0 0 1 -3.294-.648 8.7 8.7 0 0 1 -1.649-15.2 6.308 6.308 0 0 1 6-.509zm13.762-54.014a68.792 68.792 0 1 1 137.584 0v18.139a35.986 35.986 0 0 0 -67.6 10.485 36 36 0 0 0 -69.979-4.607zm129.5 34.44a24 24 0 1 1 -24-24 24.027 24.027 0 0 1 24.002 24zm-71.046 0a24 24 0 1 1 -24-24 24.027 24.027 0 0 1 24.002 24zm-59.409 43.966a71.2 71.2 0 0 1 -1.146-18.808l1.193-18.435a35.995 35.995 0 0 0 70.885-.907 35.991 35.991 0 0 0 68.94 7.549l.764 11.793a71.114 71.114 0 0 1 -140.636 18.808zm63.747 239.376h-63v-54a6 6 0 0 0 -12 0v54h-38v-88.933a37.746 37.746 0 0 1 37.7-37.7h26.961a25.873 25.873 0 0 0 16.41-5.851 35.413 35.413 0 0 0 27.683 22.3c1.411.206 2.826.359 4.243.48zm-2.5-122.059a23.5 23.5 0 0 1 -19.831-23.251v-30.238a82.653 82.653 0 0 0 56.672 0v30.241a23.5 23.5 0 0 1 -19.841 23.248 58.748 58.748 0 0 1 -17 0zm127.5 122.059h-38v-54a6 6 0 0 0 -12 0v54h-63v-109.7c1.417-.121 2.831-.274 4.241-.48a35.412 35.412 0 0 0 27.684-22.3 25.877 25.877 0 0 0 16.411 5.852h26.964a37.746 37.746 0 0 1 37.7 37.7z"/><circle cx="277.504" cy="377.381" r="7"/><circle cx="277.504" cy="404.924" r="7"/><circle cx="277.504" cy="432.467" r="7"/><circle cx="233.504" cy="377.381" r="7"/><circle cx="233.504" cy="404.924" r="7"/><circle cx="233.504" cy="432.467" r="7"/><path d="m271.5 165.945a6 6 0 0 0 12 0 6.9 6.9 0 0 1 13.8 0 6 6 0 0 0 12 0 18.9 18.9 0 0 0 -37.8 0z"/><path d="m202.692 165.945a6 6 0 0 0 12 0 6.9 6.9 0 0 1 13.8 0 6 6 0 0 0 12 0 18.9 18.9 0 0 0 -37.8 0z"/><path d="m281.752 218.522a6 6 0 1 0 -8.485-8.485 24.417 24.417 0 0 1 -34.534 0 6 6 0 1 0 -8.485 8.485 36.416 36.416 0 0 0 51.5 0z"/></g></svg>