<svg id="Layer_1" height="512" viewBox="0 0 512 512" width="512" xmlns="http://www.w3.org/2000/svg" data-name="Layer 1"><path d="m337.3 329h-162.6a43.433 43.433 0 0 0 -43.7 43.386v39.614h50v19h150v-19h50v-39.614a43.433 43.433 0 0 0 -43.7-43.386z" fill="#4e6cca"/><path d="m181 329v.156 64.844h149.79.21v-64.844-.156z" fill="#e75163"/><path d="m181.21 116.276v62.09h-.31s-23.39-44.41-23.39-74.55c0-12.93 4.31-23.24 16.63-26.27a58.47 58.47 0 0 1 57.79-27.9l2.69.36a30.756 30.756 0 0 1 31.65-1.74l3.29 1.74a31.056 31.056 0 0 1 39.1 5.33l10.62 11.464 2.4.4a23.04 23.04 0 0 1 17.76 31.18l7.13.42a14.689 14.689 0 0 1 12.87 19.85l-5.09 13.46a77.293 77.293 0 0 1 -19.79 29.35s-1.99-5.25-3.51-16.6a214.385 214.385 0 0 1 -1.72-28.47c0-12.22-14.86-36.45-42.68-20.62-15.41 8.77-33.74 19.36-63.89 5.6l-.02.05c-13.67 18.246-30.56 17.856-41.53 14.856z" fill="#7f3d32"/><path d="m180.9 430.586h150.04v36.73h-150.04z" fill="#e75163"/><path d="m316.94 376.126-56.54-31.08v-.67a67.147 67.147 0 0 0 9.7-.71 30.44 30.44 0 0 0 25.84-30.21v-17.89h1.08a30.494 30.494 0 0 1 25.49 30.08v46.59a4.142 4.142 0 0 1 -5.57 3.89z" fill="#cae6ee"/><path d="m295.12 273.266-70.27 4.26v35.92a30.448 30.448 0 0 0 25.84 30.219 66.591 66.591 0 0 0 19.41 0 30.438 30.438 0 0 0 25.84-30.209v-38.856z" fill="#e1b7a3"/><path d="m260.4 344.376v.67l-56.55 31.08a4.137 4.137 0 0 1 -5.56-3.89v-46.59a30.5 30.5 0 0 1 25.48-30.08h1.08v17.88a30.45 30.45 0 0 0 25.84 30.22 67.284 67.284 0 0 0 9.71.71z" fill="#cae6ee"/><path d="m181.21 178.366v23.16h-.31a14.7 14.7 0 0 1 -15.81-24.76 12.436 12.436 0 0 1 15.81 1.6z" fill="#e1b7a3"/><path d="m352.94 186.8a14.7 14.7 0 0 1 -22 14.73h-.15v-23.16h.15a12.436 12.436 0 0 1 15.81-1.6 14.622 14.622 0 0 1 6.19 10.03z" fill="#e1b7a3"/><path d="m329.33 116.386c0-12.22-14.86-36.45-42.68-20.62-15.41 8.77-33.74 19.36-63.89 5.6l-.02.05c-13.67 18.25-30.56 17.86-41.53 14.86v93.24a74.79 74.79 0 1 0 149.58 0v-64.616l.26-.04a214.385 214.385 0 0 1 -1.72-28.474z" fill="#edc1b0"/><path d="m330.94 411.425h50.06v55.89h-50.06z" fill="#e1b7a3"/><path d="m131 411.425h49.9v55.89h-49.9z" fill="#e1b7a3"/><path d="m204.7 329h-30a43.433 43.433 0 0 0 -43.7 43.386v39.614h30v-39.614a43.433 43.433 0 0 1 43.7-43.386z" fill="#4864aa"/><path d="m254.85 277.526a74.791 74.791 0 0 1 -43.64-68.01v-97.132c-10.783 6.874-21.975 6.086-30 3.892v93.24a74.821 74.821 0 0 0 89.826 73.27 73.891 73.891 0 0 1 -16.186-5.26z" fill="#ccaa9f"/><path d="m131 411.425h30v55.89h-30z" fill="#c19c8e"/><g fill="#20344c"><path d="m337.3 322.674h-8.912a36.347 36.347 0 0 0 -26.442-32.151v-14.612a80.746 80.746 0 0 0 34.849-66.4v-.024c.522.04 1.044.066 1.568.066a20.711 20.711 0 0 0 20.522-23.624 20.549 20.549 0 0 0 -8.718-14.106 18.1 18.1 0 0 0 -13.372-2.925v-1.876a6 6 0 0 0 1.839-1.162 83.569 83.569 0 0 0 21.326-31.64l5.092-13.456a20.681 20.681 0 0 0 -18.137-27.964h-.015a29.094 29.094 0 0 0 -24.25-31.533l-.366-.061-9.22-9.954a37.165 37.165 0 0 0 -43.564-8.074l-.426-.225a36.69 36.69 0 0 0 -35.824.81l-.534-.071a64.411 64.411 0 0 0 -62.448 28.733 25.423 25.423 0 0 0 -15.525 14.033c-5.7 12.677-3.815 32.636 5.6 59.323 3.1 8.8 6.5 16.824 9.293 23.006a17.956 17.956 0 0 0 -7.952 3.032 20.552 20.552 0 0 0 -8.719 14.106 20.711 20.711 0 0 0 20.523 23.624c.576 0 1.151-.033 1.724-.082v.04a80.857 80.857 0 0 0 43.646 71.71v9.306a36.346 36.346 0 0 0 -26.443 32.151h-17.715a49.76 49.76 0 0 0 -49.7 49.7v94.936a6 6 0 0 0 6 6h250a6 6 0 0 0 6-6v-94.933a49.76 49.76 0 0 0 -49.7-49.703zm-20.788 2.966v43.4l-38.576-21.21a36.747 36.747 0 0 0 24.007-34.387v-10.195a24.4 24.4 0 0 1 14.566 22.392zm-47.278 12.083a61.029 61.029 0 0 1 -17.668 0 24.539 24.539 0 0 1 -20.709-24.28v-27.172a80.519 80.519 0 0 0 59.089-3.475v30.652a24.54 24.54 0 0 1 -20.715 24.275zm74.106-156.033a8.7 8.7 0 0 1 -1.649 15.2 8.826 8.826 0 0 1 -4.9.5v-15.952a6.361 6.361 0 0 1 6.549.252zm-168.132 15.667a8.819 8.819 0 0 1 -5.056-.463 8.7 8.7 0 0 1 -1.649-15.2 6.371 6.371 0 0 1 6.705-.16zm0-46.067c-4.7-11.86-9.144-25.471-10.916-37.458a5.965 5.965 0 0 0 2.315 2.755 48.714 48.714 0 0 0 8.6 4.054zm6.531-41.073a38.44 38.44 0 0 1 -8.71-3.767 5.992 5.992 0 0 0 -9.144 4.268c-.832-7.569-.452-14.326 1.8-19.344 1.922-4.274 5.064-6.818 9.888-8a6 6 0 0 0 3.713-2.742 52.434 52.434 0 0 1 51.857-25.038l2.686.353a5.954 5.954 0 0 0 4.15-.982 24.735 24.735 0 0 1 25.483-1.4l3.287 1.737a6 6 0 0 0 5.952-.2 25.126 25.126 0 0 1 31.551 4.3l10.62 11.466a5.992 5.992 0 0 0 3.433 1.844l2.4.392a17.075 17.075 0 0 1 13.14 23.079 6 6 0 0 0 5.236 8.178l7.13.416a8.681 8.681 0 0 1 7.614 11.738l-5.092 13.457a71.517 71.517 0 0 1 -10.943 19.2 193.03 193.03 0 0 1 -2.461-32.8c0-9.041-5.717-21.519-16.642-27.872-7.089-4.123-18.916-7.116-35 2.037l-.245.139c-17.317 9.853-35.223 20.043-69.434-.78a6 6 0 1 0 -6.239 10.25c1.826 1.112 3.607 2.119 5.367 3.078-10.116 9.55-21.367 9.489-29.379 7.538a5.962 5.962 0 0 0 -2.018-.545zm5.469 99.29v-85.975l.079.011a45.562 45.562 0 0 0 5.1.289c9.654 0 21.615-3.17 32.2-15.192 30.352 12.041 49.916.931 64.789-7.532l.244-.138c8.935-5.083 16.685-5.788 23.036-2.094 7.282 4.235 10.675 12.945 10.675 17.5a225.01 225.01 0 0 0 1.549 27.511 6.024 6.024 0 0 0 -.09 1v64.618a68.792 68.792 0 1 1 -137.584 0zm17.079 116.133a24.4 24.4 0 0 1 14.567-22.392v10.195a36.744 36.744 0 0 0 24.006 34.388l-38.573 21.2zm-29.387 135.67h-37.9v-43.889h37.9zm0-55.889h-37.9v-33.044a37.746 37.746 0 0 1 37.7-37.7h.2zm150.041 55.889h-138.041v-24.733h138.041zm0-36.733h-138.041v-24.731h138.041zm0-36.731h-138.041v-53.172h5.385v37.559a10.142 10.142 0 0 0 13.631 9.522 6.084 6.084 0 0 0 .826-.376l53.654-29.5 53.654 29.5a6.1 6.1 0 0 0 .827.376 10.15 10.15 0 0 0 9.3-1.209c.269-.188.518-.4.765-.606zm50.059 73.464h-38.059v-43.889h38.059zm0-55.889h-38.059v-70.747h.356a37.746 37.746 0 0 1 37.7 37.7z"/><path d="m277.5 183.968a6 6 0 0 0 6-6 6.9 6.9 0 1 1 13.8 0 6 6 0 0 0 12 0 18.9 18.9 0 1 0 -37.8 0 6 6 0 0 0 6 6z"/><path d="m234.5 183.968a6 6 0 0 0 6-6 18.9 18.9 0 1 0 -37.8 0 6 6 0 0 0 12 0 6.9 6.9 0 1 1 13.8 0 6 6 0 0 0 6 6z"/><path d="m281.752 230.544a6 6 0 1 0 -8.485-8.484 24.42 24.42 0 0 1 -34.534 0 6 6 0 1 0 -8.485 8.484 36.416 36.416 0 0 0 51.5 0z"/></g></svg>