<svg id="Layer_1" height="512" viewBox="0 0 512 512" width="512" xmlns="http://www.w3.org/2000/svg" data-name="Layer 1"><path d="m338.1 329h-164.2c-23.76 0-42.9 19.86-42.9 43.73v95.27h250v-95.27c0-23.87-19.14-43.73-42.9-43.73z" fill="#604af3"/><path d="m296.14 272.97c11.12 7.35 18.04 17.71 18.04 29.2 0 9.41-4.64 18.07-12.43 24.93l-.01-.01a20.007 20.007 0 0 1 -11.4-18.07v-32.7q2.985-1.545 5.8-3.35z" fill="#604af3"/><path d="m221.66 276.32v32.7a19.969 19.969 0 0 1 -11.42 18.07c-7.78-6.86-12.42-15.52-12.42-24.92 0-11.14 6.51-21.23 17.04-28.53l.6-.92c2 1.29 4.07 2.5 6.2 3.6z" fill="#604af3"/><path d="m301.74 327.09a20.007 20.007 0 0 1 -11.4-18.07v-32.7h-68.68v32.7a19.969 19.969 0 0 1 -11.42 18.07c10.65 9.39 27.19 15.42 45.76 15.42s35.1-6.03 45.75-15.41z" fill="#e2bbb5"/><path d="m313.26 124.87h-73.26a14.745 14.745 0 0 1 -14.75-14.75v-33.96a31.816 31.816 0 0 1 31.81-31.82h32.05a51.73 51.73 0 0 1 51.73 51.73v68.34h-5.99a10.871 10.871 0 0 1 -3.79-.71 21.523 21.523 0 0 1 -7.15-4.78 35.087 35.087 0 0 1 -10.65-25.46z" fill="#313960"/><path d="m323.91 158.92a35.087 35.087 0 0 1 -10.65-25.46v-8.59h-73.26a14.745 14.745 0 0 1 -14.75-14.75h-.45v1.6a62.966 62.966 0 0 1 -54.78 62.43l.13.96a12.678 12.678 0 0 1 10.75 3.6h.31v31.15a74.688 74.688 0 0 0 31.79 61.2c.81.57 1.63 1.12 2.46 1.66 2 1.29 4.07 2.5 6.2 3.6a74.947 74.947 0 0 0 68.68 0q2.985-1.545 5.8-3.35c.97-.61 1.92-1.25 2.86-1.91a75.631 75.631 0 0 0 9.89-8.32 74.556 74.556 0 0 0 21.9-52.88v-45.45l.27-.71a21.523 21.523 0 0 1 -7.15-4.78z" fill="#f5cac1"/><path d="m181.21 178.71v23.16h-.31a14.7 14.7 0 0 1 -15.81-24.76 11.855 11.855 0 0 1 5.06-2 12.678 12.678 0 0 1 10.75 3.6z" fill="#edd4d1"/><path d="m352.94 187.14a14.7 14.7 0 0 1 -22 14.73h-.15v-23.16h.15a12.436 12.436 0 0 1 15.81-1.6 14.622 14.622 0 0 1 6.19 10.03z" fill="#edd4d1"/><path d="m225.8 110.12v1.6c0 32-24.87 58.42-55.78 62.43a63.141 63.141 0 0 1 -8.18.53v-66.97a48.623 48.623 0 0 1 48.62-48.62h16.34z" fill="#232a44"/><path d="m203.9 329h-30c-23.76 0-42.9 19.86-42.9 43.73v95.27h30v-95.27c0-23.87 19.14-43.73 42.9-43.73z" fill="#4744b7"/><path d="m251.66 276.32c-2.13-1.1-4.2-2.31-6.2-3.6-.83-.54-1.65-1.09-2.46-1.66a74.688 74.688 0 0 1 -31.79-61.2v-59.083l-7.743 8.166a62.71 62.71 0 0 1 -33.447 15.207l.13.96a12.678 12.678 0 0 1 10.75 3.6h.31v31.15a74.688 74.688 0 0 0 31.79 61.2c.81.57 1.63 1.12 2.46 1.66 2 1.29 4.07 2.5 6.2 3.6a75 75 0 0 0 49.34 6.817 74.317 74.317 0 0 1 -19.34-6.817zm-51.51-101.21-.13-.96c.3-.038.591-.09.888-.133-.254.672-.508 1.056-.758 1.093z" fill="#cea9a3"/><path d="m173.9 329.03c-.05-.95-.08-1.9-.08-2.86 0-23.65 15.51-43.95 39.18-55.11.81.57 1.63 1.12 2.46 1.66l-.6.92c-10.53 7.3-17.04 17.39-17.04 28.53 0 9.4 4.64 18.06 12.42 24.92 10.65 9.39 27.19 15.42 45.76 15.42s35.1-6.03 45.75-15.41c7.79-6.86 12.43-15.52 12.43-24.93 0-11.49-6.92-21.85-18.04-29.2.97-.61 1.92-1.25 2.86-1.91 23.67 11.17 39.18 31.46 39.18 55.11 0 .96-.03 1.91-.08 2.86-1.85 34.69-37.25 61.48-82.1 61.48s-80.25-26.79-82.1-61.48z" fill="#a0eaea"/><g fill="#20344c"><path d="m167.88 323.5a49.771 49.771 0 0 0 -42.88 49.226v94.931a6 6 0 0 0 6 6h250a6 6 0 0 0 6-6v-94.931a49.771 49.771 0 0 0 -42.879-49.226c-.948-21.638-13.438-40.906-34.295-53.462a80.6 80.6 0 0 0 26.966-60.185v-.023c.522.04 1.044.065 1.568.065a20.709 20.709 0 0 0 20.522-23.624 20.547 20.547 0 0 0 -8.718-14.1 17.924 17.924 0 0 0 -6.1-2.7 5.992 5.992 0 0 0 2.773-5.053v-68.356a57.785 57.785 0 0 0 -57.721-57.719h-32.054a37.78 37.78 0 0 0 -30.218 15.108 5.973 5.973 0 0 0 -2.049-.367h-14.333a54.686 54.686 0 0 0 -54.624 54.624v66.966a5.983 5.983 0 0 0 .643 2.692 20.673 20.673 0 0 0 9.21 31.017 20.947 20.947 0 0 0 7.793 1.514c.576 0 1.151-.033 1.724-.081v.039a80.6 80.6 0 0 0 26.972 60.19c-20.834 12.573-33.346 31.907-34.3 53.455zm168.912-141.713a6.359 6.359 0 0 1 6.548.252 8.7 8.7 0 0 1 -1.649 15.2 8.818 8.818 0 0 1 -4.9.5zm38.208 190.939v88.931h-38v-34a6 6 0 1 0 -12 0v34h-138v-34a6 6 0 1 0 -12 0v34h-38v-88.931a37.759 37.759 0 0 1 31.585-37.2c5.579 34.86 41.957 60.98 87.415 60.98s81.836-26.12 87.415-60.98a37.759 37.759 0 0 1 31.585 37.2zm-117.938-322.383h32.052a45.772 45.772 0 0 1 45.721 45.719v62.35c-1.791-.009-4.2-1.369-6.785-3.832a29.2 29.2 0 0 1 -8.791-21.127v-11.983a24.449 24.449 0 0 0 -24.421-24.422h-11.8a6 6 0 0 0 0 12h11.8a12.442 12.442 0 0 1 12.148 9.824h-66.986a8.765 8.765 0 0 1 -8.756-8.756v-33.957a25.846 25.846 0 0 1 25.818-25.816zm-89.224 57.365a42.672 42.672 0 0 1 42.624-42.624h8.338v46.633a57.038 57.038 0 0 1 -50.957 56.643zm7.37 90a8.8 8.8 0 0 1 -5.056-.463 8.7 8.7 0 0 1 -1.649-15.2 6.375 6.375 0 0 1 6.705-.161zm12 12.15v-34.041a69.209 69.209 0 0 0 41.712-48.181 20.61 20.61 0 0 0 11.08 3.236h67.257v2.581a41.257 41.257 0 0 0 12.512 29.814 32.092 32.092 0 0 0 5.021 3.946v42.642a68.792 68.792 0 1 1 -137.584 0zm120.975 92.309c0 6.313-2.613 12.228-7.147 17.316a14.082 14.082 0 0 1 -4.7-10.458v-28.5c7.672 6.143 11.847 13.703 11.847 21.639zm-16.454 25c-9.345 5.789-21.914 9.347-35.729 9.347s-26.377-3.556-35.721-9.341a25.95 25.95 0 0 0 7.385-18.143v-23.524a80.661 80.661 0 0 0 56.672 0v23.516a26.118 26.118 0 0 0 7.393 18.137zm-76.065-46.626v28.489a13.969 13.969 0 0 1 -4.7 10.459c-4.535-5.088-7.148-11-7.148-17.317.001-7.898 4.189-15.483 11.848-21.639zm-4.224 55.088c11.983 8.309 27.809 12.885 44.56 12.885s32.577-4.576 44.561-12.885c12.653-8.774 19.622-20.656 19.622-33.457a34.315 34.315 0 0 0 -1.338-9.426c8.588 9.551 13.338 21.091 13.338 33.426 0 32.715-33.463 58.342-76.183 58.342s-76.183-25.627-76.183-58.342c0-12.243 4.726-23.762 13.267-33.312a34.873 34.873 0 0 0 -1.267 9.312c0 12.793 6.969 24.675 19.623 33.449z"/><path d="m277.5 184.316a6 6 0 0 0 6-6 6.9 6.9 0 1 1 13.8 0 6 6 0 1 0 12 0 18.9 18.9 0 1 0 -37.8 0 6 6 0 0 0 6 6z"/><path d="m214.692 178.316a6.9 6.9 0 1 1 13.8 0 6 6 0 0 0 12 0 18.9 18.9 0 0 0 -37.8 0 6 6 0 1 0 12 0z"/><path d="m230.248 222.407a6 6 0 0 0 0 8.486 36.418 36.418 0 0 0 51.5 0 6 6 0 1 0 -8.485-8.485 24.42 24.42 0 0 1 -34.534 0 6 6 0 0 0 -8.481-.001z"/><path d="m183.309 103.441a6 6 0 0 0 -6 6v38.15a6 6 0 0 0 12 0v-38.15a6 6 0 0 0 -6-6z"/></g></svg>