<svg id="Layer_1" height="512" viewBox="0 0 512 512" width="512" xmlns="http://www.w3.org/2000/svg" data-name="Layer 1"><path d="m337.3 345h-162.6a43.4 43.4 0 0 0 -43.7 43.35v94.65h250v-94.65a43.4 43.4 0 0 0 -43.7-43.35z" fill="#7f3d32"/><path d="m339.5 189.76.03.85a12.659 12.659 0 0 0 -8.59 3.72h-.15v-32l-.73-.04a15.835 15.835 0 0 0 5.35-11.92v-.41l-31.98-10.88a149.7 149.7 0 0 0 -98.88.83l-27.96 10.05a15.836 15.836 0 0 0 4.79 11.41l-.17.57v32.39h-.31a12.628 12.628 0 0 0 -8.43-3.71l.03-.86v-61.54a83.456 83.456 0 0 1 83.5-83.5q4.23 0 8.35.41a83.531 83.531 0 0 1 75.15 83.09z" fill="#49bdff"/><path d="m335.41 149.96v.41a15.949 15.949 0 0 1 -21.09 15.1l-5.34-1.82a166.353 166.353 0 0 0 -109.94.93l-1.1.39a15.937 15.937 0 0 1 -21.35-15.01l27.96-10.05a149.7 149.7 0 0 1 98.88-.83z" fill="#3090fc"/><path d="m314.23 362.03a31.357 31.357 0 0 1 -22.41 9.37h-7.63a13.965 13.965 0 1 1 0-27.93h14.27a21.168 21.168 0 0 0 4.09-.39 21.6 21.6 0 0 0 17.47-21.27v-.55a20.923 20.923 0 0 0 -7.22-15.84 26.237 26.237 0 0 1 10.53 21.03v13.44a31.958 31.958 0 0 1 -.32 4.52 31.328 31.328 0 0 1 -8.78 17.62z" fill="#c2684f"/><path d="m320.02 321.26v.55a21.6 21.6 0 0 1 -17.47 21.27v-.01a19.988 19.988 0 0 1 -12.21-18.43v-24.37h8.68a26.287 26.287 0 0 1 13.71 5.1.179.179 0 0 0 .07.05 20.923 20.923 0 0 1 7.22 15.84z" fill="#bc5e51"/><path d="m314.23 481.88v1.4h-116.46v-1.4-27.99h.52 114.46 1.48z" fill="#471b7a"/><path d="m314.23 425.28v28.61h-1.48-114.46-.52v-28.61h.52 114.46z" fill="#ff5a81"/><path d="m314.23 396.66v28.62h-1.48-114.46-.52v-28.62h.52 114.46z" fill="#471b7a"/><path d="m314.23 362.03v34.63h-116.46v-34.63a31.357 31.357 0 0 0 22.41 9.37h21.6a13.9 13.9 0 0 0 9.87-4.09c.28-.28.54-.56.79-.86h21.08a13.928 13.928 0 0 0 10.67 4.95h7.63a31.357 31.357 0 0 0 22.41-9.37z" fill="#ff5a81"/><path d="m290.34 324.64v-32.59l-.05-.09h-68.58l-.05.09v32.59a19.988 19.988 0 0 1 -12.21 18.43v.01a21.168 21.168 0 0 0 4.09.39h28.24a13.965 13.965 0 0 1 10.66 22.98h21.08a13.964 13.964 0 0 1 10.67-22.98h14.27a21.168 21.168 0 0 0 4.09-.39v-.01a19.988 19.988 0 0 1 -12.21-18.43z" fill="#f5cac1"/><path d="m221.66 300.27v24.37a19.988 19.988 0 0 1 -12.21 18.43v.01a21.6 21.6 0 0 1 -17.47-21.27v-.55a20.923 20.923 0 0 1 7.22-15.84.179.179 0 0 0 .07-.05 26.287 26.287 0 0 1 13.71-5.1z" fill="#bc5e51"/><path d="m352.94 202.76a14.7 14.7 0 0 1 -22 14.73h-.15v-23.16h.15a12.659 12.659 0 0 1 8.59-3.72 11.963 11.963 0 0 1 7.22 2.12 14.622 14.622 0 0 1 6.19 10.03z" fill="#ffd8b7"/><path d="m159.06 202.76a14.7 14.7 0 0 0 22 14.73h.15v-23.16h-.15a12.659 12.659 0 0 0 -8.59-3.72 11.963 11.963 0 0 0 -7.22 2.12 14.622 14.622 0 0 0 -6.19 10.03z" fill="#ffd8b7"/><path d="m330.06 162.29a15.9 15.9 0 0 1 -15.74 3.18l-5.34-1.82a166.353 166.353 0 0 0 -109.94.93l-1.1.39a15.9 15.9 0 0 1 -16.56-3.6l-.17.57v63.54a74.79 74.79 0 1 0 149.58 0v-63.15z" fill="#ffc9c0"/><path d="m204.7 345h-30a43.4 43.4 0 0 0 -43.7 43.35v94.65h30v-94.65a43.4 43.4 0 0 1 43.7-43.35z" fill="#66342d"/><path d="m251.71 291.96a74.775 74.775 0 0 1 -40.5-66.48v-65.459c-3.55 1.393-7.583 2.909-12.17 4.559l-1.1.39a15.9 15.9 0 0 1 -16.56-3.6l-.17.57v63.54a74.82 74.82 0 0 0 89.79 73.277 74.264 74.264 0 0 1 -19.29-6.797z" fill="#c99e99"/><path d="m197.77 362.03a31.475 31.475 0 0 1 -9.1-22.14v-13.44a26.237 26.237 0 0 1 10.53-21.03 20.923 20.923 0 0 0 -7.22 15.84v.55a21.6 21.6 0 0 0 17.47 21.27 21.168 21.168 0 0 0 4.09.39h28.24a13.965 13.965 0 0 1 10.66 22.98c-.25.3-.51.58-.79.86a13.9 13.9 0 0 1 -9.87 4.09h-21.6a31.357 31.357 0 0 1 -22.41-9.37z" fill="#c2684f"/><g fill="#20344c"><path d="m337.3 335.644h-7.97v-12.2a32.292 32.292 0 0 0 -12.214-25.22 26.8 26.8 0 0 0 -18.089-6.959h-.718a80.808 80.808 0 0 0 38.483-68.792v-.023c.522.04 1.044.066 1.567.066a20.713 20.713 0 0 0 20.523-23.616 20.553 20.553 0 0 0 -8.718-14.107 17.943 17.943 0 0 0 -4.66-2.3v-57.268a89.645 89.645 0 0 0 -75.92-88.475 15.985 15.985 0 0 0 -30.576.6 89.65 89.65 0 0 0 -72.508 87.875v57.222a17.909 17.909 0 0 0 -4.817 2.343 20.551 20.551 0 0 0 -8.718 14.106 20.711 20.711 0 0 0 20.522 23.624c.577 0 1.152-.033 1.725-.082v.039a80.808 80.808 0 0 0 38.483 68.792h-.713a26.8 26.8 0 0 0 -18.094 6.959 32.292 32.292 0 0 0 -12.214 25.22v12.2h-7.974a49.759 49.759 0 0 0 -49.7 49.7v94.932a6 6 0 0 0 6 6h250a6 6 0 0 0 6-6v-94.933a49.759 49.759 0 0 0 -49.7-49.703zm-.505-141.235a6.362 6.362 0 0 1 6.547.25 8.7 8.7 0 0 1 -1.648 15.205 8.809 8.809 0 0 1 -4.9.5zm-145.024 279.87h-54.771v-88.932a37.745 37.745 0 0 1 37.7-37.7h9.561a37.526 37.526 0 0 0 7.507 13.71zm107-171.01a20.106 20.106 0 0 1 10.458 4.006c.133.124.265.251.394.38a14.9 14.9 0 0 1 4.4 10.609v.543a15.675 15.675 0 0 1 -10.784 14.9 13.975 13.975 0 0 1 -6.9-12.063v-18.375zm-123.56-92.941a8.806 8.806 0 0 1 -5.055-.463 8.7 8.7 0 0 1 -1.656-15.205 6.373 6.373 0 0 1 6.7-.161zm3.288-85.1a77.5 77.5 0 0 1 155.008 0v14.754l-16.407-5.591v-8.647a68.923 68.923 0 0 0 -39.663-62.4 6 6 0 1 0 -5.094 10.865 56.918 56.918 0 0 1 32.757 51.535v4.564a156.331 156.331 0 0 0 -95.428-1.407v-3.157a56.919 56.919 0 0 1 32.758-51.537 6 6 0 0 0 -5.094-10.865 68.918 68.918 0 0 0 -39.664 62.4v7.268l-19.172 6.89zm4.892 25.673 23.195-8.338a144.2 144.2 0 0 1 94.917-.8l27.223 9.27a9.978 9.978 0 0 1 -12.473 5.758l-5.339-1.817a173.057 173.057 0 0 0 -113.9.964l-1.1.4a9.983 9.983 0 0 1 -12.52-5.429zm3.82 71.579v-54.231a21.975 21.975 0 0 0 12.764-.63l1.1-.4a161 161 0 0 1 105.972-.9l5.339 1.818a22.131 22.131 0 0 0 7.146 1.2 21.465 21.465 0 0 0 5.264-.664v53.8a68.792 68.792 0 1 1 -137.584 0zm10.774 95.787a14.9 14.9 0 0 1 4.4-10.609c.129-.129.261-.256.394-.38a20.106 20.106 0 0 1 10.458-4.006h2.432v18.375a13.975 13.975 0 0 1 -6.9 12.063 15.675 15.675 0 0 1 -10.784-14.9zm-3.222 20.769a27.392 27.392 0 0 0 18.779 7.436h28.239a7.965 7.965 0 1 1 0 15.929h-21.6a25.491 25.491 0 0 1 -25.421-23.365zm113.467 135.243h-104.459v-17.386h104.459zm0-29.386h-104.459v-16.619h104.459zm0-28.619h-104.459v-16.618h104.459zm0-28.618h-104.459v-17.044a37.58 37.58 0 0 0 16.41 3.786h21.6a19.965 19.965 0 1 0 0-39.929h-17.491a25.975 25.975 0 0 0 3.374-12.825v-23.517a80.647 80.647 0 0 0 56.672 0v23.517a25.975 25.975 0 0 0 3.374 12.825h-3.524a19.965 19.965 0 0 0 0 39.929h7.633a37.588 37.588 0 0 0 16.411-3.786zm-4.121-28.406a25.524 25.524 0 0 1 -12.29 3.148h-7.633a7.965 7.965 0 0 1 0-15.929h14.275a27.392 27.392 0 0 0 18.779-7.436 25.547 25.547 0 0 1 -13.131 20.217zm70.891 115.029h-54.77v-112.925a37.538 37.538 0 0 0 7.506-13.71h9.564a37.745 37.745 0 0 1 37.7 37.7z"/><circle cx="241.584" cy="354.721" r="6.5"/><path d="m277.5 196.939a6 6 0 0 0 6-6 6.9 6.9 0 1 1 13.805 0 6 6 0 1 0 12 0 18.9 18.9 0 1 0 -37.805 0 6 6 0 0 0 6 6z"/><path d="m234.5 196.939a6 6 0 0 0 6-6 18.9 18.9 0 1 0 -37.805 0 6 6 0 0 0 12 0 6.9 6.9 0 1 1 13.805 0 6 6 0 0 0 6 6z"/><path d="m281.752 243.516a6 6 0 0 0 -8.484-8.487 24.448 24.448 0 0 1 -34.536 0 6 6 0 0 0 -8.484 8.487 36.464 36.464 0 0 0 51.5 0z"/></g></svg>