<svg id="Layer_1" height="512" viewBox="0 0 512 512" width="512" xmlns="http://www.w3.org/2000/svg" data-name="Layer 1"><path d="m310 65.344v7.44a43.786 43.786 0 0 0 8.943 26.96 45.764 45.764 0 0 1 9.641 28.11l-1.584 97.51a59.851 59.851 0 0 1 -2.86 18.65 37.609 37.609 0 0 0 20.86-33.57v-89.7c0-23.58-14-45.09-35-55.4z" fill="#dedede"/><path d="m169 120.744v89.7a37.609 37.609 0 0 0 20.86 33.57 59.851 59.851 0 0 1 -2.86-18.65v-97.51c0-10.71 1.9-20.78 8.463-28.79a35.511 35.511 0 0 0 8.236-22.27l-.025-11.45a61.671 61.671 0 0 0 -34.674 55.4z" fill="#dedede"/><path d="m340.675 326h-169.36c-25.14 0-45.315 20.724-45.315 45.864v99.136h260v-99.136c0-25.14-20.175-45.864-45.325-45.864z" fill="#2c344c"/><path d="m202.075 321.054s1.58 26.483 6.93 61.243c4.18 27.25 10.68 59.7 20.53 88.7h52.93c9.85-29 16.34-61.453 20.53-88.7 4.67-30.4 6.47-54.432 6.85-59.972z" fill="#cae6ee"/><path d="m217.525 277.684v25.05a69.773 69.773 0 0 0 38.52 42.33h.01a69.773 69.773 0 0 0 38.52-42.33v-24.334z" fill="#b28876"/><path d="m257.715 345.724c-.47-.18-1.03-.4-1.66-.66a69.773 69.773 0 0 0 38.52-42.33l15.45 18.32c0 .02-.01.04-.01.06l-.09-.06s-.03.41-.08 1.2v.01c-5.5 36.48-17.43 44.56-24.67 52.32 0 0-1.14-22.36-29.13-28.01.49-.1.98-.19 1.49-.28z" fill="#e9fbff"/><path d="m254.555 346.894c-26.53 6.13-27.63 27.69-27.63 27.69-7.32-7.85-19.43-16.02-24.85-53.53l15.45-18.32a69.773 69.773 0 0 0 38.52 42.33h.01c.63.26 1.19.48 1.66.66l-.18.57c-.51.09-1 .18-1.49.28-.49-.1-.98-.19-1.49-.28z" fill="#e9fbff"/><path d="m303 382.3c-4.19 27.25-10.68 59.7-20.53 88.7h42.26a167.261 167.261 0 0 0 19.9-54.273z" fill="#45567c"/><path d="m167.375 416.758a167.074 167.074 0 0 0 19.89 54.242h42.27c-9.85-29-16.35-61.453-20.53-88.7z" fill="#45567c"/><path d="m349.455 377.444a92.169 92.169 0 0 0 -31.89-50.84 90.263 90.263 0 0 0 -7.473-5.49 8.9 8.9 0 0 0 -.092 1.14v.01c-1 5.54-2.257 29.51-6.928 59.91l14.852 12.32 1.61-1.97 30.221-13.83z" fill="#546893"/><path d="m194.505 326.544a92.2 92.2 0 0 0 -31.96 50.9l-.29 1.25 30.22 13.83 1.63 1.97 14.9-12.32c-5.35-34.76-6.93-61.12-6.93-61.12-2.63 1.71-5.15 3.546-7.57 5.49z" fill="#546893"/><path d="m318.925 99.744a43.808 43.808 0 0 1 -8.96-26.96v-7.44a70.941 70.941 0 0 0 -15.38-13.18l-.25.4h-75.6l-.1-.17a70.766 70.766 0 0 0 -14.98 12.9l-.04.05h.1l-.04 11.45a35.53 35.53 0 0 1 -8.26 22.27c-6.56 8.01-8.51 18.08-8.51 28.79v97.51a59.987 59.987 0 0 0 60 60h19.6a59.946 59.946 0 0 0 59.99-58.54l2.08-98.97a45.772 45.772 0 0 0 -9.65-28.11z" fill="#c79a83"/><path d="m289.035 228.7v5.74h-.88a21.563 21.563 0 0 1 -16.42-7.57l-5.14 4.57a13.549 13.549 0 0 1 -19.86-2.01l-3.05-4.07-.82 1.26a17 17 0 0 1 -14.3 7.82v-5.74a16.954 16.954 0 0 1 16.94-16.97h26.595a16.954 16.954 0 0 1 16.935 16.97z" fill="#dedede"/><path d="m289.8 151.144a24.235 24.235 0 1 1 -24.19 24.24 24.213 24.213 0 0 1 24.19-24.24z" fill="#a0eaea"/><path d="m169.105 188.764a13.485 13.485 0 0 1 2.92-2.73 11.482 11.482 0 0 1 14.6 1.48h.28v21.386h-.28a13.571 13.571 0 0 1 -11.99.88 13.592 13.592 0 0 1 -5.53-21.02z" fill="#b28876"/><path d="m344.575 202.5a13.544 13.544 0 0 1 -17.72 7.22l.5-23.9a11.386 11.386 0 0 1 12.46.21 13.426 13.426 0 0 1 4.76 5.84v.01a13.618 13.618 0 0 1 .96 3.42 13.336 13.336 0 0 1 -.96 7.2z" fill="#b28876"/><path d="m218.768 52.394.232.17v11.36a26.9 26.9 0 0 0 27.225 27.076h20.62a26.839 26.839 0 0 0 27.155-27.076v-11.36l.417-.4a70.345 70.345 0 0 0 -75.649.23z" fill="#dedede"/><path d="m201.315 326h-30c-25.14 0-45.315 20.724-45.315 45.864v99.136h30v-99.136c0-25.14 20.175-45.864 45.315-45.864z" fill="#1d2230"/><path d="m247.525 277.684a59.926 59.926 0 0 1 -30.62-52.32v-171.818a70.848 70.848 0 0 0 -13.25 11.748l-.04.05h.1l-.04 11.45a35.53 35.53 0 0 1 -8.26 22.27c-6.56 8.01-8.51 18.08-8.51 28.79v97.51a59.987 59.987 0 0 0 60 60h19.6c1.757 0 3.5-.081 5.215-.229a59.551 59.551 0 0 1 -24.195-7.451z" fill="#a8806f"/><path d="m221.755 151.144a24.235 24.235 0 1 1 -24.19 24.24 24.213 24.213 0 0 1 24.19-24.24z" fill="#a0eaea"/><g fill="#20344c"><path d="m340.681 320.346h-21.4q-2.46-1.878-5.049-3.616l-13.659-16.19v-18.64a66.2 66.2 0 0 0 27.817-33.531 43.715 43.715 0 0 0 22.19-37.932v-6.925a19.294 19.294 0 0 0 .893-9.081 20.051 20.051 0 0 0 -.893-3.639v-70.049a68.024 68.024 0 0 0 -36.9-60.256 76.738 76.738 0 0 0 -56.85-25.241h-.037a76.733 76.733 0 0 0 -56.975 25.34 68.023 68.023 0 0 0 -36.71 60.157v66.124a19.5 19.5 0 0 0 0 20.557v3.017a43.262 43.262 0 0 0 21.872 37.737 66.361 66.361 0 0 0 26.552 32.869v19.493l-13.522 16.027q-2.718 1.808-5.287 3.779h-21.4a51.581 51.581 0 0 0 -51.523 51.522v98.885a6 6 0 0 0 6 6h260.4a6 6 0 0 0 6-6v-98.885a51.581 51.581 0 0 0 -51.519-51.522zm-25.615 11.954a85.7 85.7 0 0 1 27.657 43.005l-24.861 11.376-8.424-6.967c2.973-19.944 4.715-36.996 5.628-47.414zm-11.38-9.459c-3.661 22.978-9.952 33.446-15.666 40.08a37.147 37.147 0 0 0 -2.01-3.71 38.573 38.573 0 0 0 -16.526-14.511 75.249 75.249 0 0 0 26.881-30.531zm28.7-93.674c.042-.739.089-1.478.107-2.222l.215-10.195a19.7 19.7 0 0 0 5.387-.939 31.673 31.673 0 0 1 -5.71 13.357zm2.584-24.959a7.82 7.82 0 0 1 -2.008.5l.308-14.6a5.117 5.117 0 0 1 3.132.862 7.577 7.577 0 0 1 -1.432 13.241zm3.61-83.466v58.108a17.17 17.17 0 0 0 -5.057-.778l1.056-50.09c0-.042 0-.084 0-.126a52.009 52.009 0 0 0 -10.915-31.8 37.488 37.488 0 0 1 -7.564-19.974 56.021 56.021 0 0 1 22.479 44.661zm-113.846-64.993a64.711 64.711 0 0 1 32.056-8.5h.031a64.715 64.715 0 0 1 31.511 8.232v8.443a21.539 21.539 0 0 1 -21.49 21.538h-20.617a21.539 21.539 0 0 1 -21.491-21.538zm-51.476 145.357a7.572 7.572 0 0 1 2.178-10.139 5.4 5.4 0 0 1 5.473-.263v13.971a7.69 7.69 0 0 1 -4.04-.465 7.356 7.356 0 0 1 -2.516-1.687 6 6 0 0 0 -1.095-1.417zm2.408 15.224a19.605 19.605 0 0 0 4.109.452c.379 0 .757-.015 1.134-.037v8.62c0 1.167.033 2.326.093 3.478a31.269 31.269 0 0 1 -5.336-12.513zm5.243-88.474v50.408a17.376 17.376 0 0 0 -5.8.122v-57.643a56.017 56.017 0 0 1 22.571-44.731v.755a29.611 29.611 0 0 1 -6.9 18.5c-6.736 8.207-9.871 18.564-9.871 32.589zm12 97.509v-41.065a30.183 30.183 0 0 0 58.441-2.918h8.85a30.233 30.233 0 1 0 0-12h-8.85a30.183 30.183 0 0 0 -58.441-2.918v-38.608c0-11.1 2.271-19.04 7.146-24.989a41.626 41.626 0 0 0 9.618-26.052l.037-9.228q1.475-1.565 3.041-3.02a33.545 33.545 0 0 0 33.474 32.892h20.617a33.55 33.55 0 0 0 33.486-33.369c1.258 1.144 2.466 2.351 3.638 3.6v5.095a50 50 0 0 0 10.234 30.644 39.958 39.958 0 0 1 8.384 24.367l-1.161 55.061c-.147.138-.3.265-.447.41l.43.431-.906 42.977a54 54 0 0 1 -53.984 52.69h-19.6a54.061 54.061 0 0 1 -54.007-54zm10.658-49.985a18.191 18.191 0 1 1 18.192 18.233 18.233 18.233 0 0 1 -18.192-18.233zm68.038 0a18.191 18.191 0 1 1 18.195 18.233 18.232 18.232 0 0 1 -18.195-18.233zm-55.87 138.784a75.277 75.277 0 0 0 26.908 30.548 38.8 38.8 0 0 0 -18.587 18.179c-5.708-6.636-11.986-17.106-15.642-40.049zm-18.8 18.137c.913 10.417 2.655 27.469 5.628 47.414l-8.424 6.967-24.86-11.376a85.7 85.7 0 0 1 27.655-43.006zm-65.135 132.452v-92.885a39.566 39.566 0 0 1 39.522-39.522h8.308a97.81 97.81 0 0 0 -22.93 43.737l-.29 1.249a6 6 0 0 0 3.348 6.814l24.107 11.032-20.311 16.8a6 6 0 0 0 -2.085 5.667 168.858 168.858 0 0 0 15.707 47.111zm58.958 0a156.85 156.85 0 0 1 -16.829-45.784l30.822-25.489c4.488 26.734 10.026 50.631 16.517 71.273zm57.805 0h-14.7c-7.649-23.441-14.012-51.5-18.927-83.488-.679-4.418-1.3-8.7-1.858-12.816a84.892 84.892 0 0 0 6.994 7.7c.869.873 1.7 1.7 2.466 2.529a6.049 6.049 0 0 0 4.42 1.932 5.976 5.976 0 0 0 5.96-5.661c.045-.632 1.124-13.22 15.645-19.76zm-25.031-163.07v-14.605a65.664 65.664 0 0 0 23.38 4.287h19.6a66.019 66.019 0 0 0 22.061-3.77v14.09c-8.008 22.649-24.228 32.911-32.491 36.819a63.943 63.943 0 0 1 -32.553-36.821zm37.031 163.07v-110.744c17.353 6.051 18.579 20.258 18.624 20.883a6 6 0 0 0 10.382 3.783c.771-.827 1.6-1.656 2.466-2.528a85.491 85.491 0 0 0 6.865-7.547c-.556 4.069-1.166 8.3-1.837 12.664-4.915 31.993-11.279 60.049-18.927 83.488zm30.175 0c6.491-20.641 12.029-44.538 16.517-71.273l30.822 25.489a156.845 156.845 0 0 1 -16.828 45.784zm89.468 0h-45.38a168.856 168.856 0 0 0 15.706-47.111 6 6 0 0 0 -2.085-5.667l-20.311-16.8 24.107-11.032a6 6 0 0 0 3.348-6.814l-.291-1.253a97.8 97.8 0 0 0 -22.926-43.733h8.307a39.566 39.566 0 0 1 39.519 39.525z"/><path d="m237.916 169.408a6 6 0 1 0 -12 0 4.256 4.256 0 1 1 -8.511 0 6 6 0 0 0 -12 0 16.256 16.256 0 1 0 32.511 0z"/><path d="m306.149 169.408a6 6 0 0 0 -12 0 4.255 4.255 0 1 1 -8.51 0 6 6 0 0 0 -12 0 16.255 16.255 0 1 0 32.51 0z"/><path d="m256.348 240.834c.407.025.812.038 1.218.038a19.7 19.7 0 0 0 13.02-4.941l1.077-.958a27.552 27.552 0 0 0 16.5 5.475h.879a6 6 0 0 0 6-6v-5.748a22.985 22.985 0 0 0 -22.942-22.971h-26.593a22.986 22.986 0 0 0 -22.945 22.971v5.745a6 6 0 0 0 6 6 22.9 22.9 0 0 0 14.973-5.532 19.537 19.537 0 0 0 12.813 5.921zm-17.715-18.716-.814 1.268a11.031 11.031 0 0 1 -3.041 3.141 10.972 10.972 0 0 1 10.729-8.8h26.593a10.97 10.97 0 0 1 10.885 9.835 15.6 15.6 0 0 1 -6.678-4.586 6 6 0 0 0 -8.548-.587l-5.143 4.572a7.579 7.579 0 0 1 -5.5 1.894 7.554 7.554 0 0 1 -5.574-3.018l-3.05-4.074a6 6 0 0 0 -4.8-2.4c-.073 0-.145 0-.216 0a6 6 0 0 0 -4.843 2.755z"/><path d="m264.276 260.9a6 6 0 0 0 0-12h-15.119a6 6 0 0 0 0 12z"/></g></svg>