<svg id="Layer_1" height="512" viewBox="0 0 512 512" width="512" xmlns="http://www.w3.org/2000/svg" data-name="Layer 1"><path d="m352.43 347.187-37.43-3.187h-118l-37.844 3.278a43.841 43.841 0 0 0 -28.156 40.922v94.8h250v-94.8a43.725 43.725 0 0 0 -28.57-41.013z" fill="#a5e2fb"/><path d="m352.43 347.187-.13.34c-17.54 42.06-19.27 92.02-5.8 135.6h-65.61a194.942 194.942 0 0 0 33.82-137.81v-.82h22.59a43.586 43.586 0 0 1 15.13 2.69z" fill="#798795"/><path d="m304.38 344.5a46.678 46.678 0 0 1 -1.52 17.78 47.361 47.361 0 0 1 -3.66 9.12 47.891 47.891 0 0 1 -5.49 8.15l-7.46 8.9a6.376 6.376 0 0 1 -10.25-.63l-19.87-30.67 15.74-8.75a37.458 37.458 0 0 0 19.27-32.75l4.5 6.18a46.742 46.742 0 0 1 8.74 22.67z" fill="#bbf4fc"/><path d="m207.62 344.5a46.742 46.742 0 0 1 8.74-22.67l4.5-6.18a37.458 37.458 0 0 0 19.27 32.75l15.74 8.75-19.87 30.667a6.376 6.376 0 0 1 -10.25.63l-7.46-8.9a47.891 47.891 0 0 1 -5.49-8.15 47.361 47.361 0 0 1 -3.66-9.12 46.678 46.678 0 0 1 -1.52-17.777z" fill="#bbf4fc"/><path d="m165.09 192.567a12.461 12.461 0 0 1 15.81 1.6h.31v23.16h-.31a14.7 14.7 0 0 1 -18.57-22.29v-.01a14.968 14.968 0 0 1 2.76-2.46z" fill="#daaa79"/><path d="m330.94 194.167a12.461 12.461 0 0 1 15.81-1.6 15.173 15.173 0 0 1 1.71 1.38 14.7 14.7 0 0 1 -17.52 23.38h-.15v-23.16z" fill="#daaa79"/><path d="m144.67 156.687a77.346 77.346 0 0 1 15.95-12.39l1.71 1.24v49.5a14.676 14.676 0 0 0 -3.43 7.56l-3.17-2.05c-8.95-5.41-16.18-11.56-21.26-18.24v-.01a36.932 36.932 0 0 1 10.2-25.61z" fill="#7f3d32"/><path d="m350.13 143.557a80.969 80.969 0 0 1 15.44 11.38 43.948 43.948 0 0 1 13 25.94c-5.11 7.23-12.71 13.87-22.3 19.67l-3.33 2.05a14.639 14.639 0 0 0 -4.48-8.65l1.41-.44v-49.5z" fill="#7f3d32"/><path d="m256 94.487c26.64 0 51.4 4 72.01 10.86 34.93 11.62 57.93 31.45 57.93 53.96 0 7.56-2.59 14.82-7.37 21.57a43.948 43.948 0 0 0 -13-25.94 80.969 80.969 0 0 0 -15.44-11.38 126.688 126.688 0 0 0 -18.4-8.69c-20.86-7.99-47.16-12.75-75.73-12.75s-54.87 4.76-75.73 12.75a125.454 125.454 0 0 0 -19.65 9.43 77.346 77.346 0 0 0 -15.95 12.39 36.932 36.932 0 0 0 -10.2 25.61c-5.44-7.15-8.41-14.9-8.41-22.99 0-22.85 23.69-42.93 59.49-54.47 20.3-6.55 44.49-10.35 70.45-10.35z" fill="#daaa79"/><path d="m350.13 143.557-.26.45v49.5l-1.41.44a15.173 15.173 0 0 0 -1.71-1.38 12.461 12.461 0 0 0 -15.81 1.6h-.15v-56.83l.94-2.47a126.688 126.688 0 0 1 18.4 8.69z" fill="#4a5160"/><path d="m328.01 105.347c-20.61-6.86-45.37-10.86-72.01-10.86-25.96 0-50.15 3.8-70.45 10.35l-.29-.87v-3.867c0-1.9.08-3.8.23-5.68 14.02-11.05 40.34-18.5 70.51-18.5 31.51 0 58.84 8.13 72.31 20.01q.15 2.325.15 4.68v3.36z" fill="#7f3d32"/><path d="m296.08 40.907a71.228 71.228 0 0 1 32.23 55.02c-13.47-11.88-40.8-20.01-72.31-20.01-30.17 0-56.49 7.45-70.51 18.5a71.209 71.209 0 0 1 109.81-54.01z" fill="#daaa79"/><path d="m290.98 291.437-69.9.03-.22.42v23.75a37.458 37.458 0 0 0 19.27 32.75l15.74 8.75h.26l15.74-8.75a37.458 37.458 0 0 0 19.27-32.75v-23.9z" fill="#efc597"/><path d="m162.33 145.537-1.71-1.24a125.454 125.454 0 0 1 19.65-9.43l.94 2.47v56.83h-.31a12.461 12.461 0 0 0 -15.81-1.6 14.968 14.968 0 0 0 -2.76 2.46z" fill="#4a5160"/><path d="m256 122.117c-28.57 0-54.87 4.76-75.73 12.75l.94 2.47v87.98a74.79 74.79 0 1 0 149.58 0v-87.98l.94-2.47c-20.86-7.99-47.16-12.75-75.73-12.75z" fill="#ffd8b7"/><path d="m159.156 347.278a43.841 43.841 0 0 0 -28.156 40.922v94.8h30v-94.8a43.841 43.841 0 0 1 28.156-40.919l7.844-3.281z" fill="#86c0d1"/><path d="m251.08 291.467a74.747 74.747 0 0 1 -39.87-66.15v-99.083a182.975 182.975 0 0 0 -30.94 8.633l.94 2.47v87.98a74.825 74.825 0 0 0 89.79 73.283 74.12 74.12 0 0 1 -19.92-7.133z" fill="#dbb79c"/><path d="m230.61 483.127h-65.09c13.47-43.58 11.22-93.54-6.32-135.6l-.07-.17a43.521 43.521 0 0 1 15.57-2.86h22.09v.82a194.892 194.892 0 0 0 33.82 137.81z" fill="#798795"/><g fill="#20344c"><path d="m256 394.1a7.279 7.279 0 1 0 7.279 7.279 7.287 7.287 0 0 0 -7.279-7.279z"/><circle cx="256" cy="459.199" r="7.279"/><path d="m350.562 108.1a154.014 154.014 0 0 0 -16.1-6.863v-.637c0-1.178-.036-2.35-.089-3.519a6 6 0 0 0 -.174-2.773 76.9 76.9 0 0 0 -34.846-58.428l-.785-.511a77.205 77.205 0 0 0 -119.006 57.978 6.106 6.106 0 0 0 -.1 1.259c-.128 1.817-.2 3.644-.2 5.482v.536a156.092 156.092 0 0 0 -17.827 7.473c-26.685 13.311-41.381 31.5-41.381 51.205 0 17.206 11.566 33.673 32.569 46.368.058.035.117.062.176.094a20.686 20.686 0 0 0 20.681 19.59c.577 0 1.152-.033 1.725-.081v.039a80.819 80.819 0 0 0 39.652 69.494v18.87l-3.35 4.6a52.817 52.817 0 0 0 -9.03 20.207h-27.777a49.76 49.76 0 0 0 -49.7 49.7v94.931a6 6 0 0 0 6 6h250a6 6 0 0 0 6-6v-94.931a49.76 49.76 0 0 0 -49.7-49.7h-27.78a52.83 52.83 0 0 0 -9.029-20.207l-3.351-4.6v-18.87a80.819 80.819 0 0 0 39.652-69.494v-.023c.522.04 1.044.065 1.567.065a20.686 20.686 0 0 0 20.677-19.511c.112-.058.228-.106.338-.173 21-12.695 32.569-29.162 32.569-46.368 0-19.708-14.696-37.894-41.381-51.202zm-130.247-62.277a65.153 65.153 0 0 1 71.71-.4l.785.511a64.968 64.968 0 0 1 27.327 37.35c-16.157-8.417-39.29-13.377-64.137-13.377-24.036 0-46.225 4.516-62.275 12.4a65.065 65.065 0 0 1 26.59-36.484zm35.685 36.084c25.106 0 48.685 5.523 62.771 14.393a245.492 245.492 0 0 0 -62.771-7.821 245.453 245.453 0 0 0 -62.784 7.821c14.173-8.952 37.589-14.393 62.784-14.393zm-99.666 111.129c-.125.184-.261.36-.38.549-7.56-4.942-13.431-10.363-17.469-16.031a5.937 5.937 0 0 0 1.715-2.654c2.247-7.249 7.808-14.226 16.138-20.511zm18.874 20.127a8.793 8.793 0 0 1 -5.056-.464 8.7 8.7 0 0 1 -1.647-15.2 6.365 6.365 0 0 1 6.7-.16zm0-28.443a18.312 18.312 0 0 0 -6.874.088v-37.973q3.276-1.737 6.874-3.358zm42.492 146.348a43.485 43.485 0 0 0 19.522 22.562l10.13 5.628-16.382 25.285a.386.386 0 0 1 -.619.038l-7.457-8.9a40.9 40.9 0 0 1 -5.194-44.611zm9.164-15.435v-14.989a80.5 80.5 0 0 0 58.28 0v14.989a31.485 31.485 0 0 1 -16.186 27.507l-12.958 7.196-12.954-7.2a31.485 31.485 0 0 1 -16.186-27.503zm-66.724 161.481h-23.14v-88.931a37.718 37.718 0 0 1 18.917-32.67 189.252 189.252 0 0 1 4.223 121.601zm12.505 0a201.308 201.308 0 0 0 -5.513-125.871 37.7 37.7 0 0 1 7.571-.765h15.446a200.225 200.225 0 0 0 29.307 126.636zm202.355-88.931v88.931h-23.643a189.277 189.277 0 0 1 4.313-121.839 37.727 37.727 0 0 1 19.33 32.908zm-37.7-37.7a37.767 37.767 0 0 1 7.1.68 201.306 201.306 0 0 0 -5.545 125.956h-46.814a200.225 200.225 0 0 0 29.307-126.636zm-28.667 13.417a54.036 54.036 0 0 0 1.32-5.873 188.275 188.275 0 0 1 -32.227 119.089h-43.954a188.28 188.28 0 0 1 -32.053-121.462 53.735 53.735 0 0 0 1.648 8.246 52.57 52.57 0 0 0 10.323 19.486l7.458 8.9a12.258 12.258 0 0 0 9.468 4.433q.391 0 .785-.025a12.267 12.267 0 0 0 9.636-5.628l14.963-23.094 14.962 23.094a12.269 12.269 0 0 0 9.638 5.634q.393.026.785.025a12.26 12.26 0 0 0 9.469-4.434l7.457-8.9a52.57 52.57 0 0 0 10.322-19.491zm-11.543-3.283a40.612 40.612 0 0 1 -7.98 15.064l-7.457 8.9a.385.385 0 0 1 -.62-.038l-16.381-25.284 10.13-5.628a43.485 43.485 0 0 0 19.518-22.563 40.59 40.59 0 0 1 2.79 29.547zm27.7-135.3a68.792 68.792 0 0 1 -137.584 0v-86.574c19.985-6.882 44-10.628 68.792-10.628s48.807 3.746 68.792 10.628zm16.9-12.613a8.818 8.818 0 0 1 -4.9.5v-15.96a6.359 6.359 0 0 1 6.548.252 8.7 8.7 0 0 1 -1.649 15.2zm-4.9-28v-41.226q3.709 1.668 7.077 3.464v37.94a18.29 18.29 0 0 0 -7.075-.182zm19.144 8.954c-.021-.034-.047-.066-.07-.1 0-.017 0-.033 0-.05v-38.97c8.217 6.245 13.7 13.168 15.934 20.358a5.961 5.961 0 0 0 1.707 2.665c-4.052 5.692-9.96 11.139-17.569 16.092zm23.707-30.558c-15.819-27.67-65.441-46.985-123.641-46.985s-107.821 19.314-123.641 46.985a26.482 26.482 0 0 1 -.3-3.8c0-31.885 56.758-58.823 123.943-58.823s123.941 26.94 123.941 58.823a26.508 26.508 0 0 1 -.302 3.8z"/><path d="m277.5 199.773a6 6 0 0 0 6-6 6.9 6.9 0 0 1 13.805 0 6 6 0 0 0 12 0 18.9 18.9 0 0 0 -37.805 0 6 6 0 0 0 6 6z"/><path d="m234.5 199.773a6 6 0 0 0 6-6 18.9 18.9 0 0 0 -37.805 0 6 6 0 0 0 12 0 6.9 6.9 0 0 1 13.805 0 6 6 0 0 0 6 6z"/><path d="m273.268 237.865a24.451 24.451 0 0 1 -34.536 0 6 6 0 0 0 -8.484 8.485 36.46 36.46 0 0 0 51.5 0 6 6 0 0 0 -8.484-8.485z"/></g></svg>