<svg id="Layer_1" height="512" viewBox="0 0 512 512" width="512" xmlns="http://www.w3.org/2000/svg" data-name="Layer 1"><path d="m330.91 140.19c11.22 21.73 19.98 50.61 23.03 89.24a121.532 121.532 0 0 1 -39.49 34.58 74.435 74.435 0 0 0 16.34-46.66v-77.1z" fill="#bc5e51"/><path d="m359.96 342.84-.23.29a114.778 114.778 0 0 1 -22.82 53.24l-.41.52a102.388 102.388 0 0 1 -161.19-.54 115.942 115.942 0 0 1 -23.01-53.66 43.217 43.217 0 0 1 19.35-6.07v.01a95.958 95.958 0 0 0 19.44 47.44 82.394 82.394 0 0 0 129.67.48l.37-.47a94.746 94.746 0 0 0 19.29-47.45 43.277 43.277 0 0 1 19.54 6.21z" fill="#ff5a81"/><path d="m381 475.15h-250v-94.93a43.668 43.668 0 0 1 21.3-37.53 115.942 115.942 0 0 0 23.01 53.66 102.388 102.388 0 0 0 161.19.54l.41-.52a114.778 114.778 0 0 0 22.82-53.24l.23-.29a43.688 43.688 0 0 1 21.04 37.38z" fill="#564175"/><path d="m181.21 132.53c71.8-11.92 83.1-56.16 83.1-56.16a22.958 22.958 0 0 1 -4-39.15c.13-.09.26-.19.39-.29-1.42-.06-2.84-.08-4.27-.08a120.993 120.993 0 0 0 -59.55 226.31 74.459 74.459 0 0 1 -15.67-45.81z" fill="#7f3d32"/><path d="m211 334.22a55.311 55.311 0 0 0 11.66 33.28 42.394 42.394 0 0 0 66.91.01v-.01a54.159 54.159 0 0 0 11.43-33.28l.01-.02a19.8 19.8 0 0 0 9.33 2.31h26.96q1.575 0 3.12.12a94.746 94.746 0 0 1 -19.29 47.45l-.37.47a82.394 82.394 0 0 1 -129.67-.48 95.958 95.958 0 0 1 -19.44-47.44v-.01c1.01-.07 2.02-.11 3.05-.11h26.96a19.8 19.8 0 0 0 9.33-2.31z" fill="#564175"/><path d="m377.4 157.83a120.408 120.408 0 0 1 -23.46 71.6c-3.05-38.63-11.81-67.51-23.03-89.24-20.67-40.07-49.68-55.87-66.6-63.82a22.958 22.958 0 0 1 -4-39.15c.13-.09.26-.19.39-.29a120.972 120.972 0 0 1 116.7 120.9z" fill="#683029"/><path d="m290.34 316.51v-32.7h-68.68v32.7a19.973 19.973 0 0 1 -10.67 17.69l.01.02a55.311 55.311 0 0 0 11.66 33.28 42.394 42.394 0 0 0 66.91.01v-.01a54.159 54.159 0 0 0 11.43-33.28l.01-.02a19.973 19.973 0 0 1 -10.67-17.69z" fill="#dbb289"/><path d="m264.31 76.37s-11.3 44.24-83.1 56.16v84.82a74.79 74.79 0 1 0 149.58 0v-77.1l.12-.06c-20.67-40.07-49.68-55.87-66.6-63.82z" fill="#efc597"/><circle cx="295.59" cy="182.47" fill="#5ac5df" r="34"/><path d="m181.21 186.2v23.16h-.31a14.7 14.7 0 0 1 -15.81-24.76 12.436 12.436 0 0 1 15.81 1.6z" fill="#dbb289"/><path d="m161.523 373.565a116.238 116.238 0 0 1 -9.223-30.875 43.668 43.668 0 0 0 -21.3 37.53v94.78h30v-94.78a43.974 43.974 0 0 1 .523-6.655z" fill="#403654"/><path d="m181 132.53v84.82a74.546 74.546 0 0 0 15.775 45.81 75.484 75.484 0 0 0 24.885 20.65 75 75 0 0 0 49.34 6.817 74.317 74.317 0 0 1 -19.34-6.817 75.484 75.484 0 0 1 -24.885-20.65 74.546 74.546 0 0 1 -15.775-45.81v-92.681a158.22 158.22 0 0 1 -30 7.861z" fill="#ceaa86"/><circle cx="216.59" cy="182.47" fill="#5ac5df" r="34"/><g fill="#20344c"><path d="m131 481.149h250a6 6 0 0 0 6-6v-94.932a49.76 49.76 0 0 0 -49.7-49.7h-26.964a14.017 14.017 0 0 1 -14-14v-29.19a81.378 81.378 0 0 0 21.979-18.609 127.109 127.109 0 0 0 30.5-23.788c.187 4.952.294 10.037.294 15.3a6 6 0 0 0 12 0q0-15.054-1.034-29.063a126.967 126.967 0 1 0 -167.075 36.672 81.454 81.454 0 0 0 22.667 19.47v29.2a14.017 14.017 0 0 1 -14 14h-26.967a49.76 49.76 0 0 0 -49.7 49.7v94.932a6 6 0 0 0 6 6.008zm193.792-325.975a39.969 39.969 0 0 0 -68.7 21 39.973 39.973 0 0 0 -68.886-20.8v-17.859c32.662-6.369 52.34-19.36 63.607-30.156a77.481 77.481 0 0 0 16.727-22.774c14.577 7.284 38.938 22.114 57.252 56.827zm-1.2 27.3a28 28 0 1 1 -28-28 28.031 28.031 0 0 1 28.002 27.999zm-79 0a28 28 0 1 1 -28-28 28.031 28.031 0 0 1 28.002 27.999zm87.537 61.888a80.384 80.384 0 0 0 4.661-27.014v-47.082c5.148 16.042 9.039 34.989 10.966 57.391a114.956 114.956 0 0 1 -15.625 16.704zm-69.429-201.336a114.953 114.953 0 0 1 95.376 168.518c-4.944-37.223-15.912-68.162-32.8-92.333-19.413-27.785-42.634-40.855-58.412-48.269a16.96 16.96 0 0 1 -4.164-27.916zm-121.252 114.806a115.129 115.129 0 0 1 106.44-114.661 29.067 29.067 0 0 0 9.054 35.782c-5.259 11.637-26.086 44.571-94.675 49.79a6 6 0 0 0 .449 11.984c.153 0 .307-.006.461-.018 4.175-.318 8.177-.74 12.031-1.247v37.293a18.114 18.114 0 0 0 -13.529 2.905 20.553 20.553 0 0 0 -8.718 14.1 20.712 20.712 0 0 0 20.523 23.625c.576 0 1.151-.033 1.724-.081v.038a80.416 80.416 0 0 0 4.283 25.9 115.257 115.257 0 0 1 -38.043-85.41zm33.76 31.538v15.83a8.81 8.81 0 0 1 -5.056-.463 8.7 8.7 0 0 1 -1.649-15.2 6.371 6.371 0 0 1 6.705-.167zm12 27.977v-7.772a39.973 39.973 0 0 0 68.886-20.8 39.969 39.969 0 0 0 68.7 21v7.575a68.792 68.792 0 1 1 -137.584 0zm107.675 120.061a48.406 48.406 0 0 1 -10.018 26.374l-.031.04a36.389 36.389 0 0 1 -57.436 0 49.625 49.625 0 0 1 -10.24-26.439 25.977 25.977 0 0 0 10.506-20.865v-23.518a80.691 80.691 0 0 0 56.672.008v23.51a25.976 25.976 0 0 0 10.547 20.89zm-93.219 5.106a26.181 26.181 0 0 0 3.965-.3 61.7 61.7 0 0 0 12.3 28.976 48.083 48.083 0 0 0 38.188 18.673 48.081 48.081 0 0 0 38.156-18.631l.032-.04a60.476 60.476 0 0 0 12.145-28.968 26.067 26.067 0 0 0 3.885.292h23.125a88.15 88.15 0 0 1 -17.052 37.863l-.349.446a76.388 76.388 0 0 1 -120.231-.441 89.42 89.42 0 0 1 -17.18-37.868zm-35.055.884a101.435 101.435 0 0 0 19.75 44.354 88.388 88.388 0 0 0 139.126.5l.378-.481a100.2 100.2 0 0 0 19.627-44.348 37.351 37.351 0 0 1 7.658 2.6 108.573 108.573 0 0 1 -20.96 46.648l-.394.5a96.388 96.388 0 0 1 -151.75-.5 109.776 109.776 0 0 1 -21.088-46.691 37.387 37.387 0 0 1 7.653-2.58zm-29.609 36.819a37.585 37.585 0 0 1 11.275-26.857 121.673 121.673 0 0 0 22.3 46.674 108.386 108.386 0 0 0 170.644.562l.423-.538a120.5 120.5 0 0 0 22.19-46.6 37.584 37.584 0 0 1 11.168 26.759v88.932h-36.539a62.533 62.533 0 0 0 -2.248-43.384 6 6 0 1 0 -11.013 4.764 50.45 50.45 0 0 1 .518 38.62h-139.436a50.45 50.45 0 0 1 .518-38.62 6 6 0 1 0 -11.013-4.764 62.533 62.533 0 0 0 -2.248 43.384h-36.539z"/><path d="m290.406 161.906a18.924 18.924 0 0 0 -18.9 18.9 6 6 0 0 0 12 0 6.9 6.9 0 1 1 13.8 0 6 6 0 0 0 12 0 18.924 18.924 0 0 0 -18.9-18.9z"/><path d="m202.692 180.809a6 6 0 0 0 12 0 6.9 6.9 0 1 1 13.8 0 6 6 0 0 0 12 0 18.9 18.9 0 1 0 -37.8 0z"/><path d="m281.752 238.385a6 6 0 1 0 -8.485-8.485 24.449 24.449 0 0 1 -34.534 0 6 6 0 1 0 -8.485 8.485 36.46 36.46 0 0 0 51.5 0z"/><path d="m169.82 115.178c.141 0 .283-.006.426-.015a103.107 103.107 0 0 0 29.381-7.408c20.735-8.625 34.772-23.007 40.6-41.593a6 6 0 0 0 -11.451-3.588c-11.477 36.632-58.7 40.568-59.37 40.618a6 6 0 0 0 .419 11.986z"/><path d="m310.715 89.351c1.067.356 26.169 9.014 29.742 35.807a6 6 0 0 0 11.894-1.586c-4.586-34.4-36.543-45.183-37.9-45.625a6 6 0 0 0 -3.734 11.4z"/></g></svg>