<svg id="Layer_1" height="512" viewBox="0 0 512 512" width="512" xmlns="http://www.w3.org/2000/svg" data-name="Layer 1"><path d="m204.23 334.189s1.52 25.356 6.65 58.726c4.02 26.16 10.26 57.085 19.71 85.085l51.655-2.311c9.04-27.19 15.012-57.36 18.922-82.82 4.461-29.04 6.177-51.98 6.537-57.44z" fill="#e2798d"/><path d="m267.81 380.959v21.841h-20.66v-21.84a25.284 25.284 0 0 1 4.76-14.78l5.21-7.26c.29.06.58.13.86.2l5.07 7.06a25.355 25.355 0 0 1 4.76 14.779z" fill="#ff981d"/><path d="m210.88 392.869-39.96 33.05a156.837 156.837 0 0 0 19.1 51.99h40.57c-9.45-27.76-15.69-58.88-19.71-85.04z" fill="#4a5160"/><path d="m256.05 358.689c-26.87 5.43-27.96 26.9-27.96 26.9-7.03-7.55-18.66-15.38-23.86-51.4l14.84-17.58a66.9 66.9 0 0 0 36.98 40.63c.61.26 1.15.47 1.6.63l-.17.55c-.48.081-.96.17-1.43.27z" fill="#e75163"/><path d="m204.23 334.189s1.52 25.31 6.65 58.68l-14.29 11.82-1.57-1.89-29.02-13.27.28-1.2a88.442 88.442 0 0 1 30.69-48.86 86.229 86.229 0 0 1 7.26-5.28z" fill="#515968"/><path d="m381 382.979v94.93h-59.02a156.918 156.918 0 0 0 19.1-51.99l-25.67-21.23 1.57-1.89 29.02-13.27-.28-1.2a88.479 88.479 0 0 0 -30.61-48.8l.21-.26h21.98a43.708 43.708 0 0 1 43.7 43.71z" fill="#262b3a"/><path d="m165.09 187.349a14.677 14.677 0 0 0 -4.65 5.26l-.53-.28v-92.12a26.044 26.044 0 0 1 26.04-26.05 40.083 40.083 0 0 1 40.08-40.07h80.96c-.3.29-.59.6-.87.91-11.64 12.88-1.95 33.53 15.41 33.53h9.46a18 18 0 0 1 17.99 18v102.04l-.34.35a14.186 14.186 0 0 0 -1.89-1.57 12.45 12.45 0 0 0 -15.81 1.61h-.15v-54.98a52.97 52.97 0 0 0 -27.32-46.35l-18.1-10.02 4.07 36.5c-69.17-2.88-80.69-22.55-80.69-22.55l-7.82 5.04a43.027 43.027 0 0 0 -19.72 36.17v56.19h-.31a12.45 12.45 0 0 0 -15.81-1.61z" fill="#2b2a3e"/><path d="m196.81 339.269.16.2a88.442 88.442 0 0 0 -30.69 48.86l-.28 1.2 29.02 13.27 1.57 1.89-25.67 21.23a156.837 156.837 0 0 0 19.1 51.99h-59.02v-94.93a43.708 43.708 0 0 1 43.7-43.71z" fill="#262b3a"/><path d="m293 285.119-73.92.04-.01.01v31.44a66.9 66.9 0 0 0 36.98 40.63 66.9 66.9 0 0 0 36.98-40.63v-31.44z" fill="#f5cac1"/><path d="m284.01 385.589s-1.05-20.43-26.03-26.47l-.5-.7.17-.55c-.45-.16-.99-.37-1.6-.63a66.9 66.9 0 0 0 36.98-40.63l14.84 17.58c0 .02-.01.04-.01.06l-.09-.06s-.03.43-.09 1.24c-5.29 34.96-16.73 42.7-23.67 50.16z" fill="#ffd8b7"/><path d="m345.72 388.329.28 1.2-29.02 13.271-1.57 1.89-14.29-11.82c4.46-29.04 6.2-51.98 6.56-57.44.07-.39.12-.78.18-1.18a86.07 86.07 0 0 1 7.25 5.28 88.479 88.479 0 0 1 30.61 48.8z" fill="#515968"/><path d="m301.12 392.869c-3.91 25.46-9.93 55.63-18.97 82.82v.01c-.24.74-.49 1.48-.74 2.21h40.57a156.918 156.918 0 0 0 19.1-51.99z" fill="#4a5160"/><path d="m267.81 402.8 14.34 72.89v.01c-.24.74-.49 1.48-.74 2.21h-49.93l15.67-75.11z" fill="#ed8115"/><path d="m252.87 358.419s1.19-.35 3.18-1.18a66.9 66.9 0 0 0 36.98-40.63l14.84 17.58c0 .02-.01.04-.01.06-.06.4-.11.79-.18 1.18-5.29 34.96-16.73 42.7-23.67 50.16 0 0-1.05-20.43-26.03-26.47-.28-.07-.57-.14-.86-.2-.35-.08-.71-.16-1.07-.23-.47-.1-.95-.19-1.43-.27" fill="#e75163"/><path d="m352.94 197.389a14.7 14.7 0 0 1 -22 14.73h-.15v-23.16h.15a12.45 12.45 0 0 1 15.81-1.61 14.186 14.186 0 0 1 1.89 1.57 14.565 14.565 0 0 1 4.3 8.47z" fill="#f5cac1"/><path d="m181.21 188.959v23.16h-.31a14.7 14.7 0 0 1 -15.81-24.77 12.45 12.45 0 0 1 15.81 1.61z" fill="#f5cac1"/><path d="m303.47 87.629-18.1-10.02 4.07 36.5c-69.17-2.88-80.69-22.55-80.69-22.55l-7.82 5.04a43.027 43.027 0 0 0 -19.72 36.17v87.34a74.79 74.79 0 1 0 149.58 0v-86.13a52.97 52.97 0 0 0 -27.32-46.35z" fill="#ffded9"/><path d="m196.212 340.1c.255-.209.5-.426.758-.632l-.16-.2h-22.11a43.708 43.708 0 0 0 -43.7 43.71v94.93h30v-94.93a43.72 43.72 0 0 1 35.212-42.878z" fill="#171921"/><path d="m249.08 285.159a74.832 74.832 0 0 1 -37.87-65.05v-125.809a14.048 14.048 0 0 1 -2.46-2.736l-7.82 5.04a43.027 43.027 0 0 0 -19.72 36.17v87.34a74.847 74.847 0 0 0 89.8 73.282 74.218 74.218 0 0 1 -21.93-8.237z" fill="#d8bdba"/><g fill="#20344c"><path d="m337.3 333.274h-20.469l-17.8-18.861v-25.977a80.788 80.788 0 0 0 37.762-68.329v-.022c.522.039 1.044.065 1.567.065a20.709 20.709 0 0 0 20.523-23.624 20.672 20.672 0 0 0 -3.9-9.458v-100.539a24.021 24.021 0 0 0 -23.993-23.994h-9.458a14.373 14.373 0 0 1 -13.232-8.674 13.442 13.442 0 0 1 2.271-14.839q.318-.351.657-.691a6 6 0 0 0 -4.243-10.242h-80.957a46.143 46.143 0 0 0 -45.75 40.579 32.1 32.1 0 0 0 -26.372 31.542v92.119c0 .1.01.195.015.292a21.285 21.285 0 0 0 -.96 3.905 20.709 20.709 0 0 0 20.522 23.624c.577 0 1.152-.033 1.725-.081v.038a80.791 80.791 0 0 0 37.859 68.393v25.914l-17.9 18.861h-20.467a49.76 49.76 0 0 0 -49.7 49.7v94.935a6 6 0 0 0 6 6h250a6 6 0 0 0 6-6v-94.932a49.76 49.76 0 0 0 -49.7-49.704zm-24.393 12.2a82.04 82.04 0 0 1 26.067 40.673l-23.544 10.774-7.867-6.5c2.797-18.814 4.456-34.929 5.337-44.949zm-11.378-9.491c-3.455 21.6-9.336 31.621-14.729 37.971a36.039 36.039 0 0 0 -1.783-3.251 37.188 37.188 0 0 0 -15.583-13.843 72.5 72.5 0 0 0 25.375-28.842zm-45.45 14.7a61.133 61.133 0 0 1 -31.009-35.127v-20.824a80.67 80.67 0 0 0 61.963-.039v20.865c-7.633 21.547-23.033 31.357-30.957 35.123zm5.732 30.277v15.848h-8.661v-15.85a19.222 19.222 0 0 1 3.63-11.277l.7-.973.7.973a19.222 19.222 0 0 1 3.628 11.277zm85.2-182.706a8.7 8.7 0 0 1 -5.316 9.243 8.818 8.818 0 0 1 -4.9.5v-15.957a6.359 6.359 0 0 1 6.548.252 8.672 8.672 0 0 1 3.664 5.96zm-171.8 9.707a8.794 8.794 0 0 1 -5.056-.464 8.7 8.7 0 0 1 -1.647-15.2 6.365 6.365 0 0 1 6.7-.161zm0-28.443a18.239 18.239 0 0 0 -9.3.747v-80.055a20.068 20.068 0 0 1 20.046-20.045 6 6 0 0 0 6-6 34.114 34.114 0 0 1 34.076-34.076h70.295a25.689 25.689 0 0 0 1.01 18.644 26.2 26.2 0 0 0 24.2 15.8h9.458a12.007 12.007 0 0 1 11.984 11.996v92.971a18.365 18.365 0 0 0 -6.188 0v-45.52a58.992 58.992 0 0 0 -30.412-51.6l-18.106-10.02a6 6 0 0 0 -8.869 5.914l3.286 29.482c-55.093-3.407-67.827-18.07-68.818-19.327a5.544 5.544 0 0 0 -3.625-2.839 5.842 5.842 0 0 0 -4.75.931l-7.817 5.037a48.831 48.831 0 0 0 -22.473 41.213zm12 40.591v-87.338a36.876 36.876 0 0 1 16.973-31.125l3.627-2.338c7.919 6.837 29 18.617 81.378 20.8a6.073 6.073 0 0 0 4.638-1.9 6 6 0 0 0 1.575-4.758l-2.785-24.97 7.951 4.4a46.989 46.989 0 0 1 24.224 41.1v86.127a68.792 68.792 0 1 1 -137.584 0zm30.083 107.909a72.5 72.5 0 0 0 25.4 28.859 37.484 37.484 0 0 0 -17.415 17.051c-5.385-6.353-11.255-16.374-14.707-37.945zm-18.194 17.454c.885 10.02 2.544 26.135 5.344 44.942l-7.867 6.5-23.544-10.774a82.04 82.04 0 0 1 26.067-40.668zm-62.1 126.438v-88.932a37.747 37.747 0 0 1 37.7-37.7h7.439a94.137 94.137 0 0 0 -21.707 41.692l-.279 1.2a6 6 0 0 0 3.347 6.817l22.8 10.433-19.2 15.88a6 6 0 0 0 -2.085 5.667 162.333 162.333 0 0 0 14.922 44.946zm56.505 0a150.347 150.347 0 0 1 -16.036-43.621l29.159-24.113c4.276 25.378 9.538 48.086 15.7 67.734zm23.305-79.947c-.6-3.933-1.157-7.754-1.663-11.44a85.546 85.546 0 0 0 6.188 6.731c.831.835 1.623 1.63 2.361 2.422a6 6 0 0 0 10.383-3.783 22.642 22.642 0 0 1 8.745-15.017 31.25 31.25 0 0 0 -1.674 10.082v21.231l-11.129 53.343a564.657 564.657 0 0 1 -13.211-63.569zm22.052 79.947 13.166-63.1h10.846l12.417 63.1zm34.946-69.687v-21.265a31.5 31.5 0 0 0 -.644-6.236 21.813 21.813 0 0 1 4.854 11.171 6 6 0 0 0 10.382 3.784c.738-.792 1.53-1.587 2.361-2.422a86.931 86.931 0 0 0 6.073-6.585q-.753 5.461-1.644 11.293a579.255 579.255 0 0 1 -11.873 58.588zm15.867 69.687c6.159-19.651 11.421-42.358 15.7-67.734l29.159 24.113a150.347 150.347 0 0 1 -16.034 43.621zm85.325 0h-42.932a162.333 162.333 0 0 0 14.922-44.946 6 6 0 0 0 -2.085-5.667l-19.2-15.882 22.8-10.433a6 6 0 0 0 3.347-6.817l-.279-1.2a94.14 94.14 0 0 0 -21.707-41.693h7.434a37.747 37.747 0 0 1 37.7 37.7z"/><path d="m277.5 194.569a6 6 0 0 0 6-6 6.9 6.9 0 0 1 13.805 0 6 6 0 1 0 12 0 18.9 18.9 0 0 0 -37.805 0 6 6 0 0 0 6 6z"/><path d="m234.5 194.569a6 6 0 0 0 6-6 18.9 18.9 0 0 0 -37.805 0 6 6 0 0 0 12 0 6.9 6.9 0 0 1 13.805 0 6 6 0 0 0 6 6z"/><path d="m281.752 241.147a6 6 0 0 0 -8.484-8.487 24.448 24.448 0 0 1 -34.536 0 6 6 0 0 0 -8.484 8.487 36.464 36.464 0 0 0 51.5 0z"/></g></svg>