<svg id="Layer_1" height="512" viewBox="0 0 512 512" width="512" xmlns="http://www.w3.org/2000/svg" data-name="Layer 1"><path d="m349.55 338.892-16.39 19.819-26 117.289h73.84v-95.147a43.729 43.729 0 0 0 -31.45-41.961z" fill="#bc5e51"/><path d="m162.29 339.323-.58-.211a43.725 43.725 0 0 0 -30.71 41.741v95.147h74.08l-26.24-117.289z" fill="#bc5e51"/><path d="m314.25 302.522a83.98 83.98 0 0 0 -10.36-14.41l-4.63-5.279-.02-.021c-.94-.569-1.9-1.121-2.86-1.681l-.25-.131h-80.26l-.165.131c-.96.56-1.962 1.111-2.9 1.681l-.041.02-4.64 5.28a83.974 83.974 0 0 0 -10.366 14.41c-13.11 23.53-12.152 48.279-2.262 75.469l35.584 98.009h49.84l35.59-98.009c9.89-27.191 10.85-51.939-2.26-75.469z" fill="#e9fbff"/><path d="m351.02 146.112v22.388h-1.04a29.79 29.79 0 0 1 -19.06-6.9c-.71-.581-1.39-1.2-2.04-1.85a38.367 38.367 0 0 1 -11.24-27.141v-23.309a27.149 27.149 0 0 0 -27.15-27.149h-2.6a27.045 27.045 0 0 0 -18.25 7.049c-9.78 8.891-24.09 10.6-35.3 3.59l-.76-.48v-10.157c0-19.58 17.96-24.08 37.14-20.16l44.98 10.479c1.3.3 2.58.66 3.83 1.07a45.946 45.946 0 0 1 31.7 43.68v28.89z" fill="#4a5160"/><path d="m301.55 47.872a25.106 25.106 0 0 1 20.08 24.6l-2.1 1.07c-1.25-.41-2.53-.77-3.83-1.07l-44.98-10.479c-19.18-3.92-37.14.58-37.14 20.16v10.159a26.68 26.68 0 0 1 -8.96 1.631c-16.34 0-24.76-17.11-24.76-17.11a40.538 40.538 0 0 1 48.72-39.771z" fill="#6d7486"/><path d="m299.26 282.833c26.18 15.75 43.2 36.58 50.29 56.059.37.99.7 1.98 1.01 2.961a8.381 8.381 0 0 1 -4.15 9.939l-13.25 6.808h25.09a3.148 3.148 0 0 1 2.84 4.509l-51.9 108.07-2.03 4.6h-26.24l35.59-97.9c9.89-27.189 10.85-51.83-2.26-75.36a83.98 83.98 0 0 0 -10.36-14.41z" fill="#c79a83"/><path d="m295.64 314.472a46.869 46.869 0 0 1 -1.93 57.73l-7.46 8.9a6.381 6.381 0 0 1 -10.25-.631l-.66-1.02-19.21-29.651 15.74-8.75a37.485 37.485 0 0 0 19.27-32.75z" fill="#cae6ee"/><path d="m255.92 382.712a14.852 14.852 0 0 1 10.33 4.16l.49 2.051 11.22 82.65.59 4.209h-45.42l.66-4.209 11.22-82.65.37-1.85a14.846 14.846 0 0 1 10.54-4.361z" fill="#de3c44"/><path d="m256.13 349.8 19.21 29.65-.38.25-8.71 7.17a14.912 14.912 0 0 0 -20.87.2l-8.59-7.371-.21-.129 19.29-29.77z" fill="#ad2a34"/><path d="m221.66 284.443v31.549a37.434 37.434 0 0 0 18.47 25.06l15.74 8.75h.26l15.74-8.75a37.434 37.434 0 0 0 18.47-25.06v-31.549z" fill="#efada3"/><path d="m221.66 315.993a37.434 37.434 0 0 0 18.47 25.059l15.74 8.75-19.29 29.771-.58.9a6.381 6.381 0 0 1 -10.25.631l-7.46-8.9a46.886 46.886 0 0 1 -1.93-57.73l4.5-6.17a37.1 37.1 0 0 0 .8 7.689z" fill="#cae6ee"/><path d="m181.18 118.612.02 75.67h-.02a14.523 14.523 0 0 0 -14.5-14.49h-5.91v-83.25a31.466 31.466 0 0 1 31.46-31.459h9.35a40.46 40.46 0 0 0 -1.72 11.75s8.42 17.11 24.76 17.11v.009h-18.78a24.66 24.66 0 0 0 -24.66 24.66z" fill="#4a5160"/><path d="m328.88 159.752a38.363 38.363 0 0 1 -11.24-27.14v-23.312a27.149 27.149 0 0 0 -27.15-27.149h-2.6a27.045 27.045 0 0 0 -18.25 7.049c-9.78 8.891-24.09 10.6-35.3 3.59l-.76-.48a26.68 26.68 0 0 1 -8.96 1.631v.009h-18.78a24.659 24.659 0 0 0 -24.66 24.66l.03 99.37a74.823 74.823 0 0 0 34.49 63.02q2.88 1.845 5.96 3.441a74.955 74.955 0 0 0 68.68 0q3.075-1.59 5.96-3.441a74.728 74.728 0 0 0 34.49-63.02v-56.23l.13-.149a27.462 27.462 0 0 1 -2.04-1.849z" fill="#ffc9c0"/><path d="m346.75 185.233a14.7 14.7 0 0 1 -15.81 24.76h-.15v-23.16h.15a12.435 12.435 0 0 1 15.81-1.6z" fill="#efada3"/><path d="m181.18 194.282v15.711h-.28a14.7 14.7 0 0 1 -15.81-24.76 12.237 12.237 0 0 1 12-1.021 14.347 14.347 0 0 1 4.09 10.07z" fill="#efada3"/><path d="m172.515 351.3-10.225-11.977-.58-.211a43.725 43.725 0 0 0 -30.71 41.741v95.147h30v-95.147a43.545 43.545 0 0 1 11.515-29.553z" fill="#964e47"/><path d="m245.7 281a74.823 74.823 0 0 1 -34.49-63.02l-.03-99.37a24.659 24.659 0 0 1 24.66-24.66h.544c-.691-.357-1.374-.74-2.044-1.16l-.76-.48a26.68 26.68 0 0 1 -8.96 1.631v.009h-18.78a24.659 24.659 0 0 0 -24.66 24.66l.03 99.37a74.823 74.823 0 0 0 34.49 63.02q2.88 1.845 5.96 3.441a75.016 75.016 0 0 0 49.34 6.819 74.3 74.3 0 0 1 -19.34-6.817q-3.075-1.59-5.96-3.443z" fill="#d3aea9"/><path d="m162.29 339.323c6.99-19.6 24.08-40.621 50.45-56.49l-4.63 5.279a83.98 83.98 0 0 0 -10.36 14.41c-13.11 23.53-12.15 48.171-2.26 75.36l35.59 97.9h-26l-2.27-4.6-51.9-108.07a3.148 3.148 0 0 1 2.84-4.509h25.09l-13.25-6.811a8.381 8.381 0 0 1 -4.15-9.939c.26-.84.55-1.68.85-2.53z" fill="#c79a83"/><g fill="#20344c"><path d="m354.128 333.871c-8.083-20.008-24.793-38.966-47.136-53.492a80.662 80.662 0 0 0 29.8-62.61v-.024c.522.04 1.044.065 1.568.065a20.709 20.709 0 0 0 20.522-23.624 20.552 20.552 0 0 0 -8.718-14.105 18.1 18.1 0 0 0 -13.372-2.926v-5.374a35.826 35.826 0 0 0 13.192 2.5h1.039a6 6 0 0 0 6-6l.2-22.387v-28.89a51.7 51.7 0 0 0 -29.681-46.957 31.219 31.219 0 0 0 -24.8-28.269l-52.966-10.811a46.64 46.64 0 0 0 -52.423 27.906h-5.121a37.5 37.5 0 0 0 -37.459 37.459v83.248a5.986 5.986 0 0 0 2.372 4.771 20.709 20.709 0 0 0 8.546 31.945 20.947 20.947 0 0 0 7.793 1.514c.576 0 1.151-.032 1.724-.081v.04a80.662 80.662 0 0 0 29.8 62.61c-22.339 14.523-39.046 33.476-47.131 53.479a49.46 49.46 0 0 0 -32.877 46.781v94.932a6 6 0 0 0 6 6h250a6 6 0 0 0 6-6v-94.932a49.976 49.976 0 0 0 -32.872-46.768zm-9.294 9.57a2.35 2.35 0 0 1 -1.17 2.8l-13.247 6.814a5.958 5.958 0 0 0 -1.522 1.128c2.4-15.646 1.056-29.885-4.062-43.353 9.522 10.245 16.493 21.451 20.001 32.611zm-1.5-153.49a8.7 8.7 0 0 1 -1.648 15.2 8.809 8.809 0 0 1 -4.9.5v-15.951a6.359 6.359 0 0 1 6.553.251zm1.888-72.943v8.371a23.6 23.6 0 0 0 -11.959-3.235 6 6 0 0 0 0 12 11.768 11.768 0 0 1 11.76 11.756v15.874a23.7 23.7 0 0 1 -11.9-6.471 32.175 32.175 0 0 1 -9.485-22.9v-23.318a33.187 33.187 0 0 0 -33.149-33.15h-2.592a33.074 33.074 0 0 0 -22.297 8.614 23.282 23.282 0 0 1 -26.02 4.088v-6.7c0-5.183 1.5-8.927 4.584-11.446 4.973-4.062 14.181-5.095 25.275-2.845l44.9 10.458a39.779 39.779 0 0 1 30.888 38.904zm-126.649-67.185a34.47 34.47 0 0 1 28.8-7.1l52.977 10.817a19.179 19.179 0 0 1 14.15 12.278l-42.42-9.88c-.054-.013-.107-.025-.161-.036-14.889-3.041-27.442-1.161-35.344 5.291-4.1 3.351-9 9.669-9 20.742v5.544c-12.206 1.922-19.475-8.5-21.7-12.32a34.456 34.456 0 0 1 12.698-25.336zm-43.4 155.8a8.8 8.8 0 0 1 -5.024-.472 8.7 8.7 0 0 1 -1.649-15.2 6.211 6.211 0 0 1 5.07-.826 8.438 8.438 0 0 1 1.6 4.946zm0-87.223.019 57.048a20.356 20.356 0 0 0 -8.422-1.872v-77.244a25.488 25.488 0 0 1 25.459-25.459h1.988a46.9 46.9 0 0 0 -.364 5.751 6 6 0 0 0 .617 2.65 39.962 39.962 0 0 0 6.159 8.913 30.712 30.712 0 0 0 -25.453 30.213zm12.032 99.363-.032-99.365a18.688 18.688 0 0 1 18.667-18.667h18.714.079.088 8.859a5.965 5.965 0 0 0 1.157-.114c12.768 6.06 27.963 3.78 38.934-6.192a21.1 21.1 0 0 1 14.22-5.494h2.592a21.173 21.173 0 0 1 21.149 21.15v23.319a44.092 44.092 0 0 0 13 31.383c.051.051.105.1.157.15v53.834a68.792 68.792 0 0 1 -137.584 0zm50.01 128.319 10.13 5.628-16.379 25.29a.347.347 0 0 1 -.3.176.326.326 0 0 1 -.319-.137l-7.457-8.9a40.9 40.9 0 0 1 -5.194-44.611 43.489 43.489 0 0 0 19.522 22.558zm-9.554-31.007v-21.66a80.661 80.661 0 0 0 56.672 0v21.66a31.475 31.475 0 0 1 -15.379 20.525l-12.954 7.192-12.954-7.2a31.478 31.478 0 0 1 -15.382-20.513zm28.339 45.354 11.364 17.541-1.364 1.122a21.152 21.152 0 0 0 -20.343.1l-1.167-1zm8.652-8.715 10.13-5.628a43.489 43.489 0 0 0 19.518-22.562 40.9 40.9 0 0 1 -5.194 44.611l-7.457 8.9a.326.326 0 0 1 -.319.137.347.347 0 0 1 -.3-.176zm-97.485-8.274c3.507-11.159 10.478-22.365 20-32.611-5.118 13.468-6.464 27.707-4.062 43.353a5.988 5.988 0 0 0 -1.521-1.128l-13.248-6.814a2.349 2.349 0 0 1 -1.169-2.8zm-30.167 126.131v-88.932a37.513 37.513 0 0 1 18.609-32.539 14.351 14.351 0 0 0 2.041 4.288h-3.9a9.15 9.15 0 0 0 -8.25 13.112l49.974 104.069zm71.638 0-50.358-105.181h20.559a6 6 0 0 0 5.49-3.585 143.772 143.772 0 0 0 5.518 18.911l32.665 89.855zm21.327-14.621-28.84-79.334c-10.06-27.675-9.466-50.039 1.869-70.383a77.209 77.209 0 0 1 9.624-13.378l3.046-3.468v16.645l-4.155 5.695a52.871 52.871 0 0 0 2.182 65.113l7.457 8.9a12.257 12.257 0 0 0 9.469 4.434q.39 0 .783-.025a12.35 12.35 0 0 0 5.5-1.659l1.988 1.7zm10.125 14.621 10.792-79.509a8.984 8.984 0 0 1 9.976-.065l10.8 79.574zm32.744-80.561 2.032-1.673a12.318 12.318 0 0 0 5.734 1.814c.262.017.524.025.783.025a12.257 12.257 0 0 0 9.469-4.434l7.457-8.9a52.872 52.872 0 0 0 2.182-65.114l-4.155-5.694v-16.647l3.047 3.469a77.243 77.243 0 0 1 9.623 13.376c11.335 20.345 11.93 42.709 1.869 70.384l-29.023 79.835zm16.654 80.561 32.665-89.855a143.619 143.619 0 0 0 5.518-18.911 6 6 0 0 0 5.49 3.585h20.559l-50.358 105.181zm85.512 0h-58.476l6.763-14.083h21.942a6 6 0 0 0 0-12h-16.18l37.451-77.988a9.149 9.149 0 0 0 -8.249-13.111h-3.9a14.369 14.369 0 0 0 2.033-4.264 37.948 37.948 0 0 1 18.616 32.514z"/><path d="m277.5 192.229a6 6 0 0 0 6-6 6.9 6.9 0 1 1 13.8 0 6 6 0 1 0 12 0 18.9 18.9 0 1 0 -37.8 0 6 6 0 0 0 6 6z"/><path d="m214.692 186.229a6.9 6.9 0 1 1 13.8 0 6 6 0 0 0 12 0 18.9 18.9 0 0 0 -37.8 0 6 6 0 1 0 12 0z"/><path d="m230.248 230.32a6 6 0 0 0 0 8.486 36.416 36.416 0 0 0 51.5 0 6 6 0 1 0 -8.485-8.485 24.417 24.417 0 0 1 -34.534 0 6 6 0 0 0 -8.481-.001z"/></g></svg>