<svg id="Layer_1" enable-background="new 0 0 512 512" height="512" viewBox="0 0 512 512" width="512" xmlns="http://www.w3.org/2000/svg"><path d="m317.1 151.9c-7.6 0-13.8-6.2-13.8-13.8v-20.7c-8.3-2.6-17.2-2.3-25.3.8-13.2 5.1-28.1 2.5-38.8-6.8-1.1-1-2.9-.9-3.9.3-.1.1-.2.2-.2.3-5.1 7.8-21.2 30.5-36.1 34.2l1.8-26.1c-12.3 9-19.6 23.4-19.6 38.6l-.1 55.1c0 41.3 33.5 74.8 74.8 74.8s74.8-33.5 74.8-74.8v-43.8-4.2-.1c.1-7.6-6-13.8-13.6-13.8z" fill="#f5cac1"/><path d="m251.7 280.4c-24.9-12.8-40.5-38.5-40.5-66.5l.1-55.1c0-9.6 2.9-19.1 8.4-27l-18.8-11.6c-12.3 9-19.6 23.4-19.6 38.6l-.1 55.1c0 41.3 33.5 74.8 74.9 74.8 5 0 10-.5 14.9-1.5-6.7-1.3-13.2-3.6-19.3-6.8z" fill="#cca7a2"/><path d="m303.3 117.4c-8.3-2.6-17.2-2.3-25.3.8-13.2 5.1-28.1 2.5-38.8-6.8-1.1-1-2.9-.9-3.9.3-.1.1-.2.2-.2.3-5.1 7.8-21.2 30.5-36.1 34.2l1.8-26.1c-12.3 9-19.6 23.4-19.6 38.6l-.1 24h-.4c-3.1-3.1-7.5-4.4-11.7-3.4l-.1-.2c-5.1-12.7-7.8-26.3-7.7-40.1 0-54.6 40.4-98.8 90.3-98.8 18.2 0 36 6 50.6 17 1.2.9 2.1 2 2.8 3.3.6 1.3 1 2.8 1 4.2 0 4.1 2.7 7.8 6.6 9.1 0 0 13.3 4.6 13.9 5.4 4.1 5.5 18.6 28.3 20.7 42 3 19.5 1.5 39.4-4.3 58.2-4.3-1-8.7.3-11.8 3.4h-.1v-12.8-4.2-.1c0-7.6-6.2-13.8-13.8-13.8s-13.8-6.2-13.8-13.8z" fill="#7f3d32"/><path d="m337.3 333h-162.6c-24.2.1-43.7 19.7-43.7 43.8v95.2h250v-95.2c0-24.1-19.5-43.7-43.7-43.8z" fill="#4e6cca"/><path d="m204.7 333h-30c-24.2.1-43.7 19.7-43.7 43.8v95.2h30v-95.2c0-24.1 19.5-43.7 43.7-43.8z" fill="#3a5791"/><path d="m314.2 470.4v1.4h-116.4v-32.4h.5l.7.4c35.1 20.7 78.8 20.5 113.7-.4h1.5z" fill="#6addc7"/><path d="m314.2 407.2v32.1h-1.5c-35 21-78.6 21.1-113.7.4l-.7-.4h-.5v-32.1h.5l.7.4c35.1 20.7 78.8 20.5 113.7-.4z" fill="#cae6ee"/><path d="m314.2 375.1v32.1h-1.5c-35 21-78.6 21.1-113.7.4l-.7-.4h-.5v-32.1h.5l.7.4c35.1 20.7 78.8 20.5 113.7-.4z" fill="#6addc7"/><path d="m302.5 331.5c-7.4-3.1-12.2-10.4-12.2-18.4v-32.6-.1h-68.6l-.1.1v32.6c0 8-4.8 15.3-12.2 18.4l-11.7 19v24.6h.5l.7.4c35.1 20.7 78.8 20.5 113.7-.4h1.5v-24.6z" fill="#e8ada3"/><path d="m314.2 350.5c-5.9 6-14 9.4-22.4 9.4h-7.6c-7.7 0-14-6.2-14-14 0-7.7 6.2-14 14-14h14.3c1.4 0 2.7-.1 4.1-.4 10.2-2 17.5-10.9 17.5-21.3v-.5c0-6.1-2.6-11.9-7.2-15.8 6.6 5 10.5 12.8 10.5 21v13.4c0 1.5-.1 3-.3 4.5-1 6.7-4.1 12.9-8.9 17.7z" fill="#6c63b5"/><path d="m320 309.7v.5c0 10.4-7.3 19.3-17.5 21.3-7.4-3.1-12.2-10.4-12.2-18.4v-24.4h8.7c5 .4 9.7 2.1 13.7 5.1h.1c4.6 4.1 7.2 9.9 7.2 15.9z" fill="#56568c"/><path d="m221.7 288.7v24.4c0 8-4.8 15.3-12.2 18.4-10.2-2-17.5-10.9-17.5-21.3v-.5c0-6.1 2.6-11.9 7.2-15.8h.1c4-3 8.7-4.7 13.7-5.1z" fill="#56568c"/><path d="m342.8 179.4c1.4.3 2.8 1 4 1.8 6.7 4.6 8.3 13.8 3.7 20.5-4.4 6.3-12.9 8.2-19.5 4.3h-.1v-23.2h.1c3-3.1 7.5-4.4 11.8-3.4z" fill="#e8ada3"/><path d="m181.3 182.8-.1 23.2h-.3c-7 4.1-16 1.7-20.1-5.3-3.9-6.6-2-15.1 4.3-19.5 1.2-.9 2.6-1.5 4.1-1.8 4.2-.9 8.7.3 11.7 3.4z" fill="#e8ada3"/><path d="m189 333.1c-.2-1.6-.4-3.2-.4-4.8v-13.4c0-8.3 3.9-16.1 10.5-21-4.6 4-7.2 9.8-7.2 15.8v.5c0 10.4 7.3 19.3 17.5 21.3 1.3.3 2.7.4 4.1.4h28.2c7.7 0 14 6.3 14 14s-6.3 13.9-14 14h-21.6c-15.5 0-28.7-11.4-31.1-26.8z" fill="#6c63b5"/><g fill="#20344c"><path d="m337.3 327.1h-8v-12.2c0-9.8-4.5-19.1-12.2-25.2-4.9-4.5-11.4-7-18.1-7h-.7c23.9-14.7 38.5-40.7 38.5-68.8.5 0 1 .1 1.6.1 11.4 0 20.7-9.3 20.7-20.7 0-1-.1-2-.2-2.9-.8-5.7-4-10.8-8.7-14.1-.1 0-.1-.1-.2-.1 4.8-18.2 5.9-37.2 3.1-55.8-2.5-16.1-18.9-40.8-21.8-44.7-1.1-1.5-1.7-2.3-16.7-7.4h-.1c-1.5-.5-2.4-1.8-2.4-3.3 0-4.9-2.3-9.5-6.2-12.4-15.6-11.7-34.6-18.1-54.1-18.1-53.1 0-96.3 47-96.3 104.8 0 12.7 2.1 25.3 6.2 37.2-4.7 3.3-7.9 8.4-8.7 14.1-1.6 11.3 6.3 21.8 17.6 23.4 1 .1 2 .2 2.9.2.6 0 1.2 0 1.7-.1 0 28.1 14.6 54.1 38.5 68.8h-.7c-6.7 0-13.1 2.5-18.1 7-7.7 6.1-12.2 15.4-12.2 25.2v12.2h-8c-27.4 0-49.7 22.3-49.7 49.7v94.9c0 3.3 2.7 6 6 6h250c3.3 0 6-2.7 6-6v-94.9c0-27.6-22.3-49.9-49.7-49.9zm-200.3 138.6v-88.9c0-20.8 16.9-37.7 37.7-37.7h9.6c1.5 5 4.1 9.7 7.5 13.7v112.9zm161.8-171c3.8.3 7.4 1.7 10.5 4l.4.4c2.8 2.8 4.4 6.6 4.4 10.6v.5c0 6.8-4.3 12.8-10.8 14.9-4.3-2.5-6.9-7.1-6.9-12.1v-18.4h2.4zm48.2-102.6c.5 3.9-1.6 7.7-5.3 9.2-1.6.6-3.3.8-4.9.5v-16c2.1-1.1 4.6-1 6.5.2 2 1.5 3.4 3.7 3.7 6.1zm-171.8 9.7c-1.7.4-3.5.2-5.1-.5-4.4-1.8-6.6-6.9-4.7-11.4.6-1.6 1.7-2.9 3.1-3.8 2.1-1.3 4.7-1.4 6.8-.1zm.1-28.4c-.7-.1-1.4-.2-2.1-.2-3.9-10.9-5.9-22.5-5.9-34.1 0-51.2 37.8-92.8 84.3-92.8 17 0 33.4 5.6 47 15.8.9.7 1.3 1.7 1.3 2.8 0 6.7 4.3 12.7 10.7 14.7 4.4 1.5 9.6 3.4 11.8 4.3 5.2 7.3 17.1 27.3 18.8 38.3 2.6 17 1.6 34.4-2.8 51-.5 0-1 .1-1.5.2v-3.3-4.2c.1-10.9-8.7-19.8-19.6-19.9-.1 0-.1 0-.2 0-4.3 0-7.8-3.5-7.8-7.8v-11.4c5.1 3.2 9.1 7.8 11.6 13.2 1.4 3 5 4.3 8 2.9.9-.4 1.7-1 2.2-1.8.5-.7 12.5-16.8.2-37.9-1.6-2.9-5.3-3.9-8.2-2.2-2.9 1.6-3.9 5.3-2.2 8.2 0 0 .1.1.1.1 2.8 4.5 4.1 9.7 3.8 15-5.2-5.8-11.8-10-19.2-12.4-.3-.1-.6-.2-.9-.3-9.4-2.8-19.6-2.5-28.8 1.1-11.1 4.3-23.7 2.1-32.7-5.7-3.6-3.2-9.2-2.8-12.3.9-.2.3-.5.6-.7.9-6.7 10.2-15.9 21.5-24.3 27.6l1.1-15.7c.2-3.3-2.3-6.2-5.6-6.4-1.4-.1-2.8.3-4 1.2-13.8 10.2-22 26.3-22 43.5zm11.9 40.6.2-55.1c0-7.9 2.2-15.6 6.4-22.3l-.6 9.3c-.2 3.3 2.3 6.2 5.6 6.4.6 0 1.3 0 1.9-.2 5.3-1.3 19.4-7.3 37.6-33.8 12.1 8.9 28 11 42 5.6 5.4-2.1 11.4-2.7 17.1-1.7v16c0 10.9 8.9 19.7 19.8 19.8 4.3 0 7.8 3.5 7.8 7.8v.1 4.3 43.9c0 38-30.8 68.8-68.8 68.8-38.2-.2-69-30.9-69-68.9zm15.2 85.1c.1-.1.3-.3.4-.4 3-2.3 6.7-3.7 10.5-4h2.4v18.4c0 5-2.6 9.6-6.9 12.1-6.4-2.1-10.8-8.1-10.8-14.9v-.5c0-4 1.6-7.9 4.4-10.7zm-7.6 31.4c5.1 4.8 11.8 7.4 18.8 7.4h28.2c4.4 0 8 3.6 8 8s-3.6 8-8 8h-21.6c-13.3 0-24.3-10.2-25.4-23.4zm9 135.2v-16.6c33 16.3 71.6 16.1 104.5-.5v17.1zm104.4-30.7c-32.3 18.7-72 18.9-104.5.5v-18.5c33 16.3 71.6 16.1 104.5-.5zm0-32.1c-32.3 18.7-72 18.9-104.5.5v-18.5c33 16.3 71.6 16.1 104.5-.5zm0-32.1c-32.3 18.7-72 18.9-104.5.5v-9.3c5.1 2.5 10.7 3.8 16.4 3.8h21.6c11 0 20-9 20-20s-8.9-19.9-20-20h-17.5c2.2-3.9 3.4-8.3 3.4-12.8v-23.5c18.3 6.9 38.4 6.9 56.7 0v23.5c0 4.5 1.2 8.9 3.4 12.8h-3.5c-11 0-20 9-20 20s8.9 19.9 20 20h7.6c5.7 0 11.3-1.3 16.4-3.8zm-4.1-20.1c-3.8 2.1-8 3.1-12.3 3.1h-7.6c-4.4 0-8-3.6-8-8s3.6-8 8-8h14.3c7 0 13.7-2.7 18.8-7.4-.8 8.6-5.7 16.2-13.2 20.3zm70.9 115h-54.8v-112.9c3.4-4 6-8.7 7.5-13.7h9.6c20.8 0 37.7 16.9 37.7 37.7z"/><circle cx="241.6" cy="346.2" r="6.5"/><path d="m359.7 403.2h-22.2c-3.3 0-6 2.7-6 6s2.7 6 6 6h22.2c3.3 0 6-2.7 6-6s-2.7-6-6-6z"/><path d="m277.5 188.4c3.3 0 6-2.7 6-6 0-3.8 3.1-6.9 6.9-6.9s6.9 3.1 6.9 6.9c0 3.3 2.7 6 6 6s6-2.7 6-6c0-10.4-8.4-18.9-18.9-18.9-10.4 0-18.9 8.4-18.9 18.9 0 3.3 2.7 6 6 6z"/><path d="m234.5 188.4c3.3 0 6-2.7 6-6 0-10.4-8.5-18.9-18.9-18.9s-18.9 8.5-18.9 18.9c0 3.3 2.7 6 6 6s6-2.7 6-6c0-3.8 3.1-6.9 6.9-6.9s6.9 3.1 6.9 6.9c0 3.3 2.7 6 6 6z"/><path d="m281.8 235c2.4-2.3 2.4-6.1.1-8.5s-6.1-2.4-8.5-.1c0 0-.1.1-.1.1-9.5 9.5-25 9.5-34.5 0-2.3-2.4-6.1-2.4-8.5-.1s-2.4 6.1-.1 8.5c0 0 .1.1.1.1 14.2 14.2 37.2 14.2 51.5 0z"/></g></svg>