<svg id="Layer_1" height="512" viewBox="0 0 512 512" width="512" xmlns="http://www.w3.org/2000/svg" data-name="Layer 1"><path d="m337.3 332h-162.6a43.474 43.474 0 0 0 -43.7 43.435v94.565h250v-94.565a43.474 43.474 0 0 0 -43.7-43.435z" fill="#49bdff"/><path d="m180.9 181.415a12.439 12.439 0 0 0 -15.24-1.96l-.1-.15v-68.37a37.251 37.251 0 0 1 21.67-33.85 51.007 51.007 0 0 1 48.58-35.45h24.67a85.959 85.959 0 0 1 85.96 85.96v51.44l-.26.42a12.429 12.429 0 0 0 -15.19 1.91l.2-30.77a11.549 11.549 0 0 0 -11.56-11.63 11.638 11.638 0 0 1 -11.64-11.64v-35.7a55.883 55.883 0 0 1 -56.48 7.83l-18.63-7.83a29.143 29.143 0 0 0 -.21 3.48 28.42 28.42 0 0 0 10.56 22.12l5.28 4.26q-2.895.285-5.78.28a60.186 60.186 0 0 1 -40.01-15.23l-3.86-3.44v27.13a8.743 8.743 0 0 1 -8.74 8.74 8.74 8.74 0 0 0 -8.73 8.73l-.09 33.72z" fill="#bc5e51"/><path d="m346.18 179.455q.285.165.57.36a14.7 14.7 0 0 1 -15.81 24.76h-.1l.15-23.21a12.429 12.429 0 0 1 15.19-1.91z" fill="#f4c498"/><path d="m180.9 204.575a14.7 14.7 0 0 1 -15.81-24.76q.285-.195.57-.36a12.439 12.439 0 0 1 15.24 1.96h.4l-.07 23.16z" fill="#f4c498"/><path d="m311.29 307.6a75.8 75.8 0 0 1 -17.14 13.9l-2.24-1.98a19.956 19.956 0 0 1 -1.57-7.79v-9.61h1.57c11.42-2.915 19.38 5.48 19.38 5.48z" fill="#de3c44"/><path d="m291.91 319.515a19.956 19.956 0 0 1 -1.57-7.79v-32.7h-68.68v32.7a19.865 19.865 0 0 1 -2.37 9.46l-1.78.59a75.924 75.924 0 0 0 76.64-.28z" fill="#e5a87f"/><path d="m221.66 304.3v7.43a19.865 19.865 0 0 1 -2.37 9.46l-1.78.59a75.733 75.733 0 0 1 -17.03-13.54 26.633 26.633 0 0 1 21.18-3.94z" fill="#de3c44"/><path d="m311.33 364.31h-35.43a34.751 34.751 0 0 0 -18.01-5.49v-.01s39.94-2.92 53.39-16.54a24.922 24.922 0 0 1 -7.08 5.2l7.13 15.18c.21.46.43.91.63 1.37z" fill="#de3c44"/><path d="m318.48 382.54h-28.98l-.42.13c-2.51-7.7-6.8-14.12-13.18-18.36h35.43l.63-.29a112.009 112.009 0 0 1 6.52 18.52z" fill="#471b7a"/><path d="m321.82 404-1.09.06h-28.88a64.2 64.2 0 0 0 -2.77-21.39l.42-.13h28.98a111.279 111.279 0 0 1 3.34 21.46z" fill="#de3c44"/><path d="m321.82 404a111.141 111.141 0 0 1 -1.26 24.11h-32.39a101.034 101.034 0 0 0 3.68-24.05h28.88z" fill="#471b7a"/><path d="m288.17 428.11h32.39a109.5 109.5 0 0 1 -7.15 24.93l-2.12-.87h-32.87a108.794 108.794 0 0 0 9.75-24.06z" fill="#de3c44"/><path d="m311.29 452.17 2.12.87a109.408 109.408 0 0 1 -8.15 15.66c-.35.57-.71 1.12-1.06 1.67h-38.58v-.95a76.465 76.465 0 0 0 12.8-17.25z" fill="#471b7a"/><path d="m226.18 401.05c1.04 11.07 4.09 22.44 10.92 31.55l-37.44-13.15c-4.31-8.85-5.53-18.82-5.08-28.51z" fill="#de3c44"/><path d="m225.16 377.45 1.34.15a117.584 117.584 0 0 0 -.32 23.45l-31.6-10.11a108.484 108.484 0 0 1 3.74-22.91l.1.03z" fill="#471b7a"/><path d="m230.51 355.9-.68 2.91a129.224 129.224 0 0 0 -3.33 18.79l-1.34-.15-26.74-9.39-.1-.03a138.477 138.477 0 0 1 7.56-21.15c.67.4 1.36.78 2.08 1.12a109.9 109.9 0 0 0 22.55 7.9z" fill="#de3c44"/><path d="m319.63 138.965a11.638 11.638 0 0 1 -11.64-11.64v-35.7a55.883 55.883 0 0 1 -56.48 7.83l-18.63-7.83a29.143 29.143 0 0 0 -.21 3.48 28.42 28.42 0 0 0 10.56 22.12l5.28 4.26q-2.895.285-5.78.28a60.186 60.186 0 0 1 -40.01-15.23l-3.86-3.44v27.13a8.743 8.743 0 0 1 -8.74 8.74 8.74 8.74 0 0 0 -8.73 8.73l-.18 64.87a74.79 74.79 0 1 0 149.58 0l.4-61.97a11.549 11.549 0 0 0 -11.56-11.63z" fill="#ffc89f"/><path d="m204.7 332h-30a43.474 43.474 0 0 0 -43.7 43.435v94.565h30v-94.565a43.474 43.474 0 0 1 43.7-43.435z" fill="#479cba"/><path d="m251.66 279.025a74.8 74.8 0 0 1 -40.45-66.46l.156-99.64a60.135 60.135 0 0 1 -8.646-6.39l-3.86-3.44v27.13a8.743 8.743 0 0 1 -8.74 8.74 8.74 8.74 0 0 0 -8.73 8.73l-.18 64.87a74.82 74.82 0 0 0 89.79 73.277 74.317 74.317 0 0 1 -19.34-6.817z" fill="#dbad8d"/><path d="m205.88 346.88a24.782 24.782 0 0 1 -11.34-15.34 25.222 25.222 0 0 1 5.93-23.3l.01-.01a75.63 75.63 0 0 0 110.81-.63 25.041 25.041 0 0 1 6.88 17.3 25.66 25.66 0 0 1 -.91 6.75 25.051 25.051 0 0 1 -5.93 10.58.176.176 0 0 1 -.05.04c-13.45 13.62-53.39 16.54-53.39 16.54v.01c-.77-.04-1.56-.06-2.36-.06a110.189 110.189 0 0 1 -47.57-10.76c-.72-.34-1.41-.72-2.08-1.12z" fill="#471b7a"/><g fill="#20344c"><path d="m337.3 325.73h-13.144a30.933 30.933 0 0 0 -8.5-22.247l-.011-.01c-.364-.385-7.888-8.154-19.3-7.967v-12.984a80.788 80.788 0 0 0 40.447-69.922v-.063c.521.041 1.043.066 1.567.066a20.71 20.71 0 0 0 20.522-23.624 20.538 20.538 0 0 0 -6.442-12.254v-49.131a92.064 92.064 0 0 0 -91.96-91.96h-24.671a56.785 56.785 0 0 0 -53.455 37.2 43.293 43.293 0 0 0 -22.793 38.1v65.646a20.542 20.542 0 0 0 -6.6 12.4 20.709 20.709 0 0 0 20.523 23.624c.576 0 1.151-.033 1.724-.081v.039a80.823 80.823 0 0 0 40.456 69.957v15.061a32.785 32.785 0 0 0 -18.857 5.9l.005.007a5.892 5.892 0 0 0 -.752.68 30.964 30.964 0 0 0 -8.289 21.56h-13.07a49.76 49.76 0 0 0 -49.7 49.7v94.932a6 6 0 0 0 6 6h250a6 6 0 0 0 6-6v-94.925a49.76 49.76 0 0 0 -49.7-49.704zm-35.486-17.224q-2.614 2.327-5.419 4.357c-.03-.375-.056-.752-.056-1.133v-4.21a13.85 13.85 0 0 1 5.472.986zm45.2-117.8a8.7 8.7 0 0 1 -5.316 9.244 8.809 8.809 0 0 1 -4.82.51l.1-16.072a6.352 6.352 0 0 1 6.364.357 8.68 8.68 0 0 1 3.665 5.962zm-171.765 9.7a8.8 8.8 0 0 1 -5.089-.454 8.7 8.7 0 0 1 -1.65-15.2 6.379 6.379 0 0 1 6.782-.115zm.145-52.725-.067 24.308a18.455 18.455 0 0 0 -3.76-.29v-60.765a31.293 31.293 0 0 1 31.258-31.258h7.96a6 6 0 0 0 0-12h-7.96a43.534 43.534 0 0 0 -4.649.253 44.834 44.834 0 0 1 37.639-20.3h24.665a80.051 80.051 0 0 1 79.96 79.96v44.111a18.441 18.441 0 0 0 -3.384.209l.138-21.273a17.565 17.565 0 0 0 -17.563-17.678 5.645 5.645 0 0 1 -5.638-5.639v-35.7a6 6 0 0 0 -9.741-4.69 49.845 49.845 0 0 1 -50.416 6.988l-18.631-7.829a6 6 0 0 0 -8.28 4.8 34.234 34.234 0 0 0 5.937 23.957 54.364 54.364 0 0 1 -26.153-12.792l-3.862-3.437a6 6 0 0 0 -9.989 4.483v27.126a2.739 2.739 0 0 1 -2.735 2.735 14.749 14.749 0 0 0 -14.736 14.721zm11.821 64.9.179-64.883a2.739 2.739 0 0 1 2.736-2.735 14.752 14.752 0 0 0 14.735-14.735v-14.377a66.459 66.459 0 0 0 44.228 11.613 6 6 0 0 0 3.2-10.64l-5.293-4.264a22.343 22.343 0 0 1 -7.6-11.687l9.786 4.111a61.835 61.835 0 0 0 52.805-2.3v24.635a17.659 17.659 0 0 0 17.638 17.639 5.56 5.56 0 0 1 5.563 5.6l-.4 62a68.792 68.792 0 0 1 -137.584.016zm98.26 106.754a69.458 69.458 0 0 1 -29.485 6.68h-.414a69.418 69.418 0 0 1 -29.147-6.346 26.121 26.121 0 0 0 1.242-7.94v-23.515a80.661 80.661 0 0 0 56.672 0v23.516a25.927 25.927 0 0 0 1.125 7.604zm-69.8-9.753v2.149a14.2 14.2 0 0 1 -.1 1.7c-1.5-1.061-2.963-2.2-4.392-3.391a20.748 20.748 0 0 1 4.481-.459zm-14.231 7.939a80.778 80.778 0 0 0 54.133 20.5h.486a80.8 80.8 0 0 0 54.38-21.116 19.151 19.151 0 0 1 1.428 11.479 18.947 18.947 0 0 1 -4.871 9.685c-9.678 9.785-38.834 13.954-49.435 14.752-.677-.025-1.349-.062-2.04-.062a103.36 103.36 0 0 1 -44.973-10.173 18.807 18.807 0 0 1 -10.422-13.556 19.169 19.169 0 0 1 1.303-11.51zm106.7 52.785q1.266 3.093 2.327 6.231h-17.3a43.4 43.4 0 0 0 -3.3-6.231zm-14.7-12c2.694-.849 5.35-1.8 7.888-2.869l1.348 2.869zm4.312 39.755a73.547 73.547 0 0 0 -1.045-9.524h17.06q1.008 4.742 1.575 9.524zm18.326 12a103.857 103.857 0 0 1 -.667 12.054h-19.648a107.963 107.963 0 0 0 1.727-12.054zm-96.011-28.047c-.241 3.378-.367 6.968-.322 10.672l-18.849-6.024a100.857 100.857 0 0 1 1.711-10.774zm-14.362-17.764c1.118-3.556 2.261-6.687 3.253-9.211a115.416 115.416 0 0 0 14.352 5.2c-.511 2.2-1.2 5.5-1.838 9.55zm14.959 41.33a77.4 77.4 0 0 0 3.954 16.275l-20.534-7.211a49.068 49.068 0 0 1 -3.428-15.466zm-83.668 58.786v-88.932a37.747 37.747 0 0 1 37.7-37.7h15.614a30.448 30.448 0 0 0 8.138 11.15c-5.561 13.5-16.869 47.182-4.193 73.2a6 6 0 0 0 3.406 3.033l37.44 13.151a6 6 0 0 0 6.795-9.268c-15.674-20.9-9.106-56.323-6.9-66.05a117.118 117.118 0 0 0 20.532 1.806c13.18 0 22.221 5.756 26.872 17.106 9.105 22.221-.914 62.687-20.234 82.5zm163.874 0h-23.074q2.165-2.973 4.123-6.2h22.446q-1.631 3.147-3.495 6.2zm8.808-18.2h-21.512a114.911 114.911 0 0 0 4.53-12.056h20.605a103.125 103.125 0 0 1 -3.623 12.06zm65.318 18.2h-60.327a116.4 116.4 0 0 0 2.087-104.266l-4.86-10.35a30.517 30.517 0 0 0 9.551-12.02h15.849a37.747 37.747 0 0 1 37.7 37.7z"/><path d="m277.5 187.025a6 6 0 0 0 6-6 6.9 6.9 0 1 1 13.8 0 6 6 0 0 0 12 0 18.9 18.9 0 1 0 -37.8 0 6 6 0 0 0 6 6z"/><path d="m234.5 187.025a6 6 0 0 0 6-6 18.9 18.9 0 0 0 -37.8 0 6 6 0 0 0 12 0 6.9 6.9 0 1 1 13.8 0 6 6 0 0 0 6 6z"/><path d="m281.752 233.6a6 6 0 0 0 -8.485-8.487 24.445 24.445 0 0 1 -34.534 0 6 6 0 0 0 -8.485 8.487 36.464 36.464 0 0 0 51.5 0z"/></g></svg>