<svg id="Layer_1" height="512" viewBox="0 0 512 512" width="512" xmlns="http://www.w3.org/2000/svg" data-name="Layer 1"><path d="m334.753 130.436v47.71a12.642 12.642 0 0 0 -11.08 3.54h-.15v-47.86l-.19-1.97q5.73-.54 11.42-1.42z" fill="#ffd8b7"/><path d="m162.714 130.436v47.71a12.642 12.642 0 0 1 11.08 3.54h.15v-47.86l.19-1.97q-5.734-.54-11.42-1.42z" fill="#ffd8b7"/><path d="m284.313 318.956a20.064 20.064 0 0 1 -1.24-6.96v-32.696h-68.68v32.7a19.956 19.956 0 0 1 -1.57 7.79l-.11.58a27.988 27.988 0 0 1 7.05 2.26 67.788 67.788 0 0 0 58.54-.34 28.54 28.54 0 0 1 6.07-2.15z" fill="#af584f"/><path d="m248.083 41.706-34.66 34.67a39.66 39.66 0 0 0 -11.63 28.06v16.71l-27.85 11.68h-12.12v-34.14a29.989 29.989 0 0 1 17.71-27.36l60.83-27.326a29.9 29.9 0 0 1 7.72-2.294z" fill="#f15a29"/><path d="m298.883 104.436v.88h-24.25a174.525 174.525 0 0 0 -67.48 13.58l-5.36 2.25v-16.71a39.66 39.66 0 0 1 11.63-28.06l34.66-34.67a29.19 29.19 0 0 1 4.17-.34l35.01 35.01a39.693 39.693 0 0 1 11.62 28.06z" fill="#fbb040"/><path d="m330.033 332h-162.6a43.708 43.708 0 0 0 -43.7 43.71v94.93h250v-94.93a43.708 43.708 0 0 0 -43.7-43.71z" fill="#6c63b5"/><path d="m201.793 121.146 5.36-2.25a174.525 174.525 0 0 1 67.48-13.58h108a5.626 5.626 0 0 1 2.21 10.8 206.32 206.32 0 0 1 -39.88 12.49q-5.085 1.035-10.21 1.83-5.685.87-11.42 1.42-9.93.975-19.95.97h-129.44z" fill="#dd3a36"/><path d="m343.483 98.686v6.63h-44.6v-.88a39.693 39.693 0 0 0 -11.62-28.06l-35.01-35.01a29.838 29.838 0 0 1 12.7 2.63l60.83 27.33a30 30 0 0 1 17.7 27.36z" fill="#f15a29"/><path d="m334.753 178.146a11.878 11.878 0 0 1 4.73 1.94 14.7 14.7 0 0 1 -15.81 24.76h-.15v-23.16h.15a12.642 12.642 0 0 1 11.08-3.54z" fill="#af584f"/><path d="m161.823 178.3a12.637 12.637 0 0 1 11.81 3.39h.31v23.16h-.31a14.7 14.7 0 0 1 -15.81-24.76 11.759 11.759 0 0 1 4-1.79z" fill="#af584f"/><path d="m323.333 131.856q-9.93.975-19.95.97h-129.44v80.01a74.79 74.79 0 1 0 149.58 0v-79.01z" fill="#d36e57"/><path d="m197.433 332h-30a43.708 43.708 0 0 0 -43.7 43.71v94.93h30v-94.93a43.708 43.708 0 0 1 43.7-43.71z" fill="#4f4f84"/><path d="m203.943 212.836v-80.01h-30v80.01a74.82 74.82 0 0 0 89.79 73.277 74.727 74.727 0 0 1 -59.79-73.277z" fill="#af5d4f"/><path d="m307.133 331.986a90.8 90.8 0 0 1 -57.92 21.19c-.18.01-.36.01-.53.01a90.924 90.924 0 0 1 -58.45-21.186q-1.71-1.425-3.35-2.94a28.254 28.254 0 0 1 25.83-8.69 27.988 27.988 0 0 1 7.05 2.26 67.788 67.788 0 0 0 58.54-.34 28.181 28.181 0 0 1 32.95 6.05q-2.01 1.886-4.12 3.646z" fill="#88ced8"/><g fill="#20344c"><path d="m283.14 162.857a18.924 18.924 0 0 0 -18.9 18.9 6 6 0 0 0 12 0 6.9 6.9 0 0 1 13.805 0 6 6 0 1 0 12 0 18.924 18.924 0 0 0 -18.905-18.9z"/><path d="m227.231 187.759a6 6 0 0 0 6-6 18.9 18.9 0 0 0 -37.805 0 6 6 0 0 0 12 0 6.9 6.9 0 0 1 13.805 0 6 6 0 0 0 6 6z"/><path d="m266 225.851a24.42 24.42 0 0 1 -34.534 0 6 6 0 0 0 -8.485 8.484 36.416 36.416 0 0 0 51.5 0 6 6 0 1 0 -8.481-8.484z"/><path d="m382.629 99.779h-33.143v-.628a36.054 36.054 0 0 0 -21.247-32.839l-60.831-27.328a36.027 36.027 0 0 0 -29.505 0l-60.83 27.328a36.054 36.054 0 0 0 -21.247 32.839v75.578q-.721.4-1.413.882a20.554 20.554 0 0 0 -8.718 14.105 20.716 20.716 0 0 0 20.523 23.625c.576 0 1.151-.033 1.724-.082v.039a80.821 80.821 0 0 0 40.458 69.957l-.144 31.117a34.161 34.161 0 0 0 -25.778 11.079 5.985 5.985 0 0 0 -.75 1.014h-14.29a49.76 49.76 0 0 0 -49.7 49.7v94.935a6 6 0 0 0 6 6h250a6 6 0 0 0 6-6v-94.932a49.76 49.76 0 0 0 -49.7-49.7h-13.281a5.92 5.92 0 0 0 -1.139-1.777 34.16 34.16 0 0 0 -26.467-10.775l-.081-30.658a80.821 80.821 0 0 0 40.456-69.958v-.023c.521.04 1.043.066 1.567.066a20.714 20.714 0 0 0 20.523-23.624 20.558 20.558 0 0 0 -8.716-14.109 18.016 18.016 0 0 0 -2.146-1.254v-38.344a212.319 212.319 0 0 0 46.454-13.912 11.63 11.63 0 0 0 -4.579-22.32zm-59.308-22.521a24.036 24.036 0 0 1 14.165 21.893v.628h-32.893a45.336 45.336 0 0 0 -13.093-27.179l-17.49-17.49zm-72.981-28.858 32.679 32.679a33.44 33.44 0 0 1 9.479 18.7h-17.86a179.441 179.441 0 0 0 -66.838 12.848v-7.727a33.468 33.468 0 0 1 9.867-23.822zm-82.4 152.747a8.811 8.811 0 0 1 -5.056-.464 8.7 8.7 0 0 1 -1.648-15.2 6.367 6.367 0 0 1 6.7-.16zm-.116-73.855v-28.141a24.036 24.036 0 0 1 14.165-21.893l40.9-18.373-13.712 13.715a45.385 45.385 0 0 0 -13.377 32.3v12.716l-23.062 9.675zm162.207 211.173a37.746 37.746 0 0 1 37.7 37.7v88.935h-38v-34a6 6 0 0 0 -12 0v34h-138v-34a6 6 0 0 0 -12 0v34h-38v-88.932a37.746 37.746 0 0 1 37.7-37.7h20.714a96.877 96.877 0 0 0 60.528 21.182h.565a96.837 96.837 0 0 0 59.991-21.181zm-28.091-9.5a84.9 84.9 0 0 1 -52.763 18.686h-.5a84.917 84.917 0 0 1 -52.477-18.086 22.1 22.1 0 0 1 20.992-1.057 74.123 74.123 0 0 0 63.739-.366 22.105 22.105 0 0 1 21.009.818zm-81.89-12.27.243-27.784a80.615 80.615 0 0 0 56.881 0l.24 27.685c-.584.247-1.169.486-1.744.766a62.011 62.011 0 0 1 -53.333.306c-.754-.362-1.519-.679-2.287-.978zm97.476-103.395a68.792 68.792 0 0 1 -137.584 0v-74h123.439c4.738 0 9.453-.171 14.145-.479zm16.9-12.613a8.787 8.787 0 0 1 -4.9.5v-15.957a6.364 6.364 0 0 1 6.548.25 8.7 8.7 0 0 1 -1.65 15.205zm-31.043-73.391h-99.63l5.721-2.4a167.543 167.543 0 0 1 65.164-13.116h106.158a199.743 199.743 0 0 1 -77.415 15.514z"/></g></svg>