<svg id="Layer_1" height="512" viewBox="0 0 512 512" width="512" xmlns="http://www.w3.org/2000/svg" data-name="Layer 1"><path d="m337.3 328h-162.6a43.384 43.384 0 0 0 -43.7 43.328v94.672h250v-94.672a43.384 43.384 0 0 0 -43.7-43.328z" fill="#4e6cca"/><path d="m304.43 293.738a39 39 0 0 1 .24 4.3 38.229 38.229 0 0 1 -8.35 23.84l-.13-.11a19.935 19.935 0 0 1 -5.85-14.15v-13.88z" fill="#90c93f"/><path d="m221.66 293.738v13.88a19.921 19.921 0 0 1 -5.97 14.26 38.179 38.179 0 0 1 -8.36-23.84 39 39 0 0 1 .24-4.3z" fill="#90c93f"/><path d="m330.95 168.178a49.9 49.9 0 0 0 -49.41-42.89h-47a31.144 31.144 0 0 1 -30.63-25.53v-34.48h.45l27.58-12.8a72.5 72.5 0 0 1 103.02 65.74v55.32l.15.99a12.754 12.754 0 0 0 -4.17 2.78h-.15v-9.108z" fill="#7f3d32"/><path d="m320.28 327.618a38.26 38.26 0 0 1 -17.25 30.02l-25.94 16.98-19.75-28.218 27.27-14.73a38.237 38.237 0 0 0 20.06-33.63 39 39 0 0 0 -.24-4.3l15.16 24.44a38.223 38.223 0 0 1 .69 9.438z" fill="#9be147"/><path d="m203.91 99.758v30.42a34.816 34.816 0 0 1 -34.87 34.87v-71.28a34.859 34.859 0 0 1 34.87-34.868v40.86z" fill="#93453b"/><path d="m296.19 321.768a19.935 19.935 0 0 1 -5.85-14.15v-32.7h-68.68v32.7a19.921 19.921 0 0 1 -5.97 14.26 38.126 38.126 0 0 0 11.7 9.79l27.27 14.73h2.68l27.27-14.73a38.282 38.282 0 0 0 11.71-9.79z" fill="#efc9c5"/><path d="m352.94 185.738a14.7 14.7 0 0 1 -22 14.73h-.15v-23.16h.15a12.754 12.754 0 0 1 4.17-2.78 12.245 12.245 0 0 1 11.64 1.18 14.622 14.622 0 0 1 6.19 10.03z" fill="#efc9c5"/><path d="m181.21 177.308v23.16h-.31a14.7 14.7 0 0 1 -15.81-24.76 12.436 12.436 0 0 1 15.81 1.6z" fill="#efc9c5"/><path d="m281.54 125.288h-47a31.144 31.144 0 0 1 -30.63-25.53v30.42a34.891 34.891 0 0 1 -25.32 33.55l2.62 1.32v43.41a74.79 74.79 0 1 0 149.58 0v-40.258l.16-.02a49.9 49.9 0 0 0 -49.41-42.892z" fill="#fdddd8"/><path d="m204.7 328h-30a43.384 43.384 0 0 0 -43.7 43.328v94.672h30v-94.672a43.384 43.384 0 0 1 43.7-43.328z" fill="#3b5893"/><path d="m251.66 274.918a74.8 74.8 0 0 1 -40.45-66.46v-17.146a88.484 88.484 0 0 1 14.329-48.275l8.371-12.859v-4.9a31.141 31.141 0 0 1 -30-25.516v30.42a34.891 34.891 0 0 1 -25.32 33.55l2.62 1.32v43.41a74.82 74.82 0 0 0 89.79 73.273 74.3 74.3 0 0 1 -19.34-6.817z" fill="#ccb4b2"/><path d="m191.72 327.618a38.223 38.223 0 0 1 .69-9.44l15.16-24.44a39 39 0 0 0 -.24 4.3 38.288 38.288 0 0 0 20.06 33.63l27.27 14.73-19.75 28.22-25.94-16.98a38.26 38.26 0 0 1 -17.25-30.02z" fill="#9be147"/><g fill="#20344c"><path d="m337.3 321.627h-11.158a45.1 45.1 0 0 0 -.667-4.616 6.008 6.008 0 0 0 -.786-1.991l-15.159-24.443a6 6 0 0 0 -5.1-2.835h-8.1v-9.322a80.821 80.821 0 0 0 40.456-69.956v-.024c.522.04 1.044.066 1.567.066a20.711 20.711 0 0 0 20.523-23.624 20.549 20.549 0 0 0 -8.717-14.1 17.985 17.985 0 0 0 -9.206-3.157v-49.397a78.489 78.489 0 0 0 -111.545-71.187l-20.07 9.321a5.994 5.994 0 0 0 -5.428-3.457 40.916 40.916 0 0 0 -40.869 40.87v71.28a5.969 5.969 0 0 0 1.6 4.066 18.05 18.05 0 0 0 -2.959 1.652 20.547 20.547 0 0 0 -8.719 14.106 20.711 20.711 0 0 0 20.52 23.621c.577 0 1.152-.033 1.725-.082v.04a80.821 80.821 0 0 0 40.456 69.956v9.322h-8.1a5.992 5.992 0 0 0 -5.1 2.835l-15.153 24.449a6.008 6.008 0 0 0 -.786 1.991 45.1 45.1 0 0 0 -.667 4.616h-11.158a49.76 49.76 0 0 0 -49.7 49.7v94.932a6 6 0 0 0 6 6h250a6 6 0 0 0 6-6v-94.928a49.76 49.76 0 0 0 -49.7-49.704zm-.505-141.235a6.359 6.359 0 0 1 6.548.253 8.7 8.7 0 0 1 -1.649 15.2 8.818 8.818 0 0 1 -4.9.5zm-28.264 131.342 5.362 8.646a32.094 32.094 0 0 1 -14.15 32.243l-21.072 13.8-12.556-17.935 21.349-11.537a44.073 44.073 0 0 0 21.067-25.217zm-20.12 9.869a32.5 32.5 0 0 1 -6.652 4.787l-25.759 13.92-25.759-13.92a32.519 32.519 0 0 1 -6.651-4.785 25.8 25.8 0 0 0 4.074-13.978v-23.517a80.647 80.647 0 0 0 56.672 0v23.517a25.816 25.816 0 0 0 4.075 13.973zm10.21-21.864a32.088 32.088 0 0 1 -2.12 9.935 14.036 14.036 0 0 1 -.165-2.047v-7.888zm-88.711-230.412 24.553-11.4a66.49 66.49 0 0 1 94.5 60.3v27.41a55.908 55.908 0 0 0 -47.422-26.337h-47a25.076 25.076 0 0 1 -24.631-20.186zm-34.869 24.448a28.921 28.921 0 0 1 22.869-28.243v33.71a5.917 5.917 0 0 0 0 .9v30.04a28.921 28.921 0 0 1 -22.869 28.243zm.167 102.536a8.8 8.8 0 0 1 -5.056-.463 8.7 8.7 0 0 1 -1.647-15.2 6.365 6.365 0 0 1 6.7-.161zm12 12.15v-41.681a40.908 40.908 0 0 0 22.7-36.595v-8.213a37.08 37.08 0 0 0 24.629 9.323h47a43.967 43.967 0 0 1 43.27 36.515c-.008.13-.019.259-.019.391v40.26a68.792 68.792 0 0 1 -137.584 0zm28.456 91.278v7.888a14.036 14.036 0 0 1 -.165 2.047 32.088 32.088 0 0 1 -2.12-9.935zm-17.557 20.641 5.362-8.646a44.076 44.076 0 0 0 21.067 25.212l21.349 11.537-12.556 17.935-21.072-13.8a32.094 32.094 0 0 1 -14.15-32.238zm176.893 139.883h-38v-54a6 6 0 1 0 -12 0v54h-138v-54a6 6 0 1 0 -12 0v54h-38v-88.932a37.746 37.746 0 0 1 37.7-37.7h11.668a44.052 44.052 0 0 0 19.314 29.035l25.938 16.982a6 6 0 0 0 8.2-1.579l16.18-23.109 16.176 23.105a6 6 0 0 0 8.2 1.579l25.938-16.982a44.052 44.052 0 0 0 19.314-29.035h11.672a37.746 37.746 0 0 1 37.7 37.7z"/><path d="m277.5 182.922a6 6 0 0 0 6-6 6.9 6.9 0 0 1 13.805 0 6 6 0 0 0 12 0 18.9 18.9 0 0 0 -37.805 0 6 6 0 0 0 6 6z"/><path d="m234.5 182.922a6 6 0 0 0 6-6 18.9 18.9 0 0 0 -37.805 0 6 6 0 0 0 12 0 6.9 6.9 0 0 1 13.805 0 6 6 0 0 0 6 6z"/><path d="m281.752 229.5a6 6 0 0 0 -8.484-8.484 24.453 24.453 0 0 1 -34.536 0 6 6 0 0 0 -8.484 8.484 36.46 36.46 0 0 0 51.5 0z"/></g></svg>