<svg id="Layer_1" height="512" viewBox="0 0 512 512" width="512" xmlns="http://www.w3.org/2000/svg" data-name="Layer 1"><path d="m337.3 326h-162.6a43.373 43.373 0 0 0 -43.7 43.315v94.685h250v-94.685a43.373 43.373 0 0 0 -43.7-43.315z" fill="#e9fbff"/><path d="m304.43 291.725a39 39 0 0 1 .24 4.3 38.229 38.229 0 0 1 -8.35 23.84l-.13-.11a19.935 19.935 0 0 1 -5.85-14.15v-13.88z" fill="#7cbcc1"/><path d="m215.69 319.865a38.179 38.179 0 0 1 -8.36-23.84 39 39 0 0 1 .24-4.3h14.09v13.88a19.921 19.921 0 0 1 -5.97 14.26z" fill="#7cbcc1"/><path d="m331.02 178.305a12.461 12.461 0 0 1 15.81-1.6c.12.08.24.17.35.26a14.694 14.694 0 0 1 -16.16 24.5h-.15v-23.16z" fill="#ffc397"/><path d="m319.59 316.165a38.2 38.2 0 0 1 -16.56 39.46l-25.94 16.98-19.75-28.22 27.27-14.73a38.237 38.237 0 0 0 20.06-33.63 39 39 0 0 0 -.24-4.3z" fill="#88ced8"/><path d="m296.19 319.755a19.935 19.935 0 0 1 -5.85-14.15v-29.59l-.02-.04-68.6-.07-.06.11v29.59a19.921 19.921 0 0 1 -5.97 14.26 38.126 38.126 0 0 0 11.7 9.79l27.27 14.73h2.68l27.27-14.73a38.282 38.282 0 0 0 11.71-9.79z" fill="#ffc397"/><path d="m180.98 201.465a14.7 14.7 0 0 1 -16.06-24.58c.08-.06.16-.12.25-.18a12.461 12.461 0 0 1 15.81 1.6h.31v23.16z" fill="#ffc397"/><path d="m330.87 178.305v-17.83a74.5 74.5 0 0 0 -12.38-41.23 33.219 33.219 0 0 0 -45.01-9.79l-.01.01a33.3 33.3 0 0 1 -34.78-.01 33.221 33.221 0 0 0 -45.02 9.78 74.528 74.528 0 0 0 -12.38 41.24v17.83h-.31a12.461 12.461 0 0 0 -15.81-1.6c-.09.06-.17.12-.25.18l-.13-.18v-66.57a62.382 62.382 0 0 1 62.38-62.38h57.81a62.384 62.384 0 0 1 62.39 62.38v66.57l-.19.26c-.11-.09-.23-.18-.35-.26a12.461 12.461 0 0 0 -15.81 1.6z" fill="#4a5160"/><path d="m318.49 119.245a33.219 33.219 0 0 0 -45.01-9.79l-.01.01a33.3 33.3 0 0 1 -34.78-.01 33.221 33.221 0 0 0 -45.02 9.78 74.528 74.528 0 0 0 -12.38 41.24v48.98a74.79 74.79 0 1 0 149.58 0v-48.98a74.5 74.5 0 0 0 -12.38-41.23z" fill="#ffd8b7"/><path d="m204.7 326h-30a43.373 43.373 0 0 0 -43.7 43.315v94.685h30v-94.685a43.373 43.373 0 0 1 43.7-43.315z" fill="#bcd0d3"/><path d="m211.29 209.455v-48.98a74.528 74.528 0 0 1 12.38-41.24 32.608 32.608 0 0 1 12.557-11.141 33.193 33.193 0 0 0 -42.557 11.141 74.528 74.528 0 0 0 -12.38 41.24v48.98a74.822 74.822 0 0 0 89.788 73.288 74.007 74.007 0 0 1 -19.358-6.843 74.776 74.776 0 0 1 -40.43-66.445z" fill="#d3b39b"/><path d="m256.08 225.615a20.268 20.268 0 0 1 28.6.11l14.37 14.36a20.316 20.316 0 0 1 -28.73 0l-14.24-14.24.12-.12a1.2 1.2 0 0 0 -.12-.11z" fill="#4a5160"/><path d="m255.96 225.725.12.12-14.25 14.24a20.3 20.3 0 0 1 -28.72 0l14.36-14.36a20.28 20.28 0 0 1 28.61-.11 1.2 1.2 0 0 0 -.12.11z" fill="#4a5160"/><path d="m215.69 319.865a38.126 38.126 0 0 0 11.7 9.79l27.27 14.73-19.75 28.22-25.94-16.98a38.2 38.2 0 0 1 -16.56-39.46l15.16-24.44a39 39 0 0 0 -.24 4.3 38.179 38.179 0 0 0 8.36 23.84z" fill="#88ced8"/><g fill="#20344c"><path d="m337.3 319.61h-11.158a45.153 45.153 0 0 0 -.667-4.617l-15.945-26.433a6 6 0 0 0 -5.1-2.833h-8.1v-6.262a80.822 80.822 0 0 0 40.534-70v-.023c.522.04 1.045.066 1.569.066a20.713 20.713 0 0 0 20.521-23.625 20.573 20.573 0 0 0 -5.591-11.448v-64.294a68.464 68.464 0 0 0 -68.387-68.387h-57.802a68.464 68.464 0 0 0 -68.386 68.387v64.14a20.555 20.555 0 0 0 -5.748 11.6 20.712 20.712 0 0 0 20.521 23.619c.577 0 1.152-.033 1.725-.082v.04a80.82 80.82 0 0 0 40.378 69.911v6.352h-8.1a6 6 0 0 0 -5.1 2.835l-15.945 26.433a45.153 45.153 0 0 0 -.667 4.617h-11.152a49.76 49.76 0 0 0 -49.7 49.7v94.932a6 6 0 0 0 6 6h250a6 6 0 0 0 6-6v-94.924a49.76 49.76 0 0 0 -49.7-49.704zm-28.766-9.893 5.362 8.645a32.094 32.094 0 0 1 -14.15 32.244l-21.072 13.8-12.556-17.934 21.349-11.537a44.075 44.075 0 0 0 21.064-25.218zm-9.91-11.994a32.088 32.088 0 0 1 -2.12 9.934 14.036 14.036 0 0 1 -.165-2.047v-7.887zm48.461-110.123a8.7 8.7 0 0 1 -5.315 9.244 8.82 8.82 0 0 1 -4.9.5v-15.953a6.359 6.359 0 0 1 6.548.253 8.664 8.664 0 0 1 3.667 5.956zm-171.8 9.707a8.8 8.8 0 0 1 -5.055-.463 8.7 8.7 0 0 1 -1.648-15.2 6.365 6.365 0 0 1 6.7-.161zm0-28.443a18.431 18.431 0 0 0 -4.5-.246v-58.48a56.451 56.451 0 0 1 56.386-56.387h57.808a56.451 56.451 0 0 1 56.387 56.387v58.491a18.383 18.383 0 0 0 -4.5.214v-8.363a80.439 80.439 0 0 0 -13.38-44.545 39.021 39.021 0 0 0 -53.086-11.627c-.021.013-.044.026-.065.04a27.193 27.193 0 0 1 -28.516 0 39.022 39.022 0 0 0 -53.15 11.584 80.441 80.441 0 0 0 -13.386 44.553zm12 40.593v-48.977a68.484 68.484 0 0 1 11.392-37.928 26.851 26.851 0 0 1 22.476-12.068 27.515 27.515 0 0 1 14.4 4.093 39.133 39.133 0 0 0 40.993.04c.021-.013.043-.025.063-.039a27.066 27.066 0 0 1 36.873 7.983 68.469 68.469 0 0 1 11.386 37.92v48.98a68.792 68.792 0 0 1 -137.584 0zm28.378 88.263v7.887a14.177 14.177 0 0 1 -.164 2.047 32.06 32.06 0 0 1 -2.121-9.934zm-17.557 20.639 5.362-8.645a44.078 44.078 0 0 0 21.067 25.213l21.349 11.537-12.555 17.936-21.072-13.8a32.094 32.094 0 0 1 -14.15-32.238zm50.556 139.884h-61.662v-54a6 6 0 0 0 -12 0v54h-38v-88.929a37.745 37.745 0 0 1 37.7-37.7h11.668a44.051 44.051 0 0 0 19.314 29.036l25.938 16.98a6 6 0 0 0 8.2-1.578l8.839-12.625zm-18.421-133.87a32.443 32.443 0 0 1 -6.651-4.785 25.8 25.8 0 0 0 4.074-13.978v-20.532a80.647 80.647 0 0 0 56.672.062v20.47a25.822 25.822 0 0 0 4.075 13.977 32.492 32.492 0 0 1 -6.652 4.786l-25.759 13.92zm144.759 133.873h-38v-54a6 6 0 0 0 -12 0v54h-64.337v-98.646l11.513 16.445a6 6 0 0 0 8.2 1.578l25.938-16.98a44.051 44.051 0 0 0 19.314-29.036h11.672a37.745 37.745 0 0 1 37.7 37.7z"/><path d="m276.814 384.235a7.28 7.28 0 1 0 7.278 7.28 7.289 7.289 0 0 0 -7.278-7.28z"/><path d="m276.814 412.144a7.279 7.279 0 1 0 7.278 7.279 7.288 7.288 0 0 0 -7.278-7.279z"/><path d="m276.814 440.052a7.279 7.279 0 1 0 7.278 7.279 7.288 7.288 0 0 0 -7.278-7.279z"/><path d="m227.908 391.515a7.279 7.279 0 1 0 7.278-7.28 7.287 7.287 0 0 0 -7.278 7.28z"/><path d="m235.186 412.144a7.279 7.279 0 1 0 7.28 7.279 7.287 7.287 0 0 0 -7.28-7.279z"/><path d="m235.186 440.052a7.279 7.279 0 1 0 7.28 7.279 7.287 7.287 0 0 0 -7.28-7.279z"/><path d="m277.582 190.921a6 6 0 0 0 6-6 6.9 6.9 0 0 1 13.805 0 6 6 0 0 0 12 0 18.9 18.9 0 0 0 -37.805 0 6 6 0 0 0 6 6z"/><path d="m214.77 184.921a6.9 6.9 0 0 1 13.8 0 6 6 0 0 0 12 0 18.9 18.9 0 0 0 -37.8 0 6 6 0 0 0 12 0z"/><path d="m266.079 244.326a26.343 26.343 0 0 0 37.209 0 6 6 0 0 0 0-8.485l-14.362-14.363a26.349 26.349 0 0 0 -32.848-3.514 26.353 26.353 0 0 0 -32.85 3.514l-14.362 14.363a6 6 0 0 0 0 8.484 26.337 26.337 0 0 0 37.208 0l10-10zm14.363-14.362 9.186 9.186a14.326 14.326 0 0 1 -15.063-3.309l-9.186-9.187a14.338 14.338 0 0 1 15.063 3.31zm-42.85 5.878a14.334 14.334 0 0 1 -15.064 3.309l9.186-9.187a14.333 14.333 0 0 1 15.064-3.309z"/></g></svg>