<svg id="Layer_1" height="512" viewBox="0 0 512 512" width="512" xmlns="http://www.w3.org/2000/svg" data-name="Layer 1"><path d="m329.505 335.855h-26.96a19.994 19.994 0 0 1 -20-20v-32.7h-68.68v32.7a19.994 19.994 0 0 1 -20 20h-26.96a43.711 43.711 0 0 0 -41.16 29.01 499.66 499.66 0 0 0 244.63-.81 43.732 43.732 0 0 0 -40.87-28.2z" fill="#e1b7a3"/><path d="m214 315.855a20.234 20.234 0 0 1 -20.135 20.145h-26.96a43.647 43.647 0 0 0 -41.16 28.938c9.752 2.433 19.569 4.524 29.432 6.357.151-.461.3-.939.465-1.394.038.01.076 0 .113.01a43.646 43.646 0 0 1 41.15-28.911h26.96a20.234 20.234 0 0 0 20.135-20.145v-37.855h-30z" fill="#bc998b"/><path d="m265.275 113.565c-26.4 28.72-64.09 43.69-92.09 51.29-2.75.75-5.42 1.43-7.96 2.04l-.11-.45v-40.47a88.475 88.475 0 0 1 176.95-.05l.02 46.33a79.312 79.312 0 0 1 -19.01-4.43c-31.8-11.7-50.62-41.31-57.4-53.88z" fill="#2b2a3e"/><path d="m373.205 474.5h-250v-89.64a518.644 518.644 0 0 0 250-.87z" fill="#4e6dca"/><path d="m373.205 379.565v4.42a518.644 518.644 0 0 1 -250 .87v-5.29a43.369 43.369 0 0 1 2.54-14.7 499.66 499.66 0 0 0 244.63-.81 43.614 43.614 0 0 1 2.83 15.51z" fill="#e75163"/><path d="m355.145 220.235a52.307 52.307 0 0 0 -4.19-7.5 53.535 53.535 0 0 0 -7.76-9.16l-20.05 5.13h-.145v7.99a74.886 74.886 0 0 1 -40.45 66.46v6.91a53.4 53.4 0 0 0 72.6-69.83z" fill="#313960"/><path d="m173.415 185.545v23.16h-.31a14.7 14.7 0 0 1 -15.81-24.76 12.436 12.436 0 0 1 15.81 1.6z" fill="#e1b7a3"/><path d="m345.145 193.975a14.727 14.727 0 0 1 -9.02 15.67 14.678 14.678 0 0 1 -12.98-.94h-.145v-23.16h.15a12.436 12.436 0 0 1 15.81-1.6 14.622 14.622 0 0 1 6.185 10.03z" fill="#e1b7a3"/><path d="m265.675 113.945-.4-.38c-26.4 28.72-64.09 43.69-92.09 51.29l.23.86v50.985a74.79 74.79 0 1 0 149.58 0v-45.98l.08-2.89c-31.8-11.705-50.62-41.315-57.4-53.885z" fill="#eabfad"/><path d="m123 384.855v89.145h30v-82.746q-15-2.754-30-6.399z" fill="#4661a5"/><path d="m203 216.7v-50.98l-.008-10.964a260.824 260.824 0 0 1 -30.027 10.1l.035.86v50.984a75.15 75.15 0 0 0 90.153 73.277 74.825 74.825 0 0 1 -60.153-73.277z" fill="#cca89b"/><path d="m155.177 371.259c-9.863-1.833-19.782-3.961-29.535-6.394a43.45 43.45 0 0 0 -2.642 14.7v5.29c9.817 2.435 19.881 4.557 30 6.389v-6.679a42.9 42.9 0 0 1 2.177-13.306z" fill="#c14459"/><g fill="#20344c"><path d="m301.513 185.155a18.9 18.9 0 1 0 -37.8 0 6 6 0 1 0 12 0 6.9 6.9 0 1 1 13.8 0 6 6 0 1 0 12 0z"/><path d="m226.7 191.155a6 6 0 0 0 6-6 18.9 18.9 0 1 0 -37.8 0 6 6 0 1 0 12 0 6.9 6.9 0 1 1 13.8 0 6 6 0 0 0 6 6z"/><path d="m265.471 229.246a24.446 24.446 0 0 1 -34.533 0 6 6 0 1 0 -8.485 8.485 36.46 36.46 0 0 0 51.5 0 6 6 0 1 0 -8.486-8.485z"/><path d="m340.425 237.724h-.054a6 6 0 0 0 -5.947 6.053c.166 18.646-13.492 23.214-14.19 23.434a6 6 0 0 0 3.4 11.508 31.546 31.546 0 0 0 11.729-7.068c5.116-4.775 11.187-13.506 11.059-27.98a6 6 0 0 0 -5.997-5.947z"/><path d="m384.553 170.654-33 33c-.407-.475-.837-.932-1.26-1.394a20.335 20.335 0 0 0 .792-9.148 20.554 20.554 0 0 0 -8.717-14.1c-.439-.3-.888-.582-1.345-.842.145.016.288.04.434.055a5.775 5.775 0 0 0 .629.033 6 6 0 0 0 6-6l-.023-46.331a94.473 94.473 0 0 0 -188.946.058v36.171c-2.161.478-4.245.916-6.206 1.3a6 6 0 1 0 2.319 11.774c3.715-.732 7.813-1.624 12.182-2.685v3.555a18.113 18.113 0 0 0 -13.529 2.9 20.552 20.552 0 0 0 -8.718 14.1 20.712 20.712 0 0 0 20.522 23.625c.577 0 1.151-.033 1.725-.081v.038a80.823 80.823 0 0 0 40.455 69.958v29.22a14.015 14.015 0 0 1 -14 14h-26.96a49.76 49.76 0 0 0 -49.7 49.7v94.94a6 6 0 0 0 6 6h250a6 6 0 0 0 6-6v-94.936a49.76 49.76 0 0 0 -49.7-49.7h-26.96a14.015 14.015 0 0 1 -14-14v-16.893a59.291 59.291 0 0 0 75.126-72.737h18.085a6 6 0 0 0 0-12h-22.958c-.1-.186-.193-.377-.3-.563l34.532-34.532a6 6 0 0 0 -8.485-8.485zm-217.14 33.89a8.8 8.8 0 0 1 -5.056-.463 8.7 8.7 0 0 1 -1.649-15.2 6.371 6.371 0 0 1 6.705-.161zm171.8-9.707a8.627 8.627 0 0 1 -1.064 5.509c-.035.054-.067.109-.1.164a8.58 8.58 0 0 1 -4.151 3.571 8.818 8.818 0 0 1 -4.9.5v-15.956a6.355 6.355 0 0 1 6.547.252 8.67 8.67 0 0 1 3.666 5.96zm-168.095-67.114a175.768 175.768 0 0 0 24.416-6.971 6 6 0 1 0 -4.133-11.265 162.849 162.849 0 0 1 -19.563 5.767 82.338 82.338 0 0 1 90.973-71.221c-10.621 25.178-28.834 44.652-54.189 57.87a6 6 0 1 0 5.548 10.641c28.384-14.8 48.678-36.762 60.317-65.282a6.021 6.021 0 0 0 .3-.982 82.625 82.625 0 0 1 61.277 79.646l.02 39.306c-15.469-3.245-42.4-14.24-63.38-50.988a122.935 122.935 0 0 0 21.027-34.534 6 6 0 0 0 -11.141-4.456c-10.475 26.19-30.908 47.73-60.733 64.022a233.236 233.236 0 0 1 -50.739 19.931zm196.087 340.777h-36.539a62.536 62.536 0 0 0 -2.248-43.385 6 6 0 0 0 -11.014 4.764 50.457 50.457 0 0 1 .519 38.621h-139.437a50.462 50.462 0 0 1 .514-38.625 6 6 0 1 0 -11.013-4.764 62.536 62.536 0 0 0 -2.248 43.385h-36.534v-77.596a491.1 491.1 0 0 0 117.346 14.214 491.3 491.3 0 0 0 120.654-15.037zm-1.3-98.725a37.549 37.549 0 0 1 1.251 7.936 479.944 479.944 0 0 1 -237.927.837 37.643 37.643 0 0 1 1.066-7.977 471.014 471.014 0 0 0 116.257 14.548 471.146 471.146 0 0 0 119.355-15.348zm-63.364-27.915h26.959a37.7 37.7 0 0 1 31.367 16.811 459.9 459.9 0 0 1 -225.787.718 37.7 37.7 0 0 1 31.827-17.529h26.96a26.029 26.029 0 0 0 26-26v-23.516a80.547 80.547 0 0 0 56.673-.016v23.532a26.029 26.029 0 0 0 26.001 26zm-54.336-56.375a68.869 68.869 0 0 1 -68.792-68.792v-47.345a241.51 241.51 0 0 0 48.2-19.541 167.193 167.193 0 0 0 36.546-26.481 141.808 141.808 0 0 0 22.3 27.977 101.492 101.492 0 0 0 30.541 20.561v44.829a68.869 68.869 0 0 1 -68.795 68.792zm58.367 4.288a46.907 46.907 0 0 1 -17.572-3.385 80.817 80.817 0 0 0 40-69.695v-.022c.521.039 1.044.065 1.568.065a20.944 20.944 0 0 0 7.792-1.515 20.071 20.071 0 0 0 4.876-2.82q1.431 1.738 2.68 3.585l.068.1a46.6 46.6 0 0 1 3.57 6.325 6.068 6.068 0 0 0 .33.713 47.434 47.434 0 0 1 -43.309 66.646z"/></g></svg>