<svg id="Layer_1" height="512" viewBox="0 0 512 512" width="512" xmlns="http://www.w3.org/2000/svg" data-name="Layer 1"><path d="m221.66 283.944v32.7a19.973 19.973 0 0 1 -10.67 17.69l.01.02a55.311 55.311 0 0 0 11.66 33.28 42.394 42.394 0 0 0 66.91.01h.84v-83.744z" fill="#edc4be"/><path d="m330.75 126.5-.18-.21a45.766 45.766 0 0 0 -43.06-24.286l-4.83.276c-35.79 46.86-75.74 48.79-101.47 48.77v66.43a74.79 74.79 0 1 0 149.58 0z" fill="#ffd1ca"/><path d="m337.9 67.444a104.949 104.949 0 0 0 -179.15 74.21v111.62a62.909 62.909 0 0 0 62.91 62.91v-32.24a74.8 74.8 0 0 1 -40.45-66.46v-66.43c25.73.02 65.68-1.91 101.47-48.77 0 0 26.67-.95 47.89 24.01l.18.21.04 90.98a74.867 74.867 0 0 1 -40.38 66.42v130.37h15.07a62.628 62.628 0 0 0 16.36-2.15 59.155 59.155 0 0 0 6.17-1.99 63.166 63.166 0 0 0 40.63-59.02v-209.46a104.6 104.6 0 0 0 -30.74-74.21z" fill="#c2684f"/><path d="m368.64 349.884a43.594 43.594 0 0 1 12.36 30.47v94.93h-51.01l1.38-5.52a48.293 48.293 0 0 0 0-38.3c-.14-.33-.28-.66-.4-1a22.364 22.364 0 0 1 -1.36-5.63l-1.6-14.7a63.166 63.166 0 0 0 40.63-59.02z" fill="#fdddd8"/><path d="m270.25 475.284a143.286 143.286 0 0 0 65.06-23.31 48.133 48.133 0 0 1 -3.94 17.79l-1.38 3.19v2.33z" fill="#ff5a81"/><path d="m329.99 472.954 1.38-3.19-1.38 5.52z" fill="#ffd8b7"/><path d="m329.61 424.834a22.364 22.364 0 0 0 1.36 5.63 122.57 122.57 0 0 1 -150.45-.54 23.318 23.318 0 0 0 1.15-5.09l2.01-18.45.44.05a102.454 102.454 0 0 0 137.72 5.7v-.01a59.155 59.155 0 0 0 6.17-1.99z" fill="#ff5a81"/><path d="m290.41 367.644v41.19h-.59a82.553 82.553 0 0 1 -98.73-24.63q-2.28-2.94-4.32-6.04h-.01l4.53-41.52h10.37a19.8 19.8 0 0 0 9.33-2.31l.01.02a55.311 55.311 0 0 0 11.66 33.28 42.394 42.394 0 0 0 66.91.01z" fill="#ff5a81"/><path d="m186.77 378.164q2.04 3.105 4.32 6.04a82.553 82.553 0 0 0 98.73 24.63h.59v5.44h15.07a62.628 62.628 0 0 0 16.36-2.15v.01a102.454 102.454 0 0 1 -137.72-5.7l-.44-.05 3.08-28.22z" fill="#5832c5"/><path d="m330.97 430.464c.12.34.26.67.4 1a48.289 48.289 0 0 1 3.94 20.51 143.286 143.286 0 0 1 -65.06 23.31h-29.61v-.1a140 140 0 0 1 -64.68-23.8 48.166 48.166 0 0 1 3.96-19.92c.22-.5.42-1.02.6-1.54a122.57 122.57 0 0 0 150.45.54z" fill="#5832c5"/><path d="m179.92 431.464a48.215 48.215 0 0 0 0 38.3l1.37 3.19v2.33h-50.29v-94.93a43.708 43.708 0 0 1 43.7-43.71h16.59l-4.53 41.52-3.08 28.22-2.01 18.45a23.318 23.318 0 0 1 -1.15 5.09c-.18.52-.38 1.04-.6 1.54z" fill="#fdddd8"/><path d="m172.63 211.494a17.421 17.421 0 0 0 6.85-1.28 14.479 14.479 0 0 1 -6.85 1.28z" fill="#ffd8b7"/><path d="m175.96 451.384a140 140 0 0 0 64.68 23.8v.1h-56.52l-4.2-5.52a48.218 48.218 0 0 1 -3.96-18.38z" fill="#ff5a81"/><path d="m165.09 184.724a11.953 11.953 0 0 1 7.54-2.09 16.055 16.055 0 0 1 8.58 2.21v24.65h-.31c-.24.14-.48.27-.73.39a4.369 4.369 0 0 1 -.69.33 17.421 17.421 0 0 1 -6.85 1.28 14.711 14.711 0 0 1 -13.88-14.67 13.725 13.725 0 0 1 .13-1.91c.01-.05.01-.1.02-.15a14.665 14.665 0 0 1 6.19-10.04z" fill="#f5cac1"/><path d="m352.94 194.764a14.7 14.7 0 0 1 -22 14.73h-.15v-23.16h.15a12.45 12.45 0 0 1 15.81-1.61 14.665 14.665 0 0 1 6.19 10.04z" fill="#f5cac1"/><path d="m191.051 338.831.239-2.187h-16.59a43.708 43.708 0 0 0 -43.7 43.71v94.93h30v-94.93a43.724 43.724 0 0 1 30.051-41.523z" fill="#d8bab6"/><path d="m181.21 151.054v66.43a74.826 74.826 0 0 0 89.79 73.278 74.73 74.73 0 0 1 -59.792-73.278v-68.693a161.275 161.275 0 0 1 -29.998 2.263z" fill="#cea5a1"/><g fill="#20344c"><path d="m131 481.287h250a6 6 0 0 0 6-6v-94.933a49.266 49.266 0 0 0 -12.359-32.782v-205.914a110.946 110.946 0 1 0 -221.891 0v111.62a69.012 69.012 0 0 0 61.907 68.56 14.014 14.014 0 0 1 -12.993 8.813h-26.964a49.76 49.76 0 0 0 -49.7 49.7v94.933a6 6 0 0 0 6 6.003zm55.242-12-.82-1.9a41.856 41.856 0 0 1 -1.489-4q5.751 3.225 11.73 5.893zm139.617-1.9-.82 1.9h-8.895q5.626-2.481 11.038-5.408c-.391 1.185-.824 2.359-1.323 3.511zm-55.943 1.9h-28.652l.008-.069a133.147 133.147 0 0 1 -59.234-21 42.387 42.387 0 0 1 1.414-8.706 126.794 126.794 0 0 0 72.665 22.488 129 129 0 0 0 71.852-22 42.41 42.41 0 0 1 1.3 8.727 137.359 137.359 0 0 1 -59.353 20.56zm105.084-88.933v88.933h-36.991a54.465 54.465 0 0 0 -1.136-40.2 16.955 16.955 0 0 1 -1.3-4.9l-1.119-10.287a69.424 69.424 0 0 0 38.246-46.566 37.736 37.736 0 0 1 2.3 13.02zm-210.25-238.7a98.946 98.946 0 1 1 197.891 0v209.466a57.226 57.226 0 0 1 -57.161 57.161h-9.074v-120.881a80.821 80.821 0 0 0 40.387-69.917v-.023c.522.04 1.044.066 1.567.066a20.714 20.714 0 0 0 20.522-23.626 20.552 20.552 0 0 0 -8.718-14.1 18.1 18.1 0 0 0 -13.372-2.926v-30.646a98.4 98.4 0 0 1 6.371 15.691 6 6 0 1 0 11.453-3.583c-9.974-31.877-28.839-47.054-42.908-54.172-15.391-7.787-28.477-7.876-29.026-7.876a6 6 0 0 0 -4.769 2.358c-34.824 45.594-73.817 46.417-95.479 46.417-.414 0-.823.037-1.226 0a6 6 0 0 0 -6 6v25.829a18.206 18.206 0 0 0 -10.458 1.208zm91.25 144.622a68.87 68.87 0 0 1 -68.792-68.792v-60.448c22.971-.311 62.933-4.1 98.245-48.543a64.6 64.6 0 0 1 39.339 20.451v88.54a68.87 68.87 0 0 1 -68.792 68.792zm28.406 6.83v71.371a36.372 36.372 0 0 1 -57.009-.522 49.632 49.632 0 0 1 -10.239-26.439 25.977 25.977 0 0 0 10.506-20.865v-23.517a80.634 80.634 0 0 0 56.742-.028zm52.386-87.734v-15.956a6.357 6.357 0 0 1 6.547.251 8.7 8.7 0 0 1 -1.648 15.205 8.818 8.818 0 0 1 -4.899.5zm-161.584-15.865v15.829a8.812 8.812 0 0 1 -5.056-.464 8.7 8.7 0 0 1 -1.648-15.205 6.373 6.373 0 0 1 6.704-.16zm-10.458 63.771v-37.693c.312.145.62.3.941.426a20.93 20.93 0 0 0 7.793 1.516c.576 0 1.151-.033 1.724-.082v.039a80.821 80.821 0 0 0 40.456 69.957v22.433a56.993 56.993 0 0 1 -50.914-56.596zm31.924 89.373h4.99a26.039 26.039 0 0 0 3.964-.3 61.709 61.709 0 0 0 12.3 28.976 48.08 48.08 0 0 0 38.187 18.673 48.09 48.09 0 0 0 28.288-9.1v23.7a76.507 76.507 0 0 1 -88.577-24.08c-.989-1.271-1.937-2.589-2.86-3.92zm-5.551 50.866a88.6 88.6 0 0 0 94.009 23.626 6 6 0 0 0 5.274 3.138h7.89a96.576 96.576 0 0 1 -42.178 9.719 95.534 95.534 0 0 1 -66.118-26.219zm-2.7 24.79a108.485 108.485 0 0 0 134.516.648l1.137 9.158a116.88 116.88 0 0 1 -67.959 21.887 114.878 114.878 0 0 1 -68.787-22.445zm-51.423-37.953a37.746 37.746 0 0 1 37.7-37.7h9.9l-8.9 81.53a16.936 16.936 0 0 1 -1.3 4.907 54.462 54.462 0 0 0 -1.136 40.2h-36.264z"/><path d="m309.309 185.945a18.9 18.9 0 0 0 -37.805 0 6 6 0 0 0 12 0 6.9 6.9 0 0 1 13.805 0 6 6 0 0 0 12 0z"/><path d="m234.5 191.945a6 6 0 0 0 6-6 18.9 18.9 0 0 0 -37.805 0 6 6 0 0 0 12 0 6.9 6.9 0 0 1 13.805 0 6 6 0 0 0 6 6z"/><path d="m273.268 230.037a24.451 24.451 0 0 1 -34.536 0 6 6 0 1 0 -8.484 8.485 36.462 36.462 0 0 0 51.5 0 6 6 0 1 0 -8.484-8.485z"/><path d="m184.94 130.9h.951c17.73 0 53.179-.692 83.822-40.811a6 6 0 0 0 -9.537-7.285c-27.084 35.462-57.435 36.1-74.288 36.1h-.944a6 6 0 0 0 0 12z"/><path d="m221.594 95.275a6 6 0 0 0 1.814-.282c15.651-4.958 28.482-14.968 39.226-30.6a6 6 0 0 0 -9.891-6.8c-9.172 13.347-19.953 21.838-32.959 25.959a6 6 0 0 0 1.81 11.721z"/><path d="m291.886 84.087c.237-.058 23.788-5.73 39.025 18.44a6 6 0 1 0 10.15-6.4c-15.871-25.176-41.042-26.491-52.134-23.668a6 6 0 1 0 2.959 11.628z"/><path d="m319.2 325.126a6 6 0 0 0 -6 6v48.781a6 6 0 1 0 12 0v-48.781a6 6 0 0 0 -6-6z"/><path d="m346.986 265.052a6 6 0 0 0 -6 6v62.32a6 6 0 0 0 12 0v-62.32a6 6 0 0 0 -6-6z"/><path d="m184.058 267.816a6 6 0 0 0 -6 6v7.224a6 6 0 0 0 12 0v-7.224a6 6 0 0 0 -6-6z"/><path d="m198.974 282.732a6 6 0 0 0 -6 6v7.224a6 6 0 0 0 12 0v-7.224a6 6 0 0 0 -6-6z"/></g></svg>