<svg id="Layer_1" height="512" viewBox="0 0 512 512" width="512" xmlns="http://www.w3.org/2000/svg" data-name="Layer 1"><path d="m324.755 418.885a322.409 322.409 0 0 0 37.07 1.28 29.644 29.644 0 0 1 8.26.99 29.3 29.3 0 0 1 21.82 28.31l.01 1.83q-11.19.84-21.83 1.08-7.695.195-15.1.07c-12.07-.18-23.59-.93-34.58-2.15-99.2-11.04-155-61-178.08-87.49a43.4 43.4 0 0 1 21.46-5.63h20.08c16.36 17.14 60.39 54.17 140.89 61.71z" fill="#fb6771"/><path d="m370.085 452.5v43.32h-50.285v-2.33a56.278 56.278 0 0 0 .61-43.19c10.99 1.22 22.51 1.97 34.58 2.15q7.41.12 15.1-.07z" fill="#f43b3b"/><path d="m370.085 400.885v20.27a29.644 29.644 0 0 0 -8.26-.99 322.409 322.409 0 0 1 -37.07-1.28v-61.71h1.63a43.708 43.708 0 0 1 43.7 43.71z" fill="#efcaaf"/><path d="m299.425 357.175a19.994 19.994 0 0 1 -20-20v-32.7h-68.68v32.7a19.994 19.994 0 0 1 -20 20h-6.88c16.36 17.14 60.39 54.17 140.89 61.71v-61.71z" fill="#efcaaf"/><path d="m320.4 450.3a56.278 56.278 0 0 1 -.61 43.19v2.33h-199.705v-94.93a43.681 43.681 0 0 1 22.24-38.08c23.08 26.49 78.88 76.445 178.075 87.49z" fill="#d61d1d"/><path d="m319.875 152.035v37.7c-11.91-40.87-59.29-56.92-59.29-56.92-28.87 40.74-66.42 47.18-90.29 48.41v-38.28a52.2 52.2 0 0 1 43.4-51.46 51.182 51.182 0 0 1 8.81-.75h12.88a8.477 8.477 0 0 0 8.3-6.74 9.747 9.747 0 0 1 9.14-6.41c.33 0 .66.02 1 .05a72.927 72.927 0 0 1 52 30.24 75.578 75.578 0 0 1 14.05 44.16z" fill="#7f3d32"/><path d="m319.845 71.195a55.645 55.645 0 0 1 -1.4 12.4h-.01a77.539 77.539 0 0 0 -108.57-10.47c-.03-.64-.04-1.28-.04-1.93a55.01 55.01 0 0 1 110.02 0z" fill="#7f3d32"/><path d="m318.435 83.6h.01a54.934 54.934 0 0 1 -12.62 24.28 72.927 72.927 0 0 0 -52-30.24c-.34-.03-.67-.05-1-.05a9.747 9.747 0 0 0 -9.14 6.41 8.477 8.477 0 0 1 -8.3 6.74h-12.88a51.182 51.182 0 0 0 -8.81.75 54.681 54.681 0 0 1 -3.83-18.36 77.539 77.539 0 0 1 108.57 10.47z" fill="#bc5e51"/><path d="m260.585 132.815c-28.87 40.74-66.42 47.18-90.29 48.41v56.79a74.79 74.79 0 1 0 149.58 0v-48.28c-11.91-40.87-59.29-56.92-59.29-56.92z" fill="#ffd8b7"/><path d="m342.025 215.3a14.7 14.7 0 0 1 -22 14.73h-.15v-23.16h.15a12.436 12.436 0 0 1 15.81-1.6 14.622 14.622 0 0 1 6.19 10.03z" fill="#ffd8b7"/><path d="m170.3 206.865v23.16h-.31a14.7 14.7 0 0 1 -15.81-24.76 12.436 12.436 0 0 1 15.81 1.6z" fill="#ffd8b7"/><path d="m156.708 377.777c-5.742-5.452-10.523-10.541-14.383-14.972a43.681 43.681 0 0 0 -22.24 38.08v94.93h30v-94.93a43.481 43.481 0 0 1 6.623-23.108z" fill="#b51d1d"/><path d="m170.3 181.225v56.79a74.82 74.82 0 0 0 89.79 73.277 74.8 74.8 0 0 1 -59.79-73.277v-61.5a134.755 134.755 0 0 1 -30 4.71z" fill="#d1af95"/><path d="m156.708 377.777a43.892 43.892 0 0 1 15.617-14.972 43.255 43.255 0 0 1 12.454-4.688c-.307-.316-.625-.639-.914-.942h-20.08a43.4 43.4 0 0 0 -21.46 5.63c3.86 4.431 8.641 9.52 14.383 14.972z" fill="#d65f6b"/><g fill="#20344c"><path d="m120.088 501.816h250a6 6 0 0 0 6-6v-37.616q8.094-.3 16.278-.92a6 6 0 0 0 5.546-5.983v-1.83a34.966 34.966 0 0 0 -10.591-25.182 35.428 35.428 0 0 0 -11.233-7.438v-15.963a49.76 49.76 0 0 0 -49.7-49.7h-26.96a14.016 14.016 0 0 1 -14-14v-29.21a81.1 81.1 0 0 0 38.084-50.574 45.513 45.513 0 0 0 9.678.825c1.482.023 3.648.055 5.19.22a54.513 54.513 0 0 1 -2.841 5.613c-2.694 4.851-5.48 9.867-4 14.723 1.7 5.578 7.644 8.549 12.886 11.171a53.635 53.635 0 0 1 4.9 2.659c-1.129 1.847-4.624 4.806-6.438 6.341-1.312 1.111-2.551 2.159-3.643 3.214a6 6 0 1 0 8.334 8.632c.81-.781 1.9-1.707 3.061-2.686 5.224-4.423 11.727-9.925 10.974-17.387-.595-5.89-6.3-8.745-11.824-11.506-1.913-.956-5.29-2.645-6.528-3.8a43.887 43.887 0 0 1 2.763-5.538c3.189-5.741 6.8-12.248 3.372-18.138-3.1-5.325-9.97-5.429-16.029-5.521a38.407 38.407 0 0 1 -7.269-.536 44.646 44.646 0 0 1 .112-6.075c.032-.526.061-1.063.091-1.6.379.021.76.038 1.141.038a20.713 20.713 0 0 0 20.523-23.625 20.556 20.556 0 0 0 -8.718-14.106 18.108 18.108 0 0 0 -13.367-2.918v-45.366a81.674 81.674 0 0 0 -12.6-43.779 61 61 0 1 0 -107.325-21.1 58.306 58.306 0 0 0 -41.658 55.8v32.5c-1.754.046-3.4.074-4.93.1-2.178.036-4.06.066-5.763.139a6 6 0 1 0 .509 11.989c1.545-.066 3.355-.095 5.449-.129 1.478-.024 3.061-.05 4.735-.091v9.965a18.116 18.116 0 0 0 -13.53 2.905 20.55 20.55 0 0 0 -8.717 14.1 20.819 20.819 0 0 0 12.729 22.109 21.078 21.078 0 0 0 4.744 1.265 21.045 21.045 0 0 0 4.669 26.507 9.057 9.057 0 0 1 .025 13.8l-.03.024a21.058 21.058 0 0 0 0 32.13l.046.038a9.056 9.056 0 0 1 -.037 13.788 6 6 0 0 0 7.758 9.155 21.056 21.056 0 0 0 0-32.129c-.014-.013-.029-.025-.045-.038a9.056 9.056 0 0 1 .013-13.767l.029-.025a21.061 21.061 0 0 0 4.922-6.071 81.458 81.458 0 0 0 27.88 26.756v29.207a14.016 14.016 0 0 1 -14 14h-26.96a49.76 49.76 0 0 0 -49.7 49.7v94.932a6 6 0 0 0 5.995 6.002zm205.792-291.882a6.268 6.268 0 0 1 6.547.263 8.7 8.7 0 0 1 -1.648 15.2 8.827 8.827 0 0 1 -4.9.5zm-161.58 15.931a8.8 8.8 0 0 1 -5.056-.464 8.7 8.7 0 0 1 -1.649-15.2 6.373 6.373 0 0 1 6.7-.16zm199.788 263.951h-36.548a62.906 62.906 0 0 0 1.263-32.669q12.839 1.094 26.091 1.3l9.194.012zm-33.332-126.374a37.753 37.753 0 0 1 33.332 37.442v13.323c-.792-.034-1.586-.052-2.388-.035-10.864.234-21.168-.063-30.944-.794zm-65.92-341.258a49.054 49.054 0 0 1 48.985 48.133 83.473 83.473 0 0 0 -96.921-9.317 49.086 49.086 0 0 1 47.936-38.816zm-5.977 39.5a71.338 71.338 0 0 1 52.949 23.47 48.883 48.883 0 0 1 -6.061 13.014 78.726 78.726 0 0 0 -51.306-26.5 15.738 15.738 0 0 0 -16.392 10.267 5.8 5.8 0 0 0 -.239.838 2.487 2.487 0 0 1 -2.424 1.971h-12.88c-1.591 0-3.163.082-4.722.208a48.552 48.552 0 0 1 -1.73-9.037 71.646 71.646 0 0 1 42.805-14.233zm-82.559 81.266a46.262 46.262 0 0 1 46.21-46.21h12.88a14.538 14.538 0 0 0 14.039-10.949 3.718 3.718 0 0 1 3.794-2.189c34.582 3.544 60.661 32.963 60.661 68.432v12.366c-18.986-26.01-49.74-36.714-51.369-37.265a6 6 0 0 0 -6.821 2.214c-24.866 35.1-56.66 43.342-79.394 45.431zm0 95.064v-51.159c24.184-1.977 58.581-10.107 86.394-46.761 11.111 4.746 41.947 20.365 51.19 50.572v47.348a68.792 68.792 0 1 1 -137.584 0zm40.455 99.167v-23.514a80.627 80.627 0 0 0 56.673-.009v23.523a26.029 26.029 0 0 0 26 26h19.332v49.052c-62.013-7.208-100.682-32.245-120.96-50.033a26.041 26.041 0 0 0 18.951-25.019zm-52.96 26h17.55c21.525 21.774 77.6 65.21 180.619 62.988a23.367 23.367 0 0 1 16.969 6.691 23.036 23.036 0 0 1 6.684 12.854c-10.334.64-20.581.888-30.538.735-51.764-.782-98.653-12.146-139.367-33.775a245.482 245.482 0 0 1 -63.329-47.724 37.581 37.581 0 0 1 11.408-1.769zm-37.7 37.7a37.671 37.671 0 0 1 15.205-30.236c13.84 15.117 36.257 35.343 68.785 52.624 31.924 16.959 67.427 27.856 105.929 32.555a50.654 50.654 0 0 1 -1.2 33.989h-139.445a50.457 50.457 0 0 1 .519-38.621 6 6 0 0 0 -11.014-4.763 62.527 62.527 0 0 0 -2.247 43.384h-36.539z"/><path d="m266.591 212.475a6 6 0 0 0 6-6 6.9 6.9 0 0 1 13.805 0 6 6 0 0 0 12 0 18.9 18.9 0 0 0 -37.805 0 6 6 0 0 0 6 6z"/><path d="m223.584 212.475a6 6 0 0 0 6-6 18.9 18.9 0 0 0 -37.805 0 6 6 0 1 0 12 0 6.9 6.9 0 0 1 13.805 0 6 6 0 0 0 6 6z"/><path d="m270.84 259.052a6 6 0 0 0 -8.486-8.486 24.417 24.417 0 0 1 -34.534 0 6 6 0 1 0 -8.484 8.486 36.418 36.418 0 0 0 51.5 0z"/><path d="m248.333 103.18a6.006 6.006 0 0 0 -7.782 3.364c-.534 1.339-13.492 32.826-49.24 35.439a6 6 0 0 0 .432 11.984c.147 0 .3-.005.443-.016 43.422-3.174 58.892-41.385 59.53-43.01a5.992 5.992 0 0 0 -3.383-7.761z"/><path d="m265.149 118.491c.225-.008 21.214-.895 30.592 17.384a6 6 0 0 0 10.678-5.477c-12.886-25.116-40.722-23.952-41.9-23.891a6 6 0 0 0 .627 11.984z"/></g></svg>