<svg id="Layer_1" height="512" viewBox="0 0 512 512" width="512" xmlns="http://www.w3.org/2000/svg" data-name="Layer 1"><path d="m337.3 327.442h-55.3l-.07.03-25.93 20.49v118.12h125v-94.93a43.708 43.708 0 0 0 -43.7-43.71z" fill="#428e6f"/><path d="m230.03 327.562-1.03-.12h-54.3a43.708 43.708 0 0 0 -43.7 43.71v94.93h125v-118.12z" fill="#4ca987"/><path d="m205.27 59.752a19.644 19.644 0 0 1 27.92-.14l5.27 5.27 24.44-14.94a27.6 27.6 0 0 1 24.41-2.16l15.46 6.03a26.59 26.59 0 0 0 19 .13l9.02-3.37a57.355 57.355 0 0 1 -20.21 21.05l47.29 41.98a14.328 14.328 0 0 1 1.82 19.49l-13.7 17.72a101.344 101.344 0 0 1 -15.02-5.29 102.86 102.86 0 0 1 -36.77-27.43l-6.97-8.2a39.135 39.135 0 0 0 -1.79 26.61l1.79 6.16c-28.53-7.28-35.81-39.58-35.81-39.58-10.39 22.84-44.24 39.02-70.25 48.45-4.7 1.7-9.14 3.18-13.14 4.43l-11.83-8.73a22.97 22.97 0 0 1 -2.77-34.56z" fill="#313960"/><path d="m221.66 274.742v42.7a29.408 29.408 0 0 0 24.97 29.19 64.9 64.9 0 0 0 18.74 0 29.415 29.415 0 0 0 24.97-29.18v-42.71z" fill="#efada3"/><path d="m290.34 300.022a59.912 59.912 0 0 1 25.66 49.21v12.01a5.727 5.727 0 0 1 -5.74 5.74 5.647 5.647 0 0 1 -2.76-.71l-51.5-18.31v-.65a65.423 65.423 0 0 0 9.37-.68 29.415 29.415 0 0 0 24.97-29.18z" fill="#55d8d8"/><path d="m221.66 317.442a29.408 29.408 0 0 0 24.97 29.19 65.423 65.423 0 0 0 9.37.68v.65l-51.5 18.31a5.723 5.723 0 0 1 -6.05-.32 5.624 5.624 0 0 1 -1.8-2.05 5.777 5.777 0 0 1 -.65-2.66v-12.01a59.873 59.873 0 0 1 25.66-49.21z" fill="#55d8d8"/><path d="m294.2 118.092-6.97-8.2a39.135 39.135 0 0 0 -1.79 26.61l1.79 6.16c-28.53-7.28-35.81-39.58-35.81-39.58-10.39 22.84-44.24 39.02-70.25 48.45l.04.12v56.63a74.79 74.79 0 1 0 149.58 0v-62.34l.18-.42a102.86 102.86 0 0 1 -36.77-27.43z" fill="#ffc9c0"/><path d="m181.21 177.132v23.16h-.31a14.7 14.7 0 0 1 -15.81-24.76 12.436 12.436 0 0 1 15.81 1.6z" fill="#efada3"/><path d="m352.94 185.562a14.7 14.7 0 0 1 -22 14.73h-.15v-23.16h.15a12.436 12.436 0 0 1 15.81-1.6 14.622 14.622 0 0 1 6.19 10.03z" fill="#efada3"/><path d="m204.7 327.442h-30a43.708 43.708 0 0 0 -43.7 43.71v94.93h30v-94.93a43.708 43.708 0 0 1 43.7-43.71z" fill="#357058"/><path d="m251.66 274.742a74.8 74.8 0 0 1 -40.45-66.46v-69.747a252.287 252.287 0 0 1 -30.04 13l.04.12v56.63a74.824 74.824 0 0 0 89.79 73.275 74.306 74.306 0 0 1 -19.34-6.818z" fill="#d8a59e"/><g fill="#20344c"><path d="m131 472.093h250a6 6 0 0 0 6-6v-94.932a49.759 49.759 0 0 0 -49.7-49.7h-21.429a66.009 66.009 0 0 0 -19.535-24.461v-18.752a80.821 80.821 0 0 0 40.456-69.957v-.023c.376.029.752.043 1.13.051v16.767a6 6 0 0 0 3.342 5.373 8 8 0 1 0 5.316 0 6 6 0 0 0 3.342-5.373v-20.286a20.85 20.85 0 0 0 8.96-20.088 20.553 20.553 0 0 0 -8.718-14.1 17.98 17.98 0 0 0 -9.428-3.163l7.625-9.862c2.265.517 4.545.988 6.85 1.361a6 6 0 1 0 1.916-11.846c-.194-.031-.385-.074-.579-.107l7.893-10.21a20.4 20.4 0 0 0 -2.588-27.651l-41.608-36.944a62.921 62.921 0 0 0 15.916-18.932 6 6 0 0 0 -7.471-8.3l-9.026 3.376a20.58 20.58 0 0 1 -14.713-.1l-15.463-6.034a33.767 33.767 0 0 0 -29.721 2.635l-20.4 12.476-1.932-1.933a25.46 25.46 0 0 0 -18.127-7.51h-.137a25.462 25.462 0 0 0 -18.184 7.7l-51.841 52.914a28.972 28.972 0 0 0 3.494 43.59l2.124 1.568c-4.5 1.236-7.22 1.872-7.295 1.889a6 6 0 1 0 2.694 11.694c.938-.216 7.412-1.737 16.787-4.592l6.575 4.85a18.055 18.055 0 0 0 -11.845 3.119 20.549 20.549 0 0 0 -8.719 14.106 20.856 20.856 0 0 0 9.119 20.195v21.53a6 6 0 0 0 4 5.652 8 8 0 1 0 4 0 6 6 0 0 0 4-5.652v-18.117c.377-.011.753-.03 1.128-.061v.038a80.821 80.821 0 0 0 40.456 69.957v18.752a66.124 66.124 0 0 0 -19.514 24.454h-21.45a49.759 49.759 0 0 0 -49.7 49.7v94.932a6 6 0 0 0 6 6.007zm185.984-101.213a11.745 11.745 0 0 0 5.016-9.623v-12.018a66.073 66.073 0 0 0 -1.913-15.781h17.213a37.745 37.745 0 0 1 37.7 37.7v88.932h-36.539a62.527 62.527 0 0 0 -2.247-43.384 6 6 0 0 0 -11.014 4.764 50.455 50.455 0 0 1 .519 38.62h-63.719v-103.612l43.108 15.327a11.657 11.657 0 0 0 11.876-.925zm-69.484-30.17a23.5 23.5 0 0 1 -19.831-23.252v-33.517a80.647 80.647 0 0 0 56.672 0v33.521a23.5 23.5 0 0 1 -19.841 23.248 58.685 58.685 0 0 1 -17 0zm62.5 8.529v11.594q-.241-.111-.493-.2l-32.445-11.533a35.755 35.755 0 0 0 19.274-31.639v-4.121a53.946 53.946 0 0 1 13.664 35.899zm33.34-168.765a8.7 8.7 0 0 1 -1.649 15.2 8.808 8.808 0 0 1 -4.9.5v-15.951a6.359 6.359 0 0 1 6.549.251zm-174.214-31.148-9.365-6.91a16.973 16.973 0 0 1 -2.047-25.536l51.842-52.914a13.544 13.544 0 0 1 9.674-4.095h.072a13.544 13.544 0 0 1 9.643 4l5.274 5.274a6 6 0 0 0 7.373.876l24.434-14.941a21.7 21.7 0 0 1 19.1-1.694l15.463 6.032a32.624 32.624 0 0 0 13.611 2.182 47.531 47.531 0 0 1 -6.71 4.89 6 6 0 0 0 -.9 9.633l47.296 41.977a8.364 8.364 0 0 1 1.061 11.338l-11.2 14.487a97.012 97.012 0 0 1 -44.973-29.706l-6.978-8.2a6 6 0 0 0 -10.061 1.467 45.168 45.168 0 0 0 -3.312 24.976c-16.218-10.128-21.1-30.454-21.15-30.684a6 6 0 0 0 -11.315-1.164c-6.544 14.391-25.42 28.408-54.588 40.534-7.894 3.278-15.57 6.008-22.244 8.178zm6.082 46.816a8.8 8.8 0 0 1 -5.056-.464 8.7 8.7 0 0 1 -1.648-15.2 6.371 6.371 0 0 1 6.7-.16zm12 12.149v-52.559c22.052-8.35 48.419-21.307 62.743-39.1 5.211 11.2 15.828 26.756 35.79 31.852a6 6 0 0 0 7.248-7.48l-1.782-6.162a33.109 33.109 0 0 1 -1.146-12.352 108.964 108.964 0 0 0 34.731 26.762v59.035a68.792 68.792 0 1 1 -137.584 0zm14.792 140.948a54.053 54.053 0 0 1 13.664-35.879v4.1a35.752 35.752 0 0 0 19.274 31.64l-32.445 11.536q-.252.089-.493.2zm-65 21.922a37.745 37.745 0 0 1 37.7-37.7h17.216a65.859 65.859 0 0 0 -1.916 15.778v12.018a11.718 11.718 0 0 0 16.892 10.548l43.108-15.327v103.615h-63.719a50.455 50.455 0 0 1 .519-38.62 6 6 0 1 0 -11.014-4.764 62.527 62.527 0 0 0 -2.247 43.384h-36.539z"/><circle cx="271.623" cy="384.099" r="8"/><circle cx="271.623" cy="413.099" r="8"/><circle cx="271.623" cy="442.099" r="8"/><circle cx="240.623" cy="384.099" r="8"/><circle cx="240.623" cy="413.099" r="8"/><circle cx="240.623" cy="442.099" r="8"/><path d="m277.5 182.752a6 6 0 0 0 6-6 6.9 6.9 0 0 1 13.805 0 6 6 0 0 0 12 0 18.9 18.9 0 0 0 -37.805 0 6 6 0 0 0 6 6z"/><path d="m234.5 182.752a6 6 0 0 0 6-6 18.9 18.9 0 0 0 -37.805 0 6 6 0 0 0 12 0 6.9 6.9 0 0 1 13.805 0 6 6 0 0 0 6 6z"/><path d="m281.752 229.329a6 6 0 1 0 -8.484-8.486 24.449 24.449 0 0 1 -34.536 0 6 6 0 1 0 -8.484 8.486 36.462 36.462 0 0 0 51.5 0z"/></g></svg>