<?xml version="1.0" encoding="iso-8859-1"?>
<!-- Generator: Adobe Illustrator 19.0.0, SVG Export Plug-In . SVG Version: 6.00 Build 0)  -->
<svg version="1.1" id="Layer_1" xmlns="http://www.w3.org/2000/svg" xmlns:xlink="http://www.w3.org/1999/xlink" x="0px" y="0px"
	 viewBox="0 0 491.52 491.52" style="enable-background:new 0 0 491.52 491.52;" xml:space="preserve">
<g>
	<g>
		<path d="M247.925,107.52l-33.05-30.72H133.12v40.96H92.16V332.8H358.4v-51.2h40.96V107.52H247.925z M337.92,312.32H112.64V138.24
			h73.705l33.05,30.72H337.92V312.32z M378.88,261.12H358.4V148.48H227.445l-33.05-30.72H153.6V97.28h53.225l33.05,30.72H378.88
			V261.12z"/>
	</g>
</g>
<g>
	<g>
		<path d="M471.04,358.4V30.72H20.48V358.4H0v55.44l46.96,46.96h397.6l46.96-46.96V358.4H471.04z M40.96,51.2h409.6v307.2H40.96
			V51.2z M471.04,405.36l-34.96,34.96H55.44l-34.96-34.96v-26.48h450.56V405.36z"/>
	</g>
</g>
<g>
	<g>
		<rect x="194.56" y="399.36" width="20.48" height="20.48"/>
	</g>
</g>
<g>
	<g>
		<rect x="235.52" y="399.36" width="20.48" height="20.48"/>
	</g>
</g>
<g>
	<g>
		<rect x="276.48" y="399.36" width="20.48" height="20.48"/>
	</g>
</g>
<g>
</g>
<g>
</g>
<g>
</g>
<g>
</g>
<g>
</g>
<g>
</g>
<g>
</g>
<g>
</g>
<g>
</g>
<g>
</g>
<g>
</g>
<g>
</g>
<g>
</g>
<g>
</g>
<g>
</g>
</svg>
