<?xml version="1.0" encoding="iso-8859-1"?>
<!-- Generator: Adobe Illustrator 19.0.0, SVG Export Plug-In . SVG Version: 6.00 Build 0)  -->
<svg version="1.1" id="Layer_1" xmlns="http://www.w3.org/2000/svg" xmlns:xlink="http://www.w3.org/1999/xlink" x="0px" y="0px"
	 viewBox="0 0 491.52 491.52" style="enable-background:new 0 0 491.52 491.52;" xml:space="preserve">
<g>
	<g>
		<path d="M491.52,419.84V0H0v419.84h153.6v51.2h-40.96v20.48h266.24v-20.48h-40.96v-51.2H491.52z M20.48,20.48h450.56v317.44
			H281.45c6.48-41.146,50.086-62.177,50.54-62.39l9.505-4.415l-72.98-148.235H245.76h-22.755l-72.98,148.235l9.505,4.415
			c0.472,0.217,44.101,21.03,50.551,62.39H20.48V20.48z M245.76,251.905c14.68,0,26.625-11.945,26.625-26.625
			c0-11.052-6.774-20.543-16.385-24.564v-56.889L314.18,262c-16.284,9.949-48.693,34.716-53.442,75.92h-29.956
			c-4.749-41.204-37.158-65.971-53.442-75.92l58.18-118.173v56.889c-9.611,4.021-16.385,13.513-16.385,24.564
			C219.135,239.96,231.08,251.905,245.76,251.905z M239.615,225.28c0-3.39,2.755-6.145,6.145-6.145s6.145,2.755,6.145,6.145
			c0,3.39-2.755,6.145-6.145,6.145S239.615,228.67,239.615,225.28z M317.44,471.04H174.08v-51.2h143.36V471.04z M20.48,399.36V358.4
			h450.56v40.96H20.48z"/>
	</g>
</g>
<g>
	<g>
		<path d="M450.56,102.4V40.96h-61.44v20.48H276.48V40.96h-61.44v20.48H102.4V40.96H40.96v61.44h61.44V81.92h64.173
			c-47.875,26.593-80.612,76.407-84.177,133.12H61.44v61.44h61.44v-61.44h-20.004c4.538-63.164,50.507-116.276,112.164-129.757
			V102.4h61.44V85.283c61.657,13.482,107.627,66.594,112.164,129.757H368.64v61.44h61.44v-61.44h-20.956
			c-3.566-56.713-36.302-106.527-84.177-133.12h64.173v20.48H450.56z M81.92,81.92H61.44V61.44h20.48V81.92z M102.4,256H81.92
			v-20.48h20.48V256z M256,81.92h-20.48V61.44H256V81.92z M389.12,235.52h20.48V256h-20.48V235.52z M409.6,61.44h20.48v20.48H409.6
			V61.44z"/>
	</g>
</g>
<g>
</g>
<g>
</g>
<g>
</g>
<g>
</g>
<g>
</g>
<g>
</g>
<g>
</g>
<g>
</g>
<g>
</g>
<g>
</g>
<g>
</g>
<g>
</g>
<g>
</g>
<g>
</g>
<g>
</g>
</svg>
