<?xml version="1.0" encoding="iso-8859-1"?>
<!-- Generator: Adobe Illustrator 19.0.0, SVG Export Plug-In . SVG Version: 6.00 Build 0)  -->
<svg version="1.1" id="Layer_1" xmlns="http://www.w3.org/2000/svg" xmlns:xlink="http://www.w3.org/1999/xlink" x="0px" y="0px"
	 viewBox="0 0 491.52 491.52" style="enable-background:new 0 0 491.52 491.52;" xml:space="preserve">
<g>
	<g>
		<path d="M430.08,348.977V266.24H256v-61.959c51.674-5.156,92.16-48.877,92.16-101.881C348.16,45.94,302.225,0,245.76,0
			s-102.4,45.94-102.4,102.4c0,53.004,40.486,96.724,92.16,101.881v61.959H61.44v82.737C26.761,353.973,0,383.805,0,419.84
			c0,39.52,32.155,71.68,71.68,71.68c39.525,0,71.68-32.16,71.68-71.68c0-36.035-26.761-65.867-61.44-70.863V286.72h153.6v62.257
			c-34.679,4.996-61.44,34.828-61.44,70.863c0,39.52,32.155,71.68,71.68,71.68s71.68-32.16,71.68-71.68
			c0-36.035-26.761-65.867-61.44-70.863V286.72h153.6v62.257c-34.679,4.996-61.44,34.828-61.44,70.863
			c0,39.52,32.155,71.68,71.68,71.68c39.525,0,71.68-32.16,71.68-71.68C491.52,383.805,464.759,353.973,430.08,348.977z
			 M122.88,419.84c0,28.23-22.97,51.2-51.2,51.2s-51.2-22.97-51.2-51.2c0-28.23,22.97-51.2,51.2-51.2
			C99.91,368.64,122.88,391.61,122.88,419.84z M296.96,419.84c0,28.23-22.97,51.2-51.2,51.2s-51.2-22.97-51.2-51.2
			c0-28.23,22.97-51.2,51.2-51.2S296.96,391.61,296.96,419.84z M245.76,184.32c-45.17,0-81.92-36.75-81.92-81.92
			c0-45.17,36.75-81.92,81.92-81.92s81.92,36.75,81.92,81.92C327.68,147.57,290.93,184.32,245.76,184.32z M419.84,471.04
			c-28.23,0-51.2-22.97-51.2-51.2c0-28.23,22.97-51.2,51.2-51.2c28.23,0,51.2,22.97,51.2,51.2
			C471.04,448.07,448.07,471.04,419.84,471.04z"/>
	</g>
</g>
<g>
</g>
<g>
</g>
<g>
</g>
<g>
</g>
<g>
</g>
<g>
</g>
<g>
</g>
<g>
</g>
<g>
</g>
<g>
</g>
<g>
</g>
<g>
</g>
<g>
</g>
<g>
</g>
<g>
</g>
</svg>
