<?xml version="1.0" encoding="iso-8859-1"?>
<!-- Generator: Adobe Illustrator 19.0.0, SVG Export Plug-In . SVG Version: 6.00 Build 0)  -->
<svg version="1.1" id="Layer_1" xmlns="http://www.w3.org/2000/svg" xmlns:xlink="http://www.w3.org/1999/xlink" x="0px" y="0px"
	 viewBox="0 0 491.52 491.52" style="enable-background:new 0 0 491.52 491.52;" xml:space="preserve">
<g>
	<g>
		<path d="M239.76,194.56L198.8,153.6H81.92v266.24H409.6V194.56H239.76z M389.12,399.36H102.4V174.08h87.92l40.96,40.96h157.84
			V399.36z"/>
	</g>
</g>
<g>
	<g>
		<rect x="122.88" y="358.4" width="143.36" height="20.48"/>
	</g>
</g>
<g>
	<g>
		<rect x="163.84" y="317.44" width="20.48" height="20.48"/>
	</g>
</g>
<g>
	<g>
		<rect x="204.8" y="317.44" width="20.48" height="20.48"/>
	</g>
</g>
<g>
	<g>
		<rect x="122.88" y="317.44" width="20.48" height="20.48"/>
	</g>
</g>
<g>
	<g>
		<path d="M0,0v491.52h491.52V0H0z M471.04,471.04H20.48V102.4h450.56V471.04z M471.04,81.92H20.48V20.48h450.56V81.92z"/>
	</g>
</g>
<g>
	<g>
		<rect x="430.08" y="40.96" width="20.48" height="20.48"/>
	</g>
</g>
<g>
	<g>
		<rect x="389.12" y="40.96" width="20.48" height="20.48"/>
	</g>
</g>
<g>
	<g>
		<rect x="348.16" y="40.96" width="20.48" height="20.48"/>
	</g>
</g>
<g>
	<g>
		<rect x="51.2" y="40.96" width="245.76" height="20.48"/>
	</g>
</g>
<g>
</g>
<g>
</g>
<g>
</g>
<g>
</g>
<g>
</g>
<g>
</g>
<g>
</g>
<g>
</g>
<g>
</g>
<g>
</g>
<g>
</g>
<g>
</g>
<g>
</g>
<g>
</g>
<g>
</g>
</svg>
