<?xml version="1.0" encoding="iso-8859-1"?>
<!-- Generator: Adobe Illustrator 19.0.0, SVG Export Plug-In . SVG Version: 6.00 Build 0)  -->
<svg version="1.1" id="Layer_1" xmlns="http://www.w3.org/2000/svg" xmlns:xlink="http://www.w3.org/1999/xlink" x="0px" y="0px"
	 viewBox="0 0 491.52 491.52" style="enable-background:new 0 0 491.52 491.52;" xml:space="preserve">
<g>
	<g>
		<path d="M471.04,369.108V61.909H341.524L245.76,20.013l-95.764,41.895H20.48v307.2H0v55.44l46.96,46.96h397.6l46.96-46.96v-55.44
			H471.04z M245.76,42.364l138.29,60.505l-138.29,60.505l-138.29-60.505L245.76,42.364z M348.16,140.925v73.913
			c-21.7-0.075-68.39,4.24-102.4,45.01c-34.02-40.775-80.76-45.215-102.4-45.01v-73.913l102.4,44.798L348.16,140.925z M40.96,82.388
			h62.223l-46.813,20.48l66.512,29.097l0.028,105.523l11.63-1.6c2.69-0.36,65.94-8.39,102.7,46.74l8.52,12.78l8.52-12.78
			c36.74-55.115,100.01-47.11,102.67-46.745l11.69,1.67V131.965l20.48-8.959v135.349c-11.894,4.241-20.48,15.501-20.48,28.833v40.96
			h61.44v-40.96c0-13.332-8.586-24.593-20.48-28.833V114.046l25.55-11.177l-46.813-20.48h62.223v286.72H40.96V82.388z
			 M399.36,276.948c5.65,0,10.24,4.595,10.24,10.24v20.48h-20.48v-20.48C389.12,281.544,393.71,276.948,399.36,276.948z
			 M471.04,416.068l-34.96,34.96H55.44l-34.96-34.96v-26.48h450.56V416.068z"/>
	</g>
</g>
<g>
	<g>
		<rect x="235.52" y="410.071" width="20.48" height="20.48"/>
	</g>
</g>
<g>
	<g>
		<rect x="276.48" y="410.071" width="20.48" height="20.48"/>
	</g>
</g>
<g>
	<g>
		<rect x="194.56" y="410.071" width="20.48" height="20.48"/>
	</g>
</g>
<g>
</g>
<g>
</g>
<g>
</g>
<g>
</g>
<g>
</g>
<g>
</g>
<g>
</g>
<g>
</g>
<g>
</g>
<g>
</g>
<g>
</g>
<g>
</g>
<g>
</g>
<g>
</g>
<g>
</g>
</svg>
