<?xml version="1.0" encoding="iso-8859-1"?>
<!-- Generator: Adobe Illustrator 19.0.0, SVG Export Plug-In . SVG Version: 6.00 Build 0)  -->
<svg version="1.1" id="Layer_1" xmlns="http://www.w3.org/2000/svg" xmlns:xlink="http://www.w3.org/1999/xlink" x="0px" y="0px"
	 viewBox="0 0 492.395 492.395" style="enable-background:new 0 0 492.395 492.395;" xml:space="preserve">
<g>
	<g>
		<path d="M422.878,148.915c4.105-12.595,5.55-25.425,4.63-40.28c-3.66-59.425-56.6-108.155-118.005-108.63
			c-0.32,0-0.635-0.005-0.95-0.005c-49.56,0-93.77,30.23-111.235,74.145c-18.175-14.38-41.61-21.44-65.58-19.185
			c-33.03,3.095-61.93,25.115-75.415,57.465c-6.685,16.03-5.43,33.965-3.845,44.16c-31.86,18.045-52.04,52.21-52.04,89.175
			c0,56.229,45.453,99.014,106.79,102.1c17.324,50.374,54.722,107.723,134.64,142.755l4.6,1.78l4.065-1.78
			c79.907-35.027,117.306-92.365,134.633-142.734c63.205-2.875,106.792-43.987,106.792-102.121
			C491.958,201.945,463.528,162.95,422.878,148.915z M246.202,470.12c-132.42-60.415-134.555-184.85-132.995-215.155
			c77.205-24.34,117.545-53.645,132.99-66.9c15.45,13.255,55.79,42.565,132.995,66.9
			C380.753,285.275,378.633,409.745,246.202,470.12z M391.406,326.911c11.341-44.968,7.722-80.089,7.631-80.861l-0.775-6.67
			l-6.425-1.945c-100.02-30.305-137.75-69.91-138.095-70.28l-7.515-8.13l-7.55,8.105c-0.37,0.395-38.095,40-138.115,70.305
			l-6.425,1.945l-0.775,6.67c-0.091,0.772-3.707,35.873,7.621,80.822c-47.092-5.178-80.066-37.643-80.066-81.112
			c0-31.755,18.615-60.925,47.425-74.325l7.78-3.645l-2.21-8.3c-0.06-0.22-5.775-22.185,1.31-39.185
			c10.565-25.345,32.955-42.57,58.425-44.955c23.295-2.15,45.985,6.895,60.7,24.27l13.27,15.665l4.53-20.025
			c9.84-43.44,50.305-74.78,96.4-74.78c0.265,0,0.535,0.005,0.795,0.005c50.875,0.39,94.71,40.5,97.725,89.41
			c0.97,15.69-1.235,28.52-7.14,41.6l-5.21,11.53l12.36,2.69c37.315,8.125,64.4,41.785,64.4,80.045
			C471.477,289.989,439.148,321.901,391.406,326.911z"/>
	</g>
</g>
<g>
	<g>
		<path d="M331.823,281.625c-30.235-11.625-57.195-24.93-80.12-39.555l-5.505-3.51l-5.505,3.51
			c-22.92,14.615-49.86,27.92-80.08,39.535l-7.645,2.94l1.19,8.105c5.665,38.715,25.33,92.525,86.815,128.995l5.225,3.1l5.225-3.095
			c61.515-36.485,81.185-90.28,86.855-128.98l1.19-8.105L331.823,281.625z M246.197,400.815
			c-46.51-29.72-64.145-70.905-70.42-103.16c26.025-10.44,49.655-22.14,70.42-34.875c20.775,12.74,44.42,24.445,70.46,34.895
			C310.383,329.915,292.737,371.085,246.197,400.815z"/>
	</g>
</g>
<g>
</g>
<g>
</g>
<g>
</g>
<g>
</g>
<g>
</g>
<g>
</g>
<g>
</g>
<g>
</g>
<g>
</g>
<g>
</g>
<g>
</g>
<g>
</g>
<g>
</g>
<g>
</g>
<g>
</g>
</svg>
