<?xml version="1.0" encoding="iso-8859-1"?>
<!-- Generator: Adobe Illustrator 19.0.0, SVG Export Plug-In . SVG Version: 6.00 Build 0)  -->
<svg version="1.1" id="Layer_1" xmlns="http://www.w3.org/2000/svg" xmlns:xlink="http://www.w3.org/1999/xlink" x="0px" y="0px"
	 viewBox="0 0 491.52 491.52" style="enable-background:new 0 0 491.52 491.52;" xml:space="preserve">
<g>
	<g>
		<path d="M471.04,378.877v-235.52h-69.374c-7.791-14.236-20.769-25.186-36.661-30.05c2.22-8.41,3.08-17.095,2.555-25.945
			c-2.49-42.185-38.595-76.785-80.485-77.12c-0.22,0-0.435,0-0.655,0c-32.25,0-61.165,19.515-74.1,48.365
			c-11.965-8.38-26.645-12.37-41.585-10.895c-23.56,2.305-44.085,18.655-52.29,41.65c-3.355,9.4-4.395,19.03-3.11,28.73
			c-10.787,5.834-19.456,14.721-25.297,25.265H20.48v235.52H0v54.7l36.95,47.7h417.62l36.95-47.7v-54.7H471.04z M40.96,163.838
			h41.916c-0.57,3.421-0.956,6.889-0.956,10.43c0,35.49,26.775,61.25,63.665,61.25h18.255v-20.48h-18.255
			c-25.83,0-43.185-16.385-43.185-40.77c0-18.085,11.3-34.41,28.115-40.62l8.8-3.25l-2.47-9.055
			c-2.355-8.61-2.065-16.82,0.89-25.095c5.555-15.565,19.29-26.615,34.995-28.155c13.925-1.325,27.515,4.325,36.355,15.235
			l13.445,16.59l4.52-20.865c6.08-28.08,31-48.33,59.37-48.33c0.16,0,0.325,0,0.49,0c31.33,0.25,58.34,26.2,60.21,57.845
			c0.575,9.825-1.105,19.375-4.995,28.385l-5.57,12.9l13.985,1.35c21.995,2.135,38.58,20.645,38.58,43.065
			c0,24.385-17.355,40.77-43.185,40.77h-30.4v20.48h30.4c36.89,0,63.665-25.76,63.665-61.25c0-3.551-0.291-7.034-0.837-10.43h41.797
			v215.04H40.96V163.838z M471.04,426.577l-26.51,34.22H46.99l-26.51-34.22v-27.22h450.56V426.577z"/>
	</g>
</g>
<g>
	<g>
		<rect x="235.52" y="419.84" width="20.48" height="20.48"/>
	</g>
</g>
<g>
	<g>
		<rect x="194.56" y="419.84" width="20.48" height="20.48"/>
	</g>
</g>
<g>
	<g>
		<rect x="276.48" y="419.84" width="20.48" height="20.48"/>
	</g>
</g>
<g>
	<g>
		<polygon points="310.2,258.997 296.96,272.237 296.96,225.278 276.48,225.278 276.48,272.237 263.24,258.997 248.76,273.477 
			286.72,311.437 324.68,273.477 		"/>
	</g>
</g>
<g>
	<g>
		<rect x="276.48" y="184.32" width="20.48" height="20.48"/>
	</g>
</g>
<g>
	<g>
		<polygon points="215.04,169.838 177.08,207.797 191.56,222.278 204.8,209.037 204.8,255.997 225.28,255.997 225.28,209.037 
			238.52,222.278 253,207.797 		"/>
	</g>
</g>
<g>
	<g>
		<rect x="204.8" y="276.48" width="20.48" height="20.48"/>
	</g>
</g>
<g>
</g>
<g>
</g>
<g>
</g>
<g>
</g>
<g>
</g>
<g>
</g>
<g>
</g>
<g>
</g>
<g>
</g>
<g>
</g>
<g>
</g>
<g>
</g>
<g>
</g>
<g>
</g>
<g>
</g>
</svg>
