<?xml version="1.0" encoding="iso-8859-1"?>
<!-- Generator: Adobe Illustrator 19.0.0, SVG Export Plug-In . SVG Version: 6.00 Build 0)  -->
<svg version="1.1" id="Layer_1" xmlns="http://www.w3.org/2000/svg" xmlns:xlink="http://www.w3.org/1999/xlink" x="0px" y="0px"
	 viewBox="0 0 491.52 491.52" style="enable-background:new 0 0 491.52 491.52;" xml:space="preserve">
<g>
	<g>
		<polygon points="419.84,399.36 419.84,143.36 399.36,143.36 399.36,399.36 358.4,399.36 358.4,184.32 337.92,184.32 
			337.92,399.36 296.96,399.36 296.96,174.08 276.48,174.08 276.48,399.36 235.52,399.36 235.52,215.04 215.04,215.04 
			215.04,399.36 174.08,399.36 174.08,276.48 153.6,276.48 153.6,399.36 112.64,399.36 112.64,245.76 92.16,245.76 92.16,399.36 
			51.2,399.36 51.2,419.84 460.8,419.84 460.8,399.36 		"/>
	</g>
</g>
<g>
	<g>
		<polygon points="20.48,471.04 20.48,0 0,0 0,491.52 491.52,491.52 491.52,471.04 		"/>
	</g>
</g>
<g>
</g>
<g>
</g>
<g>
</g>
<g>
</g>
<g>
</g>
<g>
</g>
<g>
</g>
<g>
</g>
<g>
</g>
<g>
</g>
<g>
</g>
<g>
</g>
<g>
</g>
<g>
</g>
<g>
</g>
</svg>
