<?xml version="1.0" encoding="iso-8859-1"?>
<!-- Generator: Adobe Illustrator 19.0.0, SVG Export Plug-In . SVG Version: 6.00 Build 0)  -->
<svg version="1.1" id="Layer_1" xmlns="http://www.w3.org/2000/svg" xmlns:xlink="http://www.w3.org/1999/xlink" x="0px" y="0px"
	 viewBox="0 0 491.52 491.52" style="enable-background:new 0 0 491.52 491.52;" xml:space="preserve">
<g>
	<g>
		<path d="M419.84,40.96h-46.96l23.48-23.48L381.88,3l-48.2,48.2l48.2,48.2l14.48-14.48l-23.48-23.48h46.96
			c28.23,0,51.2,24.5,51.2,54.615v86.47h20.48v-86.47C491.52,74.645,459.36,40.96,419.84,40.96z"/>
	</g>
</g>
<g>
	<g>
		<path d="M265.79,94.045c1.92-7.465,2.65-15.165,2.17-23.01C265.61,32.175,231.6,0.31,192.16,0c-0.2,0-0.4,0-0.6,0
			c-30.06,0-57.06,17.62-69.41,43.75c-11.18-7.445-24.76-10.965-38.61-9.65c-22.23,2.125-41.62,17.21-49.39,38.44
			c-3.1,8.49-4.12,17.19-3.05,25.955C12.2,108.71,0,128.515,0,150.19c0,31.265,22.93,54.37,55.2,56.495
			c8.98,12.37,25.22,17.02,35.15,17.02c15.62,0,25.54-3.16,37.45-12.83c7.04,5.975,18.9,12.77,36.48,12.77
			c20.05,0,33.25-8.375,40.27-14.57c32.66,12.985,56.05,5.455,70.22-3.57c22.28-14.175,32.43-38.61,32.43-55.315
			C307.2,123.96,290.1,101.655,265.79,94.045z M263.78,188.225c-15.5,9.865-35.33,9.655-57.31-0.63l-7.43-3.475l-5.01,6.49
			c-1,1.285-10.27,12.555-29.75,12.555c-18.97,0-26.9-11.6-27.15-11.97l-6.66-10.71l-9.11,8.725
			c-13.37,12.805-19.12,14.015-31.01,14.015c-5.07,0-16.49-3.265-19.88-10.815l-2.71-6.045H60.1c-23.7,0-39.62-14.54-39.62-36.175
			c0-16.04,10.33-30.535,25.72-36.07l8.96-3.225l-2.57-9.175c-2.13-7.605-1.87-14.845,0.8-22.14
			c5.07-13.865,17.67-23.715,32.09-25.09c1.26-0.12,2.52-0.18,3.77-0.18c11.47,0,22.36,5.005,29.68,13.805l13.34,16.045l4.53-20.375
			c5.58-25.16,28.57-43.305,54.76-43.305c0.14,0,0.29,0,0.44,0c28.9,0.225,53.8,23.46,55.52,51.795c0.53,8.755-1.01,17.27-4.57,25.3
			l-5.77,13.005l14.17,1.34c20.16,1.905,35.37,18.355,35.37,38.27C286.72,161.555,278.68,178.745,263.78,188.225z"/>
	</g>
</g>
<g>
	<g>
		<path d="M109.64,392.125l-14.48,14.48l23.479,23.475H71.68c-28.23,0-51.2-22.97-51.2-51.2v-81.92H0v81.92
			c0,39.525,32.16,71.68,71.68,71.68h46.959L95.16,474.035l14.48,14.48l48.2-48.195L109.64,392.125z"/>
	</g>
</g>
<g>
	<g>
		<path d="M450.11,361.86c1.92-7.465,2.65-15.165,2.17-23.01c-2.35-38.86-36.36-70.725-75.8-71.035c-0.2,0-0.4,0-0.6,0
			c-30.06,0-57.06,17.62-69.41,43.75c-11.18-7.45-24.76-10.95-38.61-9.65c-22.23,2.125-41.62,17.21-49.39,38.44
			c-3.1,8.49-4.12,17.19-3.05,25.955c-18.9,10.215-31.1,30.02-31.1,51.695c0,31.265,22.93,54.37,55.2,56.495
			c8.98,12.37,25.22,17.02,35.15,17.02c15.62,0,25.54-3.16,37.45-12.83c7.04,5.975,18.9,12.77,36.48,12.77
			c20.05,0,33.25-8.375,40.27-14.57c32.66,12.985,56.05,5.445,70.22-3.57c22.28-14.175,32.43-38.61,32.43-55.315
			C491.52,391.775,474.42,369.47,450.11,361.86z M448.1,456.04c-15.51,9.87-35.33,9.655-57.31-0.63l-7.43-3.475l-5.01,6.49
			c-1,1.285-10.27,12.555-29.75,12.555c-18.97,0-26.9-11.6-27.15-11.97l-6.66-10.71l-9.11,8.725
			c-13.37,12.805-19.12,14.015-31.01,14.015c-5.07,0-16.49-3.265-19.88-10.815l-2.71-6.045h-7.66c-23.7,0-39.62-14.54-39.62-36.175
			c0-16.04,10.33-30.535,25.72-36.07l8.96-3.225l-2.57-9.175c-2.13-7.605-1.87-14.845,0.8-22.14
			c5.07-13.865,17.67-23.715,32.09-25.09c1.26-0.12,2.52-0.18,3.77-0.18c11.47,0,22.36,5.005,29.68,13.805l13.34,16.045l4.53-20.375
			c5.58-25.16,28.57-43.305,54.76-43.305c0.14,0,0.29,0,0.44,0c28.9,0.225,53.8,23.46,55.52,51.795c0.53,8.755-1.01,17.27-4.57,25.3
			l-5.77,13.01l14.17,1.335c20.16,1.905,35.37,18.355,35.37,38.27C471.04,429.37,463,446.56,448.1,456.04z"/>
	</g>
</g>
<g>
</g>
<g>
</g>
<g>
</g>
<g>
</g>
<g>
</g>
<g>
</g>
<g>
</g>
<g>
</g>
<g>
</g>
<g>
</g>
<g>
</g>
<g>
</g>
<g>
</g>
<g>
</g>
<g>
</g>
</svg>
