<?xml version="1.0" encoding="iso-8859-1"?>
<!-- Generator: Adobe Illustrator 19.0.0, SVG Export Plug-In . SVG Version: 6.00 Build 0)  -->
<svg version="1.1" id="Layer_1" xmlns="http://www.w3.org/2000/svg" xmlns:xlink="http://www.w3.org/1999/xlink" x="0px" y="0px"
	 viewBox="0 0 491.52 491.52" style="enable-background:new 0 0 491.52 491.52;" xml:space="preserve">
<g>
	<g>
		<path d="M0,0v491.52h337.92V0H0z M317.44,471.04H20.48V409.6h296.96V471.04z M317.44,389.12H20.48V81.92h296.96V389.12z
			 M317.44,61.44H20.48V20.48h296.96V61.44z"/>
	</g>
</g>
<g>
	<g>
		<rect x="133.12" y="430.08" width="102.4" height="20.48"/>
	</g>
</g>
<g>
	<g>
		<rect x="133.12" y="30.72" width="61.44" height="20.48"/>
	</g>
</g>
<g>
	<g>
		<rect x="215.04" y="30.72" width="20.48" height="20.48"/>
	</g>
</g>
<g>
	<g>
		<path d="M40.96,112.64v71.68h71.68v-71.68H40.96z M61.44,163.84v-30.72h30.72c0,0,0,30.72,0,30.72H61.44z"/>
	</g>
</g>
<g>
	<g>
		<path d="M133.12,112.64v71.68h71.68v-71.68H133.12z M184.32,163.84H153.6v-30.72h30.72V163.84z"/>
	</g>
</g>
<g>
	<g>
		<path d="M225.28,112.64v71.68h71.68v-71.68H225.28z M276.48,163.84h-30.72v-30.72h30.72V163.84z"/>
	</g>
</g>
<g>
	<g>
		<path d="M40.96,204.8v71.68h71.68V204.8H40.96z M61.44,256v-30.72h30.72c0,0,0,30.72,0,30.72H61.44z"/>
	</g>
</g>
<g>
	<g>
		<path d="M133.12,204.8v71.68h71.68V204.8H133.12z M184.32,256H153.6v-30.72h30.72V256z"/>
	</g>
</g>
<g>
	<g>
		<path d="M440.32,245.76V75.92l21.58-21.58L448.32,0h-36.48l-13.58,54.34l21.58,21.58v169.84h-51.2v184.32
			c0,33.88,27.56,61.44,61.44,61.44s61.44-27.56,61.44-61.44V245.76H440.32z M427.84,20.48h4.48l6.9,27.58l-9.14,9.14l-9.14-9.14
			L427.84,20.48z M389.12,266.24h81.92v30.72h-81.92V266.24z M471.04,430.08c0,22.59-18.37,40.96-40.96,40.96
			c-22.59,0-40.96-18.37-40.96-40.96V317.44h81.92V430.08z"/>
	</g>
</g>
<g>
	<g>
		<rect x="419.84" y="399.36" width="20.48" height="20.48"/>
	</g>
</g>
<g>
	<g>
		<rect x="419.84" y="348.16" width="20.48" height="20.48"/>
	</g>
</g>
<g>
</g>
<g>
</g>
<g>
</g>
<g>
</g>
<g>
</g>
<g>
</g>
<g>
</g>
<g>
</g>
<g>
</g>
<g>
</g>
<g>
</g>
<g>
</g>
<g>
</g>
<g>
</g>
<g>
</g>
</svg>
