<?xml version="1.0" encoding="iso-8859-1"?>
<!-- Generator: Adobe Illustrator 19.0.0, SVG Export Plug-In . SVG Version: 6.00 Build 0)  -->
<svg version="1.1" id="Layer_1" xmlns="http://www.w3.org/2000/svg" xmlns:xlink="http://www.w3.org/1999/xlink" x="0px" y="0px"
	 viewBox="0 0 491.52 491.52" style="enable-background:new 0 0 491.52 491.52;" xml:space="preserve">
<g>
	<g>
		<path d="M460.8,155.62l-30.72,46.08v289.82h61.44V201.7L460.8,155.62z M450.56,207.9l10.24-15.36l10.24,15.36v201.7h-20.48V207.9z
			 M471.04,471.04h-20.48v-40.96h20.48V471.04z"/>
	</g>
</g>
<g>
	<g>
		<rect x="61.44" y="163.84" width="286.72" height="20.48"/>
	</g>
</g>
<g>
	<g>
		<rect x="61.44" y="245.76" width="286.72" height="20.48"/>
	</g>
</g>
<g>
	<g>
		<rect x="61.44" y="327.68" width="286.72" height="20.48"/>
	</g>
</g>
<g>
	<g>
		<rect x="112.64" y="399.36" width="184.32" height="20.48"/>
	</g>
</g>
<g>
	<g>
		<path d="M301.205,0H0v491.52h409.6V108.395L301.205,0z M307.2,34.955l67.445,67.445H307.2V34.955z M389.12,471.04H20.48V20.48
			h266.24v102.4h102.4V471.04z"/>
	</g>
</g>
<g>
</g>
<g>
</g>
<g>
</g>
<g>
</g>
<g>
</g>
<g>
</g>
<g>
</g>
<g>
</g>
<g>
</g>
<g>
</g>
<g>
</g>
<g>
</g>
<g>
</g>
<g>
</g>
<g>
</g>
</svg>
