<?xml version="1.0" encoding="iso-8859-1"?>
<!-- Generator: Adobe Illustrator 19.0.0, SVG Export Plug-In . SVG Version: 6.00 Build 0)  -->
<svg version="1.1" id="Layer_1" xmlns="http://www.w3.org/2000/svg" xmlns:xlink="http://www.w3.org/1999/xlink" x="0px" y="0px"
	 viewBox="0 0 491.52 491.52" style="enable-background:new 0 0 491.52 491.52;" xml:space="preserve">
<g>
	<g>
		<path d="M307.2,180.975v-54.75l-35.84-5.975c-2.59-9.15-6.25-17.955-10.93-26.305l21.14-29.6L242.855,25.63l-29.6,21.145
			c-8.35-4.685-17.16-8.34-26.305-10.93L180.975,0H126.23l-5.975,35.845c-9.145,2.59-17.955,6.245-26.305,10.93L64.35,25.63
			L25.635,64.345l21.14,29.6c-4.68,8.35-8.34,17.155-10.93,26.305L0,126.225v54.75l35.845,5.975c2.59,9.15,6.25,17.955,10.93,26.305
			l-21.14,29.6L64.35,281.57l29.6-21.145c8.35,4.68,17.155,8.34,26.305,10.93l5.975,35.845h54.745l5.975-35.845
			c9.15-2.59,17.955-6.25,26.305-10.93l29.6,21.145l38.715-38.715l-21.14-29.6c4.68-8.35,8.34-17.155,10.93-26.305L307.2,180.975z
			 M254.82,240.645l-14.175,14.175l-26.565-18.975l-5.83,3.715c-10.06,6.415-21,10.96-32.515,13.515l-6.75,1.495l-5.36,32.15H143.58
			l-5.36-32.15l-6.75-1.495c-11.515-2.555-22.455-7.1-32.515-13.515l-5.83-3.715L66.56,254.82l-14.175-14.175l18.97-26.565
			l-3.715-5.83c-6.415-10.065-10.96-21.005-13.505-32.51l-1.495-6.755l-32.16-5.36v-20.05l32.16-5.36l1.495-6.755
			c2.545-11.505,7.09-22.445,13.505-32.51l3.715-5.83l-18.97-26.565L66.56,52.38l26.56,18.97l5.83-3.715
			c10.07-6.41,21.01-10.955,32.52-13.51l6.75-1.495l5.36-32.15h20.045l5.36,32.15l6.75,1.495c11.51,2.555,22.45,7.1,32.52,13.51
			l5.83,3.715l26.56-18.97l14.175,14.175L235.85,93.12l3.715,5.83c6.415,10.065,10.96,21.005,13.505,32.51l1.495,6.755l32.155,5.36
			v20.05l-32.155,5.36l-1.495,6.755c-2.545,11.505-7.09,22.445-13.505,32.51l-3.715,5.83L254.82,240.645z"/>
	</g>
</g>
<g>
	<g>
		<path d="M153.6,87.26c-36.575,0-66.335,29.76-66.335,66.34c0,36.575,29.76,66.335,66.335,66.335c36.58,0,66.34-29.76,66.34-66.335
			C219.94,117.02,190.18,87.26,153.6,87.26z M153.6,199.455c-25.285,0-45.855-20.57-45.855-45.855
			c0-25.285,20.57-45.86,45.855-45.86c25.285,0,45.86,20.575,45.86,45.86C199.46,178.885,178.885,199.455,153.6,199.455z"/>
	</g>
</g>
<g>
	<g>
		<path d="M87.92,491.52h403.6V87.92L87.92,491.52z M137.36,471.04l333.68-333.68v333.68H137.36z"/>
	</g>
</g>
<g>
	<g>
		<path d="M236.255,430.08H430.08V236.25L236.255,430.08z M409.6,409.6H285.695L409.6,285.69V409.6z"/>
	</g>
</g>
<g>
</g>
<g>
</g>
<g>
</g>
<g>
</g>
<g>
</g>
<g>
</g>
<g>
</g>
<g>
</g>
<g>
</g>
<g>
</g>
<g>
</g>
<g>
</g>
<g>
</g>
<g>
</g>
<g>
</g>
</svg>
