<?xml version="1.0" encoding="iso-8859-1"?>
<!-- Generator: Adobe Illustrator 19.0.0, SVG Export Plug-In . SVG Version: 6.00 Build 0)  -->
<svg version="1.1" id="Layer_1" xmlns="http://www.w3.org/2000/svg" xmlns:xlink="http://www.w3.org/1999/xlink" x="0px" y="0px"
	 viewBox="0 0 491.52 491.52" style="enable-background:new 0 0 491.52 491.52;" xml:space="preserve">
<g>
	<g>
		<path d="M418.16,279.63c-2.45-3.73-61.3-91.36-172.4-91.36S75.81,275.9,73.36,279.63l-3.69,5.62l3.69,5.62
			c2.45,3.73,61.3,91.36,172.4,91.36s169.95-87.63,172.4-91.36l3.69-5.62L418.16,279.63z M94.64,285.23
			c9.54-12.204,35.442-41.382,76.056-59.966c-12.892,16.525-20.656,37.338-20.656,59.986c0,22.598,7.732,43.366,20.573,59.874
			C130.132,326.521,104.202,297.406,94.64,285.23z M245.76,361.75c-41.49,0-75.24-34.32-75.24-76.5s33.75-76.5,75.24-76.5
			S321,243.07,321,285.25S287.25,361.75,245.76,361.75z M320.824,345.236c12.893-16.525,20.656-37.338,20.656-59.986
			c0-22.598-7.732-43.366-20.572-59.874c40.48,18.602,66.411,47.717,75.972,59.894C387.34,297.474,361.438,326.653,320.824,345.236z
			"/>
	</g>
</g>
<g>
	<g>
		<path d="M245.76,249.86c-19.31,0-35.02,15.88-35.02,35.39s15.71,35.39,35.02,35.39s35.02-15.88,35.02-35.39
			S265.07,249.86,245.76,249.86z M245.76,300.16c-8.02,0-14.54-6.69-14.54-14.91c0-8.22,6.52-14.91,14.54-14.91
			c8.02,0,14.54,6.69,14.54,14.91C260.3,293.47,253.78,300.16,245.76,300.16z"/>
	</g>
</g>
<g>
	<g>
		<rect x="430.08" y="40.96" width="20.48" height="20.48"/>
	</g>
</g>
<g>
	<g>
		<rect x="389.12" y="40.96" width="20.48" height="20.48"/>
	</g>
</g>
<g>
	<g>
		<rect x="348.16" y="40.96" width="20.48" height="20.48"/>
	</g>
</g>
<g>
	<g>
		<rect x="51.2" y="40.96" width="266.24" height="20.48"/>
	</g>
</g>
<g>
	<g>
		<path d="M0,0v491.52h491.52V0H0z M471.04,471.04H20.48V102.4h450.56V471.04z M471.04,81.92H20.48V20.48h450.56V81.92z"/>
	</g>
</g>
<g>
	<g>
		<rect x="235.52" y="131.65" width="20.48" height="30.72"/>
	</g>
</g>
<g>
	<g>
		<rect x="319.995" y="160.747" transform="matrix(0.4999 -0.8661 0.8661 0.4999 19.6236 375.9595)" width="30.72" height="20.48"/>
	</g>
</g>
<g>
	<g>
		
			<rect x="145.931" y="155.657" transform="matrix(0.866 -0.5001 0.5001 0.866 -64.5929 101.0201)" width="20.481" height="30.721"/>
	</g>
</g>
<g>
	<g>
		<rect x="235.52" y="409.6" width="20.48" height="30.72"/>
	</g>
</g>
<g>
	<g>
		
			<rect x="325.132" y="385.57" transform="matrix(0.866 -0.5001 0.5001 0.866 -155.5517 221.4491)" width="20.481" height="30.721"/>
	</g>
</g>
<g>
	<g>
		<rect x="140.85" y="390.68" transform="matrix(0.4999 -0.8661 0.8661 0.4999 -269.1102 335.7946)" width="30.72" height="20.48"/>
	</g>
</g>
<g>
</g>
<g>
</g>
<g>
</g>
<g>
</g>
<g>
</g>
<g>
</g>
<g>
</g>
<g>
</g>
<g>
</g>
<g>
</g>
<g>
</g>
<g>
</g>
<g>
</g>
<g>
</g>
<g>
</g>
</svg>
