<?xml version="1.0" encoding="iso-8859-1"?>
<!-- Generator: Adobe Illustrator 19.0.0, SVG Export Plug-In . SVG Version: 6.00 Build 0)  -->
<svg version="1.1" id="Layer_1" xmlns="http://www.w3.org/2000/svg" xmlns:xlink="http://www.w3.org/1999/xlink" x="0px" y="0px"
	 viewBox="0 0 491.52 491.52" style="enable-background:new 0 0 491.52 491.52;" xml:space="preserve">
<g>
	<g>
		<path d="M491.52,71.68V10.24h-61.44v20.48h-153.6V10.24h-61.44v20.48H61.44V10.24H0v61.44h61.44V51.2h90.608
			C83.329,82.662,33.395,147.61,22.784,225.28H0v61.44h22.589c0.064,0.465,0.099,0.936,0.166,1.4l9.719-1.4H61.44v-61.44H43.442
			C56.767,136.744,126.504,67.009,215.04,53.683V71.68h61.44V53.683c88.536,13.326,158.273,83.062,171.598,171.598H430.08v61.44
			h28.972l9.718,1.38c0.065-0.457,0.101-0.922,0.163-1.38h22.587v-61.44h-22.784C458.125,147.61,408.191,82.662,339.472,51.2h90.608
			v20.48H491.52z M450.56,30.72h20.48V51.2h-20.48V30.72z M40.96,51.2H20.48V30.72h20.48V51.2z M40.96,266.24H20.48v-20.48h20.48
			V266.24z M256,51.2h-20.48V30.72H256V51.2z M450.56,245.76h20.48v20.48h-20.48V245.76z"/>
	</g>
</g>
<g>
	<g>
		<path d="M421.785,360.74c-3.42,5.74-7.175,11.38-11.165,16.79l16.48,12.16c4.385-5.94,8.515-12.15,12.275-18.46L421.785,360.74z"
			/>
	</g>
</g>
<g>
	<g>
		<path d="M100.74,400.62l-14.5,14.46c5.2,5.21,10.715,10.22,16.395,14.9l13.02-15.8C110.485,409.92,105.47,405.36,100.74,400.62z"
			/>
	</g>
</g>
<g>
	<g>
		<path d="M442.02,314.73c-1.91,6.4-4.17,12.79-6.72,19.01l18.95,7.76c2.805-6.83,5.29-13.87,7.39-20.91L442.02,314.73z"/>
	</g>
</g>
<g>
	<g>
		<path d="M69.85,360.95l-17.58,10.5c3.755,6.29,7.89,12.49,12.295,18.44l16.46-12.18C77.02,372.3,73.265,366.66,69.85,360.95z"/>
	</g>
</g>
<g>
	<g>
		<path d="M351.385,431.5c-5.755,3.47-11.725,6.68-17.735,9.54l8.8,18.5c6.615-3.15,13.18-6.68,19.515-10.5L351.385,431.5z"/>
	</g>
</g>
<g>
	<g>
		<path d="M305.5,451.96c-6.375,1.94-12.945,3.59-19.54,4.91l4.01,20.08c7.245-1.44,14.48-3.26,21.49-5.39L305.5,451.96z"/>
	</g>
</g>
<g>
	<g>
		<path d="M140.33,431.62l-10.56,17.54c6.31,3.8,12.89,7.33,19.545,10.48l8.77-18.5C152.04,438.27,146.065,435.07,140.33,431.62z"/>
	</g>
</g>
<g>
	<g>
		<path d="M49.575,314.98l-19.62,5.88c2.12,7.06,4.615,14.09,7.425,20.9l18.93-7.8C53.765,327.78,51.495,321.39,49.575,314.98z"/>
	</g>
</g>
<g>
	<g>
		<path d="M390.93,400.47c-4.74,4.76-9.75,9.33-14.895,13.57l13.03,15.8c5.66-4.67,11.17-9.69,16.385-14.93L390.93,400.47z"/>
	</g>
</g>
<g>
	<g>
		<path d="M255.99,460.55c-6.68,0.32-13.485,0.34-20.165,0.01l-1.01,20.46c3.63,0.18,7.275,0.26,10.945,0.26
			c3.76,0,7.5-0.09,11.21-0.27L255.99,460.55z"/>
	</g>
</g>
<g>
	<g>
		<path d="M186.27,452.04l-5.93,19.6c7.02,2.13,14.26,3.93,21.515,5.37l3.97-20.1C199.23,455.61,192.65,453.97,186.27,452.04z"/>
	</g>
</g>
<g>
	<g>
		<path d="M368.731,245.76C363.777,185.839,315.924,137.983,256,133.029V102.4h-20.48v30.629
			c-59.924,4.954-107.777,52.81-112.731,112.731H92.16v20.48h30.629c4.954,59.93,52.806,107.787,112.731,112.741V409.6H256v-30.619
			c59.925-4.954,107.778-52.811,112.731-112.741h30.629v-20.48H368.731z M348.251,266.24c-4.823,48.648-43.611,87.438-92.251,92.261
			V343.12h-20.48v15.381c-48.64-4.823-87.429-43.613-92.251-92.261h15.376v-20.48h-15.376c4.823-48.639,43.612-87.428,92.251-92.251
			v15.381H256v-15.381c48.639,4.823,87.428,43.612,92.251,92.251h-15.376v20.48H348.251z"/>
	</g>
</g>
<g>
</g>
<g>
</g>
<g>
</g>
<g>
</g>
<g>
</g>
<g>
</g>
<g>
</g>
<g>
</g>
<g>
</g>
<g>
</g>
<g>
</g>
<g>
</g>
<g>
</g>
<g>
</g>
<g>
</g>
</svg>
