<?xml version="1.0" encoding="iso-8859-1"?>
<!-- Generator: Adobe Illustrator 19.0.0, SVG Export Plug-In . SVG Version: 6.00 Build 0)  -->
<svg version="1.1" id="Layer_1" xmlns="http://www.w3.org/2000/svg" xmlns:xlink="http://www.w3.org/1999/xlink" x="0px" y="0px"
	 viewBox="0 0 492.56 492.56" style="enable-background:new 0 0 492.56 492.56;" xml:space="preserve">
<g>
	<g>
		<rect x="235.52" y="410.12" width="20.48" height="20.48"/>
	</g>
</g>
<g>
	<g>
		<rect x="235.52" y="369.16" width="20.48" height="20.48"/>
	</g>
</g>
<g>
	<g>
		<path d="M486.01,123.4h-55.93V51.72H207.05l-53.525-51.2H0v389.12h194.56v51.2c0,28.23,22.97,51.2,51.2,51.2s51.2-22.97,51.2-51.2
			v-51.2h109.36l84.65-252.09l1.59-5.43L486.01,123.4z M20.48,21h124.825l53.525,51.2H409.6v51.2H84.985L20.48,316.445V21z
			 M276.48,440.84c0,16.94-13.78,30.72-30.72,30.72s-30.72-13.78-30.72-30.72v-102.4h61.44V440.84z M236.995,202.55l8.765-26.29
			l8.765,26.29l-8.765,8.77L236.995,202.55z M391.59,369.16h-94.63v-51.2H256v-87.918l21.955-21.952l-17.985-53.97h-28.415
			l-17.99,53.97l21.955,21.952v87.918h-40.96v51.2H24.457l75.278-225.28H467.24L391.59,369.16z"/>
	</g>
</g>
<g>
</g>
<g>
</g>
<g>
</g>
<g>
</g>
<g>
</g>
<g>
</g>
<g>
</g>
<g>
</g>
<g>
</g>
<g>
</g>
<g>
</g>
<g>
</g>
<g>
</g>
<g>
</g>
<g>
</g>
</svg>
