<?xml version="1.0" encoding="iso-8859-1"?>
<!-- Generator: Adobe Illustrator 19.0.0, SVG Export Plug-In . SVG Version: 6.00 Build 0)  -->
<svg version="1.1" id="Layer_1" xmlns="http://www.w3.org/2000/svg" xmlns:xlink="http://www.w3.org/1999/xlink" x="0px" y="0px"
	 viewBox="0 0 491.52 491.52" style="enable-background:new 0 0 491.52 491.52;" xml:space="preserve">
<g>
	<g>
		<path d="M471.04,348.16V40.96H20.48v307.2H0v55.44l46.96,46.96h397.6l46.96-46.96v-55.44H471.04z M40.96,61.44h409.6v286.72H40.96
			V61.44z M471.04,395.12l-34.96,34.96H55.44l-34.96-34.96v-26.48h450.56V395.12z"/>
	</g>
</g>
<g>
	<g>
		<rect x="235.52" y="389.12" width="20.48" height="20.48"/>
	</g>
</g>
<g>
	<g>
		<rect x="194.56" y="389.12" width="20.48" height="20.48"/>
	</g>
</g>
<g>
	<g>
		<rect x="276.48" y="389.12" width="20.48" height="20.48"/>
	</g>
</g>
<g>
	<g>
		<path d="M341.06,200.3l-60.405-17.07l-34.895-52.18l-34.895,52.18L150.46,200.3l38.84,49.3l-2.435,62.72l58.895-21.7l58.895,21.7
			l-2.435-62.72L341.06,200.3z M245.76,268.8l-37.245,13.72l1.545-39.66l-24.56-31.18l38.195-10.79l22.065-33l22.065,33
			l38.195,10.79l-24.56,31.18l1.545,39.66L245.76,268.8z"/>
	</g>
</g>
<g>
	<g>
		<polygon points="416.88,173.85 356.47,156.79 321.58,104.61 288.84,153.57 305.86,164.95 321.58,141.45 343.64,174.45 
			381.84,185.23 357.28,216.42 358.825,256.08 334.16,246.99 327.08,266.21 380.475,285.88 378.04,223.16 		"/>
	</g>
</g>
<g>
	<g>
		<polygon points="169.94,104.61 135.05,156.79 74.64,173.85 113.48,223.16 111.045,285.88 164.44,266.21 157.36,246.99 
			132.695,256.08 134.24,216.42 109.68,185.23 147.88,174.45 169.94,141.45 185.66,164.95 202.68,153.57 		"/>
	</g>
</g>
<g>
</g>
<g>
</g>
<g>
</g>
<g>
</g>
<g>
</g>
<g>
</g>
<g>
</g>
<g>
</g>
<g>
</g>
<g>
</g>
<g>
</g>
<g>
</g>
<g>
</g>
<g>
</g>
<g>
</g>
</svg>
