<?xml version="1.0" encoding="iso-8859-1"?>
<!-- Generator: Adobe Illustrator 19.0.0, SVG Export Plug-In . SVG Version: 6.00 Build 0)  -->
<svg version="1.1" id="Layer_1" xmlns="http://www.w3.org/2000/svg" xmlns:xlink="http://www.w3.org/1999/xlink" x="0px" y="0px"
	 viewBox="0 0 491.52 491.52" style="enable-background:new 0 0 491.52 491.52;" xml:space="preserve">
<g>
	<g>
		<path d="M460.8,230.545V215.04C460.8,96.465,364.33,0,245.76,0S30.72,96.465,30.72,215.04v15.505
			C12.108,244.572,0,266.789,0,291.84c0,42.35,34.45,76.8,76.8,76.8h15.36v-153.6H76.8c-8.986,0-17.579,1.631-25.6,4.48v-4.48
			c0-107.28,87.28-194.56,194.56-194.56s194.56,87.28,194.56,194.56v4.48c-8.021-2.849-16.614-4.48-25.6-4.48h-15.36v153.6h15.36
			c5.259,0,10.396-0.536,15.36-1.548v62.988c0,11.295-9.19,20.48-20.48,20.48H295.073c-4.241-11.894-15.501-20.48-28.833-20.48
			h-30.72c-16.94,0-30.72,13.78-30.72,30.72s13.78,30.72,30.72,30.72h30.72c13.332,0,24.593-8.586,28.833-20.48H409.6
			c22.59,0,40.96-18.375,40.96-40.96v-70.366c24.332-12.9,40.96-38.467,40.96-67.874C491.52,266.789,479.412,244.572,460.8,230.545z
			 M71.68,235.75v112.18c-28.67-2.595-51.2-26.76-51.2-56.09C20.48,262.51,43.01,238.345,71.68,235.75z M266.24,471.04h-30.72
			c-5.65,0-10.24-4.595-10.24-10.24c0-5.645,4.59-10.24,10.24-10.24h30.72c5.65,0,10.24,4.595,10.24,10.24
			C276.48,466.445,271.89,471.04,266.24,471.04z M419.84,347.93V235.75c28.67,2.595,51.2,26.76,51.2,56.09
			C471.04,321.17,448.51,345.335,419.84,347.93z"/>
	</g>
</g>
<g>
	<g>
		<path d="M122.88,143.36V307.2h20.52v37.9l68.09-37.9h157.19V143.36H122.88z M348.2,286.72H206.17l-42.29,23.54v-23.54h-20.52
			V163.84H348.2V286.72z"/>
	</g>
</g>
<g>
	<g>
		<rect x="163.94" y="194.56" width="163.84" height="20.48"/>
	</g>
</g>
<g>
	<g>
		<rect x="194.66" y="235.52" width="102.4" height="20.48"/>
	</g>
</g>
<g>
</g>
<g>
</g>
<g>
</g>
<g>
</g>
<g>
</g>
<g>
</g>
<g>
</g>
<g>
</g>
<g>
</g>
<g>
</g>
<g>
</g>
<g>
</g>
<g>
</g>
<g>
</g>
<g>
</g>
</svg>
