<?xml version="1.0" encoding="iso-8859-1"?>
<!-- Generator: Adobe Illustrator 19.0.0, SVG Export Plug-In . SVG Version: 6.00 Build 0)  -->
<svg version="1.1" id="Layer_1" xmlns="http://www.w3.org/2000/svg" xmlns:xlink="http://www.w3.org/1999/xlink" x="0px" y="0px"
	 viewBox="0 0 491.52 491.52" style="enable-background:new 0 0 491.52 491.52;" xml:space="preserve">
<g>
	<g>
		<path d="M245.76,0C121.54,0,20.48,100.64,20.48,224.35c0,63.28,25.415,120.5,71.68,161.67v95.26c0,3.67,1.965,7.06,5.155,8.89
			c1.575,0.9,3.33,1.35,5.085,1.35c1.795,0,3.585-0.47,5.185-1.41l82.345-48.36c18.16,4.61,36.915,6.95,55.83,6.95
			c124.22,0,225.28-100.64,225.28-224.35S369.98,0,245.76,0z M245.76,428.22c-18.55,0-36.925-2.47-54.62-7.33
			c-2.665-0.73-5.51-0.36-7.9,1.04l-70.6,41.46v-82.03c0-3-1.315-5.85-3.595-7.79C65.14,336.14,40.96,283.15,40.96,224.35
			c0-112.41,91.875-203.87,204.8-203.87s204.8,91.46,204.8,203.87S358.685,428.22,245.76,428.22z"/>
	</g>
</g>
<g>
	<g>
		<path d="M399.36,252.65v-54.74l-35.84-5.98c-2.59-9.15-6.25-17.96-10.93-26.3l21.14-29.61l-38.715-38.7l-29.6,21.13
			c-8.34-4.67-17.145-8.33-26.305-10.93l-5.975-35.84H218.39l-5.975,35.84c-9.16,2.6-17.965,6.26-26.305,10.93l-29.6-21.13
			l-38.715,38.7l21.14,29.61c-4.68,8.34-8.34,17.15-10.93,26.3l-35.845,5.98v54.74l35.845,5.98c2.59,9.15,6.25,17.96,10.93,26.3
			l-21.14,29.61l38.715,38.7l29.6-21.13c8.35,4.68,17.155,8.34,26.305,10.93l5.975,35.84h54.745l5.975-35.84
			c9.15-2.59,17.955-6.25,26.31-10.93l29.595,21.13l38.715-38.7l-21.14-29.61c4.68-8.34,8.34-17.15,10.93-26.3L399.36,252.65z
			 M346.98,312.32l-14.175,14.18l-26.565-18.97l-5.83,3.72c-10.065,6.41-21.005,10.96-32.51,13.5l-6.755,1.5l-5.36,32.15H235.74
			l-5.36-32.15l-6.755-1.5c-11.505-2.54-22.445-7.09-32.51-13.5l-5.83-3.72L158.72,326.5l-14.175-14.18l18.97-26.57l-3.715-5.83
			c-6.415-10.05-10.96-20.99-13.505-32.5l-1.495-6.75l-32.16-5.36v-20.06l32.16-5.36l1.495-6.75c2.545-11.51,7.09-22.45,13.505-32.5
			l3.715-5.83l-18.97-26.57l14.175-14.18l26.565,18.97l5.83-3.72c10.045-6.4,20.985-10.94,32.52-13.5l6.745-1.5l5.36-32.15h20.045
			l5.36,32.15l6.745,1.5c11.535,2.56,22.475,7.1,32.52,13.5l5.83,3.72l26.565-18.97l14.175,14.18l-18.97,26.57l3.715,5.83
			c6.415,10.05,10.96,20.99,13.505,32.5l1.495,6.75l32.155,5.36v20.06l-32.155,5.36l-1.495,6.75
			c-2.545,11.51-7.09,22.45-13.505,32.5l-3.715,5.83L346.98,312.32z"/>
	</g>
</g>
<g>
	<g>
		<path d="M245.76,170.93c-29.97,0-54.35,24.38-54.35,54.35c0,29.97,24.38,54.35,54.35,54.35c29.97,0,54.355-24.38,54.355-54.35
			C300.115,195.31,275.73,170.93,245.76,170.93z M245.76,259.15c-18.675,0-33.87-15.19-33.87-33.87s15.195-33.87,33.87-33.87
			c18.68,0,33.875,15.19,33.875,33.87C279.635,243.96,264.44,259.15,245.76,259.15z"/>
	</g>
</g>
<g>
</g>
<g>
</g>
<g>
</g>
<g>
</g>
<g>
</g>
<g>
</g>
<g>
</g>
<g>
</g>
<g>
</g>
<g>
</g>
<g>
</g>
<g>
</g>
<g>
</g>
<g>
</g>
<g>
</g>
</svg>
