<?xml version="1.0" encoding="iso-8859-1"?>
<!-- Generator: Adobe Illustrator 19.0.0, SVG Export Plug-In . SVG Version: 6.00 Build 0)  -->
<svg version="1.1" id="Layer_1" xmlns="http://www.w3.org/2000/svg" xmlns:xlink="http://www.w3.org/1999/xlink" x="0px" y="0px"
	 viewBox="0 0 491.52 491.52" style="enable-background:new 0 0 491.52 491.52;" xml:space="preserve">
<g>
	<g>
		<path d="M421.92,152.499c4.29-13.52,6.02-27.59,5.15-41.98c-3.66-60.46-56.595-110.03-118.005-110.51
			c-49.8-0.58-94.66,30.48-112.205,75.48c-18.185-14.63-41.625-21.74-65.58-19.48c-34,3.24-63.665,26.34-75.565,58.85
			c-5.275,14.4-6.605,29.2-3.99,44.09C20.45,173.879,0,205.469,0,240.159c0,48.72,36.625,84.46,87.725,86.42
			c12.83,20.11,39.195,27.77,54.12,27.77c0.542,0,0.982-0.052,1.515-0.056v137.226h204.8V336.248
			c44.876,12.782,76.862,0.548,96.35-12.889c32.3-22.27,47.01-58.74,47.01-83.2C491.52,197.829,462.395,162.169,421.92,152.499z
			 M327.68,471.039H163.84v-204.8h118.64l45.2,45.2V471.039z M432.885,306.489c-16.519,11.386-44.376,21.654-84.725,8.371v-11.901
			l-57.2-57.2h-147.6v88.057c-0.531,0.004-0.972,0.053-1.515,0.053c-9.07,0-31.39-5.45-38.66-21.64l-2.71-6.05H92.16
			c-42.205,0-71.68-27.15-71.68-66.02c0-29.11,18.725-55.41,46.6-65.46l8.96-3.22l-2.57-9.18c-3.835-13.66-3.335-27.25,1.475-40.4
			c9.205-25.14,32.085-43,58.285-45.51c23.205-2.22,45.905,7.02,60.62,24.72l13.345,16.06l4.525-20.38
			c9.845-44.33,50.305-76.3,96.39-76.3c0.26,0,0.53,0,0.795,0c50.86,0.4,94.7,41.34,97.725,91.27c0.93,15.46-1.78,30.47-8.06,44.63
			l-5.77,13.01l14.165,1.33c36.53,3.46,64.075,33.3,64.075,69.43C471.04,260.049,457.935,289.229,432.885,306.489z"/>
	</g>
</g>
<g>
	<g>
		<rect x="184.32" y="296.96" width="20.48" height="40.96"/>
	</g>
</g>
<g>
	<g>
		<rect x="225.28" y="296.96" width="20.48" height="40.96"/>
	</g>
</g>
<g>
	<g>
		<rect x="266.24" y="296.96" width="20.48" height="40.96"/>
	</g>
</g>
<g>
	<g>
		<rect x="184.32" y="430.08" width="122.88" height="20.48"/>
	</g>
</g>
<g>
	<g>
		<rect x="184.32" y="389.12" width="81.92" height="20.48"/>
	</g>
</g>
<g>
</g>
<g>
</g>
<g>
</g>
<g>
</g>
<g>
</g>
<g>
</g>
<g>
</g>
<g>
</g>
<g>
</g>
<g>
</g>
<g>
</g>
<g>
</g>
<g>
</g>
<g>
</g>
<g>
</g>
</svg>
