<?xml version="1.0" encoding="iso-8859-1"?>
<!-- Generator: Adobe Illustrator 19.0.0, SVG Export Plug-In . SVG Version: 6.00 Build 0)  -->
<svg version="1.1" id="Layer_1" xmlns="http://www.w3.org/2000/svg" xmlns:xlink="http://www.w3.org/1999/xlink" x="0px" y="0px"
	 viewBox="0 0 491.52 491.52" style="enable-background:new 0 0 491.52 491.52;" xml:space="preserve">
<g>
	<g>
		<path d="M410.9,192.2C409.45,85.97,321.71,0,214.065,0C105.52,0,17.21,87.425,17.26,193.89
			c-0.27,2.785-6.065,68.895,41.085,136.085c20.265,28.89,33.38,56.53,40.085,84.5c4.545,18.94,7.845,51.345,7.845,77.045h20.48
			c0-27.105-3.535-61.515-8.405-81.825c-7.32-30.52-21.465-60.445-43.245-91.48C32.495,257.48,37.59,196.455,37.69,194.88
			c0-96.165,79.12-174.4,176.375-174.4S390.44,98.715,390.44,194.88v2.645l49.42,89.195H395.8v92.16h-81.92v112.64h20.48v-92.16
			h81.92V307.2h58.34L410.9,192.2z"/>
	</g>
</g>
<g>
	<g>
		<path d="M330.071,180.28c-4.909-55.599-49.282-99.973-104.881-104.881V47.57h-20.48v27.829
			c-55.599,4.909-99.973,49.283-104.881,104.881H72v20.48h27.829c4.909,55.594,49.283,99.967,104.881,104.876v27.829h20.48v-27.829
			c55.598-4.909,99.972-49.282,104.881-104.876H357.9v-20.48H330.071z M309.537,200.76c-4.766,44.302-40.045,79.578-84.347,84.343
			v-13.508h-20.48v13.508c-44.302-4.766-79.582-40.041-84.348-84.343h13.513v-20.48h-13.513
			c4.766-44.303,40.045-79.582,84.348-84.348v13.513h20.48V95.932c44.303,4.766,79.582,40.045,84.347,84.348h-13.512v20.48H309.537z
			"/>
	</g>
</g>
<g>
</g>
<g>
</g>
<g>
</g>
<g>
</g>
<g>
</g>
<g>
</g>
<g>
</g>
<g>
</g>
<g>
</g>
<g>
</g>
<g>
</g>
<g>
</g>
<g>
</g>
<g>
</g>
<g>
</g>
</svg>
