<?xml version="1.0" encoding="iso-8859-1"?>
<!-- Generator: Adobe Illustrator 19.0.0, SVG Export Plug-In . SVG Version: 6.00 Build 0)  -->
<svg version="1.1" id="Layer_1" xmlns="http://www.w3.org/2000/svg" xmlns:xlink="http://www.w3.org/1999/xlink" x="0px" y="0px"
	 viewBox="0 0 491.52 491.52" style="enable-background:new 0 0 491.52 491.52;" xml:space="preserve">
<g>
	<g>
		<path d="M471.04,348.16V40.96h-40.96h-102.4H20.48v307.2H0v55.44l46.96,46.96h397.6l46.96-46.96v-55.44H471.04z M348.16,61.44
			h61.44v81.92l-30.72-23.04l-30.72,23.04V61.44z M40.96,61.44h286.72v122.88l51.2-38.4l51.2,38.4V61.44h20.48v286.72H40.96V61.44z
			 M471.04,395.12l-34.96,34.96H55.44l-34.96-34.96v-26.48h450.56V395.12z"/>
	</g>
</g>
<g>
	<g>
		<rect x="194.56" y="389.12" width="20.48" height="20.48"/>
	</g>
</g>
<g>
	<g>
		<rect x="276.48" y="389.12" width="20.48" height="20.48"/>
	</g>
</g>
<g>
	<g>
		<rect x="235.52" y="389.12" width="20.48" height="20.48"/>
	</g>
</g>
<g>
	<g>
		<path d="M271.71,231.99l-48.91-13.8l-28.24-42.24l-28.24,42.24l-48.91,13.8l31.44,39.93l-1.96,50.77l47.67-17.57l47.67,17.57
			l-1.96-50.77L271.71,231.99z M220.59,292.89l-26.03-9.59l-26.03,9.59l1.08-27.71l-17.16-21.79l26.69-7.54l15.42-23.06l15.42,23.06
			l26.69,7.54l-17.16,21.79L220.59,292.89z"/>
	</g>
</g>
<g>
	<g>
		<polygon points="329.84,211.73 280.93,197.92 252.69,155.68 225.6,196.18 242.62,207.56 252.69,192.52 268.11,215.58 
			294.8,223.11 277.63,244.9 278.71,272.62 263.16,266.89 256.08,286.11 300.37,302.42 298.39,251.64 		"/>
	</g>
</g>
<g>
	<g>
		<polygon points="136.43,155.68 108.19,197.92 59.28,211.73 90.73,251.64 88.75,302.42 133.04,286.11 125.96,266.89 110.41,272.62 
			111.49,244.9 94.32,223.11 121.01,215.58 136.43,192.52 146.5,207.56 163.52,196.18 		"/>
	</g>
</g>
<g>
</g>
<g>
</g>
<g>
</g>
<g>
</g>
<g>
</g>
<g>
</g>
<g>
</g>
<g>
</g>
<g>
</g>
<g>
</g>
<g>
</g>
<g>
</g>
<g>
</g>
<g>
</g>
<g>
</g>
</svg>
