<?xml version="1.0" encoding="iso-8859-1"?>
<!-- Generator: Adobe Illustrator 19.0.0, SVG Export Plug-In . SVG Version: 6.00 Build 0)  -->
<svg version="1.1" id="Layer_1" xmlns="http://www.w3.org/2000/svg" xmlns:xlink="http://www.w3.org/1999/xlink" x="0px" y="0px"
	 viewBox="0 0 491.52 491.52" style="enable-background:new 0 0 491.52 491.52;" xml:space="preserve">
<g>
	<g>
		<path d="M421.995,149.69c4.24-13.23,5.945-26.99,5.075-41.05C423.41,49.22,370.475,0.48,309.065,0c-0.315,0-0.62,0-0.93,0
			c-49.57,0-93.79,30.23-111.25,74.14C178.7,59.75,155.22,52.73,131.3,54.96c-33.99,3.18-63.645,25.88-75.56,57.83
			c-5.27,14.12-6.62,28.63-4.05,43.24C20.435,170.71,0,201.76,0,235.89c0,44.66,31.395,78.52,78.12,84.24l2.49-20.32
			c-36.53-4.48-60.13-29.57-60.13-63.92c0-28.47,18.705-54.2,46.54-64.03l9.08-3.21l-2.645-9.26
			c-3.805-13.35-3.31-26.62,1.475-39.44c9.185-24.64,32.06-42.14,58.285-44.59c23.25-2.22,45.98,6.88,60.695,24.26l13.27,15.67
			l4.53-20.03c9.895-43.69,50.62-75.06,97.195-74.78c50.875,0.4,94.71,40.51,97.725,89.42c0.93,15.1-1.77,29.78-8.025,43.63
			l-5.915,13.09l14.3,1.33c36.515,3.39,64.05,32.6,64.05,67.94c0,23.7-19.81,64.29-62.34,76.14l5.5,19.72
			c53.33-14.85,77.32-65,77.32-95.86C491.52,194.28,462.43,159.23,421.995,149.69z"/>
	</g>
</g>
<g>
	<g>
		<path d="M245.76,184.17c-70.545,0-136.86,28.1-186.725,79.12l14.65,14.32c45.98-47.05,107.09-72.96,172.075-72.96
			c64.99,0,126.1,25.91,172.08,72.96l14.65-14.32C382.625,212.27,316.31,184.17,245.76,184.17z"/>
	</g>
</g>
<g>
	<g>
		<path d="M322.765,264.24c-48.725-20.65-105.275-20.65-154.005,0c-24.34,10.32-46.26,25.34-65.145,44.66l14.64,14.32
			c16.985-17.37,36.665-30.87,58.495-40.12c43.65-18.5,94.375-18.5,138.025,0c21.83,9.25,41.51,22.75,58.495,40.12l14.64-14.32
			C369.025,289.58,347.105,274.56,322.765,264.24z"/>
	</g>
</g>
<g>
	<g>
		<path d="M245.76,313.19c-36.875,0-71.525,14.68-97.57,41.33l14.65,14.32c22.155-22.68,51.605-35.17,82.92-35.17
			s60.77,12.49,82.925,35.17l14.65-14.32C317.29,327.87,282.64,313.19,245.76,313.19z"/>
	</g>
</g>
<g>
	<g>
		<path d="M245.76,375.36c-32.025,0-58.08,26.05-58.08,58.08c0,32.03,26.055,58.08,58.08,58.08c32.03,0,58.085-26.05,58.085-58.08
			S277.79,375.36,245.76,375.36z M245.76,471.04c-20.735,0-37.6-16.87-37.6-37.6c0-20.73,16.865-37.6,37.6-37.6
			s37.605,16.87,37.605,37.6C283.365,454.17,266.495,471.04,245.76,471.04z"/>
	</g>
</g>
<g>
</g>
<g>
</g>
<g>
</g>
<g>
</g>
<g>
</g>
<g>
</g>
<g>
</g>
<g>
</g>
<g>
</g>
<g>
</g>
<g>
</g>
<g>
</g>
<g>
</g>
<g>
</g>
<g>
</g>
</svg>
