<?xml version="1.0" encoding="iso-8859-1"?>
<!-- Generator: Adobe Illustrator 19.0.0, SVG Export Plug-In . SVG Version: 6.00 Build 0)  -->
<svg version="1.1" id="Layer_1" xmlns="http://www.w3.org/2000/svg" xmlns:xlink="http://www.w3.org/1999/xlink" x="0px" y="0px"
	 viewBox="0 0 491.52 491.52" style="enable-background:new 0 0 491.52 491.52;" xml:space="preserve">
<g>
	<g>
		<path d="M491.52,368.645V40.96H209.04L168.08,0H0v368.645h235.52v61.435h-20.48v20.48H81.92v20.48h133.12v20.48h61.44v-20.48
			H409.6v-20.48H276.48v-20.48H256v-61.435H491.52z M256,471.04h-20.48v-20.48H256V471.04z M235.52,348.16v0.005H20.48V317.44H256
			v-20.48H20.48V20.48H159.6l40.96,40.96h270.48v286.725H256v-0.005H235.52z"/>
	</g>
</g>
<g>
	<g>
		<rect x="92.16" y="256" width="20.48" height="20.48"/>
	</g>
</g>
<g>
	<g>
		<rect x="51.2" y="256" width="20.48" height="20.48"/>
	</g>
</g>
<g>
	<g>
		<rect x="174.08" y="256" width="20.48" height="20.48"/>
	</g>
</g>
<g>
	<g>
		<rect x="133.12" y="256" width="20.48" height="20.48"/>
	</g>
</g>
<g>
</g>
<g>
</g>
<g>
</g>
<g>
</g>
<g>
</g>
<g>
</g>
<g>
</g>
<g>
</g>
<g>
</g>
<g>
</g>
<g>
</g>
<g>
</g>
<g>
</g>
<g>
</g>
<g>
</g>
</svg>
