<?xml version="1.0" encoding="iso-8859-1"?>
<!-- Generator: Adobe Illustrator 19.0.0, SVG Export Plug-In . SVG Version: 6.00 Build 0)  -->
<svg version="1.1" id="Layer_1" xmlns="http://www.w3.org/2000/svg" xmlns:xlink="http://www.w3.org/1999/xlink" x="0px" y="0px"
	 viewBox="0 0 491.52 491.52" style="enable-background:new 0 0 491.52 491.52;" xml:space="preserve">
<g>
	<g>
		<rect x="92.16" y="71.68" width="81.92" height="20.48"/>
	</g>
</g>
<g>
	<g>
		<rect x="92.16" y="122.88" width="174.08" height="20.48"/>
	</g>
</g>
<g>
	<g>
		<rect x="92.16" y="174.08" width="174.08" height="20.48"/>
	</g>
</g>
<g>
	<g>
		<path d="M430.08,297.984V271.36c0-30.72-25.6-56.32-56.32-56.32c-30.72,0-56.32,25.6-56.32,56.32v81.92
			c0,48.128-38.912,87.04-87.04,87.04c-48.128,0-87.04-38.912-87.04-87.04v-56.32h122.88v-51.2h40.96V77.824L229.376,0H51.2v40.96H0
			v256h122.88v56.32c0,59.392,48.128,107.52,107.52,107.52c59.392,0,107.52-48.128,107.52-107.52v-81.92
			c0-19.456,16.384-35.84,35.84-35.84s35.84,16.384,35.84,35.84v26.624c-34.816,5.12-61.44,34.816-61.44,70.656v51.2
			c0,39.936,31.744,71.68,71.68,71.68c39.936,0,71.68-31.744,71.68-71.68v-51.2C491.52,332.8,464.896,303.104,430.08,297.984z
			 M235.52,34.816l36.864,36.864H235.52V34.816z M71.68,20.48h143.36v71.68h71.68v133.12H71.68V20.48z M20.48,276.48V61.44H51.2
			v184.32h194.56v30.72H20.48z M471.04,419.84c0,28.672-22.528,51.2-51.2,51.2s-51.2-22.528-51.2-51.2v-51.2
			c0-28.672,22.528-51.2,51.2-51.2c28.672,0,51.2,22.528,51.2,51.2V419.84z"/>
	</g>
</g>
<g>
	<g>
		<rect x="409.6" y="348.16" width="20.48" height="30.72"/>
	</g>
</g>
<g>
</g>
<g>
</g>
<g>
</g>
<g>
</g>
<g>
</g>
<g>
</g>
<g>
</g>
<g>
</g>
<g>
</g>
<g>
</g>
<g>
</g>
<g>
</g>
<g>
</g>
<g>
</g>
<g>
</g>
</svg>
