<?xml version="1.0" encoding="iso-8859-1"?>
<!-- Generator: Adobe Illustrator 19.0.0, SVG Export Plug-In . SVG Version: 6.00 Build 0)  -->
<svg version="1.1" id="Layer_1" xmlns="http://www.w3.org/2000/svg" xmlns:xlink="http://www.w3.org/1999/xlink" x="0px" y="0px"
	 viewBox="0 0 491.52 491.52" style="enable-background:new 0 0 491.52 491.52;" xml:space="preserve">
<g>
	<g>
		<rect x="194.56" y="440.32" width="20.48" height="20.48"/>
	</g>
</g>
<g>
	<g>
		<rect x="235.52" y="440.32" width="20.48" height="20.48"/>
	</g>
</g>
<g>
	<g>
		<rect x="276.48" y="440.32" width="20.48" height="20.48"/>
	</g>
</g>
<g>
	<g>
		<path d="M471.04,409.6v-256h-62.277c-3.866-23.987-20.863-43.517-43.758-50.53c2.225-8.41,3.08-17.095,2.555-25.94
			C365.075,34.94,328.97,0.34,287.075,0c-0.21,0-0.425,0-0.64,0c-32.255,0-61.175,19.52-74.11,48.37
			c-11.965-8.39-26.645-12.395-41.59-10.895c-23.55,2.305-44.075,18.655-52.29,41.65c-3.35,9.395-4.39,19.025-3.105,28.73
			c-17.252,9.329-29.232,26.352-32.464,45.745H20.48v256H0v44.06l25.24,37.86h441.04l25.24-37.86V409.6H471.04z M40.96,174.08h41.78
			c4.566,30.183,29.55,51.2,62.85,51.2h69.45V204.8h-69.45c-25.835,0-43.19-16.385-43.19-40.77c0-18.085,11.3-34.41,28.12-40.62
			l8.8-3.25l-2.47-9.055c-2.355-8.615-2.065-16.825,0.885-25.09c5.555-15.57,19.295-26.62,34.995-28.16
			c13.91-1.325,27.525,4.33,36.36,15.235l13.445,16.59l4.52-20.865c6.08-28.08,31.005-48.335,59.38-48.335c0.155,0,0.32,0,0.475,0
			c31.335,0.255,58.345,26.21,60.21,57.855c0.58,9.825-1.1,19.37-4.995,28.375l-5.58,12.9l13.995,1.355
			c21.995,2.135,38.58,20.645,38.58,43.065c0,24.385-17.355,40.77-43.185,40.77H276.48v20.48h69.455
			c33.296,0,58.279-21.017,62.845-51.2h41.78V409.6H40.96V174.08z M471.04,447.46l-15.72,23.58H36.2l-15.72-23.58v-17.38h450.56
			V447.46z"/>
	</g>
</g>
<g>
	<g>
		<polygon points="327.68,296.96 327.68,358.4 163.84,358.4 163.84,296.96 143.36,296.96 143.36,378.88 348.16,378.88 
			348.16,296.96 		"/>
	</g>
</g>
<g>
	<g>
		<polygon points="286.21,272.755 256,302.961 256,163.84 235.52,163.84 235.52,302.96 205.315,272.755 190.835,287.235 
			245.76,342.16 300.69,287.235 		"/>
	</g>
</g>
<g>
</g>
<g>
</g>
<g>
</g>
<g>
</g>
<g>
</g>
<g>
</g>
<g>
</g>
<g>
</g>
<g>
</g>
<g>
</g>
<g>
</g>
<g>
</g>
<g>
</g>
<g>
</g>
<g>
</g>
</svg>
