<?xml version="1.0" encoding="iso-8859-1"?>
<!-- Generator: Adobe Illustrator 19.0.0, SVG Export Plug-In . SVG Version: 6.00 Build 0)  -->
<svg version="1.1" id="Layer_1" xmlns="http://www.w3.org/2000/svg" xmlns:xlink="http://www.w3.org/1999/xlink" x="0px" y="0px"
	 viewBox="0 0 491.52 491.52" style="enable-background:new 0 0 491.52 491.52;" xml:space="preserve">
<g>
	<g>
		<path d="M194.56,117.01l-30.72,37.31v193.84c0,16.94,13.78,30.72,30.72,30.72s30.72-13.78,30.72-30.72V154.32L194.56,117.01z
			 M204.8,348.16c0,5.65-4.595,10.24-10.24,10.24s-10.24-4.59-10.24-10.24v-20.48h20.48V348.16z M204.8,307.2h-20.48V204.8h20.48
			V307.2z M204.8,184.32L204.8,184.32h-20.48v-22.66l10.24-12.43l10.24,12.43V184.32z"/>
	</g>
</g>
<g>
	<g>
		<path d="M319.074,198.205c0.947-0.953,1.964-1.824,2.776-2.925c12.1-16.37,4.025-35.4-2.655-44.07
			c-7.895-10.22-5.63-20.18-4.28-24.01l2.125-7.47l-11.83-9.17l-6.165,3.54l-0.095,0.05c-36.86,21.68-34.37,53.45-31.59,66.11
			c1.417,6.454,4.469,11.963,8.578,16.409c-9.088,12.718-10.773,34.997-10.773,57.021c0,1.25,0.365,125.19,31.795,125.19
			c31.43,0,31.795-123.94,31.795-125.19C328.755,232.551,327.231,211.139,319.074,198.205z M294.07,144.67
			c1.245,6.01,3.9,12.56,8.91,19.05c0.085,0.11,8.375,11.31,2.395,19.4c-1.333,1.798-3.501,2.8-5.883,3.05
			c-0.843-0.068-1.641-0.2-2.532-0.2c-0.189,0-0.351,0.039-0.538,0.042c-0.762-0.154-1.528-0.288-2.272-0.622
			c-3.26-1.46-5.8-5.02-6.79-9.53C285.41,166.98,285.615,155.46,294.07,144.67z M296.96,350.44
			c-5.46-18.1-11.315-57.72-11.315-96.75c0-13.818,1.073-45.384,10.536-47.079c0.741,0.054,1.481,0.229,2.219,0.229
			c0.097,0,0.191-0.032,0.288-0.033c8.606,3.536,9.587,33.53,9.587,46.883C308.275,292.72,302.42,332.34,296.96,350.44z"/>
	</g>
</g>
<g>
	<g>
		<path d="M61.44,0v491.52h368.64V0H61.44z M409.6,471.04H81.92V409.6H409.6V471.04z M409.6,389.12H81.92V102.4H409.6V389.12z
			 M409.6,81.92H81.92V20.48H409.6V81.92z"/>
	</g>
</g>
<g>
	<g>
		<path d="M296.96,430.08h-102.4c-5.655,0-10.24,4.58-10.24,10.24c0,5.66,4.585,10.24,10.24,10.24h102.4
			c5.655,0,10.24-4.58,10.24-10.24C307.2,434.66,302.615,430.08,296.96,430.08z"/>
	</g>
</g>
<g>
	<g>
		<rect x="194.56" y="40.96" width="61.44" height="20.48"/>
	</g>
</g>
<g>
	<g>
		<rect x="276.48" y="40.96" width="20.48" height="20.48"/>
	</g>
</g>
<g>
</g>
<g>
</g>
<g>
</g>
<g>
</g>
<g>
</g>
<g>
</g>
<g>
</g>
<g>
</g>
<g>
</g>
<g>
</g>
<g>
</g>
<g>
</g>
<g>
</g>
<g>
</g>
<g>
</g>
</svg>
