<?xml version="1.0" encoding="iso-8859-1"?>
<!-- Generator: Adobe Illustrator 19.0.0, SVG Export Plug-In . SVG Version: 6.00 Build 0)  -->
<svg version="1.1" id="Layer_1" xmlns="http://www.w3.org/2000/svg" xmlns:xlink="http://www.w3.org/1999/xlink" x="0px" y="0px"
	 viewBox="0 0 491.52 491.52" style="enable-background:new 0 0 491.52 491.52;" xml:space="preserve">
<g>
	<g>
		<rect x="204.8" y="317.44" width="81.92" height="20.48"/>
	</g>
</g>
<g>
	<g>
		<rect x="204.8" y="358.4" width="81.92" height="20.48"/>
	</g>
</g>
<g>
	<g>
		<rect x="204.8" y="399.36" width="81.92" height="20.48"/>
	</g>
</g>
<g>
	<g>
		<path d="M421.92,152.495c4.29-13.52,6.02-27.59,5.15-41.98C423.41,50.06,370.475,0.485,309.065,0.005
			c-0.315,0-0.63-0.005-0.945-0.005c-49.595,0-93.82,30.78-111.26,75.48c-18.19-14.615-41.635-21.775-65.58-19.485
			c-34,3.25-63.665,26.35-75.565,58.855c-5.275,14.405-6.61,29.2-3.99,44.1C20.45,173.865,0,205.455,0,240.155
			c0,48.725,36.625,84.46,87.72,86.415c12.835,20.115,39.2,27.78,54.125,27.78c4.371,0,8.196-0.16,11.755-0.439v45.449
			c0,50.815,41.345,92.16,92.16,92.16s92.16-41.345,92.16-92.16v-66.399c48.287,17.218,82.849,5.763,103.925-7.831
			c34.13-22.015,49.675-59.48,49.675-84.975C491.52,197.82,462.395,162.16,421.92,152.495z M317.44,399.36L317.44,399.36
			c0,39.525-32.155,71.68-71.68,71.68c-39.525,0-71.68-32.155-71.68-71.68V286.72h20.48h102.4h20.48V399.36z M215.04,266.24v-51.2
			h61.44v51.2H215.04z M430.745,307.92c-25.569,16.494-57.582,17.369-92.825,3.011V266.24h-40.96v-71.68h-102.4v71.68H153.6v67.135
			c-3.378,0.329-7.169,0.495-11.755,0.495c-9.065,0-31.39-5.45-38.66-21.645l-2.71-6.05H92.16c-42.205,0-71.68-27.15-71.68-66.02
			c0-29.115,18.725-55.42,46.6-65.45l8.96-3.225l-2.57-9.175c-3.835-13.67-3.335-27.265,1.475-40.415
			c9.205-25.14,32.085-43.005,58.285-45.505c23.27-2.26,45.91,7.025,60.62,24.725l13.345,16.06l4.525-20.385
			c9.845-44.33,50.31-76.305,96.4-76.305c0.26,0,0.525,0.005,0.785,0.005c50.86,0.395,94.7,41.34,97.725,91.265
			c0.93,15.465-1.78,30.48-8.06,44.63l-5.775,13.01l14.17,1.34c36.53,3.45,64.075,33.3,64.075,69.425
			C471.04,260.915,457.2,290.855,430.745,307.92z"/>
	</g>
</g>
<g>
</g>
<g>
</g>
<g>
</g>
<g>
</g>
<g>
</g>
<g>
</g>
<g>
</g>
<g>
</g>
<g>
</g>
<g>
</g>
<g>
</g>
<g>
</g>
<g>
</g>
<g>
</g>
<g>
</g>
</svg>
