<?xml version="1.0" encoding="iso-8859-1"?>
<!-- Generator: Adobe Illustrator 19.0.0, SVG Export Plug-In . SVG Version: 6.00 Build 0)  -->
<svg version="1.1" id="Layer_1" xmlns="http://www.w3.org/2000/svg" xmlns:xlink="http://www.w3.org/1999/xlink" x="0px" y="0px"
	 viewBox="0 0 491.52 491.52" style="enable-background:new 0 0 491.52 491.52;" xml:space="preserve">
<g>
	<g>
		<path d="M245.76,0C121.54,0,20.48,100.64,20.48,224.35c0,63.28,25.415,120.5,71.68,161.67v95.26c0,3.67,1.965,7.06,5.155,8.89
			c1.575,0.9,3.33,1.35,5.085,1.35c1.795,0,3.585-0.47,5.185-1.41l82.345-48.36c18.16,4.61,36.915,6.95,55.83,6.95
			c124.22,0,225.28-100.64,225.28-224.35S369.98,0,245.76,0z M245.76,428.22c-18.55,0-36.925-2.47-54.62-7.33
			c-2.665-0.74-5.51-0.36-7.9,1.04l-70.6,41.46v-82.03c0-3-1.315-5.85-3.595-7.79C65.14,336.14,40.96,283.15,40.96,224.35
			c0-112.41,91.875-203.87,204.8-203.87s204.8,91.46,204.8,203.87S358.685,428.22,245.76,428.22z"/>
	</g>
</g>
<g>
	<g>
		<path d="M341.195,220.76l-60.49-17.08l-34.945-52.25l-34.94,52.25l-60.495,17.08l38.9,49.38l-2.445,62.82l58.98-21.75
			l58.985,21.74l-2.445-62.81L341.195,220.76z M245.76,289.39l-37.32,13.75l1.545-39.74l-24.62-31.26l38.285-10.8l22.11-33.07
			l22.115,33.07l38.28,10.8L281.54,263.4l1.545,39.75L245.76,289.39z"/>
	</g>
</g>
<g>
	<g>
		<polygon points="410.455,194.28 349.96,177.19 315.02,124.94 276.045,183.23 293.065,194.61 315.02,161.78 337.13,194.85 
			375.415,205.66 350.8,236.91 352.35,276.66 318.56,264.21 311.48,283.43 374,306.46 371.56,243.65 		"/>
	</g>
</g>
<g>
	<g>
		<polygon points="176.505,161.78 198.46,194.61 215.48,183.23 176.505,124.94 141.56,177.19 81.07,194.28 119.965,243.65 
			117.525,306.46 180.045,283.43 172.965,264.21 139.175,276.66 140.725,236.91 116.11,205.66 154.39,194.85 		"/>
	</g>
</g>
<g>
</g>
<g>
</g>
<g>
</g>
<g>
</g>
<g>
</g>
<g>
</g>
<g>
</g>
<g>
</g>
<g>
</g>
<g>
</g>
<g>
</g>
<g>
</g>
<g>
</g>
<g>
</g>
<g>
</g>
</svg>
