<?xml version="1.0" encoding="iso-8859-1"?>
<!-- Generator: Adobe Illustrator 19.0.0, SVG Export Plug-In . SVG Version: 6.00 Build 0)  -->
<svg version="1.1" id="Layer_1" xmlns="http://www.w3.org/2000/svg" xmlns:xlink="http://www.w3.org/1999/xlink" x="0px" y="0px"
	 viewBox="0 0 491.52 491.52" style="enable-background:new 0 0 491.52 491.52;" xml:space="preserve">
<g>
	<g>
		<polygon points="289.78,156.47 275.3,170.95 300.245,195.89 275.3,220.84 289.78,235.32 329.205,195.89 		"/>
	</g>
</g>
<g>
	<g>
		<polygon points="216.22,170.95 201.74,156.47 162.315,195.89 201.74,235.32 216.22,220.84 191.275,195.89 		"/>
	</g>
</g>
<g>
	<g>
		
			<rect x="191.072" y="185.685" transform="matrix(0.3417 -0.9398 0.9398 0.3417 -22.4922 359.7389)" width="108.939" height="20.48"/>
	</g>
</g>
<g>
	<g>
		<path d="M368.64,195.89c0-67.76-55.125-122.88-122.88-122.88s-122.88,55.12-122.88,122.88c0,57.135,39.25,105.142,92.16,118.836
			v23.194h-30.72v92.16c0,33.88,27.56,61.44,61.44,61.44s61.44-27.56,61.44-61.44v-92.16h-30.72v-23.194
			C329.39,301.032,368.64,253.025,368.64,195.89z M286.72,358.4v71.68c0,22.59-18.375,40.96-40.96,40.96
			c-22.585,0-40.96-18.37-40.96-40.96V358.4H286.72z M235.52,337.92v-19.669c3.385,0.281,6.784,0.519,10.24,0.519
			s6.855-0.237,10.24-0.519v19.669H235.52z M245.76,298.29c-56.465,0-102.4-45.94-102.4-102.4c0-56.46,45.935-102.4,102.4-102.4
			c56.465,0,102.4,45.94,102.4,102.4S302.225,298.29,245.76,298.29z"/>
	</g>
</g>
<g>
	<g>
		<rect x="235.52" y="419.84" width="20.48" height="20.48"/>
	</g>
</g>
<g>
	<g>
		<rect x="235.52" y="378.88" width="20.48" height="20.48"/>
	</g>
</g>
<g>
	<g>
		<rect x="174.795" y="32.55" transform="matrix(0.9238 -0.3828 0.3828 0.9238 -4.2457 74.4824)" width="20.479" height="30.719"/>
	</g>
</g>
<g>
	<g>
		
			<rect x="88.916" y="118.464" transform="matrix(0.3828 -0.9238 0.9238 0.3828 -62.4311 174.2042)" width="20.481" height="30.722"/>
	</g>
</g>
<g>
	<g>
		<rect x="83.76" y="245.063" transform="matrix(0.9238 -0.3828 0.3828 0.9238 -90.1825 57.3916)" width="30.719" height="20.479"/>
	</g>
</g>
<g>
	<g>
		<rect x="382.14" y="239.904" transform="matrix(0.3827 -0.9239 0.9239 0.3827 6.3876 520.0881)" width="20.481" height="30.721"/>
	</g>
</g>
<g>
	<g>
		
			<rect x="377.019" y="123.558" transform="matrix(0.9238 -0.3828 0.3828 0.9238 -21.3303 160.3992)" width="30.719" height="20.479"/>
	</g>
</g>
<g>
	<g>
		
			<rect x="291.143" y="37.685" transform="matrix(0.3827 -0.9239 0.9239 0.3827 144.9303 312.7564)" width="30.721" height="20.48"/>
	</g>
</g>
<g>
	<g>
		<rect x="235.52" width="20.48" height="51.2"/>
	</g>
</g>
<g>
	<g>
		
			<rect x="116.061" y="49.521" transform="matrix(0.7071 -0.7072 0.7072 0.7071 -16.124 111.3214)" width="20.481" height="51.203"/>
	</g>
</g>
<g>
	<g>
		<rect x="51.2" y="184.32" width="51.2" height="20.48"/>
	</g>
</g>
<g>
	<g>
		
			<rect x="100.709" y="303.801" transform="matrix(0.7071 -0.7071 0.7071 0.7071 -185.0655 181.2938)" width="51.2" height="20.48"/>
	</g>
</g>
<g>
	<g>
		
			<rect x="354.988" y="288.48" transform="matrix(0.7072 -0.7071 0.7071 0.7072 -115.1189 350.2134)" width="20.481" height="51.203"/>
	</g>
</g>
<g>
	<g>
		<rect x="389.12" y="184.32" width="51.2" height="20.48"/>
	</g>
</g>
<g>
	<g>
		<rect x="339.656" y="64.827" transform="matrix(0.7071 -0.7071 0.7071 0.7071 53.9002 280.2615)" width="51.2" height="20.48"/>
	</g>
</g>
<g>
</g>
<g>
</g>
<g>
</g>
<g>
</g>
<g>
</g>
<g>
</g>
<g>
</g>
<g>
</g>
<g>
</g>
<g>
</g>
<g>
</g>
<g>
</g>
<g>
</g>
<g>
</g>
<g>
</g>
</svg>
