<?xml version="1.0" encoding="iso-8859-1"?>
<!-- Generator: Adobe Illustrator 19.0.0, SVG Export Plug-In . SVG Version: 6.00 Build 0)  -->
<svg version="1.1" id="Layer_1" xmlns="http://www.w3.org/2000/svg" xmlns:xlink="http://www.w3.org/1999/xlink" x="0px" y="0px"
	 viewBox="0 0 491.52 491.52" style="enable-background:new 0 0 491.52 491.52;" xml:space="preserve">
<g>
	<g>
		<path d="M399.36,337.92c53.4,0,92.16-37.56,92.16-89.305c0-43.755-29.195-80.615-69.735-90.55c4.39-14.12,6.165-28.805,5.29-43.81
			C423.43,51.76,370.49,0.505,309.07,0.005c-0.32,0-0.635-0.005-0.95-0.005c-49.645,0-93.895,31.86-111.305,78.135
			c-18.185-15.08-41.655-22.44-65.57-20.075c-34.04,3.375-63.7,27.27-75.565,60.88c-5.28,14.95-6.58,30.31-3.89,45.785
			C20.48,180.12,0,212.77,0,248.615c0,51.745,38.76,89.305,92.16,89.305h10.24v92.16H71.68v34.96l26.48,26.48h295.2l26.48-26.48
			v-34.96h-30.72v-92.16H399.36z M399.36,450.56v6l-14.48,14.48H106.64l-14.48-14.48v-6h10.24h286.72H399.36z M122.88,430.08
			L122.88,430.08V256h245.76v174.08H122.88z M102.4,235.52v81.92H92.16c-42.205,0-71.68-28.3-71.68-68.825
			c0-30.395,18.77-57.825,46.71-68.255l8.74-3.265l-2.435-9c-3.87-14.33-3.365-28.57,1.495-42.335
			c9.235-26.155,32.105-44.725,58.275-47.32c23.14-2.33,45.765,7.29,60.47,25.63l13.485,16.82l4.52-21.08
			c9.875-46.085,50.335-79.33,96.38-79.33c0.26,0,0.52,0,0.78,0.005c50.86,0.415,94.7,43.015,97.725,94.965
			c0.945,16.125-1.78,31.805-8.105,46.595l-5.495,12.855l13.91,1.36c36.545,3.58,64.105,34.685,64.105,72.355
			c0,40.525-29.475,68.825-71.68,68.825h-10.24v-81.92H102.4z"/>
	</g>
</g>
<g>
	<g>
		<path d="M355.94,341.63l-94.055-25.65l25.655,94.05l26.96-26.96l23.53,23.53l14.48-14.48l-23.53-23.53L355.94,341.63z
			 M298.01,370.59l-6.935-25.42l25.425,6.93L298.01,370.59z"/>
	</g>
</g>
<g>
</g>
<g>
</g>
<g>
</g>
<g>
</g>
<g>
</g>
<g>
</g>
<g>
</g>
<g>
</g>
<g>
</g>
<g>
</g>
<g>
</g>
<g>
</g>
<g>
</g>
<g>
</g>
<g>
</g>
</svg>
