<?xml version="1.0" encoding="iso-8859-1"?>
<!-- Generator: Adobe Illustrator 19.0.0, SVG Export Plug-In . SVG Version: 6.00 Build 0)  -->
<svg version="1.1" id="Layer_1" xmlns="http://www.w3.org/2000/svg" xmlns:xlink="http://www.w3.org/1999/xlink" x="0px" y="0px"
	 viewBox="0 0 491.52 491.52" style="enable-background:new 0 0 491.52 491.52;" xml:space="preserve">
<g>
	<g>
		<path d="M421.785,168.305c4.39-14.12,6.165-28.805,5.29-43.81C423.43,62,370.49,10.745,309.07,10.245
			c-0.32,0-0.635-0.005-0.95-0.005c-49.645,0-93.895,31.86-111.305,78.135c-18.185-15.075-41.67-22.41-65.57-20.075
			c-34.035,3.375-63.7,27.27-75.57,60.88c-5.28,14.95-6.575,30.315-3.885,45.785C20.48,190.36,0,223.01,0,258.855
			C0,310.6,38.76,348.16,92.16,348.16h20.48v133.12h266.24V348.16h20.48c53.4,0,92.16-37.56,92.16-89.305
			C491.52,215.1,462.325,178.24,421.785,168.305z M358.4,460.8H133.12V317.44H358.4V460.8z M174.08,296.96v-51.2
			c0-39.525,32.155-71.68,71.68-71.68s71.68,32.155,71.68,71.68v51.2H174.08z M399.36,327.68h-20.48v-30.72h-40.96v-51.2
			c0-50.815-41.345-92.16-92.16-92.16s-92.16,41.345-92.16,92.16v51.2h-40.96v30.72H92.16c-42.205,0-71.68-28.3-71.68-68.825
			c0-30.395,18.77-57.825,46.71-68.255l8.74-3.265l-2.435-9c-3.87-14.325-3.37-28.57,1.49-42.335
			c9.24-26.15,32.115-44.725,58.28-47.32c23.135-2.305,45.765,7.29,60.47,25.63l13.485,16.82l4.52-21.08
			c9.875-46.085,50.335-79.33,96.38-79.33c0.26,0,0.52,0,0.78,0.005c50.86,0.415,94.7,43.015,97.725,94.965
			c0.945,16.125-1.78,31.805-8.105,46.595l-5.495,12.855l13.91,1.36c36.545,3.58,64.105,34.685,64.105,72.355
			C471.04,299.38,441.565,327.68,399.36,327.68z"/>
	</g>
</g>
<g>
	<g>
		<rect x="163.84" y="358.4" width="163.84" height="20.48"/>
	</g>
</g>
<g>
	<g>
		<rect x="194.56" y="409.6" width="102.4" height="20.48"/>
	</g>
</g>
<g>
</g>
<g>
</g>
<g>
</g>
<g>
</g>
<g>
</g>
<g>
</g>
<g>
</g>
<g>
</g>
<g>
</g>
<g>
</g>
<g>
</g>
<g>
</g>
<g>
</g>
<g>
</g>
<g>
</g>
</svg>
