<?xml version="1.0" encoding="iso-8859-1"?>
<!-- Generator: Adobe Illustrator 19.0.0, SVG Export Plug-In . SVG Version: 6.00 Build 0)  -->
<svg version="1.1" id="Layer_1" xmlns="http://www.w3.org/2000/svg" xmlns:xlink="http://www.w3.org/1999/xlink" x="0px" y="0px"
	 viewBox="0 0 491.52 491.52" style="enable-background:new 0 0 491.52 491.52;" xml:space="preserve">
<g>
	<g>
		<polygon points="430.08,378.88 430.08,137.359 456.045,163.32 470.525,148.84 419.84,98.16 369.16,148.84 383.64,163.32 
			409.6,137.36 409.6,378.88 327.68,378.88 327.68,188.559 353.645,214.52 368.125,200.04 317.44,149.36 266.76,200.04 
			281.24,214.52 307.2,188.56 307.2,378.88 225.28,378.88 225.28,249.999 251.245,275.96 265.725,261.48 215.04,210.8 
			164.36,261.48 178.84,275.96 204.8,250 204.8,378.88 122.88,378.88 122.88,311.439 148.845,337.4 163.325,322.92 112.64,272.24 
			61.96,322.92 76.44,337.4 102.4,311.44 102.4,378.88 40.96,378.88 40.96,399.36 491.52,399.36 491.52,378.88 		"/>
	</g>
</g>
<g>
	<g>
		<polygon points="20.48,471.04 20.48,0 0,0 0,491.52 491.52,491.52 491.52,471.04 		"/>
	</g>
</g>
<g>
</g>
<g>
</g>
<g>
</g>
<g>
</g>
<g>
</g>
<g>
</g>
<g>
</g>
<g>
</g>
<g>
</g>
<g>
</g>
<g>
</g>
<g>
</g>
<g>
</g>
<g>
</g>
<g>
</g>
</svg>
