<?xml version="1.0" encoding="iso-8859-1"?>
<!-- Generator: Adobe Illustrator 19.0.0, SVG Export Plug-In . SVG Version: 6.00 Build 0)  -->
<svg version="1.1" id="Layer_1" xmlns="http://www.w3.org/2000/svg" xmlns:xlink="http://www.w3.org/1999/xlink" x="0px" y="0px"
	 viewBox="0 0 491.52 491.52" style="enable-background:new 0 0 491.52 491.52;" xml:space="preserve">
<g>
	<g>
		<path d="M432.411,194.16c-34.26-11.15-64.3-24.17-89.28-38.7l-5.15-3l-5.15,3c-25,14.55-55.06,27.58-89.34,38.72l-7.93,2.58
			l0.92,8.3c3.98,35.61,21.88,100.83,97,137.56l4.5,2.2l4.5-2.2c75.07-36.72,92.95-101.96,96.94-137.58l0.92-8.29L432.411,194.16z
			 M337.981,321.95c-55.17-28.85-74.25-74.6-80.04-110.99c30.06-10.22,56.92-21.92,80.04-34.86c23.1,12.92,49.94,24.61,79.98,34.84
			C412.171,247.34,393.101,293.11,337.981,321.95z"/>
	</g>
</g>
<g>
	<g>
		<path d="M490.821,164.42l-0.81-6.95l-6.77-1.77c-100.11-26.21-137.9-60.44-138.24-60.76l-6.99-6.52l-7.02,6.5
			c-0.216,0.199-13.384,12.025-44.21,27.033V68.05c0-38.79-61.63-68.05-143.36-68.05S0.061,29.26,0.061,68.05v242.78
			c0,37.144,56.564,65.476,133.12,67.821v53.316c-8.675,3.093-15.5,9.918-18.593,18.593H41.021v20.48h73.568
			c4.241,11.894,15.501,20.48,28.833,20.48c13.332,0,24.592-8.586,28.833-20.48h73.567v-20.48h-73.567
			c-3.093-8.675-9.918-15.5-18.593-18.593v-53.381c41.705-1.331,79.19-10.661,103.772-25.811
			c19.85,17.904,44.995,33.858,76.928,45.926l3.62,1.37l3.62-1.37C508.841,335.5,491.021,166.12,490.821,164.42z M143.421,20.48
			c72.42,0,122.88,25.07,122.88,47.57s-50.46,47.56-122.88,47.56S20.541,90.55,20.541,68.05S71.001,20.48,143.421,20.48z
			 M20.541,103.966c24.624,19.541,69.376,32.124,122.88,32.124s98.256-12.583,122.88-32.124v27.226
			c-19.446,8.143-43.677,16.679-73.58,24.508l-6.77,1.77l-0.81,6.95c-0.051,0.429-1.214,11.529-0.258,28.88
			c-13.334,1.985-27.134,3.24-41.462,3.24c-72.42,0-122.88-25.06-122.88-47.56V103.966z M20.541,184.896
			c24.624,19.541,69.376,32.124,122.88,32.124c14.911,0,29.458-1.069,43.432-3.086c2.283,16.882,6.688,36.736,14.74,57.367
			c-17.924,3.978-37.723,6.169-58.172,6.169c-72.42,0-122.88-25.07-122.88-47.57V184.896z M143.421,471.04
			c-5.65,0-10.24-4.59-10.24-10.24c0-5.65,4.59-10.24,10.24-10.24c5.65,0,10.24,4.59,10.24,10.24
			C153.661,466.45,149.071,471.04,143.421,471.04z M143.421,358.4c-72.41,0-122.88-25.07-122.88-47.57v-45.011
			c24.624,19.544,69.376,32.131,122.88,32.131c23.444,0,46.202-2.713,66.624-7.624c8.078,16.139,18.667,32.318,32.499,47.567
			C219.087,350.686,182.525,358.4,143.421,358.4z M337.981,378.14c-131.91-52.01-134.53-173.94-133.01-204.51
			c77.74-21.22,117.99-46.82,133.01-58.06c15.02,11.24,55.27,36.84,133.01,58.06C472.511,204.2,469.891,326.13,337.981,378.14z"/>
	</g>
</g>
<g>
</g>
<g>
</g>
<g>
</g>
<g>
</g>
<g>
</g>
<g>
</g>
<g>
</g>
<g>
</g>
<g>
</g>
<g>
</g>
<g>
</g>
<g>
</g>
<g>
</g>
<g>
</g>
<g>
</g>
</svg>
