<?xml version="1.0" encoding="iso-8859-1"?>
<!-- Generator: Adobe Illustrator 19.0.0, SVG Export Plug-In . SVG Version: 6.00 Build 0)  -->
<svg version="1.1" id="Layer_1" xmlns="http://www.w3.org/2000/svg" xmlns:xlink="http://www.w3.org/1999/xlink" x="0px" y="0px"
	 viewBox="0 0 491.512 491.512" style="enable-background:new 0 0 491.512 491.512;" xml:space="preserve">
<g>
	<g>
		<path d="M490.316,112.883c-0.49-4.19-3.5-7.65-7.58-8.72c-166.6-43.6-229.36-100.83-229.96-101.39
			c-3.94-3.7-10.08-3.69-14.02-0.01c-0.62,0.57-63.38,57.8-229.98,101.4c-4.08,1.07-7.09,4.53-7.58,8.72
			c-0.32,2.75-29.06,275.94,240.94,377.97c1.17,0.44,2.39,0.66,3.62,0.66c1.23,0,2.45-0.22,3.62-0.66
			C519.376,388.822,490.636,115.633,490.316,112.883z M245.756,470.313c-230.86-89.49-227.75-305.92-224.82-348.18
			c138.03-37.05,204.41-82.46,224.82-98.54c20.4,16.08,86.75,61.47,224.74,98.52C472.856,163.573,473.886,381.813,245.756,470.313z"
			/>
	</g>
</g>
<g>
	<g>
		<path d="M362.646,131.073c-31.01-31.7-72.52-49.16-116.89-49.16c-44.37,0-85.88,17.46-116.86,49.13
			c-30.3,30.75-46.98,71.49-46.98,114.71c0,43.22,16.68,83.96,46.95,114.68c31.01,31.7,72.52,49.16,116.89,49.16
			c44.37,0,85.88-17.46,116.86-49.13c30.3-30.75,46.98-71.49,46.98-114.71C409.596,202.534,392.916,161.793,362.646,131.073z
			 M191.124,113.177c-8.314,10.743-15.565,23.833-21.389,38.916c-6.483-4.089-12.665-8.701-18.498-13.861
			C163.226,127.628,176.64,119.157,191.124,113.177z M136.874,152.811c8.206,7.36,17.013,13.799,26.341,19.28
			c-5.323,19.193-8.576,40.593-9.336,63.422h-50.987C105.052,204.855,116.859,176.123,136.874,152.811z M102.891,255.993h50.987
			c0.761,22.83,4.014,44.229,9.336,63.422c-9.329,5.482-18.136,11.921-26.342,19.281
			C116.866,315.401,105.053,286.661,102.891,255.993z M151.238,353.272c5.833-5.16,12.015-9.771,18.497-13.86
			c5.824,15.082,13.074,28.171,21.388,38.913C176.644,372.347,163.231,363.878,151.238,353.272z M235.516,387.4
			c-19.203-5.787-36.169-27.402-47.388-57.846c14.862-6.546,30.831-10.457,47.388-11.618V387.4z M235.516,297.457
			c-18.653,1.144-36.714,5.224-53.532,12.341c-4.249-16.487-6.924-34.679-7.639-53.805h61.171V297.457z M235.516,235.512h-61.171
			c0.716-19.126,3.391-37.318,7.639-53.805c16.818,7.117,34.879,11.196,53.532,12.341V235.512z M235.516,173.569
			c-16.557-1.161-32.525-5.073-47.388-11.618c11.218-30.443,28.184-52.058,47.388-57.846V173.569z M388.622,235.512h-50.987
			c-0.761-22.83-4.014-44.229-9.336-63.422c9.329-5.482,18.136-11.921,26.342-19.281
			C374.647,176.105,386.46,204.844,388.622,235.512z M340.275,138.233c-5.833,5.16-12.014,9.771-18.497,13.86
			c-5.824-15.081-13.074-28.171-21.388-38.913C314.869,119.159,328.282,127.628,340.275,138.233z M255.996,104.105
			c19.203,5.787,36.169,27.402,47.388,57.846c-14.862,6.546-30.831,10.457-47.388,11.618V104.105z M255.996,194.048
			c18.653-1.144,36.714-5.224,53.532-12.341c4.249,16.487,6.924,34.679,7.639,53.805h-61.171V194.048z M255.996,255.993
			L255.996,255.993h61.171c-0.716,19.126-3.391,37.318-7.639,53.805c-16.818-7.117-34.879-11.196-53.532-12.341V255.993z
			 M255.996,387.4v-69.464c16.557,1.161,32.525,5.073,47.388,11.618C292.166,359.998,275.199,381.613,255.996,387.4z
			 M300.388,378.328c8.314-10.742,15.566-23.833,21.39-38.916c6.483,4.089,12.664,8.701,18.497,13.861
			C328.288,363.878,314.873,372.349,300.388,378.328z M354.639,338.695c-8.206-7.36-17.013-13.799-26.341-19.28
			c5.323-19.193,8.576-40.593,9.336-63.422h50.987C386.461,286.65,374.654,315.382,354.639,338.695z"/>
	</g>
</g>
<g>
</g>
<g>
</g>
<g>
</g>
<g>
</g>
<g>
</g>
<g>
</g>
<g>
</g>
<g>
</g>
<g>
</g>
<g>
</g>
<g>
</g>
<g>
</g>
<g>
</g>
<g>
</g>
<g>
</g>
</svg>
