<?xml version="1.0" encoding="iso-8859-1"?>
<!-- Generator: Adobe Illustrator 19.0.0, SVG Export Plug-In . SVG Version: 6.00 Build 0)  -->
<svg version="1.1" id="Layer_1" xmlns="http://www.w3.org/2000/svg" xmlns:xlink="http://www.w3.org/1999/xlink" x="0px" y="0px"
	 viewBox="0 0 491.52 491.52" style="enable-background:new 0 0 491.52 491.52;" xml:space="preserve">
<g>
	<g>
		<path d="M421.99,149.69c4.24-13.24,5.95-27,5.08-41.05C423.41,49.22,370.47,0.48,309.06,0c-0.31,0-0.62,0-0.93,0
			c-49.57,0-93.79,30.23-111.25,74.14c-18.18-14.38-41.61-21.41-65.58-19.18c-33.99,3.18-63.65,25.88-75.56,57.83
			c-5.27,14.11-6.62,28.62-4.05,43.24C20.43,170.71,0,201.76,0,235.89c0,49.3,38.76,85.09,92.16,85.09h40.96V300.5H92.16
			c-42.2,0-71.68-26.57-71.68-64.61c0-28.47,18.7-54.2,46.54-64.03l9.08-3.21l-2.64-9.26c-3.81-13.36-3.32-26.62,1.46-39.44
			c9.19-24.64,32.07-42.14,58.29-44.59c23.3-2.27,45.98,6.88,60.69,24.26l13.27,15.67l4.54-20.03
			c9.84-43.44,50.31-74.78,96.42-74.78c0.25,0,0.51,0,0.77,0c50.88,0.4,94.72,40.51,97.73,89.42c0.93,15.09-1.77,29.77-8.03,43.63
			l-5.91,13.09l14.29,1.33c36.52,3.39,64.06,32.59,64.06,67.94c0,32.11-17.05,71.86-97.38,78.79H358.4v20.48l16.14-0.04
			c105.58-9.06,116.98-72.41,116.98-99.23C491.52,194.28,462.43,159.23,421.99,149.69z"/>
	</g>
</g>
<g>
	<g>
		<path d="M286.72,348.16V225.28H204.8v122.88h-56.17l97.13,97.13l97.13-97.13H286.72z M198.07,368.64h27.21V245.76h40.96v122.88
			h27.21l-47.69,47.69L198.07,368.64z"/>
	</g>
</g>
<g>
	<g>
		<path d="M348.16,378.88v71.68c0,11.29-9.19,20.48-20.48,20.48H163.84c-11.29,0-20.48-9.19-20.48-20.48v-71.68h-20.48v71.68
			c0,22.59,18.37,40.96,40.96,40.96h163.84c22.59,0,40.96-18.37,40.96-40.96v-71.68H348.16z"/>
	</g>
</g>
<g>
</g>
<g>
</g>
<g>
</g>
<g>
</g>
<g>
</g>
<g>
</g>
<g>
</g>
<g>
</g>
<g>
</g>
<g>
</g>
<g>
</g>
<g>
</g>
<g>
</g>
<g>
</g>
<g>
</g>
</svg>
