<?xml version="1.0" encoding="iso-8859-1"?>
<!-- Generator: Adobe Illustrator 19.0.0, SVG Export Plug-In . SVG Version: 6.00 Build 0)  -->
<svg version="1.1" id="Layer_1" xmlns="http://www.w3.org/2000/svg" xmlns:xlink="http://www.w3.org/1999/xlink" x="0px" y="0px"
	 viewBox="0 0 491.52 491.52" style="enable-background:new 0 0 491.52 491.52;" xml:space="preserve">
<g>
	<g>
		<path d="M421.99,149.69c4.24-13.23,5.945-26.98,5.08-41.05C423.405,49.21,370.47,0.48,309.065,0c-0.315,0-0.62,0-0.93,0
			C258.56,0,214.34,30.23,196.88,74.14c-18.185-14.38-41.65-21.39-65.58-19.18c-33.985,3.18-63.645,25.88-75.565,57.83
			c-5.27,14.13-6.62,28.63-4.045,43.24C20.435,170.71,0,201.76,0,235.89c0,49.3,38.76,85.09,92.16,85.09h40.96V300.5H92.16
			c-42.205,0-71.68-26.57-71.68-64.61c0-28.47,18.705-54.2,46.54-64.03l9.08-3.21l-2.645-9.26c-3.81-13.34-3.315-26.61,1.47-39.44
			c9.19-24.64,32.07-42.14,58.29-44.59c23.295-2.24,45.98,6.88,60.695,24.26l13.27,15.67l4.53-20.03
			c9.835-43.44,50.31-74.78,96.42-74.78c0.26,0,0.515,0,0.775,0c50.87,0.4,94.705,40.51,97.725,89.42
			c0.93,15.11-1.775,29.79-8.03,43.63l-5.92,13.09l14.305,1.33c36.515,3.39,64.055,32.59,64.055,67.94
			c0,32.11-17.045,71.86-97.38,78.79H358.4v20.48l16.135-0.04c105.585-9.06,116.985-72.41,116.985-99.23
			C491.52,194.28,462.43,159.23,421.99,149.69z"/>
	</g>
</g>
<g>
	<g>
		<polygon points="327.68,440.32 327.68,249.999 354.675,276.99 369.155,262.51 317.44,210.8 265.725,262.51 280.205,276.99 
			307.2,249.999 307.2,460.8 491.52,460.8 491.52,440.32 		"/>
	</g>
</g>
<g>
	<g>
		<polygon points="245.76,139.12 194.045,190.83 208.525,205.31 235.52,178.319 235.52,491.52 256,491.52 256,178.319 
			282.995,205.31 297.475,190.83 		"/>
	</g>
</g>
<g>
	<g>
		<polygon points="174.08,210.8 122.365,262.51 136.845,276.99 163.84,249.999 163.84,440.32 0,440.32 0,460.8 184.32,460.8 
			184.32,249.999 211.315,276.99 225.795,262.51 		"/>
	</g>
</g>
<g>
</g>
<g>
</g>
<g>
</g>
<g>
</g>
<g>
</g>
<g>
</g>
<g>
</g>
<g>
</g>
<g>
</g>
<g>
</g>
<g>
</g>
<g>
</g>
<g>
</g>
<g>
</g>
<g>
</g>
</svg>
