<?xml version="1.0" encoding="iso-8859-1"?>
<!-- Generator: Adobe Illustrator 19.0.0, SVG Export Plug-In . SVG Version: 6.00 Build 0)  -->
<svg version="1.1" id="Layer_1" xmlns="http://www.w3.org/2000/svg" xmlns:xlink="http://www.w3.org/1999/xlink" x="0px" y="0px"
	 viewBox="0 0 491.52 491.52" style="enable-background:new 0 0 491.52 491.52;" xml:space="preserve">
<g>
	<g>
		<path d="M288.18,0c-68.54,0-132.96,27.295-181.4,76.865l14.64,14.31C165.98,45.585,225.2,20.48,288.18,20.48
			s122.2,25.105,166.76,70.695l14.64-14.31C421.14,27.295,356.72,0,288.18,0z"/>
	</g>
</g>
<g>
	<g>
		<path d="M363.02,77.72c-47.38-20.08-102.3-20.08-149.68,0c-23.65,10.025-44.96,24.63-63.31,43.405l14.64,14.32
			c16.45-16.83,35.52-29.905,56.67-38.865c42.28-17.93,91.4-17.93,133.68,0c21.15,8.96,40.22,22.035,56.67,38.865l14.64-14.32
			C407.98,102.35,386.67,87.745,363.02,77.72z"/>
	</g>
</g>
<g>
	<g>
		<path d="M288.18,125.185c-35.86,0-69.56,14.28-94.89,40.205l14.64,14.31c21.45-21.945,49.95-34.035,80.25-34.035
			s58.8,12.09,80.25,34.035l14.64-14.31C357.74,139.465,324.04,125.185,288.18,125.185z"/>
	</g>
</g>
<g>
	<g>
		<path d="M391.73,332.835c3.56-12.015,4.99-24.485,4.24-37.22c-3.2-55.03-49.83-100.165-103.93-100.61
			c-0.27,0-0.55-0.005-0.83-0.005c-43.12,0-81.61,27.275-97.38,67.09c-15.88-12.545-36.01-18.63-56.56-16.59
			c-30.11,2.98-56.35,24.105-66.85,53.82c-4.55,12.905-5.75,26.155-3.59,39.505c-27.17,13.785-44.89,42.365-44.89,73.7
			c0,45.775,34.26,78.995,81.47,78.995h267.14c47.21,0,81.47-33.22,81.47-78.995C452.02,374.34,426.86,342.1,391.73,332.835z
			 M370.55,471.04H103.41c-35.91,0-60.99-24.06-60.99-58.515c0-25.88,15.97-49.225,39.75-58.1l8.74-3.265l-2.43-9
			c-3.3-12.195-2.88-24.315,1.26-36.02c7.86-22.255,27.31-38.06,49.55-40.26c1.93-0.19,3.85-0.285,5.76-0.285
			c17.62,0,34.37,8.005,45.65,22.075l13.49,16.82l4.51-21.08c8.45-39.46,43.09-67.93,82.51-67.93c0.22,0,0.44,0.005,0.67,0.005
			c43.53,0.36,81.06,36.84,83.65,81.325c0.81,13.815-1.53,27.245-6.95,39.91l-5.49,12.855l13.91,1.36
			c31.09,3.045,54.54,29.525,54.54,61.59C431.54,446.98,406.46,471.04,370.55,471.04z"/>
	</g>
</g>
<g>
</g>
<g>
</g>
<g>
</g>
<g>
</g>
<g>
</g>
<g>
</g>
<g>
</g>
<g>
</g>
<g>
</g>
<g>
</g>
<g>
</g>
<g>
</g>
<g>
</g>
<g>
</g>
<g>
</g>
</svg>
