<?xml version="1.0" encoding="iso-8859-1"?>
<!-- Generator: Adobe Illustrator 19.0.0, SVG Export Plug-In . SVG Version: 6.00 Build 0)  -->
<svg version="1.1" id="Layer_1" xmlns="http://www.w3.org/2000/svg" xmlns:xlink="http://www.w3.org/1999/xlink" x="0px" y="0px"
	 viewBox="0 0 491.52 491.52" style="enable-background:new 0 0 491.52 491.52;" xml:space="preserve">
<g>
	<g>
		<path d="M430.08,297.984V281.6c0-36.864-29.696-66.56-66.56-66.56c-36.864,0-66.56,29.696-66.56,66.56v117.76
			c0,39.936-31.744,71.68-71.68,71.68c-39.936,0-71.68-31.744-71.68-71.68v-72.704c72.704-6.144,130.048-66.56,130.048-141.312
			S226.304,50.176,153.6,44.032V20.48h30.72V0H102.4v20.48h30.72v23.552C59.392,49.152,0,110.592,0,185.344
			C0,261.12,59.392,322.56,133.12,327.68v71.68c0,51.2,40.96,92.16,92.16,92.16s92.16-40.96,92.16-92.16V281.6
			c0-25.6,20.48-46.08,46.08-46.08c25.6,0,46.08,20.48,46.08,46.08v16.384c-34.816,5.12-61.44,34.816-61.44,70.656v51.2
			c0,39.936,31.744,71.68,71.68,71.68c39.936,0,71.68-31.744,71.68-71.68v-51.2C491.52,332.8,464.896,303.104,430.08,297.984z
			 M20.48,185.344c0-66.56,54.272-120.832,121.856-120.832s121.856,54.272,121.856,121.856S208.896,307.2,142.336,307.2
			S20.48,252.928,20.48,185.344z M471.04,419.84c0,28.672-22.528,51.2-51.2,51.2s-51.2-22.528-51.2-51.2v-51.2
			c0-28.672,22.528-51.2,51.2-51.2c28.672,0,51.2,22.528,51.2,51.2V419.84z"/>
	</g>
</g>
<g>
	<g>
		<rect x="409.6" y="337.92" width="20.48" height="30.72"/>
	</g>
</g>
<g>
	<g>
		<rect x="133.12" y="81.92" width="20.48" height="20.48"/>
	</g>
</g>
<g>
	<g>
		<rect x="39.936" y="174.08" width="20.48" height="20.48"/>
	</g>
</g>
<g>
	<g>
		<rect x="133.12" y="266.24" width="20.48" height="20.48"/>
	</g>
</g>
<g>
	<g>
		<rect x="224.26" y="174.08" width="20.48" height="20.48"/>
	</g>
</g>
<g>
	<g>
		<path d="M221.184,119.808l-14.336-14.336l-51.2,51.2c-4.096-2.048-8.192-3.072-13.312-3.072c-17.408,0-30.72,13.312-30.72,30.72
			c0,17.408,13.312,30.72,30.72,30.72c17.408,0,30.72-13.312,30.72-30.72c0-5.12-1.024-9.216-3.072-13.312L221.184,119.808z
			 M142.336,194.56c-6.144,0-10.24-4.096-10.24-10.24c0-6.144,4.096-10.24,10.24-10.24c6.144,0,10.24,4.096,10.24,10.24
			C152.576,190.464,147.456,194.56,142.336,194.56z"/>
	</g>
</g>
<g>
</g>
<g>
</g>
<g>
</g>
<g>
</g>
<g>
</g>
<g>
</g>
<g>
</g>
<g>
</g>
<g>
</g>
<g>
</g>
<g>
</g>
<g>
</g>
<g>
</g>
<g>
</g>
<g>
</g>
</svg>
