<?xml version="1.0" encoding="iso-8859-1"?>
<!-- Generator: Adobe Illustrator 19.0.0, SVG Export Plug-In . SVG Version: 6.00 Build 0)  -->
<svg version="1.1" id="Layer_1" xmlns="http://www.w3.org/2000/svg" xmlns:xlink="http://www.w3.org/1999/xlink" x="0px" y="0px"
	 viewBox="0 0 492.54 492.54" style="enable-background:new 0 0 492.54 492.54;" xml:space="preserve">
<g>
	<g>
		<path d="M327.68,389.63v61.44c0,11.29-9.19,20.48-20.48,20.48H184.32c-11.29,0-20.48-9.19-20.48-20.48v-61.44h-20.48v61.44
			c0,22.59,18.37,40.96,40.96,40.96H307.2c22.59,0,40.96-18.37,40.96-40.96v-61.44H327.68z"/>
	</g>
</g>
<g>
	<g>
		<polygon points="289.72,377.87 256,411.59 256,287.1 235.52,287.1 235.52,411.59 201.8,377.87 187.32,392.35 245.76,450.79 
			304.2,392.35 		"/>
	</g>
</g>
<g>
	<g>
		<path d="M486.25,102.91h-45.93V41.47H187.91l-51.2-40.96H0v368.64h215.04v-20.48H24.444L99.54,123.39h368.15l-65.77,225.28H276.48
			v20.48h140.8l73.78-252.72l1.48-5.12L486.25,102.91z M419.84,102.91H84.78l-64.3,192.907V20.99h109.05l51.2,40.96h239.11V102.91z"
			/>
	</g>
</g>
<g>
</g>
<g>
</g>
<g>
</g>
<g>
</g>
<g>
</g>
<g>
</g>
<g>
</g>
<g>
</g>
<g>
</g>
<g>
</g>
<g>
</g>
<g>
</g>
<g>
</g>
<g>
</g>
<g>
</g>
</svg>
