<?xml version="1.0" encoding="iso-8859-1"?>
<!-- Generator: Adobe Illustrator 19.0.0, SVG Export Plug-In . SVG Version: 6.00 Build 0)  -->
<svg version="1.1" id="Layer_1" xmlns="http://www.w3.org/2000/svg" xmlns:xlink="http://www.w3.org/1999/xlink" x="0px" y="0px"
	 viewBox="0 0 491.52 491.52" style="enable-background:new 0 0 491.52 491.52;" xml:space="preserve">
<g>
	<g>
		<path d="M488.52,125.88l-72.405-72.41c-1.92-1.92-4.525-3-7.24-3c-2.715,0-5.32,1.08-7.24,3l-72.41,72.41
			c-2.93,2.93-3.805,7.33-2.22,11.16c1.585,3.825,5.32,6.32,9.46,6.32h31.45v286.72c0,5.655,4.585,10.24,10.24,10.24h61.44
			c5.655,0,10.24-4.585,10.24-10.24V143.36h31.445c4.14,0,7.875-2.495,9.46-6.32C492.325,133.215,491.45,128.81,488.52,125.88z
			 M439.595,122.88c-5.655,0-10.24,4.585-10.24,10.24v286.72h-40.96V133.12c0-5.655-4.585-10.24-10.24-10.24h-16.97l47.69-47.69
			l47.685,47.69H439.595z"/>
	</g>
</g>
<g>
	<g>
		<path d="M345.885,218.04l-72.405-72.41c-3.84-3.84-10.64-3.84-14.48,0l-72.405,72.41c-2.93,2.93-3.805,7.335-2.22,11.16
			c1.585,3.825,5.32,6.32,9.46,6.32h31.445v194.56c0,5.655,4.585,10.24,10.24,10.24h61.44c5.655,0,10.24-4.585,10.24-10.24V235.52
			h31.445c4.14,0,7.875-2.495,9.46-6.32C349.69,225.375,348.815,220.97,345.885,218.04z M296.96,215.04
			c-5.655,0-10.24,4.585-10.24,10.24v194.56h-40.96V225.28c0-5.655-4.585-10.24-10.24-10.24h-16.965l47.685-47.69l47.685,47.69
			H296.96z"/>
	</g>
</g>
<g>
	<g>
		<path d="M203.255,340.92l-72.41-72.41c-3.84-3.84-10.64-3.84-14.48,0L43.96,340.92c-2.93,2.93-3.805,7.335-2.22,11.16
			c1.585,3.825,5.32,6.32,9.46,6.32h31.445v71.68c0,5.655,4.585,10.24,10.24,10.24h61.44c5.655,0,10.24-4.585,10.24-10.24V358.4
			h31.45c4.14,0,7.875-2.495,9.46-6.32C207.06,348.25,206.185,343.85,203.255,340.92z M154.325,337.92
			c-5.655,0-10.24,4.585-10.24,10.24v71.68h-40.96v-71.68c0-5.655-4.585-10.24-10.24-10.24H75.92l47.685-47.69l47.69,47.69H154.325z
			"/>
	</g>
</g>
<g>
	<g>
		<polygon points="20.48,471.04 20.48,0 0,0 0,491.52 491.52,491.52 491.52,471.04 		"/>
	</g>
</g>
<g>
</g>
<g>
</g>
<g>
</g>
<g>
</g>
<g>
</g>
<g>
</g>
<g>
</g>
<g>
</g>
<g>
</g>
<g>
</g>
<g>
</g>
<g>
</g>
<g>
</g>
<g>
</g>
<g>
</g>
</svg>
