<?xml version="1.0" encoding="iso-8859-1"?>
<!-- Generator: Adobe Illustrator 19.0.0, SVG Export Plug-In . SVG Version: 6.00 Build 0)  -->
<svg version="1.1" id="Layer_1" xmlns="http://www.w3.org/2000/svg" xmlns:xlink="http://www.w3.org/1999/xlink" x="0px" y="0px"
	 viewBox="0 0 491.52 491.52" style="enable-background:new 0 0 491.52 491.52;" xml:space="preserve">
<g>
	<g>
		<path d="M207.05,81.92l-53.525-51.2H0V460.8h491.52V81.92H207.05z M20.48,440.32V51.2h124.825l53.525,51.2h272.21v337.92H20.48z"
			/>
	</g>
</g>
<g>
	<g>
		<path d="M350.395,297.47l0.005-41.98l-24.395-4.06c-1.5-4.845-3.43-9.525-5.775-13.995l14.36-20.1l-29.675-29.685l-20.105,14.36
			c-4.475-2.345-9.15-4.275-13.995-5.775l-4.065-24.39h-41.975l-4.065,24.39c-4.845,1.5-9.52,3.43-13.995,5.775l-20.105-14.36
			l-29.675,29.685l14.36,20.1c-2.345,4.47-4.275,9.15-5.78,13.995l-24.385,4.06l-0.005,41.98l24.395,4.06
			c1.5,4.845,3.43,9.525,5.775,13.995l-14.36,20.1l29.675,29.685l20.105-14.36c4.475,2.345,9.15,4.275,13.995,5.775l4.065,24.39
			h41.975l4.065-24.39c4.845-1.5,9.52-3.43,13.995-5.775l20.105,14.36l29.675-29.685l-14.36-20.1c2.345-4.47,4.275-9.15,5.78-13.995
			L350.395,297.47z M309.315,283.55l-1.495,6.75c-1.615,7.27-4.435,14.105-8.39,20.305l-3.715,5.83l12.125,16.98l-5.145,5.145
			l-16.975-12.125l-5.83,3.715c-6.2,3.955-13.03,6.775-20.3,8.38l-6.755,1.495l-3.435,20.61h-7.275l-3.435-20.61l-6.755-1.495
			c-7.27-1.605-14.1-4.425-20.3-8.38l-5.83-3.715L188.83,338.56l-5.145-5.145l12.125-16.98l-3.715-5.83
			c-3.955-6.2-6.775-13.035-8.39-20.305l-1.495-6.75l-20.605-3.43l0.005-7.28l20.6-3.43l1.495-6.75
			c1.615-7.27,4.435-14.105,8.39-20.305l3.715-5.83l-12.125-16.98l5.145-5.145l16.975,12.125l5.83-3.715
			c6.2-3.955,13.03-6.775,20.3-8.38l6.755-1.495l3.435-20.61h7.275l3.435,20.61l6.755,1.495c7.27,1.605,14.1,4.425,20.3,8.38
			l5.83,3.715l16.975-12.125l5.145,5.145l-12.125,16.98l3.715,5.83c3.955,6.2,6.775,13.035,8.39,20.305l1.495,6.75l20.605,3.43
			l-0.005,7.28L309.315,283.55z"/>
	</g>
</g>
<g>
	<g>
		<path d="M271.205,251.035v-0.005c-14.03-14.02-36.865-14.025-50.885,0.005c-14.03,14.03-14.03,36.86,0,50.89
			c7.015,7.015,16.225,10.52,25.44,10.52c9.215,0,18.43-3.505,25.445-10.52C285.235,287.895,285.235,265.065,271.205,251.035z
			 M256.725,287.44c-6.05,6.05-15.885,6.045-21.925,0.005c-6.045-6.045-6.045-15.885,0-21.93c3.02-3.02,6.99-4.53,10.96-4.53
			c3.97,0,7.945,1.51,10.965,4.535C262.77,271.565,262.77,281.4,256.725,287.44z"/>
	</g>
</g>
<g>
	<g>
		<path d="M347.225,175.015c-55.945-55.945-146.97-55.955-202.925,0c-27.105,27.1-42.03,63.135-42.03,101.465
			s14.925,74.365,42.03,101.465c27.975,27.975,64.72,41.96,101.46,41.96c36.745,0,73.49-13.985,101.465-41.96
			c27.105-27.1,42.03-63.135,42.03-101.465C389.255,238.15,374.33,202.115,347.225,175.015z M332.745,363.465
			c-47.96,47.965-126.005,47.965-173.965,0c-23.235-23.235-36.03-54.125-36.03-86.985s12.795-63.75,36.03-86.985
			c23.98-23.98,55.48-35.97,86.985-35.97c31.5,0,63,11.99,86.98,35.97c23.235,23.235,36.03,54.125,36.03,86.985
			S355.98,340.23,332.745,363.465z"/>
	</g>
</g>
<g>
</g>
<g>
</g>
<g>
</g>
<g>
</g>
<g>
</g>
<g>
</g>
<g>
</g>
<g>
</g>
<g>
</g>
<g>
</g>
<g>
</g>
<g>
</g>
<g>
</g>
<g>
</g>
<g>
</g>
</svg>
