<?xml version="1.0" encoding="iso-8859-1"?>
<!-- Generator: Adobe Illustrator 19.0.0, SVG Export Plug-In . SVG Version: 6.00 Build 0)  -->
<svg version="1.1" id="Layer_1" xmlns="http://www.w3.org/2000/svg" xmlns:xlink="http://www.w3.org/1999/xlink" x="0px" y="0px"
	 viewBox="0 0 491.52 491.52" style="enable-background:new 0 0 491.52 491.52;" xml:space="preserve">
<g>
	<g>
		<path d="M421.99,149.695c4.24-13.23,5.945-26.99,5.08-41.06c-3.665-59.43-56.605-108.16-118.005-108.63c-0.32,0-0.635,0-0.95,0
			c-49.565,0-93.775,30.22-111.235,74.14c-18.175-14.38-41.655-21.39-65.58-19.19c-33.985,3.19-63.645,25.89-75.565,57.83
			c-5.27,14.13-6.62,28.64-4.045,43.25C20.435,170.715,0,201.775,0,235.895c0,46.087,33.88,80.342,81.92,84.614v171.006h286.72
			v-51.2h40.96V329.323c70.875-17.774,81.92-65.706,81.92-93.428C491.52,194.275,462.43,159.215,421.99,149.695z M348.16,471.035
			H102.4v-204.8h83.945l33.05,30.72H348.16V471.035z M389.12,419.835h-20.48v-143.36H227.445l-33.05-30.72H143.36v-20.48h63.465
			l33.05,30.72H389.12V419.835z M409.6,308.218v-72.703H247.925l-33.05-30.72H122.88v40.96H81.92v54.13
			c-36.636-3.963-61.44-29.12-61.44-63.99c0-28.47,18.705-54.2,46.545-64.05l9.075-3.21l-2.645-9.25
			c-3.81-13.34-3.315-26.61,1.47-39.44c9.19-24.63,32.07-42.13,58.285-44.59c23.3-2.22,45.985,6.89,60.7,24.26l13.27,15.66
			l4.53-20.02c9.835-43.44,50.3-74.77,96.405-74.77c0.26,0,0.53,0,0.79,0c50.87,0.39,94.705,40.5,97.725,89.41
			c0.93,15.11-1.775,29.79-8.03,43.64l-5.915,13.09l14.3,1.33c36.52,3.38,64.055,32.59,64.055,67.94
			C471.04,261.447,459.949,293.772,409.6,308.218z"/>
	</g>
</g>
<g>
	<g>
		<rect x="204.8" y="430.08" width="20.48" height="20.48"/>
	</g>
</g>
<g>
	<g>
		<rect x="122.88" y="430.08" width="20.48" height="20.48"/>
	</g>
</g>
<g>
	<g>
		<rect x="163.84" y="430.08" width="20.48" height="20.48"/>
	</g>
</g>
<g>
</g>
<g>
</g>
<g>
</g>
<g>
</g>
<g>
</g>
<g>
</g>
<g>
</g>
<g>
</g>
<g>
</g>
<g>
</g>
<g>
</g>
<g>
</g>
<g>
</g>
<g>
</g>
<g>
</g>
</svg>
