<?xml version="1.0" encoding="iso-8859-1"?>
<!-- Generator: Adobe Illustrator 19.0.0, SVG Export Plug-In . SVG Version: 6.00 Build 0)  -->
<svg version="1.1" id="Layer_1" xmlns="http://www.w3.org/2000/svg" xmlns:xlink="http://www.w3.org/1999/xlink" x="0px" y="0px"
	 viewBox="0 0 492.94 492.94" style="enable-background:new 0 0 492.94 492.94;" xml:space="preserve">
<g>
	<g>
		<path d="M491.435,215C476.94,103.805,389.09,16.01,277.805,1.505L266.24,0v145.12l7.45,2.11
			c34.115,9.67,62.385,37.885,72.02,71.885l2.11,7.45h145.12L491.435,215z M363.04,206.085c-12.515-35.355-40.87-63.655-76.32-76.19
			V23.625c92.74,16.96,165.64,89.805,182.595,182.46H363.04z"/>
	</g>
</g>
<g>
	<g>
		<path d="M347.82,267.66l-2.11,7.45c-12.53,44.22-52.28,73.93-98.915,73.93c-8.17,0-16.63-1.09-25.14-3.235l-7.505-1.89
			l-72.62,125.78l10.78,4.475c30.025,12.455,61.815,18.77,94.485,18.77c123.585,0,228.755-91.88,244.64-213.715l1.505-11.565H347.82
			z M246.795,472.46c-26.025,0-51.44-4.37-75.705-13l53.18-92.11c7.59,1.44,15.14,2.17,22.525,2.17
			c53.245,0,99.02-32.39,116.255-81.38h106.26C449.825,394.005,356.175,472.46,246.795,472.46z"/>
	</g>
</g>
<g>
	<g>
		<path d="M213.715,1.505C91.88,17.39,0,122.56,0,246.145c0,77.245,35.205,148.6,96.585,195.77l9.265,7.12l72.575-125.695
			l-5.395-5.55c-18.785-19.34-29.13-44.785-29.13-71.645c0-46.635,29.71-86.385,73.93-98.915l7.45-2.11V0L213.715,1.505z
			 M32.451,174.047l100.958,22.82c-5.261,12.376-8.603,25.763-9.629,39.809L22.993,213.894
			C24.963,200.202,28.129,186.887,32.451,174.047z M20.48,246.145c0-3.938,0.321-7.806,0.523-11.7l102.979,23.279
			c1.479,15.841,6.061,31.043,13.304,44.996l-114.68-25.924C21.251,266.722,20.48,256.502,20.48,246.145z M99.95,418.3
			c-17.17-14.622-31.761-31.464-43.641-49.893l64.085,14.484L99.95,418.3z M152.564,327.176l-21.444,37.14l-88.304-19.958
			c-7.004-14.533-12.429-29.816-16.172-45.647L152.564,327.176z M143.405,178.125l-103.48-23.391
			c5.79-13.098,12.677-25.616,20.744-37.303l116.544,26.345C163.646,152.889,152.214,164.582,143.405,178.125z M204.8,129.011
			L74.424,99.539c10.654-12.569,22.71-23.888,35.856-33.883l94.52,21.367V129.011z M204.8,66.021l-71.076-16.067
			C155.36,37.437,179.255,28.332,204.8,23.63V66.021z"/>
	</g>
</g>
<g>
</g>
<g>
</g>
<g>
</g>
<g>
</g>
<g>
</g>
<g>
</g>
<g>
</g>
<g>
</g>
<g>
</g>
<g>
</g>
<g>
</g>
<g>
</g>
<g>
</g>
<g>
</g>
<g>
</g>
</svg>
