<?xml version="1.0" encoding="iso-8859-1"?>
<!-- Generator: Adobe Illustrator 19.0.0, SVG Export Plug-In . SVG Version: 6.00 Build 0)  -->
<svg version="1.1" id="Layer_1" xmlns="http://www.w3.org/2000/svg" xmlns:xlink="http://www.w3.org/1999/xlink" x="0px" y="0px"
	 viewBox="0 0 495.52 495.52" style="enable-background:new 0 0 495.52 495.52;" xml:space="preserve">
<g>
	<g>
		<path d="M247.76,143.36c-50.815,0-92.16,41.345-92.16,92.16c0,36.091,20.907,67.318,51.2,82.434v25.966l-29.84,29.84l35.84,35.84
			l-16.24,16.24v29.175l33.445,33.445l7.965,7.06l40.51-40.505V322.302c35.735-12.693,61.44-46.751,61.44-86.782
			C339.92,184.705,298.575,143.36,247.76,143.36z M258,446.535l-20.48,20.475l-20.48-20.475V434.32l24.72-24.72l-35.84-35.84
			l21.36-21.36v-27.093c6.597,1.505,13.433,2.373,20.48,2.373c3.465,0,6.873-0.23,10.24-0.604V446.535z M247.76,307.2
			c-39.525,0-71.68-32.155-71.68-71.68c0-39.525,32.155-71.68,71.68-71.68c39.525,0,71.68,32.155,71.68,71.68
			C319.44,275.045,287.285,307.2,247.76,307.2z"/>
	</g>
</g>
<g>
	<g>
		<path d="M247.76,174.08c-16.94,0-30.72,13.78-30.72,30.72s13.78,30.72,30.72,30.72s30.72-13.78,30.72-30.72
			S264.7,174.08,247.76,174.08z M247.76,215.04c-5.645,0-10.24-4.595-10.24-10.24s4.595-10.24,10.24-10.24S258,199.155,258,204.8
			S253.405,215.04,247.76,215.04z"/>
	</g>
</g>
<g>
	<g>
		<path d="M423.78,158.065c4.385-14.115,6.165-28.8,5.295-43.81c-3.65-62.5-56.59-113.75-118.005-114.25
			c-0.32,0-0.635-0.005-0.95-0.005c-49.65,0-93.9,31.86-111.31,78.135c-18.19-15.08-41.705-22.445-65.565-20.075
			c-34.035,3.375-63.7,27.27-75.57,60.88c-5.28,14.96-6.58,30.32-3.885,45.785C22.485,180.12,2,212.775,2,248.615
			c0,51.745,38.76,89.305,92.16,89.305h71.68v-20.48H94.16c-42.205,0-71.68-28.3-71.68-68.825c0-30.395,18.77-57.825,46.71-68.255
			l8.74-3.265l-2.435-9.005c-3.875-14.315-3.37-28.56,1.49-42.33c9.24-26.15,32.115-44.725,58.28-47.32
			c23.145-2.295,45.765,7.29,60.47,25.63l13.485,16.82l4.52-21.08c9.87-46.085,50.33-79.33,96.38-79.33c0.26,0,0.52,0,0.78,0.005
			c50.855,0.415,94.695,43.015,97.725,94.96c0.94,16.135-1.79,31.81-8.11,46.6L395.02,174.9l13.91,1.36
			c36.55,3.58,64.11,34.685,64.11,72.355c0,40.525-29.475,68.825-71.68,68.825h-81.92v20.48h81.92c53.4,0,92.16-37.56,92.16-89.305
			C493.52,204.855,464.325,168,423.78,158.065z"/>
	</g>
</g>
<g>
</g>
<g>
</g>
<g>
</g>
<g>
</g>
<g>
</g>
<g>
</g>
<g>
</g>
<g>
</g>
<g>
</g>
<g>
</g>
<g>
</g>
<g>
</g>
<g>
</g>
<g>
</g>
<g>
</g>
</svg>
