<?xml version="1.0" encoding="iso-8859-1"?>
<!-- Generator: Adobe Illustrator 19.0.0, SVG Export Plug-In . SVG Version: 6.00 Build 0)  -->
<svg version="1.1" id="Layer_1" xmlns="http://www.w3.org/2000/svg" xmlns:xlink="http://www.w3.org/1999/xlink" x="0px" y="0px"
	 viewBox="0 0 330 330" style="enable-background:new 0 0 330 330;" xml:space="preserve">
<path id="XMLID_12_" d="M255,90.001c-22.952,0-43.517,10.373-57.285,26.666H180v-10.667c0-8.284-6.716-15-15-15s-15,6.716-15,15
	v10.667h-17.715C118.517,100.374,97.952,90.001,75,90.001c-41.355,0-75,33.644-75,74.999c0,41.355,33.645,75,75,75
	c22.951,0,43.517-10.373,57.285-26.666h65.43c13.769,16.293,34.334,26.666,57.285,26.666c41.355,0,75-33.645,75-75
	C330,123.645,296.355,90.001,255,90.001z M75,209.999c-24.813,0-45-20.187-45-45c0-24.813,20.187-44.999,45-44.999
	s45,20.186,45,44.999C120,189.813,99.813,209.999,75,209.999z M147.725,183.333c1.48-5.87,2.275-12.01,2.275-18.334
	c0-6.323-0.795-12.463-2.275-18.333h34.551c-1.48,5.87-2.275,12.01-2.275,18.333c0,6.324,0.795,12.464,2.275,18.334H147.725z
	 M255,209.999c-24.814,0-45-20.187-45-45c0-24.813,20.186-44.999,45-44.999s45,20.186,45,44.999
	C300,189.813,279.814,209.999,255,209.999z"/>
<g>
</g>
<g>
</g>
<g>
</g>
<g>
</g>
<g>
</g>
<g>
</g>
<g>
</g>
<g>
</g>
<g>
</g>
<g>
</g>
<g>
</g>
<g>
</g>
<g>
</g>
<g>
</g>
<g>
</g>
</svg>
