<?xml version="1.0" encoding="iso-8859-1"?>
<!-- Generator: Adobe Illustrator 19.0.0, SVG Export Plug-In . SVG Version: 6.00 Build 0)  -->
<svg version="1.1" id="Layer_1" xmlns="http://www.w3.org/2000/svg" xmlns:xlink="http://www.w3.org/1999/xlink" x="0px" y="0px"
	 viewBox="0 0 330 330" style="enable-background:new 0 0 330 330;" xml:space="preserve">
<g id="XMLID_25_">
	<path id="XMLID_26_" d="M245,109.98h-1.667C229.162,74.155,194.357,50.02,155,50.02c-50.928,0-92.626,40.282-94.902,90.659
		C26.17,145.501,0,174.742,0,209.98c0,38.598,31.402,70,70,70h175c46.869,0,85-38.13,85-85C330,148.111,291.869,109.98,245,109.98z
		 M245,249.98H70c-22.056,0-40-17.944-40-39.999c0-22.056,17.944-40,40-40h5c8.284,0,15-6.716,15-15v-9.96c0-35.841,29.159-65,65-65
		c29.664,0,55.547,20.029,62.944,48.707c1.708,6.625,7.683,11.254,14.525,11.254H245c30.327,0,55,24.673,55,55
		C300,225.307,275.327,249.98,245,249.98z"/>
	<path id="XMLID_29_" d="M202.5,150c0-4.142-3.358-7.5-7.5-7.5h-60c-4.142,0-7.5,3.358-7.5,7.5v37.673
		c-0.827-0.121-1.66-0.204-2.5-0.204c-4.614,0-9.127,1.87-12.382,5.129c-3.26,3.264-5.13,7.778-5.13,12.385
		c0,4.611,1.872,9.126,5.129,12.378c3.258,3.263,7.772,5.135,12.384,5.135c4.613,0,9.128-1.871,12.375-5.122
		c3.266-3.255,5.139-7.771,5.139-12.392c0-0.098-0.013-0.194-0.015-0.291V157.5h45v30.173c-0.827-0.121-1.661-0.204-2.501-0.204
		c-4.614,0-9.127,1.87-12.382,5.129c-3.26,3.264-5.13,7.778-5.13,12.385c0,4.611,1.872,9.126,5.129,12.378
		c3.258,3.263,7.772,5.135,12.384,5.135c4.613,0,9.128-1.871,12.376-5.122c3.266-3.255,5.139-7.771,5.139-12.392
		c0-0.091-0.012-0.181-0.014-0.272V150z"/>
</g>
<g>
</g>
<g>
</g>
<g>
</g>
<g>
</g>
<g>
</g>
<g>
</g>
<g>
</g>
<g>
</g>
<g>
</g>
<g>
</g>
<g>
</g>
<g>
</g>
<g>
</g>
<g>
</g>
<g>
</g>
</svg>
