<?xml version="1.0" encoding="iso-8859-1"?>
<!-- Generator: Adobe Illustrator 19.0.0, SVG Export Plug-In . SVG Version: 6.00 Build 0)  -->
<svg version="1.1" id="Layer_1" xmlns="http://www.w3.org/2000/svg" xmlns:xlink="http://www.w3.org/1999/xlink" x="0px" y="0px"
	 viewBox="0 0 330 330" style="enable-background:new 0 0 330 330;" xml:space="preserve">
<path id="XMLID_109_" d="M245,109.98h-1.667C229.162,74.155,194.357,50.02,155,50.02c-50.928,0-92.626,40.283-94.902,90.659
	C26.17,145.501,0,174.742,0,209.98c0,38.598,31.402,70,70,70h175c46.869,0,85-38.131,85-85C330,148.111,291.869,109.98,245,109.98z
	 M245,249.98H70c-22.056,0-40-17.944-40-40c0-22.056,17.944-40,40-40h5c8.284,0,15-6.716,15-15v-9.961c0-35.841,29.159-65,65-65
	c29.664,0,55.547,20.029,62.944,48.707c1.708,6.625,7.683,11.254,14.525,11.254H245c30.327,0,55,24.673,55,55
	C300,225.308,275.327,249.98,245,249.98z"/>
<g>
</g>
<g>
</g>
<g>
</g>
<g>
</g>
<g>
</g>
<g>
</g>
<g>
</g>
<g>
</g>
<g>
</g>
<g>
</g>
<g>
</g>
<g>
</g>
<g>
</g>
<g>
</g>
<g>
</g>
</svg>
