<?xml version="1.0" encoding="iso-8859-1"?>
<!-- Generator: Adobe Illustrator 19.0.0, SVG Export Plug-In . SVG Version: 6.00 Build 0)  -->
<svg version="1.1" id="Layer_1" xmlns="http://www.w3.org/2000/svg" xmlns:xlink="http://www.w3.org/1999/xlink" x="0px" y="0px"
	 viewBox="0 0 330 330" style="enable-background:new 0 0 330 330;" xml:space="preserve">
<g id="XMLID_30_">
	<path id="XMLID_31_" d="M245,109.98h-1.667C229.162,74.155,194.356,50.02,155,50.02c-50.929,0-92.625,40.282-94.902,90.658
		C26.17,145.501,0,174.741,0,209.98c0,38.598,31.401,70,70,70h175c46.869,0,85-38.131,85-85C330,148.111,291.869,109.98,245,109.98z
		 M245,249.98H70c-22.056,0-40-17.944-40-40c0-22.056,17.944-40,40-40h5c8.284,0,15-6.716,15-15v-9.96c0-35.841,29.159-65,65-65
		c29.664,0,55.548,20.029,62.944,48.706c1.709,6.625,7.683,11.254,14.524,11.254H245c30.327,0,55,24.673,55,55
		C300,225.307,275.327,249.98,245,249.98z"/>
	<path id="XMLID_86_" d="M145.606,164.393c-5.859-5.858-15.356-5.857-21.214,0.001l-20,20.002
		c-2.813,2.813-4.393,6.628-4.393,10.607c0,3.979,1.581,7.794,4.394,10.606l20,19.998c2.93,2.929,6.768,4.393,10.606,4.393
		s7.679-1.465,10.607-4.394c5.857-5.858,5.856-15.355-0.001-21.213l-9.393-9.392l9.395-9.395
		C151.465,179.748,151.464,170.25,145.606,164.393z"/>
	<path id="XMLID_87_" d="M205.575,164.361c-5.857-5.857-15.355-5.857-21.213,0.001c-5.858,5.858-5.857,15.355,0,21.213l9.425,9.424
		l-9.395,9.395c-5.857,5.858-5.856,15.355,0.001,21.213c2.93,2.929,6.768,4.393,10.606,4.393s7.679-1.465,10.607-4.394l20-20.002
		c5.857-5.858,5.856-15.355-0.001-21.213L205.575,164.361z"/>
</g>
<g>
</g>
<g>
</g>
<g>
</g>
<g>
</g>
<g>
</g>
<g>
</g>
<g>
</g>
<g>
</g>
<g>
</g>
<g>
</g>
<g>
</g>
<g>
</g>
<g>
</g>
<g>
</g>
<g>
</g>
</svg>
