<?xml version="1.0" encoding="iso-8859-1"?>
<!-- Generator: Adobe Illustrator 19.0.0, SVG Export Plug-In . SVG Version: 6.00 Build 0)  -->
<svg version="1.1" id="Layer_1" xmlns="http://www.w3.org/2000/svg" xmlns:xlink="http://www.w3.org/1999/xlink" x="0px" y="0px"
	 viewBox="0 0 330 330" style="enable-background:new 0 0 330 330;" xml:space="preserve">
<g id="XMLID_13_">
	<path id="XMLID_14_" d="M330,144.961c0-46.869-38.131-85-85-85h-1.667C229.162,24.136,194.356,0,155,0
		c-50.928,0-92.626,40.283-94.902,90.659C26.17,95.482,0,124.722,0,159.961c0,38.598,31.402,70,70,70h50.12
		C122.72,285.564,168.766,330,225,330c57.897,0,105-47.103,105-105c0-15.009-3.172-29.289-8.87-42.215
		C326.949,171.084,330,158.165,330,144.961z M30,159.961c0-22.056,17.944-40,40-40h5c8.284,0,15-6.716,15-15V95
		c0-35.841,29.159-65,65-65c29.664,0,55.547,20.029,62.944,48.707c1.708,6.625,7.683,11.254,14.524,11.254H245
		c30.327,0,55,24.673,55,55c0,2.104-0.125,4.194-0.36,6.266C280.593,131.959,254.168,120,225,120
		c-49.27,0-90.716,34.114-101.975,79.961H70C47.944,199.961,30,182.017,30,159.961z M225,300c-41.355,0-75-33.645-75-75
		s33.645-75,75-75s75,33.645,75,75S266.355,300,225,300z"/>
	<path id="XMLID_18_" d="M255,210h-15v-15c0-8.284-6.716-15-15-15s-15,6.716-15,15v15h-15c-8.284,0-15,6.716-15,15s6.716,15,15,15
		h15v15c0,8.284,6.716,15,15,15s15-6.716,15-15v-15h15c8.284,0,15-6.716,15-15S263.284,210,255,210z"/>
</g>
<g>
</g>
<g>
</g>
<g>
</g>
<g>
</g>
<g>
</g>
<g>
</g>
<g>
</g>
<g>
</g>
<g>
</g>
<g>
</g>
<g>
</g>
<g>
</g>
<g>
</g>
<g>
</g>
<g>
</g>
</svg>
