<?xml version="1.0" encoding="iso-8859-1"?>
<!-- Generator: Adobe Illustrator 19.0.0, SVG Export Plug-In . SVG Version: 6.00 Build 0)  -->
<svg version="1.1" id="Layer_1" xmlns="http://www.w3.org/2000/svg" xmlns:xlink="http://www.w3.org/1999/xlink" x="0px" y="0px"
	 viewBox="0 0 330 330" style="enable-background:new 0 0 330 330;" xml:space="preserve">
<path id="XMLID_103_" d="M245,59.961h-1.667C229.162,24.136,194.356,0,155,0c-50.928,0-92.626,40.283-94.902,90.659
	C26.17,95.482,0,124.722,0,159.961c0,38.598,31.402,70,70,70h80V315c0,8.284,6.716,15,15,15s15-6.716,15-15v-85.039h65
	c46.869,0,85-38.131,85-85C330,98.092,291.869,59.961,245,59.961z M245,199.961h-65v-58.746l19.394,19.393
	c2.929,2.929,6.768,4.394,10.606,4.394s7.678-1.464,10.606-4.394c5.858-5.858,5.858-15.355,0-21.213l-44.997-44.998
	c-0.351-0.35-0.72-0.682-1.104-0.997c-0.171-0.141-0.353-0.264-0.529-0.396c-0.214-0.161-0.424-0.327-0.647-0.477
	c-0.216-0.144-0.439-0.269-0.659-0.401c-0.199-0.119-0.394-0.244-0.599-0.354c-0.227-0.121-0.459-0.224-0.69-0.332
	c-0.213-0.1-0.422-0.207-0.64-0.297c-0.226-0.093-0.456-0.169-0.686-0.251c-0.232-0.083-0.462-0.172-0.699-0.245
	c-0.231-0.07-0.467-0.121-0.7-0.18c-0.24-0.06-0.479-0.127-0.723-0.176c-0.273-0.054-0.549-0.087-0.823-0.125
	c-0.21-0.03-0.415-0.07-0.628-0.091c-0.986-0.097-1.979-0.097-2.965,0c-0.212,0.021-0.418,0.061-0.628,0.091
	c-0.275,0.039-0.55,0.071-0.823,0.125c-0.245,0.049-0.482,0.116-0.722,0.176c-0.234,0.059-0.469,0.11-0.701,0.18
	c-0.238,0.072-0.467,0.161-0.699,0.245c-0.229,0.082-0.46,0.158-0.686,0.251c-0.218,0.09-0.427,0.197-0.639,0.297
	c-0.231,0.109-0.464,0.211-0.69,0.332c-0.205,0.11-0.399,0.235-0.599,0.354c-0.221,0.132-0.444,0.257-0.659,0.401
	c-0.223,0.149-0.434,0.315-0.648,0.477c-0.176,0.132-0.358,0.255-0.529,0.396c-0.383,0.314-0.753,0.646-1.103,0.997l-44.997,44.998
	c-5.858,5.858-5.858,15.355,0,21.213c5.857,5.858,15.355,5.858,21.213,0L150,141.215v58.746H70c-22.056,0-40-17.944-40-40
	c0-22.056,17.944-40,40-40h5c8.284,0,15-6.716,15-15V95c0-35.841,29.159-65,65-65c29.664,0,55.547,20.029,62.944,48.707
	c1.709,6.625,7.683,11.254,14.524,11.254H245c30.327,0,55,24.673,55,55C300,175.288,275.327,199.961,245,199.961z"/>
<g>
</g>
<g>
</g>
<g>
</g>
<g>
</g>
<g>
</g>
<g>
</g>
<g>
</g>
<g>
</g>
<g>
</g>
<g>
</g>
<g>
</g>
<g>
</g>
<g>
</g>
<g>
</g>
<g>
</g>
</svg>
