<?xml version="1.0" encoding="iso-8859-1"?>
<!-- Generator: Adobe Illustrator 19.0.0, SVG Export Plug-In . SVG Version: 6.00 Build 0)  -->
<svg version="1.1" id="Layer_1" xmlns="http://www.w3.org/2000/svg" xmlns:xlink="http://www.w3.org/1999/xlink" x="0px" y="0px"
	 viewBox="0 0 330 330" style="enable-background:new 0 0 330 330;" xml:space="preserve">
<path id="XMLID_106_" d="M245,59.963h-1.667C229.162,24.138,194.357,0.002,155,0.002c-50.928,0-92.626,40.283-94.902,90.659
	C26.17,95.484,0,124.724,0,159.963c0,38.598,31.402,70,70,70h80v48.822l-19.394-19.394c-5.857-5.858-15.355-5.858-21.213,0
	c-5.858,5.858-5.858,15.355,0,21.213l44.998,44.998c0.351,0.35,0.719,0.683,1.103,0.997c0.169,0.138,0.347,0.258,0.52,0.388
	c0.218,0.164,0.432,0.333,0.659,0.484c0.212,0.142,0.432,0.265,0.649,0.395c0.202,0.121,0.4,0.248,0.608,0.359
	c0.223,0.12,0.453,0.221,0.681,0.328c0.215,0.102,0.427,0.21,0.648,0.301c0.223,0.092,0.45,0.167,0.676,0.247
	c0.236,0.085,0.468,0.175,0.709,0.248c0.226,0.068,0.456,0.119,0.685,0.176c0.246,0.062,0.489,0.131,0.739,0.181
	c0.263,0.052,0.529,0.083,0.794,0.121c0.219,0.031,0.435,0.073,0.658,0.095c0.492,0.048,0.986,0.075,1.48,0.075
	c0.494,0,0.988-0.026,1.479-0.075c0.226-0.022,0.444-0.064,0.667-0.096c0.262-0.037,0.524-0.068,0.784-0.12
	c0.255-0.05,0.503-0.121,0.754-0.184c0.223-0.057,0.448-0.105,0.669-0.172c0.246-0.075,0.483-0.167,0.724-0.253
	c0.221-0.08,0.444-0.152,0.662-0.242c0.225-0.093,0.44-0.202,0.659-0.306c0.225-0.106,0.452-0.206,0.672-0.324
	c0.21-0.112,0.408-0.239,0.611-0.361c0.217-0.13,0.437-0.252,0.648-0.394c0.222-0.148,0.431-0.314,0.644-0.473
	c0.179-0.134,0.362-0.258,0.536-0.4c0.365-0.3,0.714-0.617,1.049-0.949c0.016-0.016,0.034-0.028,0.049-0.044l45.001-45
	c5.858-5.858,5.858-15.355,0.001-21.213c-5.859-5.858-15.355-5.857-21.213,0L180,278.785v-48.822h65c46.869,0,85-38.131,85-85
	S291.869,59.963,245,59.963z M245,199.963h-65V105c0-8.284-6.716-15-15-15c-8.284,0-15,6.716-15,15v94.963H70
	c-22.056,0-40-17.944-40-40c0-22.056,17.944-40,40-40h5c8.284,0,15-6.716,15-15v-9.961c0-35.841,29.159-65,65-65
	c29.664,0,55.547,20.029,62.944,48.707c1.708,6.625,7.683,11.254,14.525,11.254H245c30.327,0,55,24.673,55,55
	C300,175.29,275.327,199.963,245,199.963z"/>
<g>
</g>
<g>
</g>
<g>
</g>
<g>
</g>
<g>
</g>
<g>
</g>
<g>
</g>
<g>
</g>
<g>
</g>
<g>
</g>
<g>
</g>
<g>
</g>
<g>
</g>
<g>
</g>
<g>
</g>
</svg>
