<?xml version="1.0" encoding="iso-8859-1"?>
<!-- Generator: Adobe Illustrator 19.0.0, SVG Export Plug-In . SVG Version: 6.00 Build 0)  -->
<svg version="1.1" id="Layer_1" xmlns="http://www.w3.org/2000/svg" xmlns:xlink="http://www.w3.org/1999/xlink" x="0px" y="0px"
	 viewBox="0 0 330 330" style="enable-background:new 0 0 330 330;" xml:space="preserve">
<path id="XMLID_2_" d="M297.764,178.434C317.154,165.742,330,143.843,330,118.987c0-38.928-31.491-70.64-70.335-71.006
	C247.42,19.229,219.01,0,186.975,0c-43.568,0-79.014,35.444-79.014,79.012v33.52c-27.445,15.708-46.35,44.708-47.863,78.167
	C26.17,195.521,0,224.761,0,260c0,38.598,31.401,70,70,70h175c46.869,0,85-38.131,85-85
	C330,218.056,317.383,194.018,297.764,178.434z M137.961,79.012c0-27.025,21.987-49.012,49.014-49.012
	c22.368,0,41.885,15.101,47.462,36.724c1.708,6.624,7.683,11.254,14.524,11.254h10.027c22.614,0,41.012,18.397,41.012,41.01
	C300,141.602,281.603,160,258.988,160H245h-1.667c-14.171-35.825-48.977-59.96-88.333-59.96c-5.815,0-11.509,0.531-17.039,1.537
	V79.012z M245,300H70c-22.056,0-40-17.944-40-40s17.944-40,40-40h5c8.284,0,15-6.716,15-15v-9.96c0-35.841,29.159-65,65-65
	c29.664,0,55.548,20.029,62.944,48.706c1.709,6.625,7.683,11.254,14.524,11.254H245c30.327,0,55,24.673,55,55S275.327,300,245,300z"
	/>
<g>
</g>
<g>
</g>
<g>
</g>
<g>
</g>
<g>
</g>
<g>
</g>
<g>
</g>
<g>
</g>
<g>
</g>
<g>
</g>
<g>
</g>
<g>
</g>
<g>
</g>
<g>
</g>
<g>
</g>
</svg>
