<?xml version="1.0" encoding="iso-8859-1"?>
<!-- Generator: Adobe Illustrator 19.0.0, SVG Export Plug-In . SVG Version: 6.00 Build 0)  -->
<svg version="1.1" id="Capa_1" xmlns="http://www.w3.org/2000/svg" xmlns:xlink="http://www.w3.org/1999/xlink" x="0px" y="0px"
	 viewBox="0 0 354.325 354.325" style="enable-background:new 0 0 354.325 354.325;" xml:space="preserve">
<path d="M293.768,125.466l-41.577-17.221l17.222-41.577c3.17-7.653-0.465-16.428-8.118-19.599L150.427,1.146
	C142.774-2.024,134,1.61,130.829,9.264l-17.223,41.578L72.038,33.624c-7.654-3.169-16.428,0.464-19.599,8.118
	c-3.17,7.654,0.464,16.428,8.118,19.599l152.059,62.984H87.163c-8.284,0-15,6.716-15,15v200c0,8.284,6.716,15,15,15h180
	c8.284,0,15-6.716,15-15V153.131l0.125,0.052c1.878,0.777,3.821,1.146,5.734,1.146c5.886,0,11.472-3.487,13.864-9.264
	C305.056,137.411,301.421,128.637,293.768,125.466z M152.805,34.603l83.152,34.443l-11.481,27.718L141.323,62.32L152.805,34.603z
	 M252.163,324.325h-150v-170h150V324.325z"/>
<g>
</g>
<g>
</g>
<g>
</g>
<g>
</g>
<g>
</g>
<g>
</g>
<g>
</g>
<g>
</g>
<g>
</g>
<g>
</g>
<g>
</g>
<g>
</g>
<g>
</g>
<g>
</g>
<g>
</g>
</svg>
