<?xml version="1.0" encoding="iso-8859-1"?>
<!-- Generator: Adobe Illustrator 19.0.0, SVG Export Plug-In . SVG Version: 6.00 Build 0)  -->
<svg version="1.1" id="Layer_1" xmlns="http://www.w3.org/2000/svg" xmlns:xlink="http://www.w3.org/1999/xlink" x="0px" y="0px"
	 viewBox="0 0 330 330" style="enable-background:new 0 0 330 330;" xml:space="preserve">
<g id="XMLID_16_">
	<path id="XMLID_17_" d="M195,270c3.95,0,7.81-1.6,10.609-4.39c2.79-2.79,4.391-6.66,4.391-10.61c0-3.95-1.601-7.81-4.391-10.61
		C202.81,241.6,198.95,240,195,240s-7.811,1.6-10.61,4.39c-2.79,2.79-4.39,6.66-4.39,10.61c0,3.95,1.6,7.82,4.39,10.61
		C187.189,268.4,191.05,270,195,270z"/>
	<path id="XMLID_18_" d="M255,270c3.95,0,7.81-1.6,10.6-4.39c2.8-2.8,4.4-6.66,4.4-10.61c0-3.95-1.601-7.81-4.4-10.61
		c-2.79-2.79-6.649-4.39-10.6-4.39s-7.82,1.6-10.61,4.39c-2.79,2.8-4.39,6.66-4.39,10.61c0,3.95,1.6,7.81,4.39,10.61
		C247.189,268.4,251.05,270,255,270z"/>
	<path id="XMLID_19_" d="M154.389,145.603c0.35,0.351,0.719,0.683,1.103,0.998c0.169,0.138,0.347,0.258,0.52,0.388
		c0.218,0.163,0.432,0.333,0.658,0.484c0.212,0.142,0.433,0.265,0.649,0.395c0.203,0.121,0.4,0.248,0.609,0.359
		c0.223,0.12,0.453,0.221,0.681,0.328c0.215,0.102,0.427,0.209,0.648,0.301c0.223,0.092,0.45,0.167,0.676,0.247
		c0.236,0.085,0.468,0.175,0.709,0.248c0.226,0.068,0.456,0.119,0.685,0.176c0.246,0.062,0.489,0.131,0.739,0.181
		c0.263,0.052,0.529,0.083,0.794,0.121c0.22,0.031,0.436,0.073,0.658,0.095c0.492,0.048,0.986,0.075,1.48,0.075
		c0.494,0,0.987-0.026,1.479-0.075c0.227-0.022,0.446-0.064,0.671-0.097c0.26-0.038,0.52-0.068,0.778-0.119
		c0.257-0.051,0.507-0.121,0.759-0.185c0.222-0.056,0.445-0.105,0.664-0.171c0.248-0.075,0.487-0.167,0.729-0.255
		c0.22-0.079,0.441-0.151,0.657-0.24c0.227-0.094,0.443-0.204,0.663-0.308c0.224-0.105,0.449-0.205,0.668-0.321
		c0.211-0.113,0.41-0.241,0.614-0.363c0.216-0.129,0.435-0.251,0.646-0.392c0.223-0.149,0.433-0.315,0.647-0.476
		c0.177-0.133,0.359-0.256,0.532-0.398c0.365-0.299,0.715-0.617,1.05-0.949c0.016-0.016,0.033-0.029,0.049-0.044l50.002-49.998
		c5.857-5.857,5.858-15.355,0.001-21.213c-5.859-5.859-15.356-5.858-21.214-0.001l-24.396,24.394V15c0-8.284-6.716-15-15-15
		c-8.284,0-15,6.716-15,15v83.786l-24.392-24.391c-5.857-5.858-15.355-5.858-21.213,0c-5.858,5.858-5.858,15.355,0,21.213
		L154.389,145.603z"/>
	<path id="XMLID_20_" d="M315,180H15c-8.284,0-15,6.716-15,15v120c0,8.284,6.716,15,15,15h300c8.284,0,15-6.716,15-15V195
		C330,186.716,323.284,180,315,180z M300,300H30v-90h270V300z"/>
</g>
<g>
</g>
<g>
</g>
<g>
</g>
<g>
</g>
<g>
</g>
<g>
</g>
<g>
</g>
<g>
</g>
<g>
</g>
<g>
</g>
<g>
</g>
<g>
</g>
<g>
</g>
<g>
</g>
<g>
</g>
</svg>
