<?xml version="1.0" encoding="iso-8859-1"?>
<!-- Generator: Adobe Illustrator 19.0.0, SVG Export Plug-In . SVG Version: 6.00 Build 0)  -->
<svg version="1.1" id="Layer_1" xmlns="http://www.w3.org/2000/svg" xmlns:xlink="http://www.w3.org/1999/xlink" x="0px" y="0px"
	 viewBox="0 0 210 210" style="enable-background:new 0 0 210 210;" xml:space="preserve">
<g id="XMLID_2_">
	<path id="XMLID_4_" d="M75,0H15C6.716,0,0,6.716,0,15v60c0,8.284,6.716,15,15,15h60c8.284,0,15-6.716,15-15V15
		C90,6.716,83.284,0,75,0z M60,60H30V30h30V60z"/>
	<path id="XMLID_7_" d="M75,120H15c-8.284,0-15,6.716-15,15v60c0,8.284,6.716,15,15,15h60c8.284,0,15-6.716,15-15v-60
		C90,126.716,83.284,120,75,120z M60,180H30v-30h30V180z"/>
	<path id="XMLID_10_" d="M195,0h-60c-8.284,0-15,6.716-15,15v60c0,8.284,6.716,15,15,15h60c8.284,0,15-6.716,15-15V15
		C210,6.716,203.284,0,195,0z M180,60h-30V30h30V60z"/>
	<path id="XMLID_13_" d="M195,120h-60c-8.284,0-15,6.716-15,15v60c0,8.284,6.716,15,15,15h60c8.284,0,15-6.716,15-15v-60
		C210,126.716,203.284,120,195,120z M180,180h-30v-30h30V180z"/>
</g>
<g>
</g>
<g>
</g>
<g>
</g>
<g>
</g>
<g>
</g>
<g>
</g>
<g>
</g>
<g>
</g>
<g>
</g>
<g>
</g>
<g>
</g>
<g>
</g>
<g>
</g>
<g>
</g>
<g>
</g>
</svg>
