<?xml version="1.0" encoding="iso-8859-1"?>
<!-- Generator: Adobe Illustrator 19.0.0, SVG Export Plug-In . SVG Version: 6.00 Build 0)  -->
<svg version="1.1" id="Layer_1" xmlns="http://www.w3.org/2000/svg" xmlns:xlink="http://www.w3.org/1999/xlink" x="0px" y="0px"
	 viewBox="0 0 437.716 437.716" style="enable-background:new 0 0 437.716 437.716;" xml:space="preserve">
<g id="XMLID_10_">
	<path id="XMLID_11_" d="M184.359,151.128c3.88,0,7.697-1.506,10.563-4.347l60.834-60.294c0.041-0.04,0.076-0.086,0.117-0.127
		c0.084-0.086,0.161-0.179,0.244-0.267c0.25-0.266,0.497-0.533,0.726-0.815c0.076-0.094,0.144-0.196,0.218-0.292
		c0.223-0.289,0.443-0.579,0.644-0.882c0.067-0.101,0.124-0.209,0.189-0.312c0.196-0.312,0.388-0.625,0.56-0.95
		c0.051-0.096,0.093-0.198,0.142-0.295c0.173-0.347,0.341-0.695,0.487-1.053c0.031-0.077,0.055-0.157,0.085-0.234
		c0.152-0.392,0.293-0.788,0.413-1.192c0.017-0.06,0.03-0.122,0.046-0.181c0.12-0.428,0.225-0.861,0.307-1.3
		c0.003-0.016,0.008-0.031,0.011-0.046c0.011-0.058,0.013-0.116,0.023-0.174c0.072-0.417,0.13-0.837,0.167-1.262
		c0.01-0.123,0.012-0.245,0.02-0.367c0.017-0.279,0.044-0.556,0.045-0.837c0-0.089-0.011-0.177-0.012-0.267
		c-0.002-0.162-0.014-0.322-0.022-0.484c-0.015-0.328-0.033-0.656-0.069-0.981c-0.02-0.178-0.051-0.352-0.077-0.529
		c-0.045-0.308-0.093-0.614-0.157-0.918c-0.038-0.175-0.085-0.346-0.129-0.519c-0.075-0.302-0.152-0.603-0.246-0.899
		c-0.05-0.158-0.11-0.312-0.165-0.468c-0.108-0.306-0.218-0.609-0.346-0.907c-0.058-0.135-0.125-0.266-0.186-0.399
		c-0.143-0.309-0.29-0.615-0.454-0.914c-0.064-0.117-0.136-0.228-0.203-0.343c-0.177-0.303-0.356-0.603-0.555-0.893
		c-0.075-0.11-0.158-0.213-0.236-0.321c-0.204-0.282-0.409-0.562-0.633-0.83c-0.098-0.118-0.205-0.227-0.307-0.342
		c-0.183-0.206-0.357-0.418-0.551-0.614L195.557,4.441c-4.271-4.309-10.717-5.621-16.332-3.325
		c-5.616,2.297-9.294,7.75-9.322,13.817l-0.229,51.273c-33.509,10.809-63.264,32.542-83.778,62.946
		c-23.302,34.539-32.201,76.16-25.056,117.196c7.124,40.918,29.424,76.992,62.794,101.578c2.679,1.974,5.795,2.925,8.885,2.925
		c4.604,0,9.148-2.113,12.088-6.104c4.914-6.669,3.491-16.06-3.179-20.974C85.002,282.2,71.533,204.082,110.766,145.931
		c14.744-21.854,35.361-38.197,58.766-47.769l-0.169,37.898c-0.027,6.067,3.603,11.553,9.198,13.899
		C180.434,150.746,182.404,151.128,184.359,151.128z"/>
	<path id="XMLID_12_" d="M376.878,191.373c-7.121-40.914-29.417-76.987-62.783-101.575c-6.67-4.915-16.06-3.493-20.974,3.176
		c-4.915,6.669-3.493,16.06,3.177,20.974c56.417,41.576,69.881,119.691,30.651,177.835c-14.743,21.851-35.354,38.199-58.754,47.771
		l0.17-37.897c0.027-6.066-3.603-11.552-9.198-13.899c-5.594-2.348-12.051-1.093-16.361,3.178l-60.838,60.29
		c-0.034,0.034-0.063,0.071-0.096,0.105c-0.146,0.146-0.279,0.305-0.419,0.458c-0.187,0.206-0.379,0.408-0.554,0.622
		c-0.14,0.172-0.266,0.355-0.398,0.534c-0.157,0.211-0.32,0.418-0.465,0.637c-0.124,0.188-0.234,0.386-0.351,0.58
		c-0.136,0.226-0.277,0.448-0.4,0.68c-0.095,0.18-0.176,0.368-0.264,0.553c-0.127,0.263-0.256,0.523-0.367,0.793
		c-0.062,0.152-0.112,0.311-0.169,0.466c-0.118,0.316-0.234,0.633-0.331,0.957c-0.038,0.128-0.065,0.26-0.1,0.39
		c-0.097,0.359-0.187,0.72-0.257,1.086c-0.006,0.03-0.016,0.059-0.021,0.089c-0.021,0.112-0.026,0.222-0.044,0.333
		c-0.056,0.35-0.108,0.7-0.139,1.054c-0.017,0.191-0.021,0.381-0.031,0.572c-0.011,0.226-0.036,0.45-0.037,0.678
		c-0.001,0.072,0.009,0.144,0.01,0.216c0.002,0.234,0.019,0.465,0.031,0.698c0.015,0.255,0.026,0.509,0.054,0.762
		c0.027,0.253,0.069,0.501,0.108,0.75c0.037,0.232,0.071,0.464,0.119,0.694c0.052,0.252,0.119,0.499,0.184,0.746
		c0.059,0.225,0.115,0.451,0.184,0.672c0.074,0.236,0.161,0.466,0.247,0.698c0.084,0.228,0.164,0.455,0.259,0.678
		c0.091,0.214,0.194,0.422,0.295,0.632c0.11,0.229,0.218,0.46,0.339,0.684c0.107,0.197,0.227,0.387,0.343,0.579
		c0.134,0.223,0.266,0.446,0.412,0.662c0.13,0.192,0.273,0.375,0.412,0.561c0.149,0.2,0.294,0.402,0.454,0.596
		c0.169,0.204,0.351,0.396,0.53,0.591c0.124,0.134,0.237,0.277,0.366,0.407l60.297,60.836c2.873,2.898,6.73,4.441,10.657,4.441
		c1.91,0,3.837-0.365,5.675-1.117c5.616-2.297,9.294-7.75,9.322-13.817l0.229-51.267c33.506-10.811,63.255-32.553,83.766-62.955
		C375.12,274.026,384.02,232.407,376.878,191.373z"/>
</g>
<g>
</g>
<g>
</g>
<g>
</g>
<g>
</g>
<g>
</g>
<g>
</g>
<g>
</g>
<g>
</g>
<g>
</g>
<g>
</g>
<g>
</g>
<g>
</g>
<g>
</g>
<g>
</g>
<g>
</g>
</svg>
