<?xml version="1.0" encoding="iso-8859-1"?>
<!-- Generator: Adobe Illustrator 19.0.0, SVG Export Plug-In . SVG Version: 6.00 Build 0)  -->
<svg version="1.1" id="Layer_1" xmlns="http://www.w3.org/2000/svg" xmlns:xlink="http://www.w3.org/1999/xlink" x="0px" y="0px"
	 viewBox="0 0 330 330" style="enable-background:new 0 0 330 330;" xml:space="preserve">
<g id="XMLID_2_">
	<path id="XMLID_4_" d="M195,270c3.95,0,7.82-1.6,10.61-4.39c2.79-2.8,4.39-6.66,4.39-10.61c0-3.95-1.6-7.82-4.39-10.61
		c-2.79-2.79-6.66-4.39-10.61-4.39c-3.95,0-7.81,1.6-10.61,4.39c-2.79,2.79-4.39,6.66-4.39,10.61c0,3.95,1.6,7.81,4.39,10.61
		C187.189,268.4,191.049,270,195,270z"/>
	<path id="XMLID_5_" d="M255,270c3.95,0,7.81-1.6,10.61-4.39c2.79-2.8,4.39-6.66,4.39-10.61c0-3.95-1.6-7.81-4.39-10.61
		c-2.8-2.79-6.66-4.39-10.61-4.39c-3.95,0-7.81,1.6-10.61,4.39c-2.79,2.8-4.39,6.66-4.39,10.61c0,3.95,1.6,7.82,4.39,10.61
		C247.189,268.4,251.049,270,255,270z"/>
	<path id="XMLID_6_" d="M125.608,75.604l24.395-24.393v83.788c0,8.284,6.716,15,15,15s15-6.716,15-15V51.213l24.393,24.392
		c2.929,2.929,6.768,4.393,10.606,4.393c3.839,0,7.678-1.464,10.607-4.394c5.857-5.858,5.857-15.355-0.001-21.213L175.609,4.393
		c-0.016-0.016-0.034-0.029-0.049-0.044c-0.335-0.332-0.684-0.649-1.049-0.949c-0.174-0.143-0.358-0.267-0.537-0.401
		c-0.213-0.159-0.421-0.324-0.642-0.472c-0.212-0.142-0.432-0.265-0.649-0.395c-0.203-0.121-0.401-0.248-0.61-0.36
		c-0.22-0.118-0.447-0.217-0.671-0.323c-0.219-0.104-0.435-0.213-0.66-0.306c-0.216-0.089-0.437-0.162-0.656-0.24
		c-0.243-0.087-0.482-0.18-0.73-0.255c-0.216-0.065-0.436-0.113-0.654-0.169c-0.256-0.065-0.509-0.136-0.77-0.188
		c-0.247-0.049-0.497-0.077-0.746-0.114c-0.235-0.034-0.467-0.079-0.705-0.102c-0.446-0.044-0.895-0.064-1.343-0.068
		C165.091,0.006,165.048,0,165.003,0s-0.088,0.006-0.133,0.007c-0.448,0.004-0.896,0.024-1.343,0.068
		c-0.238,0.023-0.47,0.067-0.705,0.102c-0.249,0.037-0.499,0.065-0.746,0.114c-0.261,0.052-0.514,0.123-0.77,0.188
		c-0.218,0.055-0.438,0.103-0.654,0.169c-0.248,0.075-0.488,0.168-0.73,0.255c-0.219,0.079-0.441,0.151-0.656,0.24
		c-0.225,0.093-0.44,0.202-0.66,0.306c-0.225,0.106-0.451,0.206-0.671,0.323c-0.209,0.112-0.407,0.239-0.61,0.36
		c-0.217,0.13-0.437,0.253-0.649,0.395c-0.221,0.148-0.429,0.313-0.642,0.472c-0.179,0.134-0.363,0.258-0.537,0.401
		c-0.365,0.299-0.714,0.617-1.049,0.949c-0.016,0.016-0.033,0.028-0.049,0.044l-50.001,49.997
		c-5.858,5.857-5.858,15.355-0.001,21.213C110.253,81.462,119.751,81.462,125.608,75.604z"/>
	<path id="XMLID_7_" d="M315,180H15c-8.284,0-15,6.716-15,15v120c0,8.284,6.716,15,15,15h300c8.284,0,15-6.716,15-15V195
		C330,186.716,323.284,180,315,180z M300,300H30v-90h270V300z"/>
</g>
<g>
</g>
<g>
</g>
<g>
</g>
<g>
</g>
<g>
</g>
<g>
</g>
<g>
</g>
<g>
</g>
<g>
</g>
<g>
</g>
<g>
</g>
<g>
</g>
<g>
</g>
<g>
</g>
<g>
</g>
</svg>
